<svg width="320" height="160" viewBox="0 0 320 160" fill="none" xmlns="http://www.w3.org/2000/svg">
<rect width="320" height="160" fill="white"/>
<path d="M114.384 50.112C114.384 50.368 114.336 50.672 114.24 51.024C114.155 51.376 114.085 51.7067 114.032 52.016C114.213 51.92 114.4 51.8187 114.592 51.712C114.784 51.5947 114.965 51.488 115.136 51.392C115.317 51.2853 115.488 51.2 115.648 51.136C115.808 51.072 115.952 51.04 116.08 51.04C116.219 51.04 116.357 51.088 116.496 51.184C116.635 51.28 116.704 51.4507 116.704 51.696C116.704 51.92 116.624 52.08 116.464 52.176C116.304 52.272 116.096 52.336 115.84 52.368C115.595 52.4 115.323 52.4213 115.024 52.432C114.736 52.432 114.459 52.4533 114.192 52.496C114.363 52.6667 114.544 52.8373 114.736 53.008C114.928 53.1787 115.104 53.344 115.264 53.504C115.435 53.664 115.573 53.824 115.68 53.984C115.787 54.144 115.84 54.2933 115.84 54.432C115.84 54.5707 115.776 54.704 115.648 54.832C115.52 54.96 115.371 55.024 115.2 55.024C115.019 55.024 114.864 54.9547 114.736 54.816C114.608 54.6667 114.491 54.4853 114.384 54.272C114.277 54.048 114.176 53.808 114.08 53.552C113.984 53.2853 113.877 53.04 113.76 52.816C113.643 53.0613 113.536 53.3173 113.44 53.584C113.344 53.84 113.243 54.0747 113.136 54.288C113.029 54.5013 112.912 54.6827 112.784 54.832C112.667 54.9707 112.517 55.04 112.336 55.04C112.176 55.04 112.027 54.9813 111.888 54.864C111.76 54.736 111.696 54.5973 111.696 54.448C111.696 54.32 111.744 54.1813 111.84 54.032C111.947 53.872 112.08 53.7067 112.24 53.536C112.4 53.3653 112.571 53.1947 112.752 53.024C112.944 52.8533 113.131 52.6773 113.312 52.496C113.045 52.4533 112.763 52.432 112.464 52.432C112.176 52.4213 111.909 52.4 111.664 52.368C111.419 52.336 111.216 52.2773 111.056 52.192C110.896 52.096 110.816 51.9413 110.816 51.728C110.816 51.4827 110.88 51.312 111.008 51.216C111.136 51.1093 111.275 51.056 111.424 51.056C111.531 51.056 111.664 51.088 111.824 51.152C111.984 51.216 112.155 51.296 112.336 51.392C112.528 51.488 112.715 51.5947 112.896 51.712C113.088 51.8187 113.275 51.9147 113.456 52C113.403 51.6693 113.328 51.3387 113.232 51.008C113.147 50.6667 113.104 50.368 113.104 50.112C113.104 49.888 113.157 49.7067 113.264 49.568C113.371 49.4293 113.531 49.36 113.744 49.36C113.957 49.36 114.117 49.4293 114.224 49.568C114.331 49.696 114.384 49.8773 114.384 50.112ZM123.452 51.184C122.438 51.184 121.681 51.5147 121.18 52.176C120.86 52.592 120.609 53.1413 120.428 53.824C120.246 54.496 120.156 55.2373 120.156 56.048C120.156 56.816 120.236 57.5307 120.396 58.192C120.556 58.8427 120.78 59.392 121.068 59.84C121.356 60.288 121.702 60.6187 122.108 60.832C122.524 61.0347 123.041 61.136 123.66 61.136C124.609 61.136 125.366 60.912 125.932 60.464C126.497 60.0053 126.854 59.328 127.004 58.432H127.884C127.638 59.6907 127.158 60.6293 126.444 61.248C125.729 61.856 124.748 62.16 123.5 62.16C122.028 62.16 120.854 61.7333 119.98 60.88C119.457 60.368 119.057 59.728 118.78 58.96C118.502 58.1813 118.364 57.312 118.364 56.352C118.364 55.2747 118.54 54.304 118.892 53.44C119.244 52.5653 119.74 51.8613 120.38 51.328C121.19 50.656 122.262 50.32 123.596 50.32C123.926 50.32 124.22 50.3413 124.476 50.384C124.742 50.416 124.988 50.48 125.212 50.576C125.436 50.6613 125.644 50.7787 125.836 50.928C126.038 51.0773 126.241 51.264 126.444 51.488L126.764 50.48H127.644V54.016H126.668C126.358 52.128 125.286 51.184 123.452 51.184ZM137.029 57.6C137.029 58.304 136.922 58.9653 136.709 59.584C136.506 60.2027 136.218 60.7147 135.845 61.12C135.216 61.8133 134.288 62.16 133.061 62.16C131.866 62.16 130.954 61.824 130.325 61.152C129.962 60.7573 129.68 60.272 129.477 59.696C129.285 59.1093 129.189 58.4747 129.189 57.792C129.189 57.088 129.29 56.4213 129.493 55.792C129.696 55.1627 129.989 54.6453 130.373 54.24C130.714 53.8773 131.109 53.616 131.557 53.456C132.005 53.2853 132.528 53.2 133.125 53.2C133.712 53.2 134.24 53.2853 134.709 53.456C135.178 53.616 135.573 53.8667 135.893 54.208C136.266 54.6027 136.549 55.0987 136.741 55.696C136.933 56.2827 137.029 56.9173 137.029 57.6ZM130.901 57.616C130.901 58.896 131.093 59.8507 131.477 60.48C131.658 60.7573 131.872 60.9707 132.117 61.12C132.373 61.2587 132.704 61.328 133.109 61.328C133.845 61.328 134.394 61.0773 134.757 60.576C134.949 60.2987 135.088 59.9147 135.173 59.424C135.269 58.9333 135.317 58.368 135.317 57.728C135.317 56.4587 135.125 55.5093 134.741 54.88C134.56 54.6027 134.341 54.3947 134.085 54.256C133.829 54.1067 133.498 54.032 133.093 54.032C132.346 54.032 131.808 54.2773 131.477 54.768C131.093 55.3653 130.901 56.3147 130.901 57.616ZM139.574 54.32L138.342 54.016V53.36H140.646L140.998 54.96H141.062C141.371 54.416 141.782 53.9893 142.294 53.68C142.816 53.36 143.371 53.2 143.958 53.2C144.406 53.2 144.795 53.2853 145.126 53.456C145.467 53.616 145.718 53.8187 145.878 54.064C146.048 54.3307 146.187 54.6827 146.294 55.12C146.635 54.512 147.078 54.0427 147.622 53.712C148.166 53.3707 148.747 53.2 149.366 53.2C149.792 53.2 150.176 53.2853 150.518 53.456C150.859 53.616 151.12 53.84 151.302 54.128C151.398 54.2773 151.478 54.4587 151.542 54.672C151.606 54.8853 151.659 55.152 151.702 55.472C151.744 55.7813 151.771 56.1493 151.782 56.576C151.803 57.0027 151.814 57.504 151.814 58.08V61.04L153.046 61.344V62H149.19V61.344L150.262 61.04V57.472C150.262 56.7893 150.24 56.2773 150.198 55.936C150.166 55.584 150.102 55.312 150.006 55.12C149.739 54.5973 149.291 54.336 148.662 54.336C148.384 54.336 148.118 54.3893 147.862 54.496C147.616 54.6027 147.392 54.7467 147.19 54.928C146.955 55.1413 146.779 55.392 146.662 55.68C146.555 55.9573 146.491 56.32 146.47 56.768V61.04L147.542 61.344V62H143.846V61.344L144.918 61.04V57.472C144.918 56.7893 144.896 56.2773 144.854 55.936C144.822 55.584 144.758 55.312 144.662 55.12C144.395 54.5973 143.947 54.336 143.318 54.336C143.04 54.336 142.774 54.3893 142.518 54.496C142.272 54.6027 142.048 54.7467 141.846 54.928C141.611 55.1413 141.435 55.392 141.318 55.68C141.211 55.9573 141.147 56.32 141.126 56.768V61.04L142.198 61.344V62H138.342V61.344L139.574 61.04V54.32ZM155.167 54.32L153.935 54.016V53.36H156.239L156.591 54.96H156.655C156.965 54.416 157.375 53.9893 157.887 53.68C158.41 53.36 158.965 53.2 159.551 53.2C159.999 53.2 160.389 53.2853 160.719 53.456C161.061 53.616 161.311 53.8187 161.471 54.064C161.642 54.3307 161.781 54.6827 161.887 55.12C162.229 54.512 162.671 54.0427 163.215 53.712C163.759 53.3707 164.341 53.2 164.959 53.2C165.386 53.2 165.77 53.2853 166.111 53.456C166.453 53.616 166.714 53.84 166.895 54.128C166.991 54.2773 167.071 54.4587 167.135 54.672C167.199 54.8853 167.253 55.152 167.295 55.472C167.338 55.7813 167.365 56.1493 167.375 56.576C167.397 57.0027 167.407 57.504 167.407 58.08V61.04L168.639 61.344V62H164.783V61.344L165.855 61.04V57.472C165.855 56.7893 165.834 56.2773 165.791 55.936C165.759 55.584 165.695 55.312 165.599 55.12C165.333 54.5973 164.885 54.336 164.255 54.336C163.978 54.336 163.711 54.3893 163.455 54.496C163.21 54.6027 162.986 54.7467 162.783 54.928C162.549 55.1413 162.373 55.392 162.255 55.68C162.149 55.9573 162.085 56.32 162.063 56.768V61.04L163.135 61.344V62H159.439V61.344L160.511 61.04V57.472C160.511 56.7893 160.49 56.2773 160.447 55.936C160.415 55.584 160.351 55.312 160.255 55.12C159.989 54.5973 159.541 54.336 158.911 54.336C158.634 54.336 158.367 54.3893 158.111 54.496C157.866 54.6027 157.642 54.7467 157.439 54.928C157.205 55.1413 157.029 55.392 156.911 55.68C156.805 55.9573 156.741 56.32 156.719 56.768V61.04L157.791 61.344V62H153.935V61.344L155.167 61.04V54.32ZM172.041 57.888C172.041 58.2293 172.046 58.528 172.057 58.784C172.068 59.04 172.078 59.2587 172.089 59.44C172.11 59.6213 172.137 59.776 172.169 59.904C172.201 60.032 172.244 60.144 172.297 60.24C172.542 60.7627 172.99 61.024 173.641 61.024C173.929 61.024 174.206 60.9707 174.473 60.864C174.74 60.7573 174.974 60.6133 175.177 60.432C175.412 60.2187 175.582 59.9733 175.689 59.696C175.806 59.408 175.876 59.04 175.897 58.592V54.32L174.505 54.016V53.36H177.449V61.04L178.681 61.344V62L176.201 62.16L176.025 60.4H175.961C175.652 60.944 175.23 61.376 174.697 61.696C174.164 62.0053 173.593 62.16 172.985 62.16C172.58 62.16 172.206 62.0853 171.865 61.936C171.534 61.7867 171.273 61.5733 171.081 61.296C170.868 60.9973 170.713 60.5813 170.617 60.048C170.532 59.504 170.489 58.7733 170.489 57.856V54.32L169.417 54.016V53.36H172.041V57.888ZM180.886 54.32L179.654 54.016V53.36H181.958L182.31 54.96H182.374C182.694 54.416 183.121 53.9893 183.654 53.68C184.198 53.36 184.785 53.2 185.414 53.2C185.841 53.2 186.225 53.2747 186.566 53.424C186.907 53.5733 187.179 53.7867 187.382 54.064C187.595 54.3627 187.745 54.784 187.83 55.328C187.926 55.8613 187.974 56.5867 187.974 57.504V61.04L189.206 61.344V62H185.35V61.344L186.422 61.04V57.472C186.422 56.7893 186.401 56.2773 186.358 55.936C186.326 55.584 186.262 55.312 186.166 55.12C185.899 54.5973 185.43 54.336 184.758 54.336C184.459 54.336 184.171 54.3893 183.894 54.496C183.617 54.6027 183.371 54.7467 183.158 54.928C182.923 55.1413 182.747 55.392 182.63 55.68C182.523 55.9573 182.459 56.32 182.438 56.768V61.04L183.51 61.344V62H179.654V61.344L180.886 61.04V54.32ZM190.139 54.016V53.36H192.923V61.04L194.155 61.344V62H190.139V61.344L191.371 61.04V54.32L190.139 54.016ZM191.147 50.784C191.147 50.4747 191.232 50.2293 191.403 50.048C191.584 49.8667 191.829 49.776 192.139 49.776C192.448 49.776 192.693 49.8667 192.875 50.048C193.056 50.2293 193.147 50.4747 193.147 50.784C193.147 51.0933 193.056 51.3387 192.875 51.52C192.693 51.6907 192.448 51.776 192.139 51.776C191.829 51.776 191.584 51.6907 191.403 51.52C191.232 51.3387 191.147 51.0933 191.147 50.784ZM194.691 53.584L196.243 53.36L196.451 51.344L197.795 51.152V53.36H199.843V54.16H197.795V59.872C197.795 60.2347 197.8 60.4853 197.811 60.624C197.822 60.752 197.843 60.8587 197.875 60.944C197.907 61.0293 197.966 61.0827 198.051 61.104C198.136 61.1253 198.275 61.136 198.467 61.136H199.587V61.6C199.075 61.792 198.622 61.9307 198.227 62.016C197.843 62.112 197.534 62.16 197.299 62.16C196.819 62.16 196.51 61.9627 196.371 61.568C196.318 61.44 196.28 61.28 196.259 61.088C196.248 60.8853 196.243 60.5813 196.243 60.176V54.16H194.691V53.584ZM205.568 61.616C205.344 62.2347 205.136 62.7627 204.944 63.2C204.763 63.6373 204.571 63.9893 204.368 64.256C204.165 64.5333 203.936 64.7307 203.68 64.848C203.435 64.976 203.136 65.04 202.784 65.04C202.528 65.04 202.288 65.0027 202.064 64.928C201.851 64.864 201.659 64.768 201.488 64.64C201.328 64.512 201.2 64.3627 201.104 64.192C201.008 64.0213 200.96 63.8347 200.96 63.632C200.96 63.3333 201.045 63.0827 201.216 62.88C201.387 62.688 201.611 62.592 201.888 62.592C202.133 62.592 202.325 62.656 202.464 62.784C202.613 62.9227 202.688 63.1093 202.688 63.344C202.688 63.4933 202.656 63.6373 202.592 63.776C202.539 63.9147 202.464 64.0373 202.368 64.144C202.389 64.2613 202.448 64.336 202.544 64.368C202.651 64.4 202.747 64.416 202.832 64.416C202.939 64.416 203.04 64.4 203.136 64.368C203.243 64.336 203.344 64.256 203.44 64.128C203.547 64.0107 203.653 63.84 203.76 63.616C203.877 63.392 204 63.088 204.128 62.704L204.32 62.112L201.008 54.32L200.048 54.016V53.36H203.632L203.76 54.016L202.624 54.32L205.008 60.592H205.072L207.088 54.32L206.16 54.016V53.36H209.2V54.016L208.224 54.32L205.568 61.616ZM123.261 80.176C122.621 80.176 122.045 80.08 121.533 79.888C121.021 79.696 120.594 79.424 120.253 79.072L120.077 80H119.181V76.368H120.157C120.221 77.392 120.472 78.1387 120.909 78.608C121.357 79.0667 122.04 79.296 122.957 79.296C124.482 79.296 125.245 78.7147 125.245 77.552C125.245 77.2107 125.176 76.912 125.037 76.656C124.909 76.4 124.722 76.1707 124.477 75.968C124.232 75.7547 123.928 75.5627 123.565 75.392C123.213 75.2107 122.813 75.0293 122.365 74.848C121.853 74.6453 121.4 74.448 121.005 74.256C120.621 74.0533 120.296 73.8293 120.029 73.584C119.773 73.328 119.576 73.04 119.437 72.72C119.298 72.3893 119.229 71.9893 119.229 71.52C119.229 70.5067 119.544 69.7173 120.173 69.152C120.813 68.5867 121.666 68.304 122.733 68.304C123.789 68.304 124.648 68.6027 125.309 69.2L125.437 68.48H126.333V72.112H125.421C125.421 71.0773 125.229 70.3307 124.845 69.872C124.472 69.4027 123.869 69.168 123.037 69.168C121.576 69.168 120.845 69.8347 120.845 71.168C120.845 71.4347 120.877 71.664 120.941 71.856C121.005 72.0373 121.122 72.208 121.293 72.368C121.474 72.528 121.714 72.6827 122.013 72.832C122.312 72.9813 122.696 73.1573 123.165 73.36C123.826 73.648 124.392 73.9253 124.861 74.192C125.33 74.448 125.709 74.72 125.997 75.008C126.296 75.296 126.514 75.6053 126.653 75.936C126.792 76.2667 126.861 76.64 126.861 77.056C126.861 77.5467 126.77 77.9893 126.589 78.384C126.418 78.768 126.173 79.0933 125.853 79.36C125.544 79.6267 125.165 79.8293 124.717 79.968C124.28 80.1067 123.794 80.176 123.261 80.176ZM130.791 75.888C130.791 76.2293 130.796 76.528 130.807 76.784C130.818 77.04 130.828 77.2587 130.839 77.44C130.86 77.6213 130.887 77.776 130.919 77.904C130.951 78.032 130.994 78.144 131.047 78.24C131.292 78.7627 131.74 79.024 132.391 79.024C132.679 79.024 132.956 78.9707 133.223 78.864C133.49 78.7573 133.724 78.6133 133.927 78.432C134.162 78.2187 134.332 77.9733 134.439 77.696C134.556 77.408 134.626 77.04 134.647 76.592V72.32L133.255 72.016V71.36H136.199V79.04L137.431 79.344V80L134.951 80.16L134.775 78.4H134.711C134.402 78.944 133.98 79.376 133.447 79.696C132.914 80.0053 132.343 80.16 131.735 80.16C131.33 80.16 130.956 80.0853 130.615 79.936C130.284 79.7867 130.023 79.5733 129.831 79.296C129.618 78.9973 129.463 78.5813 129.367 78.048C129.282 77.504 129.239 76.7733 129.239 75.856V72.32L128.167 72.016V71.36H130.791V75.888ZM142.564 82.224V82.88H138.228V82.224L139.46 81.92V72.32L138.228 72.016V71.36H140.532L140.772 72.592C141.113 72.0587 141.497 71.696 141.924 71.504C142.361 71.3013 142.852 71.2 143.396 71.2C143.94 71.2 144.431 71.28 144.868 71.44C145.316 71.6 145.679 71.856 145.956 72.208C146.276 72.6133 146.527 73.0987 146.708 73.664C146.9 74.2293 146.996 74.848 146.996 75.52C146.996 76.2027 146.889 76.848 146.676 77.456C146.473 78.0533 146.196 78.5547 145.844 78.96C145.247 79.6533 144.388 80 143.268 80C142.809 80 142.393 79.9147 142.02 79.744C141.657 79.5733 141.321 79.264 141.012 78.816V81.92L142.564 82.224ZM140.996 75.536C140.996 76.8053 141.183 77.7333 141.556 78.32C141.727 78.5973 141.935 78.8107 142.18 78.96C142.425 79.0987 142.751 79.168 143.156 79.168C143.881 79.168 144.42 78.9173 144.772 78.416C144.964 78.1493 145.103 77.7813 145.188 77.312C145.273 76.832 145.316 76.2773 145.316 75.648C145.316 74.4 145.129 73.4773 144.756 72.88C144.575 72.6027 144.361 72.3947 144.116 72.256C143.871 72.1067 143.545 72.032 143.14 72.032C142.767 72.032 142.447 72.096 142.18 72.224C141.913 72.3413 141.705 72.5227 141.556 72.768C141.375 73.056 141.236 73.4293 141.14 73.888C141.044 74.3467 140.996 74.896 140.996 75.536ZM152.47 82.224V82.88H148.134V82.224L149.366 81.92V72.32L148.134 72.016V71.36H150.438L150.678 72.592C151.02 72.0587 151.404 71.696 151.83 71.504C152.268 71.3013 152.758 71.2 153.302 71.2C153.846 71.2 154.337 71.28 154.774 71.44C155.222 71.6 155.585 71.856 155.862 72.208C156.182 72.6133 156.433 73.0987 156.614 73.664C156.806 74.2293 156.902 74.848 156.902 75.52C156.902 76.2027 156.796 76.848 156.582 77.456C156.38 78.0533 156.102 78.5547 155.75 78.96C155.153 79.6533 154.294 80 153.174 80C152.716 80 152.3 79.9147 151.926 79.744C151.564 79.5733 151.228 79.264 150.918 78.816V81.92L152.47 82.224ZM150.902 75.536C150.902 76.8053 151.089 77.7333 151.462 78.32C151.633 78.5973 151.841 78.8107 152.086 78.96C152.332 79.0987 152.657 79.168 153.062 79.168C153.788 79.168 154.326 78.9173 154.678 78.416C154.87 78.1493 155.009 77.7813 155.094 77.312C155.18 76.832 155.222 76.2773 155.222 75.648C155.222 74.4 155.036 73.4773 154.662 72.88C154.481 72.6027 154.268 72.3947 154.022 72.256C153.777 72.1067 153.452 72.032 153.046 72.032C152.673 72.032 152.353 72.096 152.086 72.224C151.82 72.3413 151.612 72.5227 151.462 72.768C151.281 73.056 151.142 73.4293 151.046 73.888C150.95 74.3467 150.902 74.896 150.902 75.536ZM166.217 75.6C166.217 76.304 166.11 76.9653 165.897 77.584C165.694 78.2027 165.406 78.7147 165.033 79.12C164.403 79.8133 163.475 80.16 162.249 80.16C161.054 80.16 160.142 79.824 159.513 79.152C159.15 78.7573 158.867 78.272 158.665 77.696C158.473 77.1093 158.377 76.4747 158.377 75.792C158.377 75.088 158.478 74.4213 158.681 73.792C158.883 73.1627 159.177 72.6453 159.561 72.24C159.902 71.8773 160.297 71.616 160.745 71.456C161.193 71.2853 161.715 71.2 162.313 71.2C162.899 71.2 163.427 71.2853 163.897 71.456C164.366 71.616 164.761 71.8667 165.081 72.208C165.454 72.6027 165.737 73.0987 165.929 73.696C166.121 74.2827 166.217 74.9173 166.217 75.6ZM160.089 75.616C160.089 76.896 160.281 77.8507 160.665 78.48C160.846 78.7573 161.059 78.9707 161.305 79.12C161.561 79.2587 161.891 79.328 162.297 79.328C163.033 79.328 163.582 79.0773 163.945 78.576C164.137 78.2987 164.275 77.9147 164.361 77.424C164.457 76.9333 164.505 76.368 164.505 75.728C164.505 74.4587 164.313 73.5093 163.929 72.88C163.747 72.6027 163.529 72.3947 163.273 72.256C163.017 72.1067 162.686 72.032 162.281 72.032C161.534 72.032 160.995 72.2773 160.665 72.768C160.281 73.3653 160.089 74.3147 160.089 75.616ZM172.345 72.288C172.249 72.224 172.142 72.192 172.025 72.192C171.822 72.192 171.609 72.32 171.385 72.576C171.161 72.8213 170.964 73.136 170.793 73.52C170.644 73.8827 170.526 74.2827 170.441 74.72C170.356 75.1467 170.313 75.5893 170.313 76.048V79.04L172.041 79.344V80H167.529V79.344L168.761 79.04V72.32L167.529 72.016V71.36H169.833L170.185 73.472H170.249C170.494 72.7467 170.82 72.1867 171.225 71.792C171.641 71.3973 172.105 71.2 172.617 71.2C173.033 71.2 173.38 71.3333 173.657 71.6C173.934 71.856 174.073 72.2027 174.073 72.64C174.073 72.96 173.988 73.216 173.817 73.408C173.657 73.5893 173.438 73.68 173.161 73.68C172.884 73.68 172.665 73.5947 172.505 73.424C172.345 73.2427 172.265 73.008 172.265 72.72C172.265 72.656 172.27 72.5973 172.281 72.544C172.292 72.4907 172.313 72.4053 172.345 72.288ZM174.425 71.584L175.977 71.36L176.185 69.344L177.529 69.152V71.36H179.577V72.16H177.529V77.872C177.529 78.2347 177.535 78.4853 177.545 78.624C177.556 78.752 177.577 78.8587 177.609 78.944C177.641 79.0293 177.7 79.0827 177.785 79.104C177.871 79.1253 178.009 79.136 178.201 79.136H179.321V79.6C178.809 79.792 178.356 79.9307 177.961 80.016C177.577 80.112 177.268 80.16 177.033 80.16C176.553 80.16 176.244 79.9627 176.105 79.568C176.052 79.44 176.015 79.28 175.993 79.088C175.983 78.8853 175.977 78.5813 175.977 78.176V72.16H174.425V71.584ZM182.102 75.776C182.102 76.5547 182.209 77.2 182.422 77.712C182.636 78.2133 182.934 78.5707 183.318 78.784C183.713 78.9867 184.145 79.088 184.614 79.088C185.126 79.088 185.585 78.9867 185.99 78.784C186.406 78.5707 186.78 78.2827 187.11 77.92L187.622 78.304C187.43 78.56 187.222 78.8 186.998 79.024C186.785 79.248 186.54 79.4453 186.262 79.616C185.985 79.7867 185.676 79.92 185.334 80.016C184.993 80.112 184.614 80.16 184.198 80.16C183.462 80.16 182.812 80.0053 182.246 79.696C181.681 79.376 181.249 78.912 180.95 78.304C180.79 77.9733 180.673 77.6107 180.598 77.216C180.524 76.8107 180.486 76.3733 180.486 75.904C180.486 74.4 180.828 73.2427 181.51 72.432C182.193 71.6107 183.132 71.2 184.326 71.2C185.425 71.2 186.268 71.5413 186.854 72.224C187.441 72.896 187.734 73.8293 187.734 75.024C187.734 75.1307 187.729 75.232 187.718 75.328C187.718 75.4133 187.708 75.5627 187.686 75.776H182.102ZM184.23 72.064C182.95 72.064 182.246 73.04 182.118 74.992H186.118V74.464C186.118 73.696 185.953 73.104 185.622 72.688C185.302 72.272 184.838 72.064 184.23 72.064ZM189.174 75.76C189.174 75.056 189.264 74.3947 189.446 73.776C189.627 73.1573 189.899 72.6453 190.262 72.24C190.571 71.8987 190.934 71.6427 191.35 71.472C191.776 71.2907 192.272 71.2 192.838 71.2C193.318 71.2 193.75 71.2907 194.134 71.472C194.518 71.6533 194.864 71.9787 195.174 72.448V68.48L193.942 68.176V67.52H196.726V79.04L197.958 79.344V80L195.478 80.16L195.35 78.848C195.019 79.3493 194.646 79.696 194.23 79.888C193.814 80.0693 193.35 80.16 192.838 80.16C192.294 80.16 191.803 80.08 191.366 79.92C190.928 79.76 190.566 79.504 190.278 79.152C189.936 78.736 189.664 78.24 189.462 77.664C189.27 77.0773 189.174 76.4427 189.174 75.76ZM195.174 75.744C195.174 74.432 194.987 73.4773 194.614 72.88C194.443 72.6027 194.235 72.3947 193.99 72.256C193.744 72.1067 193.419 72.032 193.014 72.032C192.288 72.032 191.75 72.2827 191.398 72.784C191.206 73.0613 191.067 73.4453 190.982 73.936C190.896 74.4267 190.854 74.992 190.854 75.632C190.854 76.912 191.04 77.8613 191.414 78.48C191.595 78.7573 191.808 78.9707 192.054 79.12C192.299 79.2587 192.624 79.328 193.03 79.328C193.403 79.328 193.723 79.2693 193.99 79.152C194.256 79.024 194.464 78.8373 194.614 78.592C194.795 78.2933 194.934 77.9093 195.03 77.44C195.126 76.96 195.174 76.3947 195.174 75.744ZM125.131 94.128H120.843L119.867 96.976L121.195 97.312V98H117.45V97.312L118.763 96.976L122.603 86.32H124.091L127.883 96.976L129.163 97.312V98H124.763V97.312L126.075 96.976L125.131 94.128ZM121.163 93.2H124.827L123.099 87.744H123.035L121.163 93.2ZM137.206 98.16C137.206 98.5653 137.115 98.9387 136.934 99.28C136.763 99.6213 136.507 99.9147 136.166 100.16C135.835 100.405 135.424 100.597 134.934 100.736C134.454 100.875 133.91 100.944 133.302 100.944C132.075 100.944 131.147 100.768 130.518 100.416C129.888 100.075 129.574 99.584 129.574 98.944C129.574 98.4427 129.723 98.0587 130.022 97.792C130.32 97.5253 130.731 97.3493 131.254 97.264V97.2C130.55 96.9973 130.198 96.5813 130.198 95.952C130.198 95.6213 130.315 95.3173 130.55 95.04C130.795 94.752 131.174 94.5173 131.686 94.336C131.152 94.144 130.742 93.8453 130.454 93.44C130.176 93.0347 130.038 92.5387 130.038 91.952C130.038 91.5253 130.112 91.1467 130.262 90.816C130.422 90.4747 130.64 90.1867 130.918 89.952C131.206 89.7067 131.547 89.52 131.942 89.392C132.347 89.264 132.8 89.2 133.302 89.2C134.294 89.2 135.078 89.4453 135.654 89.936L136.198 89.744L137.67 89.04H137.942V90.448H137.67L136.55 90.32H136.006C136.315 90.7467 136.47 91.2587 136.47 91.856C136.47 92.6987 136.182 93.3653 135.606 93.856C135.03 94.336 134.224 94.576 133.19 94.576C133.072 94.576 132.96 94.576 132.854 94.576C132.758 94.5653 132.656 94.5547 132.55 94.544C131.707 94.672 131.286 94.9867 131.286 95.488C131.286 95.7333 131.382 95.904 131.574 96C131.766 96.0853 132.139 96.128 132.694 96.128H134.55C135.424 96.128 136.086 96.2933 136.534 96.624C136.982 96.944 137.206 97.456 137.206 98.16ZM132.806 97.36C132.091 97.36 131.574 97.4827 131.254 97.728C130.934 97.9733 130.774 98.2933 130.774 98.688C130.774 99.6587 131.606 100.144 133.27 100.144C134.176 100.144 134.864 100.005 135.334 99.728C135.814 99.4613 136.054 99.056 136.054 98.512C136.054 98.0853 135.888 97.7867 135.558 97.616C135.238 97.4453 134.667 97.36 133.846 97.36H132.806ZM131.446 91.888C131.446 92.528 131.59 93.0133 131.878 93.344C132.166 93.6747 132.624 93.84 133.254 93.84C133.883 93.84 134.342 93.6747 134.63 93.344C134.918 93.0133 135.062 92.528 135.062 91.888C135.062 91.248 134.918 90.7627 134.63 90.432C134.342 90.1013 133.883 89.936 133.254 89.936C132.624 89.936 132.166 90.1013 131.878 90.432C131.59 90.7627 131.446 91.248 131.446 91.888ZM143.439 90.288C143.343 90.224 143.236 90.192 143.119 90.192C142.916 90.192 142.703 90.32 142.479 90.576C142.255 90.8213 142.058 91.136 141.887 91.52C141.738 91.8827 141.62 92.2827 141.535 92.72C141.45 93.1467 141.407 93.5893 141.407 94.048V97.04L143.135 97.344V98H138.623V97.344L139.855 97.04V90.32L138.623 90.016V89.36H140.927L141.279 91.472H141.343C141.588 90.7467 141.914 90.1867 142.319 89.792C142.735 89.3973 143.199 89.2 143.711 89.2C144.127 89.2 144.474 89.3333 144.751 89.6C145.028 89.856 145.167 90.2027 145.167 90.64C145.167 90.96 145.082 91.216 144.911 91.408C144.751 91.5893 144.532 91.68 144.255 91.68C143.978 91.68 143.759 91.5947 143.599 91.424C143.439 91.2427 143.359 91.008 143.359 90.72C143.359 90.656 143.364 90.5973 143.375 90.544C143.386 90.4907 143.407 90.4053 143.439 90.288ZM145.951 90.016V89.36H148.735V97.04L149.967 97.344V98H145.951V97.344L147.183 97.04V90.32L145.951 90.016ZM146.959 86.784C146.959 86.4747 147.044 86.2293 147.215 86.048C147.396 85.8667 147.642 85.776 147.951 85.776C148.26 85.776 148.506 85.8667 148.687 86.048C148.868 86.2293 148.959 86.4747 148.959 86.784C148.959 87.0933 148.868 87.3387 148.687 87.52C148.506 87.6907 148.26 87.776 147.951 87.776C147.642 87.776 147.396 87.6907 147.215 87.52C147.044 87.3387 146.959 87.0933 146.959 86.784ZM155.191 89.2C156.119 89.2 156.855 89.4293 157.399 89.888C157.954 90.336 158.231 90.9387 158.231 91.696C158.231 92.5173 157.901 92.928 157.239 92.928C156.93 92.928 156.69 92.8427 156.519 92.672C156.349 92.5013 156.263 92.272 156.263 91.984C156.263 91.7173 156.333 91.488 156.471 91.296C156.621 91.104 156.818 90.9707 157.063 90.896C156.754 90.3093 156.162 90.016 155.287 90.016C154.413 90.016 153.773 90.2987 153.367 90.864C152.973 91.4293 152.775 92.32 152.775 93.536C152.775 94.5493 152.914 95.3227 153.191 95.856C153.618 96.6773 154.317 97.088 155.287 97.088C155.778 97.088 156.247 96.9813 156.695 96.768C157.143 96.5547 157.527 96.2507 157.847 95.856L158.327 96.24C157.901 96.9013 157.41 97.3867 156.855 97.696C156.301 98.0053 155.65 98.16 154.903 98.16C154.157 98.16 153.506 98.0107 152.951 97.712C152.407 97.4027 151.981 96.9547 151.671 96.368C151.49 96.0267 151.346 95.6373 151.239 95.2C151.143 94.752 151.095 94.2773 151.095 93.776C151.095 93.0827 151.191 92.4587 151.383 91.904C151.575 91.3387 151.847 90.8587 152.199 90.464C152.562 90.0587 152.994 89.7493 153.495 89.536C154.007 89.312 154.573 89.2 155.191 89.2ZM162.026 93.888C162.026 94.2293 162.031 94.528 162.042 94.784C162.052 95.04 162.063 95.2587 162.074 95.44C162.095 95.6213 162.122 95.776 162.154 95.904C162.186 96.032 162.228 96.144 162.282 96.24C162.527 96.7627 162.975 97.024 163.626 97.024C163.914 97.024 164.191 96.9707 164.458 96.864C164.724 96.7573 164.959 96.6133 165.162 96.432C165.396 96.2187 165.567 95.9733 165.674 95.696C165.791 95.408 165.86 95.04 165.882 94.592V90.32L164.49 90.016V89.36H167.434V97.04L168.666 97.344V98L166.186 98.16L166.01 96.4H165.946C165.636 96.944 165.215 97.376 164.682 97.696C164.148 98.0053 163.578 98.16 162.97 98.16C162.564 98.16 162.191 98.0853 161.85 97.936C161.519 97.7867 161.258 97.5733 161.066 97.296C160.852 96.9973 160.698 96.5813 160.602 96.048C160.516 95.504 160.474 94.7733 160.474 93.856V90.32L159.402 90.016V89.36H162.026V93.888ZM170.743 86.48L169.511 86.176V85.52H172.295V97.04L173.527 97.344V98H169.511V97.344L170.743 97.04V86.48ZM174.128 89.584L175.68 89.36L175.888 87.344L177.232 87.152V89.36H179.28V90.16H177.232V95.872C177.232 96.2347 177.238 96.4853 177.248 96.624C177.259 96.752 177.28 96.8587 177.312 96.944C177.344 97.0293 177.403 97.0827 177.488 97.104C177.574 97.1253 177.712 97.136 177.904 97.136H179.024V97.6C178.512 97.792 178.059 97.9307 177.664 98.016C177.28 98.112 176.971 98.16 176.736 98.16C176.256 98.16 175.947 97.9627 175.808 97.568C175.755 97.44 175.718 97.28 175.696 97.088C175.686 96.8853 175.68 96.5813 175.68 96.176V90.16H174.128V89.584ZM182.526 93.888C182.526 94.2293 182.531 94.528 182.542 94.784C182.552 95.04 182.563 95.2587 182.574 95.44C182.595 95.6213 182.622 95.776 182.654 95.904C182.686 96.032 182.728 96.144 182.782 96.24C183.027 96.7627 183.475 97.024 184.126 97.024C184.414 97.024 184.691 96.9707 184.958 96.864C185.224 96.7573 185.459 96.6133 185.662 96.432C185.896 96.2187 186.067 95.9733 186.174 95.696C186.291 95.408 186.36 95.04 186.382 94.592V90.32L184.99 90.016V89.36H187.934V97.04L189.166 97.344V98L186.686 98.16L186.51 96.4H186.446C186.136 96.944 185.715 97.376 185.182 97.696C184.648 98.0053 184.078 98.16 183.47 98.16C183.064 98.16 182.691 98.0853 182.35 97.936C182.019 97.7867 181.758 97.5733 181.566 97.296C181.352 96.9973 181.198 96.5813 181.102 96.048C181.016 95.504 180.974 94.7733 180.974 93.856V90.32L179.902 90.016V89.36H182.526V93.888ZM194.955 90.288C194.859 90.224 194.752 90.192 194.635 90.192C194.432 90.192 194.219 90.32 193.995 90.576C193.771 90.8213 193.573 91.136 193.403 91.52C193.253 91.8827 193.136 92.2827 193.051 92.72C192.965 93.1467 192.923 93.5893 192.923 94.048V97.04L194.651 97.344V98H190.139V97.344L191.371 97.04V90.32L190.139 90.016V89.36H192.443L192.795 91.472H192.859C193.104 90.7467 193.429 90.1867 193.835 89.792C194.251 89.3973 194.715 89.2 195.227 89.2C195.643 89.2 195.989 89.3333 196.267 89.6C196.544 89.856 196.683 90.2027 196.683 90.64C196.683 90.96 196.597 91.216 196.427 91.408C196.267 91.5893 196.048 91.68 195.771 91.68C195.493 91.68 195.275 91.5947 195.115 91.424C194.955 91.2427 194.875 91.008 194.875 90.72C194.875 90.656 194.88 90.5973 194.891 90.544C194.901 90.4907 194.923 90.4053 194.955 90.288ZM199.181 93.776C199.181 94.5547 199.287 95.2 199.501 95.712C199.714 96.2133 200.013 96.5707 200.397 96.784C200.791 96.9867 201.223 97.088 201.693 97.088C202.205 97.088 202.663 96.9867 203.069 96.784C203.485 96.5707 203.858 96.2827 204.189 95.92L204.701 96.304C204.509 96.56 204.301 96.8 204.077 97.024C203.863 97.248 203.618 97.4453 203.341 97.616C203.063 97.7867 202.754 97.92 202.413 98.016C202.071 98.112 201.693 98.16 201.277 98.16C200.541 98.16 199.89 98.0053 199.325 97.696C198.759 97.376 198.327 96.912 198.029 96.304C197.869 95.9733 197.751 95.6107 197.677 95.216C197.602 94.8107 197.565 94.3733 197.565 93.904C197.565 92.4 197.906 91.2427 198.589 90.432C199.271 89.6107 200.21 89.2 201.405 89.2C202.503 89.2 203.346 89.5413 203.933 90.224C204.519 90.896 204.812 91.8293 204.812 93.024C204.812 93.1307 204.807 93.232 204.797 93.328C204.797 93.4133 204.786 93.5627 204.765 93.776H199.181ZM201.309 90.064C200.029 90.064 199.325 91.04 199.197 92.992H203.197V92.464C203.197 91.696 203.031 91.104 202.701 90.688C202.381 90.272 201.917 90.064 201.309 90.064Z" fill="black"/>
</svg>
