<svg width="700" height="432" viewBox="0 0 700 432" fill="none" xmlns="http://www.w3.org/2000/svg">
<path d="M0 0H700V432H0V0Z" fill="white"/>
<path d="M181.192 186.416L173.8 184.592V179.12H193.384V246.704L200.776 248.528V254H173.8V248.528L181.192 246.704V186.416ZM256.472 228.08C256.472 232.176 255.864 236.048 254.648 239.696C253.496 243.28 251.8 246.288 249.56 248.72C247.448 250.96 244.92 252.56 241.976 253.52C239.032 254.48 235.544 254.96 231.512 254.96C227.48 254.96 223.992 254.48 221.048 253.52C218.104 252.56 215.576 250.96 213.464 248.72C211.224 246.288 209.496 243.28 208.28 239.696C207.128 236.048 206.552 232.176 206.552 228.08C206.552 223.984 207.128 220.144 208.28 216.56C209.496 212.912 211.224 209.872 213.464 207.44C215.576 205.2 218.104 203.6 221.048 202.64C223.992 201.68 227.48 201.2 231.512 201.2C235.544 201.2 239.032 201.68 241.976 202.64C244.92 203.6 247.448 205.2 249.56 207.44C251.8 209.872 253.496 212.912 254.648 216.56C255.864 220.144 256.472 223.984 256.472 228.08ZM222.776 244.688C224.504 247.248 227.416 248.528 231.512 248.528C235.608 248.528 238.52 247.248 240.248 244.688C242.296 241.552 243.32 236.016 243.32 228.08C243.32 220.144 242.296 214.608 240.248 211.472C238.52 208.912 235.608 207.632 231.512 207.632C227.416 207.632 224.504 208.912 222.776 211.472C220.728 214.608 219.704 220.144 219.704 228.08C219.704 236.016 220.728 241.552 222.776 244.688ZM288.8 201.2C291.744 201.2 294.464 201.552 296.96 202.256C299.456 202.96 301.6 203.984 303.392 205.328C305.248 206.608 306.688 208.176 307.712 210.032C308.736 211.888 309.248 213.936 309.248 216.176C309.248 219.056 308.48 221.264 306.944 222.8C305.408 224.272 303.52 225.008 301.28 225.008C300 225.008 298.944 224.816 298.112 224.432C297.28 223.984 296.576 223.44 296 222.8C295.488 222.096 295.104 221.328 294.848 220.496C294.656 219.664 294.56 218.832 294.56 218C294.56 216.4 294.944 215.024 295.712 213.872C296.544 212.72 297.76 211.888 299.36 211.376C298.464 210.224 297.12 209.296 295.328 208.592C293.536 207.888 291.52 207.536 289.28 207.536C287.232 207.536 285.408 207.888 283.808 208.592C282.272 209.296 280.96 210.448 279.872 212.048C278.784 213.584 277.952 215.664 277.376 218.288C276.8 220.848 276.512 224.016 276.512 227.792C276.512 231.248 276.736 233.968 277.184 235.952C277.632 237.936 278.24 239.664 279.008 241.136C280.032 242.992 281.344 244.464 282.944 245.552C284.544 246.576 286.592 247.088 289.088 247.088C290.368 247.088 291.712 246.928 293.12 246.608C294.592 246.288 296 245.84 297.344 245.264C298.752 244.624 300.064 243.824 301.28 242.864C302.56 241.904 303.68 240.752 304.64 239.408L309.824 243.44C306.816 247.6 303.328 250.576 299.36 252.368C295.456 254.096 291.264 254.96 286.784 254.96C281.984 254.96 277.952 254.064 274.688 252.272C271.424 250.416 268.864 247.728 267.008 244.208C265.92 242.16 265.056 239.824 264.416 237.2C263.84 234.512 263.552 231.632 263.552 228.56C263.552 224.4 264.128 220.656 265.28 217.328C266.432 213.936 268.064 211.056 270.176 208.688C272.352 206.256 275.008 204.4 278.144 203.12C281.28 201.84 284.832 201.2 288.8 201.2ZM315.286 242.672C315.286 240.048 315.862 237.744 317.014 235.76C318.23 233.712 320.054 231.92 322.486 230.384C324.982 228.848 328.118 227.536 331.894 226.448C335.734 225.36 340.278 224.4 345.526 223.568C345.206 220.368 344.822 217.936 344.374 216.272C343.99 214.544 343.446 213.04 342.742 211.76C341.846 210.288 340.79 209.104 339.574 208.208C338.422 207.312 336.918 206.864 335.062 206.864C333.718 206.864 332.47 207.12 331.318 207.632C330.23 208.144 329.494 208.848 329.11 209.744C330.006 210.256 330.614 210.992 330.934 211.952C331.318 212.848 331.51 213.648 331.51 214.352C331.51 215.952 330.806 217.392 329.398 218.672C327.99 219.888 326.294 220.496 324.31 220.496C322.262 220.496 320.662 219.856 319.51 218.576C318.422 217.232 317.878 215.568 317.878 213.584C317.878 211.6 318.422 209.84 319.51 208.304C320.598 206.768 322.038 205.488 323.83 204.464C325.622 203.376 327.606 202.576 329.782 202.064C332.022 201.488 334.262 201.2 336.502 201.2C339.51 201.2 342.198 201.648 344.566 202.544C346.998 203.376 348.95 204.432 350.422 205.712C355.478 210.192 358.006 217.296 358.006 227.024V239.504C358.006 242.704 358.198 244.912 358.582 246.128C359.03 247.28 359.958 247.856 361.366 247.856H365.686V252.176C359.798 254.032 355.35 254.96 352.342 254.96C351.254 254.96 350.358 254.8 349.654 254.48C349.014 254.16 348.502 253.616 348.118 252.848C347.734 252.08 347.446 251.024 347.254 249.68C347.126 248.336 347.062 246.608 347.062 244.496H346.678C344.694 247.76 342.07 250.32 338.806 252.176C335.542 254.032 332.022 254.96 328.246 254.96C324.214 254.96 321.046 253.872 318.742 251.696C316.438 249.52 315.286 246.512 315.286 242.672ZM334.102 247.952C335.446 247.952 336.918 247.536 338.518 246.704C340.182 245.808 341.622 244.528 342.838 242.864C343.542 241.968 344.214 240.688 344.854 239.024C345.494 237.36 345.814 235.376 345.814 233.072C345.814 232.304 345.782 231.472 345.718 230.576C345.654 229.616 345.558 228.688 345.43 227.792C342.102 228.496 339.318 229.264 337.078 230.096C334.902 230.864 333.142 231.728 331.798 232.688C330.454 233.648 329.494 234.768 328.918 236.048C328.342 237.264 328.054 238.672 328.054 240.272C328.054 243.088 328.694 245.072 329.974 246.224C331.254 247.376 332.63 247.952 334.102 247.952ZM405.894 234.128H414.246V254H368.838V247.184L398.886 208.976H380.742L378.438 221.552H370.086V202.16H413.862V208.976L383.91 247.184H403.974L405.894 234.128ZM472.097 228.08C472.097 232.176 471.489 236.048 470.273 239.696C469.121 243.28 467.425 246.288 465.185 248.72C463.073 250.96 460.545 252.56 457.601 253.52C454.657 254.48 451.169 254.96 447.137 254.96C443.105 254.96 439.617 254.48 436.673 253.52C433.729 252.56 431.201 250.96 429.089 248.72C426.849 246.288 425.121 243.28 423.905 239.696C422.753 236.048 422.177 232.176 422.177 228.08C422.177 223.984 422.753 220.144 423.905 216.56C425.121 212.912 426.849 209.872 429.089 207.44C431.201 205.2 433.729 203.6 436.673 202.64C439.617 201.68 443.105 201.2 447.137 201.2C451.169 201.2 454.657 201.68 457.601 202.64C460.545 203.6 463.073 205.2 465.185 207.44C467.425 209.872 469.121 212.912 470.273 216.56C471.489 220.144 472.097 223.984 472.097 228.08ZM438.401 244.688C440.129 247.248 443.041 248.528 447.137 248.528C451.233 248.528 454.145 247.248 455.873 244.688C457.921 241.552 458.945 236.016 458.945 228.08C458.945 220.144 457.921 214.608 455.873 211.472C454.145 208.912 451.233 207.632 447.137 207.632C443.041 207.632 440.129 208.912 438.401 211.472C436.353 214.608 435.329 220.144 435.329 228.08C435.329 236.016 436.353 241.552 438.401 244.688ZM478.505 242.672C478.505 240.048 479.081 237.744 480.233 235.76C481.449 233.712 483.273 231.92 485.705 230.384C488.201 228.848 491.337 227.536 495.113 226.448C498.953 225.36 503.497 224.4 508.745 223.568C508.425 220.368 508.041 217.936 507.593 216.272C507.209 214.544 506.665 213.04 505.961 211.76C505.065 210.288 504.009 209.104 502.793 208.208C501.641 207.312 500.137 206.864 498.281 206.864C496.937 206.864 495.689 207.12 494.537 207.632C493.449 208.144 492.713 208.848 492.329 209.744C493.225 210.256 493.833 210.992 494.153 211.952C494.537 212.848 494.729 213.648 494.729 214.352C494.729 215.952 494.025 217.392 492.617 218.672C491.209 219.888 489.513 220.496 487.529 220.496C485.481 220.496 483.881 219.856 482.729 218.576C481.641 217.232 481.097 215.568 481.097 213.584C481.097 211.6 481.641 209.84 482.729 208.304C483.817 206.768 485.257 205.488 487.049 204.464C488.841 203.376 490.825 202.576 493.001 202.064C495.241 201.488 497.481 201.2 499.721 201.2C502.729 201.2 505.417 201.648 507.785 202.544C510.217 203.376 512.169 204.432 513.641 205.712C518.697 210.192 521.225 217.296 521.225 227.024V239.504C521.225 242.704 521.417 244.912 521.801 246.128C522.249 247.28 523.177 247.856 524.585 247.856H528.905V252.176C523.017 254.032 518.569 254.96 515.561 254.96C514.473 254.96 513.577 254.8 512.873 254.48C512.233 254.16 511.721 253.616 511.337 252.848C510.953 252.08 510.665 251.024 510.473 249.68C510.345 248.336 510.281 246.608 510.281 244.496H509.897C507.913 247.76 505.289 250.32 502.025 252.176C498.761 254.032 495.241 254.96 491.465 254.96C487.433 254.96 484.265 253.872 481.961 251.696C479.657 249.52 478.505 246.512 478.505 242.672ZM497.321 247.952C498.665 247.952 500.137 247.536 501.737 246.704C503.401 245.808 504.841 244.528 506.057 242.864C506.761 241.968 507.433 240.688 508.073 239.024C508.713 237.36 509.033 235.376 509.033 233.072C509.033 232.304 509.001 231.472 508.937 230.576C508.873 229.616 508.777 228.688 508.649 227.792C505.321 228.496 502.537 229.264 500.297 230.096C498.121 230.864 496.361 231.728 495.017 232.688C493.673 233.648 492.713 234.768 492.137 236.048C491.561 237.264 491.273 238.672 491.273 240.272C491.273 243.088 491.913 245.072 493.193 246.224C494.473 247.376 495.849 247.952 497.321 247.952Z" fill="black"/>
<path d="M205.706 308.324L208.228 307.96L208.566 304.684L210.75 304.372V307.96H214.078V309.26H210.75V318.542C210.75 319.131 210.758 319.539 210.776 319.764C210.793 319.972 210.828 320.145 210.88 320.284C210.932 320.423 211.027 320.509 211.166 320.544C211.304 320.579 211.53 320.596 211.842 320.596H213.662V321.35C212.83 321.662 212.093 321.887 211.452 322.026C210.828 322.182 210.325 322.26 209.944 322.26C209.164 322.26 208.661 321.939 208.436 321.298C208.349 321.09 208.288 320.83 208.254 320.518C208.236 320.189 208.228 319.695 208.228 319.036V309.26H205.706V308.324ZM225.981 314.642C225.981 313.533 225.946 312.701 225.877 312.146C225.825 311.574 225.721 311.132 225.565 310.82C225.132 309.971 224.369 309.546 223.277 309.546C222.792 309.546 222.324 309.633 221.873 309.806C221.422 309.979 221.024 310.213 220.677 310.508C220.296 310.855 220.01 311.253 219.819 311.704C219.646 312.155 219.542 312.718 219.507 313.394V320.44L221.249 320.934V322H214.983V320.934L216.985 320.44V303.28L214.983 302.786V301.72H219.507V310.404C220.027 309.572 220.712 308.913 221.561 308.428C222.428 307.943 223.355 307.7 224.343 307.7C225.036 307.7 225.66 307.821 226.215 308.064C226.77 308.307 227.212 308.653 227.541 309.104C227.888 309.589 228.13 310.274 228.269 311.158C228.425 312.025 228.503 313.203 228.503 314.694V320.44L230.505 320.934V322H224.239V320.934L225.981 320.44V314.642ZM234.913 315.136C234.913 316.401 235.087 317.45 235.433 318.282C235.78 319.097 236.265 319.677 236.889 320.024C237.531 320.353 238.233 320.518 238.995 320.518C239.827 320.518 240.573 320.353 241.231 320.024C241.907 319.677 242.514 319.209 243.051 318.62L243.883 319.244C243.571 319.66 243.233 320.05 242.869 320.414C242.523 320.778 242.124 321.099 241.673 321.376C241.223 321.653 240.72 321.87 240.165 322.026C239.611 322.182 238.995 322.26 238.319 322.26C237.123 322.26 236.066 322.009 235.147 321.506C234.229 320.986 233.527 320.232 233.041 319.244C232.781 318.707 232.591 318.117 232.469 317.476C232.348 316.817 232.287 316.107 232.287 315.344C232.287 312.9 232.842 311.019 233.951 309.702C235.061 308.367 236.586 307.7 238.527 307.7C240.313 307.7 241.682 308.255 242.635 309.364C243.589 310.456 244.065 311.973 244.065 313.914C244.065 314.087 244.057 314.252 244.039 314.408C244.039 314.547 244.022 314.789 243.987 315.136H234.913ZM238.371 309.104C236.291 309.104 235.147 310.69 234.939 313.862H241.439V313.004C241.439 311.756 241.171 310.794 240.633 310.118C240.113 309.442 239.359 309.104 238.371 309.104ZM255.658 315.136C255.658 316.401 255.831 317.45 256.178 318.282C256.524 319.097 257.01 319.677 257.634 320.024C258.275 320.353 258.977 320.518 259.74 320.518C260.572 320.518 261.317 320.353 261.976 320.024C262.652 319.677 263.258 319.209 263.796 318.62L264.628 319.244C264.316 319.66 263.978 320.05 263.614 320.414C263.267 320.778 262.868 321.099 262.418 321.376C261.967 321.653 261.464 321.87 260.91 322.026C260.355 322.182 259.74 322.26 259.064 322.26C257.868 322.26 256.81 322.009 255.892 321.506C254.973 320.986 254.271 320.232 253.786 319.244C253.526 318.707 253.335 318.117 253.214 317.476C253.092 316.817 253.032 316.107 253.032 315.344C253.032 312.9 253.586 311.019 254.696 309.702C255.805 308.367 257.33 307.7 259.272 307.7C261.057 307.7 262.426 308.255 263.38 309.364C264.333 310.456 264.81 311.973 264.81 313.914C264.81 314.087 264.801 314.252 264.784 314.408C264.784 314.547 264.766 314.789 264.732 315.136H255.658ZM259.116 309.104C257.036 309.104 255.892 310.69 255.684 313.862H262.184V313.004C262.184 311.756 261.915 310.794 261.378 310.118C260.858 309.442 260.104 309.104 259.116 309.104ZM266.94 318.958C266.94 318.282 267.087 317.684 267.382 317.164C267.694 316.644 268.179 316.185 268.838 315.786C269.497 315.37 270.346 315.015 271.386 314.72C272.426 314.425 273.674 314.165 275.13 313.94C275.043 312.917 274.939 312.12 274.818 311.548C274.714 310.976 274.567 310.517 274.376 310.17C274.133 309.719 273.795 309.39 273.362 309.182C272.929 308.957 272.461 308.844 271.958 308.844C271.473 308.844 271.031 308.931 270.632 309.104C270.251 309.277 269.991 309.511 269.852 309.806C270.095 309.997 270.268 310.231 270.372 310.508C270.493 310.768 270.554 311.019 270.554 311.262C270.554 311.695 270.407 312.042 270.112 312.302C269.835 312.545 269.488 312.666 269.072 312.666C268.656 312.666 268.309 312.527 268.032 312.25C267.772 311.973 267.642 311.583 267.642 311.08C267.642 310.543 267.789 310.066 268.084 309.65C268.379 309.217 268.76 308.861 269.228 308.584C269.713 308.289 270.251 308.073 270.84 307.934C271.447 307.778 272.045 307.7 272.634 307.7C274.107 307.7 275.269 308.125 276.118 308.974C277.193 310.049 277.73 311.955 277.73 314.694V318.464C277.73 319.331 277.782 319.929 277.886 320.258C278.007 320.57 278.259 320.726 278.64 320.726H279.81V321.506C278.562 322.009 277.591 322.26 276.898 322.26C276.638 322.26 276.421 322.217 276.248 322.13C276.075 322.043 275.936 321.896 275.832 321.688C275.728 321.463 275.65 321.168 275.598 320.804C275.563 320.44 275.546 319.981 275.546 319.426H275.442C274.905 320.31 274.194 321.003 273.31 321.506C272.426 322.009 271.473 322.26 270.45 322.26C269.358 322.26 268.5 321.974 267.876 321.402C267.252 320.813 266.94 319.998 266.94 318.958ZM271.542 320.752C272.027 320.752 272.53 320.631 273.05 320.388C273.587 320.128 274.038 319.773 274.402 319.322C274.939 318.663 275.208 317.693 275.208 316.41C275.208 316.115 275.199 315.829 275.182 315.552C275.165 315.257 275.139 314.98 275.104 314.72C274.047 314.928 273.163 315.145 272.452 315.37C271.759 315.595 271.195 315.855 270.762 316.15C270.346 316.427 270.051 316.757 269.878 317.138C269.705 317.502 269.618 317.927 269.618 318.412C269.618 319.157 269.783 319.738 270.112 320.154C270.459 320.553 270.935 320.752 271.542 320.752ZM286.261 321.064C287.249 321.064 288.046 320.873 288.653 320.492C289.26 320.093 289.563 319.53 289.563 318.802C289.563 318.369 289.45 318.005 289.225 317.71C289 317.415 288.705 317.164 288.341 316.956C287.994 316.748 287.596 316.575 287.145 316.436C286.712 316.28 286.287 316.141 285.871 316.02C285.334 315.864 284.805 315.682 284.285 315.474C283.782 315.266 283.323 315.006 282.907 314.694C282.508 314.365 282.188 313.975 281.945 313.524C281.702 313.056 281.581 312.493 281.581 311.834C281.581 310.586 282.032 309.589 282.933 308.844C283.852 308.081 285.126 307.7 286.755 307.7C288.142 307.7 289.234 307.995 290.031 308.584C290.846 309.156 291.253 309.945 291.253 310.95C291.253 311.505 291.132 311.938 290.889 312.25C290.646 312.562 290.3 312.718 289.849 312.718C289.45 312.718 289.121 312.597 288.861 312.354C288.601 312.111 288.471 311.799 288.471 311.418C288.471 311.089 288.558 310.794 288.731 310.534C288.904 310.257 289.13 310.057 289.407 309.936C289.147 309.572 288.809 309.312 288.393 309.156C287.994 308.983 287.474 308.896 286.833 308.896C284.753 308.896 283.713 309.633 283.713 311.106C283.713 311.505 283.782 311.834 283.921 312.094C284.06 312.354 284.268 312.579 284.545 312.77C284.822 312.961 285.16 313.134 285.559 313.29C285.975 313.429 286.452 313.585 286.989 313.758C287.578 313.949 288.159 314.148 288.731 314.356C289.303 314.564 289.814 314.824 290.265 315.136C290.733 315.448 291.106 315.838 291.383 316.306C291.678 316.774 291.825 317.355 291.825 318.048C291.825 318.724 291.686 319.322 291.409 319.842C291.132 320.362 290.742 320.804 290.239 321.168C289.736 321.515 289.138 321.783 288.445 321.974C287.752 322.165 286.989 322.26 286.157 322.26C284.614 322.26 283.375 321.957 282.439 321.35C281.52 320.726 281.061 319.877 281.061 318.802C281.061 318.247 281.182 317.814 281.425 317.502C281.685 317.173 282.049 317.008 282.517 317.008C282.933 317.008 283.28 317.129 283.557 317.372C283.852 317.615 283.999 317.935 283.999 318.334C283.999 318.663 283.904 318.975 283.713 319.27C283.54 319.565 283.323 319.781 283.063 319.92C283.288 320.267 283.687 320.544 284.259 320.752C284.848 320.96 285.516 321.064 286.261 321.064ZM293.929 309.026V307.96H298.453V320.44L300.455 320.934V322H293.929V320.934L295.931 320.44V309.52L293.929 309.026ZM295.567 303.774C295.567 303.271 295.706 302.873 295.983 302.578C296.278 302.283 296.676 302.136 297.179 302.136C297.682 302.136 298.08 302.283 298.375 302.578C298.67 302.873 298.817 303.271 298.817 303.774C298.817 304.277 298.67 304.675 298.375 304.97C298.08 305.247 297.682 305.386 297.179 305.386C296.676 305.386 296.278 305.247 295.983 304.97C295.706 304.675 295.567 304.277 295.567 303.774ZM304.941 315.136C304.941 316.401 305.114 317.45 305.461 318.282C305.807 319.097 306.293 319.677 306.917 320.024C307.558 320.353 308.26 320.518 309.023 320.518C309.855 320.518 310.6 320.353 311.259 320.024C311.935 319.677 312.541 319.209 313.079 318.62L313.911 319.244C313.599 319.66 313.261 320.05 312.897 320.414C312.55 320.778 312.151 321.099 311.701 321.376C311.25 321.653 310.747 321.87 310.193 322.026C309.638 322.182 309.023 322.26 308.347 322.26C307.151 322.26 306.093 322.009 305.175 321.506C304.256 320.986 303.554 320.232 303.069 319.244C302.809 318.707 302.618 318.117 302.497 317.476C302.375 316.817 302.315 316.107 302.315 315.344C302.315 312.9 302.869 311.019 303.979 309.702C305.088 308.367 306.613 307.7 308.555 307.7C310.34 307.7 311.709 308.255 312.663 309.364C313.616 310.456 314.093 311.973 314.093 313.914C314.093 314.087 314.084 314.252 314.067 314.408C314.067 314.547 314.049 314.789 314.015 315.136H304.941ZM308.399 309.104C306.319 309.104 305.175 310.69 304.967 313.862H311.467V313.004C311.467 311.756 311.198 310.794 310.661 310.118C310.141 309.442 309.387 309.104 308.399 309.104ZM321.579 321.064C322.567 321.064 323.365 320.873 323.971 320.492C324.578 320.093 324.881 319.53 324.881 318.802C324.881 318.369 324.769 318.005 324.543 317.71C324.318 317.415 324.023 317.164 323.659 316.956C323.313 316.748 322.914 316.575 322.463 316.436C322.03 316.28 321.605 316.141 321.189 316.02C320.652 315.864 320.123 315.682 319.603 315.474C319.101 315.266 318.641 315.006 318.225 314.694C317.827 314.365 317.506 313.975 317.263 313.524C317.021 313.056 316.899 312.493 316.899 311.834C316.899 310.586 317.35 309.589 318.251 308.844C319.17 308.081 320.444 307.7 322.073 307.7C323.46 307.7 324.552 307.995 325.349 308.584C326.164 309.156 326.571 309.945 326.571 310.95C326.571 311.505 326.45 311.938 326.207 312.25C325.965 312.562 325.618 312.718 325.167 312.718C324.769 312.718 324.439 312.597 324.179 312.354C323.919 312.111 323.789 311.799 323.789 311.418C323.789 311.089 323.876 310.794 324.049 310.534C324.223 310.257 324.448 310.057 324.725 309.936C324.465 309.572 324.127 309.312 323.711 309.156C323.313 308.983 322.793 308.896 322.151 308.896C320.071 308.896 319.031 309.633 319.031 311.106C319.031 311.505 319.101 311.834 319.239 312.094C319.378 312.354 319.586 312.579 319.863 312.77C320.141 312.961 320.479 313.134 320.877 313.29C321.293 313.429 321.77 313.585 322.307 313.758C322.897 313.949 323.477 314.148 324.049 314.356C324.621 314.564 325.133 314.824 325.583 315.136C326.051 315.448 326.424 315.838 326.701 316.306C326.996 316.774 327.143 317.355 327.143 318.048C327.143 318.724 327.005 319.322 326.727 319.842C326.45 320.362 326.06 320.804 325.557 321.168C325.055 321.515 324.457 321.783 323.763 321.974C323.07 322.165 322.307 322.26 321.475 322.26C319.933 322.26 318.693 321.957 317.757 321.35C316.839 320.726 316.379 319.877 316.379 318.802C316.379 318.247 316.501 317.814 316.743 317.502C317.003 317.173 317.367 317.008 317.835 317.008C318.251 317.008 318.598 317.129 318.875 317.372C319.17 317.615 319.317 317.935 319.317 318.334C319.317 318.663 319.222 318.975 319.031 319.27C318.858 319.565 318.641 319.781 318.381 319.92C318.607 320.267 319.005 320.544 319.577 320.752C320.167 320.96 320.834 321.064 321.579 321.064ZM328.546 308.324L331.068 307.96L331.406 304.684L333.59 304.372V307.96H336.918V309.26H333.59V318.542C333.59 319.131 333.598 319.539 333.616 319.764C333.633 319.972 333.668 320.145 333.72 320.284C333.772 320.423 333.867 320.509 334.006 320.544C334.144 320.579 334.37 320.596 334.682 320.596H336.502V321.35C335.67 321.662 334.933 321.887 334.292 322.026C333.668 322.182 333.165 322.26 332.784 322.26C332.004 322.26 331.501 321.939 331.276 321.298C331.189 321.09 331.128 320.83 331.094 320.518C331.076 320.189 331.068 319.695 331.068 319.036V309.26H328.546V308.324ZM350.135 318.88L350.447 320.414H350.577L350.889 318.88L353.931 307.7H355.803L358.949 318.88L359.261 320.414H359.365L359.677 318.88L362.277 309.52L360.587 309.026V307.96H365.527V309.026L364.123 309.52L360.249 322.26H357.571L354.477 312.12L351.461 322.26H348.783L344.805 309.52L343.427 309.026V307.96H349.251V309.026L347.457 309.52L350.135 318.88ZM366.649 318.958C366.649 318.282 366.796 317.684 367.091 317.164C367.403 316.644 367.888 316.185 368.547 315.786C369.206 315.37 370.055 315.015 371.095 314.72C372.135 314.425 373.383 314.165 374.839 313.94C374.752 312.917 374.648 312.12 374.527 311.548C374.423 310.976 374.276 310.517 374.085 310.17C373.842 309.719 373.504 309.39 373.071 309.182C372.638 308.957 372.17 308.844 371.667 308.844C371.182 308.844 370.74 308.931 370.341 309.104C369.96 309.277 369.7 309.511 369.561 309.806C369.804 309.997 369.977 310.231 370.081 310.508C370.202 310.768 370.263 311.019 370.263 311.262C370.263 311.695 370.116 312.042 369.821 312.302C369.544 312.545 369.197 312.666 368.781 312.666C368.365 312.666 368.018 312.527 367.741 312.25C367.481 311.973 367.351 311.583 367.351 311.08C367.351 310.543 367.498 310.066 367.793 309.65C368.088 309.217 368.469 308.861 368.937 308.584C369.422 308.289 369.96 308.073 370.549 307.934C371.156 307.778 371.754 307.7 372.343 307.7C373.816 307.7 374.978 308.125 375.827 308.974C376.902 310.049 377.439 311.955 377.439 314.694V318.464C377.439 319.331 377.491 319.929 377.595 320.258C377.716 320.57 377.968 320.726 378.349 320.726H379.519V321.506C378.271 322.009 377.3 322.26 376.607 322.26C376.347 322.26 376.13 322.217 375.957 322.13C375.784 322.043 375.645 321.896 375.541 321.688C375.437 321.463 375.359 321.168 375.307 320.804C375.272 320.44 375.255 319.981 375.255 319.426H375.151C374.614 320.31 373.903 321.003 373.019 321.506C372.135 322.009 371.182 322.26 370.159 322.26C369.067 322.26 368.209 321.974 367.585 321.402C366.961 320.813 366.649 319.998 366.649 318.958ZM371.251 320.752C371.736 320.752 372.239 320.631 372.759 320.388C373.296 320.128 373.747 319.773 374.111 319.322C374.648 318.663 374.917 317.693 374.917 316.41C374.917 316.115 374.908 315.829 374.891 315.552C374.874 315.257 374.848 314.98 374.813 314.72C373.756 314.928 372.872 315.145 372.161 315.37C371.468 315.595 370.904 315.855 370.471 316.15C370.055 316.427 369.76 316.757 369.587 317.138C369.414 317.502 369.327 317.927 369.327 318.412C369.327 319.157 369.492 319.738 369.821 320.154C370.168 320.553 370.644 320.752 371.251 320.752ZM388.115 321.376C387.751 322.381 387.413 323.239 387.101 323.95C386.807 324.661 386.495 325.233 386.165 325.666C385.836 326.117 385.463 326.437 385.047 326.628C384.649 326.836 384.163 326.94 383.591 326.94C383.175 326.94 382.785 326.879 382.421 326.758C382.075 326.654 381.763 326.498 381.485 326.29C381.225 326.082 381.017 325.839 380.861 325.562C380.705 325.285 380.627 324.981 380.627 324.652C380.627 324.167 380.766 323.759 381.043 323.43C381.321 323.118 381.685 322.962 382.135 322.962C382.534 322.962 382.846 323.066 383.071 323.274C383.314 323.499 383.435 323.803 383.435 324.184C383.435 324.427 383.383 324.661 383.279 324.886C383.193 325.111 383.071 325.311 382.915 325.484C382.95 325.675 383.045 325.796 383.201 325.848C383.375 325.9 383.531 325.926 383.669 325.926C383.843 325.926 384.007 325.9 384.163 325.848C384.337 325.796 384.501 325.666 384.657 325.458C384.831 325.267 385.004 324.99 385.177 324.626C385.368 324.262 385.567 323.768 385.775 323.144L386.087 322.182L380.705 309.52L379.145 309.026V307.96H384.969L385.177 309.026L383.331 309.52L387.205 319.712H387.309L390.585 309.52L389.077 309.026V307.96H394.017V309.026L392.431 309.52L388.115 321.376ZM400.503 308.324L403.025 307.96L403.363 304.684L405.547 304.372V307.96H408.875V309.26H405.547V318.542C405.547 319.131 405.555 319.539 405.573 319.764C405.59 319.972 405.625 320.145 405.677 320.284C405.729 320.423 405.824 320.509 405.963 320.544C406.101 320.579 406.327 320.596 406.639 320.596H408.459V321.35C407.627 321.662 406.89 321.887 406.249 322.026C405.625 322.182 405.122 322.26 404.741 322.26C403.961 322.26 403.458 321.939 403.233 321.298C403.146 321.09 403.085 320.83 403.051 320.518C403.033 320.189 403.025 319.695 403.025 319.036V309.26H400.503V308.324ZM423.066 314.85C423.066 315.994 422.893 317.069 422.546 318.074C422.217 319.079 421.749 319.911 421.142 320.57C420.119 321.697 418.611 322.26 416.618 322.26C414.677 322.26 413.195 321.714 412.172 320.622C411.583 319.981 411.123 319.192 410.794 318.256C410.482 317.303 410.326 316.271 410.326 315.162C410.326 314.018 410.491 312.935 410.82 311.912C411.149 310.889 411.626 310.049 412.25 309.39C412.805 308.801 413.446 308.376 414.174 308.116C414.902 307.839 415.751 307.7 416.722 307.7C417.675 307.7 418.533 307.839 419.296 308.116C420.059 308.376 420.7 308.783 421.22 309.338C421.827 309.979 422.286 310.785 422.598 311.756C422.91 312.709 423.066 313.741 423.066 314.85ZM413.108 314.876C413.108 316.956 413.42 318.507 414.044 319.53C414.339 319.981 414.685 320.327 415.084 320.57C415.5 320.795 416.037 320.908 416.696 320.908C417.892 320.908 418.785 320.501 419.374 319.686C419.686 319.235 419.911 318.611 420.05 317.814C420.206 317.017 420.284 316.098 420.284 315.058C420.284 312.995 419.972 311.453 419.348 310.43C419.053 309.979 418.698 309.641 418.282 309.416C417.866 309.173 417.329 309.052 416.67 309.052C415.457 309.052 414.581 309.451 414.044 310.248C413.42 311.219 413.108 312.761 413.108 314.876ZM440.51 304.424C438.864 304.424 437.633 304.961 436.818 306.036C436.298 306.712 435.891 307.605 435.596 308.714C435.302 309.806 435.154 311.011 435.154 312.328C435.154 313.576 435.284 314.737 435.544 315.812C435.804 316.869 436.168 317.762 436.636 318.49C437.104 319.218 437.668 319.755 438.326 320.102C439.002 320.431 439.843 320.596 440.848 320.596C442.391 320.596 443.622 320.232 444.54 319.504C445.459 318.759 446.04 317.658 446.282 316.202H447.712C447.314 318.247 446.534 319.773 445.372 320.778C444.211 321.766 442.616 322.26 440.588 322.26C438.196 322.26 436.29 321.567 434.868 320.18C434.019 319.348 433.369 318.308 432.918 317.06C432.468 315.795 432.242 314.382 432.242 312.822C432.242 311.071 432.528 309.494 433.1 308.09C433.672 306.669 434.478 305.525 435.518 304.658C436.836 303.566 438.578 303.02 440.744 303.02C441.282 303.02 441.758 303.055 442.174 303.124C442.608 303.176 443.006 303.28 443.37 303.436C443.734 303.575 444.072 303.765 444.384 304.008C444.714 304.251 445.043 304.554 445.372 304.918L445.892 303.28H447.322V309.026H445.736C445.234 305.958 443.492 304.424 440.51 304.424ZM456.984 322.286C455.944 322.286 455.008 322.13 454.176 321.818C453.344 321.506 452.65 321.064 452.096 320.492L451.81 322H450.354V316.098H451.94C452.044 317.762 452.451 318.975 453.162 319.738C453.89 320.483 454.999 320.856 456.49 320.856C458.968 320.856 460.208 319.911 460.208 318.022C460.208 317.467 460.095 316.982 459.87 316.566C459.662 316.15 459.358 315.777 458.96 315.448C458.561 315.101 458.067 314.789 457.478 314.512C456.906 314.217 456.256 313.923 455.528 313.628C454.696 313.299 453.959 312.978 453.318 312.666C452.694 312.337 452.165 311.973 451.732 311.574C451.316 311.158 450.995 310.69 450.77 310.17C450.544 309.633 450.432 308.983 450.432 308.22C450.432 306.573 450.943 305.291 451.966 304.372C453.006 303.453 454.392 302.994 456.126 302.994C457.842 302.994 459.237 303.479 460.312 304.45L460.52 303.28H461.976V309.182H460.494C460.494 307.501 460.182 306.287 459.558 305.542C458.951 304.779 457.972 304.398 456.62 304.398C454.245 304.398 453.058 305.481 453.058 307.648C453.058 308.081 453.11 308.454 453.214 308.766C453.318 309.061 453.508 309.338 453.786 309.598C454.08 309.858 454.47 310.109 454.956 310.352C455.441 310.595 456.065 310.881 456.828 311.21C457.902 311.678 458.821 312.129 459.584 312.562C460.346 312.978 460.962 313.42 461.43 313.888C461.915 314.356 462.27 314.859 462.496 315.396C462.721 315.933 462.834 316.54 462.834 317.216C462.834 318.013 462.686 318.733 462.392 319.374C462.114 319.998 461.716 320.527 461.196 320.96C460.693 321.393 460.078 321.723 459.35 321.948C458.639 322.173 457.85 322.286 456.984 322.286ZM476.272 315.708H469.304L467.718 320.336L469.876 320.882V322H463.792V320.882L465.924 320.336L472.164 303.02H474.582L480.744 320.336L482.824 320.882V322H475.674V320.882L477.806 320.336L476.272 315.708ZM469.824 314.2H475.778L472.97 305.334H472.866L469.824 314.2ZM488.439 302.682C488.439 303.098 488.361 303.592 488.205 304.164C488.067 304.736 487.954 305.273 487.867 305.776C488.162 305.62 488.465 305.455 488.777 305.282C489.089 305.091 489.384 304.918 489.661 304.762C489.956 304.589 490.233 304.45 490.493 304.346C490.753 304.242 490.987 304.19 491.195 304.19C491.421 304.19 491.646 304.268 491.871 304.424C492.097 304.58 492.209 304.857 492.209 305.256C492.209 305.62 492.079 305.88 491.819 306.036C491.559 306.192 491.221 306.296 490.805 306.348C490.407 306.4 489.965 306.435 489.479 306.452C489.011 306.452 488.561 306.487 488.127 306.556C488.405 306.833 488.699 307.111 489.011 307.388C489.323 307.665 489.609 307.934 489.869 308.194C490.147 308.454 490.372 308.714 490.545 308.974C490.719 309.234 490.805 309.477 490.805 309.702C490.805 309.927 490.701 310.144 490.493 310.352C490.285 310.56 490.043 310.664 489.765 310.664C489.471 310.664 489.219 310.551 489.011 310.326C488.803 310.083 488.613 309.789 488.439 309.442C488.266 309.078 488.101 308.688 487.945 308.272C487.789 307.839 487.616 307.44 487.425 307.076C487.235 307.475 487.061 307.891 486.905 308.324C486.749 308.74 486.585 309.121 486.411 309.468C486.238 309.815 486.047 310.109 485.839 310.352C485.649 310.577 485.406 310.69 485.111 310.69C484.851 310.69 484.609 310.595 484.383 310.404C484.175 310.196 484.071 309.971 484.071 309.728C484.071 309.52 484.149 309.295 484.305 309.052C484.479 308.792 484.695 308.523 484.955 308.246C485.215 307.969 485.493 307.691 485.787 307.414C486.099 307.137 486.403 306.851 486.697 306.556C486.264 306.487 485.805 306.452 485.319 306.452C484.851 306.435 484.418 306.4 484.019 306.348C483.621 306.296 483.291 306.201 483.031 306.062C482.771 305.906 482.641 305.655 482.641 305.308C482.641 304.909 482.745 304.632 482.953 304.476C483.161 304.303 483.387 304.216 483.629 304.216C483.803 304.216 484.019 304.268 484.279 304.372C484.539 304.476 484.817 304.606 485.111 304.762C485.423 304.918 485.727 305.091 486.021 305.282C486.333 305.455 486.637 305.611 486.931 305.75C486.845 305.213 486.723 304.675 486.567 304.138C486.429 303.583 486.359 303.098 486.359 302.682C486.359 302.318 486.446 302.023 486.619 301.798C486.793 301.573 487.053 301.46 487.399 301.46C487.746 301.46 488.006 301.573 488.179 301.798C488.353 302.006 488.439 302.301 488.439 302.682Z" fill="black"/>
<path d="M177.5 127C195.449 127 210 112.449 210 94.5C210 76.5507 195.449 62 177.5 62C159.551 62 145 76.5507 145 94.5C145 112.449 159.551 127 177.5 127Z" fill="#C5CFD6"/>
<path fill-rule="evenodd" clip-rule="evenodd" d="M96.626 63.3608C94.9048 59.7954 94.1733 55.7895 95.5417 51.8782C99.4843 40.6089 115.029 47.4194 116.61 54.0495C118.19 60.6797 113.815 75.2847 109.452 75.2438C107.713 75.2274 104.521 73.3004 101.562 70.2744L99.5787 86.2916L86.5014 82.8403L96.626 63.3608Z" fill="#D4A181"/>
<path fill-rule="evenodd" clip-rule="evenodd" d="M101.372 63.7477C98.916 66.3856 96.0451 68.1025 93.8044 67.5112C89.5485 66.388 88.047 59.9849 89.6863 53.9592C89.7439 53.7474 89.8054 53.5383 89.8706 53.3317C84.5407 55.1865 79.4393 60.2687 73.4824 58.6966C65.378 56.5577 66.5394 39.6077 77.8624 42.596C85.5629 44.6283 89.0499 46.7338 91.8694 49.2306C92.9996 47.6127 94.3903 46.3688 95.8763 45.636C96.2522 45.392 96.7783 45.2025 97.4268 45.0692C97.8272 44.9732 98.2303 44.9153 98.6331 44.898C100.796 44.7049 103.784 44.9549 106.999 45.686C107.599 45.8225 108.185 45.9707 108.753 46.1286C109.566 43.1748 112.654 41.424 115.657 42.2167C118.666 43.0109 120.452 46.0576 119.646 49.0216C118.866 51.8881 115.948 53.6276 113.034 53.0206C111.256 53.0863 109.045 52.8958 106.662 52.4326C106.66 53.3344 106.523 54.3234 106.229 55.4042C105.97 56.3585 105.588 57.3424 105.111 58.318C104.765 57.5896 104.192 57.0226 103.503 56.8407C101.575 56.332 99.8084 57.5397 99.3573 59.198C98.7847 61.3026 99.6041 63.1507 101.372 63.7477Z" fill="#191847"/>
<path fill-rule="evenodd" clip-rule="evenodd" d="M69.8208 131.958L90.4846 202.092L100.204 254.749H109.959L100.221 131.958H69.8208Z" fill="#BA8B72"/>
<path fill-rule="evenodd" clip-rule="evenodd" d="M60.5343 131.958C61.9761 168.392 61.4075 188.264 61.0848 191.574C60.7621 194.884 58.9301 217.054 46.4462 255.86H56.5924C73.1253 218.632 78.8967 196.463 80.7929 191.574C82.6891 186.686 88.2894 166.814 96.4656 131.958H60.5343Z" fill="#D4A181"/>
<path fill-rule="evenodd" clip-rule="evenodd" d="M69.3772 131.958C74.7522 156.091 84.0486 194.614 97.2664 247.526H111.534C112.588 193.217 108.105 157.472 100.342 131.958H69.3772Z" fill="#69A1AC"/>
<path fill-rule="evenodd" clip-rule="evenodd" d="M60.4622 131.958C61.8743 168.392 58.2147 204.286 46.8788 248.093H62.102C78.6652 211.421 90.5366 175.703 98.6499 131.958H60.4622Z" fill="#89C5CC"/>
<path fill-rule="evenodd" clip-rule="evenodd" d="M45 263.083L45.5598 254.193C48.8376 255.138 52.943 254.767 57.8762 253.082C63.1805 256.783 69.858 259.31 77.9086 260.663C78.5228 260.766 78.9358 261.34 78.8309 261.945C78.8241 261.985 78.8152 262.023 78.8042 262.062L78.0303 264.75H57.8762H46.1197L45 263.083Z" fill="#191847"/>
<path fill-rule="evenodd" clip-rule="evenodd" d="M98.0263 263.083L98.5861 254.193C101.864 255.138 105.969 254.767 110.902 253.082C116.207 256.783 122.884 259.31 130.935 260.663C131.549 260.766 131.962 261.34 131.857 261.945C131.85 261.985 131.841 262.023 131.83 262.062L131.057 264.75H110.902H99.1459L98.0263 263.083Z" fill="#191847"/>
<path fill-rule="evenodd" clip-rule="evenodd" d="M110.184 100.723L131.328 93.6697C135.206 90.4761 138.887 88.112 142.371 86.5775C143.392 86.3516 145.097 86.4037 143.055 88.8525C141.013 91.3012 138.977 93.9674 139.62 94.9426C140.262 95.9178 142.447 95.0908 143.143 96.6467C143.607 97.6839 139.97 98.5634 132.23 99.2851L115.957 109.487L110.184 100.723ZM138.813 114.744L148.103 111.632C150.089 107.385 151.911 105.39 153.569 105.649C154.943 105.288 151.724 110.532 154.218 110.462C156.713 110.392 163.358 107.109 164.214 108.159C165.48 109.711 163.434 113.449 161.507 115.15C157.906 118.33 155.245 119.169 148.932 119.777C145.631 120.094 141.919 121.235 137.796 123.2L138.813 114.744Z" fill="#D4A181"/>
<path fill-rule="evenodd" clip-rule="evenodd" d="M101.208 96.7748C107.974 97.8775 117.232 98.0367 127.918 93.6974L130.208 102.643C122.419 107.971 112.145 111.676 104.036 110.035C97.6453 108.742 95.7327 100.52 101.208 96.7748Z" fill="#A22020"/>
<path fill-rule="evenodd" clip-rule="evenodd" d="M107.922 111.648C114.777 114.655 127.173 114.666 145.11 111.682C147.769 120.94 148.615 127.357 147.649 130.935C131.837 135.87 118.833 137.036 108.57 135.479C107.825 141.511 106.069 147.068 102.658 151.832C95.6469 161.627 67.5576 146.55 57.1692 146.753C54.4823 125.55 68.1021 119.488 70.4156 106.621C72.9491 92.531 88.3207 72.835 90.011 73.1285L105.425 75.8056C104.349 86.7157 106.507 99.3203 107.922 111.648Z" fill="#BA0F0F"/>
<path fill-rule="evenodd" clip-rule="evenodd" d="M485.925 62H550.075C555.004 62 559 66.2172 559 71.4194V125.581C559 130.783 555.004 135 550.075 135H485.925C480.996 135 477 130.783 477 125.581V71.4194C477 66.2172 480.996 62 485.925 62ZM494.85 78.4839C493.618 78.4839 492.619 79.5382 492.619 80.8387V116.161C492.619 117.462 493.618 118.516 494.85 118.516H541.15C542.382 118.516 543.381 117.462 543.381 116.161V80.8387C543.381 79.5382 542.382 78.4839 541.15 78.4839H494.85Z" fill="#C5CFD6"/>
<path fill-rule="evenodd" clip-rule="evenodd" d="M626.965 127.254L604.196 199.982L593.487 254.588H582.738L593.468 127.254H626.965Z" fill="#BA8B72"/>
<path fill-rule="evenodd" clip-rule="evenodd" d="M637.198 127.254C635.609 165.036 636.236 185.643 636.591 189.076C636.947 192.508 638.966 215.498 652.721 255.74H641.541C623.324 217.135 616.965 194.145 614.876 189.076C612.786 184.006 606.615 163.399 597.606 127.254H637.198Z" fill="#D4A181"/>
<path fill-rule="evenodd" clip-rule="evenodd" d="M627.454 127.254C621.532 152.28 611.288 192.227 596.724 247.097H581.002C579.841 190.779 584.781 153.712 593.335 127.254H627.454Z" fill="#69A1AC"/>
<path fill-rule="evenodd" clip-rule="evenodd" d="M637.277 127.254C635.722 165.036 639.754 202.258 652.245 247.686H635.471C617.22 209.656 604.139 172.618 595.199 127.254H637.277Z" fill="#89C5CC"/>
<path fill-rule="evenodd" clip-rule="evenodd" d="M654.315 263.23L653.698 254.011C650.086 254.991 645.563 254.606 640.127 252.859C634.282 256.697 626.924 259.317 618.054 260.72C617.377 260.827 616.922 261.423 617.037 262.05C617.045 262.091 617.055 262.131 617.067 262.171L617.92 264.959H640.127H653.081L654.315 263.23Z" fill="#191847"/>
<path fill-rule="evenodd" clip-rule="evenodd" d="M595.887 263.23L595.27 254.011C591.658 254.991 587.134 254.606 581.699 252.859C575.854 256.697 568.496 259.317 559.625 260.72C558.949 260.827 558.494 261.423 558.609 262.05C558.617 262.091 558.626 262.131 558.638 262.171L559.491 264.959H581.699H594.653L595.887 263.23Z" fill="#191847"/>
<path fill-rule="evenodd" clip-rule="evenodd" d="M582.491 94.8632L559.192 87.5491C554.919 84.2373 550.863 81.7858 547.024 80.1944C545.899 79.9602 544.02 80.0142 546.27 82.5536C548.52 85.0929 550.764 87.8577 550.056 88.869C549.348 89.8803 546.94 89.0227 546.173 90.6362C545.662 91.7118 549.67 92.6238 558.198 93.3721L576.129 103.952L582.491 94.8632ZM550.945 109.403L540.708 106.176C538.52 101.771 536.512 99.7033 534.686 99.972C533.172 99.5972 536.719 105.035 533.97 104.963C531.221 104.89 523.899 101.485 522.956 102.574C521.561 104.184 523.815 108.06 525.939 109.824C529.907 113.122 532.838 113.992 539.795 114.622C543.432 114.951 547.522 116.135 552.065 118.172L550.945 109.403Z" fill="#D4A181"/>
<path fill-rule="evenodd" clip-rule="evenodd" d="M592.381 90.769C584.925 91.9125 574.724 92.0775 562.95 87.5778L560.426 96.8538C569.009 102.379 580.329 106.221 589.265 104.52C596.306 103.179 598.414 94.6529 592.381 90.769Z" fill="#2026A2"/>
<path fill-rule="evenodd" clip-rule="evenodd" d="M584.983 106.193C577.429 109.311 563.771 109.322 544.007 106.228C541.076 115.828 540.144 122.483 541.208 126.193C558.631 131.31 572.96 132.519 584.269 130.906C585.09 137.16 587.025 142.923 590.783 147.863C598.508 158.02 629.459 142.386 640.906 142.596C643.867 120.609 628.859 114.322 626.31 100.98C623.518 86.3682 606.581 65.9435 604.718 66.2479L587.734 69.024C588.919 80.3378 586.542 93.4086 584.983 106.193Z" fill="#1F28CF"/>
<path fill-rule="evenodd" clip-rule="evenodd" d="M595.605 49.9869C598.01 46.8121 599.381 43.2009 598.415 39.5986C595.63 29.2192 577.468 34.8332 574.789 40.7964C572.11 46.7596 574.906 60.1842 579.741 60.3073C581.669 60.3564 585.472 58.7236 589.171 56.0842L589.122 70.7035L604.082 68.0496L595.605 49.9869Z" fill="#B28B67"/>
<path fill-rule="evenodd" clip-rule="evenodd" d="M597.171 52.1568C597.891 45.2201 602.45 39.7698 601.116 36.9632C600.226 35.0921 598.56 34.126 596.118 34.0648C594.214 30.3801 589.989 29.4188 583.443 31.1807C573.623 33.8236 568.111 38.1774 572.002 44.9154C574.418 44.4868 577.214 43.2785 581.455 43.7465C582.801 43.895 583.921 44.8972 584.814 46.7531L586.637 46.4298C587.999 43.7975 589.594 42.6361 591.421 42.9456C593.249 43.2551 593.901 44.6784 593.379 47.2155L595.231 52.5008L597.171 52.1568Z" fill="#191847"/>
</svg>
