<svg width="417" height="699" viewBox="0 0 417 699" fill="none" xmlns="http://www.w3.org/2000/svg">
<rect width="417" height="699" fill="#EEFAFA"/>
<path fillRule="evenodd" clipRule="evenodd" d="M184.786 170.231C182.91 164.323 181.186 161.818 177.854 159.764C174.738 157.844 170.189 156.23 163.552 155.052C156.639 154.07 156.443 151.152 154.71 146.461C154.204 145.051 151.699 144.676 150.617 145.692C150.465 145.559 150.306 145.436 150.141 145.326C150.288 144.653 149.083 142.725 149.123 142.082C149.543 135.368 146.84 131.996 140.091 130.742C138.623 130.47 128.655 130.309 127.224 130.631C120.968 132.035 114.809 136.496 115.752 141.87C113.788 143.954 111.866 145.227 108.836 145.898C104.118 146.385 106.488 200.678 114.682 233.205C118.198 247.161 202.263 223.407 198.464 216.418C199.003 215.136 198.021 213.728 198.464 212.405C198.785 211.448 199.606 211.052 200.019 210.104C200.601 208.769 199.968 206.98 199.314 205.618C199.045 204.939 199.808 204.209 200.019 203.517C201.024 200.251 198.724 200.539 197.065 198.356C197.09 198.349 197.521 196.79 197.519 196.798C197.773 195.685 197.137 194.26 196.582 193.331C196.207 192.703 195.404 192.31 194.605 192.382C195.409 190.166 196.426 188.321 197.519 186.185C199.453 182.421 201.291 178.483 204.067 175.076C205.204 173.68 204.286 172.397 202.446 172.302C196.491 171.995 190.601 171.298 184.786 170.231Z" fill="#EDB98A"/>
<path fillRule="evenodd" clipRule="evenodd" d="M175.489 170.688L161.896 189.375C161.896 189.375 165.121 189.637 166.426 190.146C167.731 190.655 173.723 196.843 173.723 196.843L174.675 200.251L172.419 202.998L173.299 204.723C173.299 204.723 173.926 203.554 175.489 202.647C177.052 201.74 180.499 200.251 180.499 200.251C180.499 200.251 179.353 199.753 179.353 199.169C179.353 198.584 178.345 196.091 180.499 195.15C182.653 194.208 193.785 192.004 193.785 192.004L205.067 172.673L175.489 170.688Z" fill="#EC7495"/>
<path fillRule="evenodd" clipRule="evenodd" d="M114.849 146.025L158.013 152.179L177.854 159.765L181.093 161.792L161.896 189.375L132.253 193.769L124.701 209.703L126.243 227.665L174.465 222.995L195.266 220.987L200.156 237.023L199.273 243.619L197.988 246.965L146.421 258.274C146.421 258.274 120.162 256.206 115.507 256.206C110.852 256.206 76.7243 258.959 76.7243 258.959L68.828 258.274C68.828 258.274 51.3574 243.316 48.6477 237.993C45.9381 232.669 40.0786 200.309 40.0786 200.309L40.7238 195.337L55.818 163.783C55.818 163.783 57.8336 162.296 60.3748 159.765C62.916 157.233 114.849 146.025 114.849 146.025Z" fill="#9DDADB"/>
<path fillRule="evenodd" clipRule="evenodd" d="M192.971 191.606C189.07 191.767 185.165 192.52 181.636 193.885C180.193 194.444 178.885 195.252 178.502 196.581C178.308 197.259 178.355 197.96 178.458 198.645C178.536 199.164 178.555 199.827 179.11 200.178C179.205 200.237 179.306 200.283 179.412 200.316C178.11 200.793 176.87 201.367 175.769 201.957C174.762 202.498 173.727 203.33 173.262 204.268C173.224 204.162 173.185 204.062 173.146 203.968C172.355 202.066 171.135 200.508 169.213 199.461C168.995 198.815 166.653 196.035 164.478 196.14C162.097 196.254 160.181 196.395 158.027 197.285C157.242 197.271 156.458 197.28 155.684 197.308C155.551 197.311 155.557 197.458 155.684 197.47C156.312 197.535 156.941 197.607 157.569 197.691C159.062 197.885 160.551 198.131 162.007 198.437C163.755 198.804 165.562 199.173 167.195 199.814C170.362 201.061 172.322 204.319 171.92 207.154C171.853 207.619 171.632 209.025 170.837 208.879C170.166 208.757 169.9 207.619 169.665 207.198C169.037 206.079 167.905 205.349 166.547 204.854C164.953 204.272 163.247 203.878 161.594 203.421C160.658 203.16 159.723 202.9 158.784 202.641C157.825 202.374 156.913 202.005 155.891 202.192C155.273 202.305 155.202 202.903 155.548 203.246C156.076 203.768 156.859 203.922 157.618 204.137C158.621 204.42 159.621 204.704 160.622 204.987C162.169 205.424 163.789 205.793 165.297 206.327L165.25 206.415C165.127 206.387 164.983 206.486 165.007 206.609C165.233 207.74 165.547 209.047 165.198 210.18C164.923 211.078 163.952 212.073 162.692 211.809C162.89 211.662 162.963 211.409 162.829 211.175C162.33 210.308 155.789 206.885 155.206 208.156C155.187 208.201 155.247 208.234 155.295 208.228C155.792 208.144 156.624 208.832 157.022 209.051C157.597 209.366 158.18 209.673 158.748 209.996C159.37 210.35 159.976 210.72 160.568 211.103C161.033 211.404 161.384 211.716 161.917 211.869C161.637 211.977 161.416 212.178 161.321 212.435C161.08 213.104 160.615 213.673 159.809 213.968C158.963 214.276 158.01 214.082 157.119 214.157C155.906 214.256 154.847 214.725 153.963 215.394C152.106 216.803 151.174 219.286 148.577 219.951C147.026 220.348 145.305 220.098 143.734 219.918C141.981 219.717 140.272 219.558 138.506 219.768C136.815 219.969 135.216 220.444 133.671 221.025C132.223 221.568 130.622 222.184 129.338 222.995C129.073 222.332 128.806 221.677 128.604 221C128.126 219.401 127.868 217.772 127.806 216.128C127.748 214.564 127.855 212.993 128.021 211.435C128.103 210.657 128.232 209.883 128.314 209.105C128.335 208.909 128.378 208.699 128.41 208.49C130.704 207.39 133.114 206.548 135.543 205.681C135.549 205.679 135.556 205.675 135.562 205.674C135.638 205.646 135.711 205.62 135.786 205.593C135.784 205.59 135.782 205.586 135.777 205.583C136.055 205.445 136.249 205.261 136.365 205.055C139.866 203.169 142.792 200.594 144.973 197.591C145.888 196.332 146.768 195.027 147.964 193.924C149.238 192.747 150.75 192.048 152.622 191.684C154.81 191.258 157.065 191.003 159.307 190.858C160.532 190.779 161.9 190.657 163.234 190.662C164.163 190.667 165.073 190.732 165.908 190.919C167.146 191.195 167.868 191.959 168.645 192.731C169.387 193.473 170.125 194.216 170.818 194.988C171.474 195.721 172.094 196.477 172.632 197.271C172.955 197.746 173.254 198.236 173.506 198.741C173.594 198.92 173.71 199.122 173.764 199.307C173.818 199.494 173.719 199.692 173.977 199.692C172.912 199.704 172.204 201.862 173.262 201.811C174.751 201.741 175.499 200.291 175.208 199.005C174.687 196.71 171.877 193.939 171.322 193.352C170.093 192.055 168.826 190.363 166.859 189.76C166.831 189.751 166.801 189.743 166.773 189.735C167.346 189.295 167.797 188.767 168.23 188.23C168.675 187.678 169.207 187.045 169.353 186.39C169.446 185.972 168.807 185.734 168.503 186.1C168.062 186.633 167.849 187.307 167.52 187.893C167.184 188.487 166.775 189.048 166.453 189.648C165.676 189.454 164.837 189.365 163.983 189.335C165.061 188.15 166.902 185.864 167.124 185.57C168.144 184.21 169.114 182.808 170.042 181.404C171.044 179.884 171.903 178.3 172.862 176.762C173.407 175.89 173.955 175.01 174.56 174.164C174.769 173.874 174.992 173.584 175.246 173.32C175.296 173.268 175.358 173.224 175.416 173.175C175.483 173.145 175.552 173.112 175.59 173.095C175.939 172.932 176.062 172.554 176.307 172.315C176.699 171.929 177.159 171.883 177.749 171.878C179.005 171.867 180.266 171.907 181.52 171.935C183.364 171.977 185.206 172.037 187.048 172.115C187.605 172.14 188.16 172.164 188.717 172.192C191.396 172.322 194.073 172.491 196.743 172.699C199.105 172.883 201.468 173.182 203.832 173.325C200.631 179.504 197.081 185.572 193.061 191.428C193.021 191.487 192.99 191.546 192.971 191.606ZM175.208 207.525C174.691 207.717 174.19 207.957 173.723 208.229C173.8 207.805 173.82 207.357 173.798 206.908C174.183 207.243 174.676 207.436 175.208 207.525ZM197.251 196.895C197.214 196.899 197.18 196.914 197.162 196.944C196.448 198.141 196.747 199.479 197.913 200.417C198.524 200.907 199.856 201.459 199.813 202.263C199.776 202.914 198.905 203.459 198.533 203.996C198.186 204.495 198.057 205.044 198.335 205.586C198.69 206.28 199.682 206.556 200.022 207.238C200.452 208.103 199.753 209.147 199.262 209.9C198.806 210.598 198.216 211.295 197.825 212.033C195.202 213.136 189.251 215.139 188.534 215.251C187.661 215.389 186.785 215.52 185.907 215.643C184.222 215.88 182.534 216.1 180.84 216.295C179.876 216.405 178.91 216.513 177.944 216.599C177.101 216.672 176.15 216.772 175.47 216.256C174.099 215.214 174.868 213.468 175.735 212.416C175.752 212.395 175.752 212.375 175.745 212.358C176.563 212.202 177.378 212.021 178.192 211.893C179.756 211.648 181.331 211.442 182.908 211.259C186.148 210.883 189.41 210.634 192.667 210.385C193.474 210.322 193.483 209.29 192.667 209.352C187.988 209.699 183.285 210.03 178.667 210.762C177.51 210.944 176.361 211.15 175.218 211.383C174.678 211.491 174.099 211.661 173.534 211.666C173.499 211.666 173.464 211.666 173.43 211.664C172.322 211.636 172.161 210.865 172.77 210.224C172.845 210.145 172.923 210.066 173.002 209.991C174.078 208.949 175.418 208.254 176.799 207.534C178.347 207.362 179.889 206.981 181.404 206.701C185.144 206.009 188.883 205.317 192.625 204.627C193.358 204.49 193.046 203.574 192.313 203.709C189.473 204.232 186.632 204.754 183.792 205.277L179.635 206.043C178.805 206.195 177.768 206.5 176.791 206.611C176.309 206.665 175.842 206.672 175.421 206.592C174.059 206.329 173.99 204.946 174.577 204.125C175.235 203.202 176.479 202.625 177.583 202.102C179.496 201.195 181.531 200.543 183.519 199.792C183.872 199.729 184.225 199.666 184.578 199.603C186.63 199.236 188.976 199.056 190.908 198.383C191.486 198.183 191.17 197.442 190.598 197.453C189.098 197.479 187.53 197.913 186.064 198.169C184.479 198.449 182.891 198.727 181.305 199.005C181.146 199.033 180.203 199.278 180.061 199.224C179.971 199.189 179.939 198.934 179.909 198.766C179.812 198.213 179.741 197.633 179.846 197.079C180.079 195.836 181.355 195.252 182.646 194.775C185.52 193.714 188.672 193.05 191.809 192.784C192.532 192.723 193.255 192.684 193.982 192.665C194.836 192.644 195.54 192.522 195.972 193.205C196.652 194.282 197.027 195.666 197.251 196.895ZM193.258 235.936C192.632 234.176 192.803 232.297 192.374 230.502C192.152 229.576 191.85 228.657 191.52 227.753C191.253 227.023 190.809 226.246 190.759 225.484C190.756 225.433 190.83 225.404 190.88 225.427C191.764 225.838 192.443 226.727 192.946 227.424C193.55 228.259 194.01 229.133 194.382 230.052C195.123 231.883 195.731 234.091 194.776 235.936C194.491 236.485 193.493 236.595 193.258 235.936ZM168.815 249.259C167.881 248.729 167.201 247.99 166.41 247.337C165.631 246.695 166.848 245.706 167.627 246.348C168.302 246.905 168.889 247.601 169.683 248.051C170.066 248.268 170.243 248.659 169.992 249.008C169.771 249.315 169.196 249.475 168.815 249.259ZM163.61 228.921C165.313 228.323 166.989 227.671 168.772 227.24C169.838 226.982 170.289 228.332 169.23 228.588C167.588 228.985 166.047 229.577 164.478 230.128C163.471 230.482 162.596 229.277 163.61 228.921ZM145.616 228.502C145.199 227.667 146.865 227.307 147.276 228.131C147.748 229.078 148.29 230.002 148.763 230.95C149.179 231.785 147.514 232.145 147.103 231.321C146.63 230.374 146.088 229.45 145.616 228.502ZM127.856 245.182C127.578 245.482 127.115 245.645 126.678 245.433C126.312 245.254 126.088 244.78 126.369 244.476C127.19 243.587 128.021 242.71 128.982 241.918C129.762 241.276 130.978 242.265 130.199 242.907C129.341 243.614 128.588 244.388 127.856 245.182ZM125.316 151.595C126.106 152.033 126.798 152.566 127.473 153.114C128.258 153.751 127.041 154.74 126.256 154.103C125.687 153.641 125.114 153.172 124.447 152.802C124.062 152.589 123.89 152.192 124.138 151.846C124.362 151.536 124.932 151.382 125.316 151.595ZM151.155 174.098C150.708 174.825 150.306 175.537 150.28 176.363C150.253 177.263 148.532 177.263 148.559 176.363C148.592 175.282 149.083 174.345 149.668 173.392C150.164 172.586 151.648 173.295 151.155 174.098ZM160.635 156.025C161.56 155.524 162.421 156.736 161.504 157.233C160.76 157.635 160.017 158.038 159.273 158.441C158.348 158.942 157.487 157.73 158.404 157.233C159.148 156.831 159.891 156.428 160.635 156.025ZM119.515 187.624C119.357 188.513 117.699 188.133 117.855 187.253C118.097 185.892 118.392 184.55 118.847 183.225C119.144 182.358 120.804 182.729 120.506 183.597C120.052 184.922 119.757 186.264 119.515 187.624ZM113.48 203.643C112.372 203.624 112.372 202.226 113.48 202.245C114.483 202.262 115.468 202.476 116.435 202.672C117.511 202.891 117.052 204.239 115.978 204.021C115.16 203.855 114.328 203.658 113.48 203.643ZM111.252 235.911C110.872 236.062 110.481 236.197 110.096 236.34C109.326 236.626 108.556 236.913 107.786 237.2C106.182 237.798 104.579 238.398 102.978 239C99.7719 240.206 96.5413 241.369 93.3277 242.562C90.0506 243.778 86.7821 245.01 83.5177 246.249C81.9798 246.832 80.4302 247.394 78.8837 247.962C77.5613 248.448 75.9267 249.297 74.4751 249.377C74.4004 249.381 74.3754 249.304 74.418 249.265C74.9665 248.758 75.8413 248.463 76.5621 248.134C77.2984 247.797 78.0484 247.481 78.795 247.16C80.3515 246.49 81.9099 245.825 83.4814 245.179C86.6249 243.886 89.7744 242.603 92.9245 241.322C96.1372 240.015 99.3459 238.699 102.587 237.439C104.113 236.845 105.64 236.253 107.168 235.663C107.996 235.344 108.825 235.025 109.653 234.706C110.011 234.569 110.365 234.42 110.731 234.297C111.217 234.134 111.586 234.167 112.088 234.067C112.905 233.903 113.259 234.747 112.632 235.115C112.115 235.418 111.843 235.677 111.252 235.911ZM99.7612 250.25C99.5845 249.901 99.9544 249.477 100.362 249.39C100.851 249.285 101.243 249.527 101.421 249.878C101.893 250.811 102.565 251.667 103.43 252.389C104.204 253.035 102.987 254.024 102.213 253.378C101.129 252.472 100.35 251.414 99.7612 250.25ZM91.3074 227.804C90.5227 227.167 91.74 226.178 92.5245 226.815L94.7553 228.627C95.54 229.265 94.3224 230.254 93.5381 229.616L91.3074 227.804ZM68.4209 224.849C66.8171 225.231 64.9465 225.583 63.8531 226.694C63.7997 226.749 63.71 226.679 63.7421 226.625C65.1419 224.267 69.1563 223.44 71.9357 222.614C73.9017 222.03 75.9188 221.545 77.9529 221.112C77.7496 219.227 78.3103 217.207 78.5052 215.331C78.7133 213.328 78.8826 211.32 78.9695 209.311C79.0584 207.261 79.0799 205.198 78.9968 203.148C78.9142 201.105 78.5878 199.088 78.4449 197.052C78.4312 196.855 78.7685 196.846 78.8413 197.008C79.686 198.897 80.0468 200.99 80.3218 202.982C80.6049 205.034 80.699 207.08 80.6628 209.144C80.6254 211.266 80.4735 213.383 80.265 215.498C80.1662 216.501 80.0515 217.502 79.9433 218.504C79.8607 219.268 79.8224 220.027 79.6305 220.767C80.8573 220.523 82.0869 220.291 83.3127 220.066C87.2213 219.35 91.1462 218.685 95.0384 217.91C96.949 217.53 98.8323 217.074 100.734 216.67C102.525 216.289 104.416 215.827 106.254 215.657C106.911 215.596 106.994 216.325 106.56 216.573C105.065 217.425 103.08 218.019 101.354 218.496C99.6218 218.975 97.8209 219.32 96.0452 219.674C92.3421 220.414 88.6039 221.019 84.8713 221.649C81.1439 222.279 77.4094 222.904 73.7239 223.68C71.9491 224.054 70.1803 224.43 68.4209 224.849ZM59.6323 187.438C58.674 187.895 57.8088 186.686 58.7637 186.23C60.0131 185.635 61.3448 185.187 62.6871 184.75C63.7173 184.415 64.1606 185.768 63.1448 186.099C61.9384 186.491 60.755 186.903 59.6323 187.438ZM56.1622 239.391C55.2013 239.844 54.3355 238.635 55.2936 238.184C56.6392 237.55 58.1129 237.127 59.5073 236.573C60.4994 236.178 61.3708 237.385 60.3759 237.78C58.9817 238.335 57.5078 238.758 56.1622 239.391ZM54.6015 209.9C55.5305 210.617 56.7705 210.955 57.9397 211.331C58.9591 211.66 58.512 213.011 57.482 212.68C56.0254 212.21 54.5417 211.782 53.3843 210.889C52.5792 210.268 53.7985 209.28 54.6015 209.9ZM64.8798 169.849C65.9012 170.174 65.4539 171.526 64.4222 171.198C63.278 170.833 62.0963 170.555 60.9521 170.191C59.9309 169.865 60.378 168.514 61.4097 168.842C62.554 169.207 63.7356 169.484 64.8798 169.849ZM83.0119 153.941C84.0972 153.792 84.5593 155.14 83.4695 155.289C82.1175 155.475 80.7861 155.692 79.5037 156.095C78.4682 156.42 78.0239 155.068 79.0461 154.746C80.3287 154.343 81.6601 154.126 83.0119 153.941ZM89.003 192.674C88.0079 192.276 88.881 191.071 89.8716 191.466C90.9156 191.883 91.9972 192.205 93.1362 192.402C94.2208 192.59 93.7589 193.938 92.6786 193.751C91.3966 193.529 90.1769 193.143 89.003 192.674ZM94.6615 170.856C95.733 170.617 96.1861 171.967 95.1191 172.204C93.2419 172.622 91.3091 172.839 89.4181 173.211C88.3403 173.423 87.8844 172.074 88.9604 171.863C90.8514 171.491 92.7844 171.274 94.6615 170.856ZM118.666 164.009C119.755 164.173 119.291 165.521 118.208 165.358C117.056 165.185 115.888 165.182 114.719 165.181C113.61 165.181 113.612 163.783 114.719 163.783C116.047 163.783 117.357 163.813 118.666 164.009ZM196.954 171.315C194.142 171.097 191.325 170.922 188.504 170.791C188.373 170.785 188.244 170.778 188.113 170.773C188.098 170.749 188.078 170.726 188.059 170.701C187.138 169.604 186.46 168.506 185.873 167.265C185.311 166.083 184.767 164.865 183.902 163.799C182.916 162.584 181.584 161.633 180.124 160.809C179.239 161.293 178.417 161.859 177.665 162.46C176.874 163.091 175.657 162.103 176.448 161.471C177.116 160.937 177.829 160.445 178.583 159.999C177.713 159.57 176.825 159.166 175.958 158.764C172.711 157.259 169.387 155.868 165.994 154.595C164.417 154.003 162.821 153.477 161.214 152.943C160.348 152.657 159.494 152.288 158.63 151.956C158.692 151.459 158.509 150.903 158.04 150.577C157.694 150.337 157.425 150.248 157.012 150.079C156.919 150.052 156.863 150.036 156.837 150.028C156.857 150.031 156.913 150.045 157.005 150.07C157.225 150.152 157.242 150.127 157.057 149.998C157.046 149.715 156.359 149.117 156.203 148.825C155.656 147.823 155.486 146.764 154.679 145.852C153.567 144.595 151.699 144.12 149.958 144.546C149.778 143.034 149.731 141.456 149.029 140.106C149.01 140.07 148.947 140.054 148.919 140.094C148.188 141.106 148.125 142.233 148.07 143.401C148.016 144.497 148.067 145.617 148.244 146.706C148.132 146.776 148.018 146.843 147.9 146.908C147.344 147.205 146.746 147.434 146.118 147.603C144.922 147.925 143.667 148.065 142.413 148.114C139.175 148.239 135.838 147.974 132.653 147.523C129.432 147.067 124.495 146.381 121.629 145.072C119.737 144.209 117.992 143.155 116.224 142.134C116.865 140.456 117.029 138.652 116.383 137.234C116.306 137.065 115.979 137.033 115.916 137.234C115.512 138.587 115.393 139.947 114.855 141.284C114.847 141.303 114.838 141.325 114.83 141.344C114.662 141.251 114.494 141.16 114.326 141.069C113.939 140.861 113.412 141.017 113.179 141.314C109.463 146.07 103.579 146.343 97.3996 147.193C90.6369 148.122 83.8403 149.126 77.3382 150.945C71.1201 152.687 65.1774 155.221 60.4697 159.007C59.404 159.865 58.4074 160.778 57.4667 161.731C58.3769 161.825 59.2795 161.97 60.1704 162.197C61.2253 162.466 60.772 163.816 59.7128 163.546C58.5677 163.253 57.4099 163.109 56.2403 163.037C53.0416 166.592 50.5474 170.623 48.3907 174.591C44.2538 182.198 41.5611 190.3 40.322 198.548C41.0023 198.217 41.6949 197.901 42.4048 197.608C43.391 197.2 44.2609 198.407 43.2736 198.815C42.1771 199.268 41.1121 199.768 40.0802 200.309C39.6294 203.92 39.4547 207.554 39.5606 211.182C39.8123 219.831 41.2496 228.733 44.5006 236.986C46.0949 241.036 48.2078 245.053 51.3556 248.475C52.7799 250.026 54.3979 251.424 56.3042 252.59C57.2273 253.156 58.2041 253.662 59.2347 254.088C60.5622 254.64 62.2921 254.822 63.4368 255.604C63.8133 255.861 64.1037 256.2 64.3232 256.582C64.1963 257.31 64.1812 258.039 64.4265 258.766C64.5039 258.993 64.7148 259.178 64.9751 259.267C64.9794 259.33 64.9794 259.392 64.9794 259.451C64.9794 259.479 65.0311 259.486 65.0375 259.458C65.0483 259.404 65.059 259.35 65.0698 259.294C65.1537 259.316 65.2419 259.327 65.3323 259.327C68.6006 259.337 71.8729 259.272 75.1455 259.182C74.8925 258.552 74.6183 257.928 74.3552 257.298C73.9978 256.443 75.6608 256.079 76.0149 256.926C76.3228 257.663 76.6447 258.393 76.9311 259.131C80.4375 259.025 83.9429 258.898 87.442 258.804C94.8844 258.603 102.325 258.537 109.769 258.409C121.33 258.21 132.974 257.803 144.553 258.201C144.953 257.511 145.402 256.836 145.826 256.155C146.328 255.352 147.812 256.06 147.313 256.861C147.017 257.334 146.711 257.802 146.421 258.274C148.766 258.373 151.108 258.504 153.446 258.682C157.435 258.986 161.386 259.526 165.37 259.862C169.422 260.204 173.385 260.143 177.404 259.6C178.127 259.502 178.553 259.147 178.73 258.706C178.736 258.705 178.74 258.701 178.745 258.696C178.951 258.5 179.145 258.338 179.345 258.196C179.584 258.07 179.842 257.963 180.145 257.869C180.711 257.694 181.301 257.588 181.899 257.516C182.557 257.436 183.224 257.429 183.883 257.362C184.438 257.305 184.98 257.219 185.522 257.114C186.497 256.925 187.422 256.679 188.343 256.352C189.146 256.067 189.87 255.658 190.555 255.212C191.971 254.371 193.197 253.298 194.268 252.183C194.892 251.531 195.48 250.854 196.013 250.15C196.943 248.93 197.735 247.662 198.535 246.385C198.826 246.006 199.091 245.618 199.333 245.222C197.769 244.848 196.189 244.543 194.531 244.521C193.423 244.507 193.423 243.108 194.531 243.123C196.433 243.147 198.232 243.508 200.019 243.938C200.106 243.75 200.19 243.561 200.267 243.369C200.48 242.969 200.657 242.558 200.803 242.142C200.889 241.953 200.975 241.765 201.061 241.576C201.255 240.922 201.448 240.267 201.644 239.611C202.034 238.562 202.341 237.498 202.567 236.419C202.756 235.71 202.903 234.995 203.002 234.271C203.303 232.518 203.548 230.768 203.565 228.995C203.54 227.903 203.454 226.812 203.307 225.727C203.245 224.989 203.139 224.255 202.997 223.526C202.812 222.442 202.63 221.369 202.322 220.299C202.092 219.576 201.861 218.852 201.631 218.128C201.057 216.62 200.379 215.141 199.598 213.695C199.555 213.605 199.337 213.405 199.206 213.403C199.107 213.402 198.969 213.475 199.015 213.573C199.019 213.582 199.023 213.592 199.028 213.601C198.983 213.519 198.94 213.435 198.894 213.353C198.856 213.276 198.705 213.122 198.589 213.124C198.582 213.124 198.576 213.124 198.567 213.125C198.597 213.108 198.625 213.085 198.653 213.059C199.426 212.316 199.927 211.339 200.48 210.479C200.938 209.769 201.371 209.021 201.496 208.219C201.605 207.514 201.457 206.82 200.913 206.25C200.293 205.602 199.127 205.298 199.774 204.361C200.51 203.295 201.592 202.37 200.515 201.159C199.966 200.541 199.097 200.203 198.451 199.666C197.709 199.045 197.356 198.215 197.375 197.367C197.421 197.388 197.481 197.378 197.502 197.325C198.126 195.794 197.674 194.113 197.035 192.621C196.687 191.812 195.949 191.59 195.09 191.55C198.808 185.65 202.287 179.656 205.388 173.524C205.491 173.323 205.592 173.122 205.693 172.921C205.844 172.621 205.526 172.221 205.158 172.154C202.477 171.677 199.684 171.525 196.954 171.315Z" fill="black"/>
<path fillRule="evenodd" clipRule="evenodd" d="M140.047 72.9601C151.388 72.9601 165.591 82.8643 169.748 87.079C173.243 90.6225 172.749 108.877 172.749 119.706C172.749 121.971 171.412 126.257 170.926 128.423C169.148 136.362 161.398 143.019 146.059 143.019C133.57 143.019 123.959 139.991 114.664 132.244C112.544 130.477 102.188 136.804 100.071 134.525C94.5388 134.525 89.9134 94.9553 100.774 83.0865C111.635 71.2178 128.707 72.9601 140.047 72.9601Z" fill="#EDB98A"/>
<path fillRule="evenodd" clipRule="evenodd" d="M105.962 75.7474C112.515 71.183 121.245 68.9871 130.053 69.1492C134.615 69.2333 139.16 69.8985 143.468 71.0377C145.623 71.6096 147.711 72.3558 149.706 73.1999C150.425 73.5033 151.088 73.8589 151.726 74.2366L151.885 74.3314H151.887C153.598 74.8024 155.126 75.648 156.512 76.6373C159.291 76.4676 162.091 76.6587 164.777 77.3147C168.516 78.2291 171.977 79.9035 174.408 82.2813C177.239 85.0495 178.18 88.4073 177.845 91.8735L177.783 92.4624C177.45 95.5244 176.855 99.4628 173.573 101.475C173.323 101.628 173.048 101.744 172.762 101.814C174.877 104.588 176.613 107.668 177.651 110.778C181.616 122.658 178.568 135.047 173.801 146.497C173.409 147.44 171.546 148.067 170.597 147.145C168.903 145.497 166.443 144.24 163.675 144.004C161.967 143.859 160.267 144.122 158.653 143.529C158.02 143.295 157.409 142.912 156.97 142.447C154.246 143.238 151.312 143.611 148.402 143.519C143.626 143.37 138.521 142.103 135.236 139.327C134.708 138.881 134.575 138.38 134.696 137.929C135.108 137.817 135.531 137.733 135.967 137.68C140.133 139.56 144.726 140.817 149.661 140.895C152.513 140.941 155.295 140.636 157.608 139.272C158.108 138.977 158.568 138.65 158.993 138.299C163.828 135.918 167.237 131.874 168.857 127.542C170.367 123.502 170.182 119.295 169.662 115.151L169.388 112.964C168.989 109.755 168.619 106.536 168.515 103.313L168.546 103.312V103.312C169.567 103.261 169.574 102.037 168.546 102.088C165.886 102.22 163.246 101.886 160.594 102.032C160.572 101.072 160.482 100.116 160.113 99.1904C159.903 98.6615 158.7 98.5572 158.572 99.1904C158.402 100.038 158.34 100.88 158.321 101.731C154.352 101.691 150.387 101.435 146.418 101.54C145.686 100.942 145.453 99.8819 145.11 99.1444C145.06 99.0358 145.01 98.9288 144.958 98.8202C144.657 99.8741 144.231 100.905 143.669 101.914L142.696 101.916C137.173 101.936 131.537 102.063 126.143 102.941C125.768 102.721 125.545 102.336 125.485 101.987C125.094 99.7154 124.535 97.5042 123.546 95.3394L123.404 95.034C123.393 95.0086 123.381 94.9817 123.368 94.9534C122.639 95.8545 121.769 96.6944 120.82 97.4766C120.26 97.9376 119.674 98.3785 119.072 98.8068C118.488 99.3037 117.884 99.7932 117.298 100.292C117.321 100.382 117.341 100.474 117.357 100.568C117.536 101.603 117.555 102.652 117.424 103.69C117.186 105.567 116.494 107.376 115.382 109.05L115.347 109.217C115.178 110.002 114.938 110.812 114.377 111.403C115.077 112.003 115.616 112.721 115.929 113.518C116.207 114.228 114.925 114.843 114.26 114.262C113.732 113.801 113.145 113.419 112.5 113.114C112.459 113.156 112.386 113.177 112.303 113.142C110.508 112.379 107.458 112.61 105.664 113.328C103.433 114.221 102.563 116.055 102.81 117.913C103.048 119.688 104.062 121.763 106.03 122.673C106.933 123.09 107.636 123.126 108.594 122.925C108.901 122.861 109.281 122.666 109.444 122.569L109.604 122.47C110.233 122.09 110.818 121.83 111.56 121.82C112.319 121.639 113.082 121.89 113.372 122.499L113.39 122.538C113.525 122.849 113.773 123.239 113.719 123.713C113.663 124.22 113.36 124.682 112.906 125.054C112.828 125.118 112.745 125.182 112.659 125.242C120.468 131.715 121.471 141.801 117.466 149.887C117.292 150.241 117.107 150.592 116.913 150.939C116.244 152.128 113.667 151.76 113.34 150.581C113.242 150.228 113.134 149.876 113.016 149.527C112.8 148.883 112.551 148.245 112.272 147.616L112.165 147.38C111.928 146.861 111.706 146.336 111.466 145.816L111.442 145.757C111.433 145.733 111.423 145.706 111.412 145.675L111.007 146.353V146.353L109.775 148.397C109.198 149.351 107.366 148.833 107.298 147.913L107.296 147.882C107.29 147.712 107.282 147.544 107.268 147.377C107.18 146.128 106.899 144.914 106.451 143.726L106.29 143.879C103.886 146.154 101.066 148.287 97.1959 148.812C96.2253 148.943 95.1268 148.166 95.7939 147.416C96.0695 147.105 96.3351 146.787 96.5868 146.464C96.3691 146.386 96.1633 146.305 95.9736 146.223C94.5056 145.591 93.2833 144.692 92.2727 143.672C90.1296 141.51 89.3627 138.788 89.1749 136.125C88.9752 133.309 89.2988 130.341 90.3034 127.626C90.7388 126.451 91.328 125.324 92.0091 124.231C91.9611 124.133 91.9152 124.035 91.8692 123.938C91.1343 122.369 90.5311 120.765 90.0298 119.142C89.0192 115.867 88.4759 112.487 88.41 109.122C88.2902 103.093 89.6483 96.9669 92.5104 91.3444C95.4663 85.546 99.9122 79.9601 105.962 75.7474ZM102.281 128.462C101.738 127.808 100.38 128.397 100.884 129.056L100.902 129.08C101.763 130.118 102.167 131.299 102.662 132.456C102.98 133.201 104.523 132.883 104.202 132.131L104.095 131.879C103.603 130.705 103.153 129.513 102.281 128.462ZM107.009 115.972L107.369 115.839C108.507 115.423 109.504 115.14 110.848 115.503C112.647 115.988 114.574 117.531 113.358 119.028C112.911 119.58 112.116 119.8 111.297 119.67C109.916 119.451 109.56 118.499 108.86 117.717L108.739 117.585C108.312 117.112 107.772 116.459 107.061 116.274C106.899 116.231 106.831 116.038 107.009 115.972ZM108.022 84.1883L108.139 84.1086C108.912 83.5856 107.777 82.7232 107.008 83.2431C103.489 85.624 102.267 89.3504 100.441 92.5264C100.032 93.2405 101.408 93.8644 101.821 93.1442C103.563 90.1135 104.718 86.4882 108.022 84.1883V84.1883ZM150.312 83.1468C149.393 82.8295 148.588 83.854 149.472 84.1914L149.506 84.2034C152.613 85.2784 153.935 87.7127 155.202 89.9728C155.605 90.6945 156.981 90.0722 156.582 89.3565L156.353 88.951C155.032 86.6219 153.491 84.248 150.312 83.1468ZM155.184 81.6758C154.209 81.4174 153.792 82.5979 154.759 82.8563C157.393 83.5582 159.201 85.072 160.724 86.8029C161.296 87.4513 162.68 86.8396 162.103 86.1852C160.333 84.1759 158.232 82.4893 155.184 81.6758Z" fill="black"/>
<path fillRule="evenodd" clipRule="evenodd" d="M147.162 129.72C145.955 129.323 144.879 128.66 144.093 127.813C143.819 127.518 143.748 127.207 143.805 126.923C143.87 126.603 144.104 126.313 144.424 126.119C144.744 125.924 145.145 125.827 145.532 125.876C145.869 125.919 146.204 126.068 146.469 126.377L146.524 126.439C146.992 126.95 147.602 127.369 148.296 127.64C148.966 127.9 149.714 128.022 150.489 127.951C151.965 127.817 152.982 127.172 154.063 126.296C154.197 126.186 154.331 126.072 154.465 125.956C154.551 125.851 154.669 125.783 154.8 125.748C154.945 125.709 155.11 125.711 155.261 125.753C155.406 125.794 155.536 125.872 155.623 125.976C155.706 126.074 155.753 126.195 155.738 126.335C155.639 127.242 155.052 128.052 154.218 128.688C153.292 129.394 152.064 129.883 150.908 130.054C149.634 130.243 148.337 130.108 147.162 129.72V129.72ZM151.509 115.722C152.863 116.388 154.928 117.939 153.47 119.589C151.755 121.043 149.284 119.376 148.067 118.621C146.939 118.037 145.67 119.54 146.718 120.223C155.514 125.485 159.083 115.896 152.194 114.94C151.435 114.834 151.154 115.516 151.509 115.722ZM135.746 109.601C135.896 108.1 138.726 107.759 139.007 109.245C139.259 110.576 138.963 111.798 138.221 112.996C137.512 114.141 135.73 113.607 135.595 112.565C135.415 111.167 135.653 110.535 135.746 109.601ZM157.288 108.937C157.683 108.519 158.253 108.234 158.935 108.395C161.068 108.899 160.439 111.345 159.69 112.535C159.283 113.182 157.968 113.346 157.374 112.777C156.405 111.848 155.941 109.994 157.172 109.08C157.206 109.033 157.243 108.985 157.288 108.937ZM138.191 103.032L138.528 102.984C139.57 102.839 140.865 102.699 141.603 103.376C141.993 103.735 142.128 104.402 141.603 104.745C140.678 105.35 139.656 105.116 138.548 105.167C137.635 105.209 136.758 105.331 135.879 105.534C133.95 105.98 132.378 106.793 130.73 107.686C130.514 107.803 130.293 107.58 130.396 107.416C131.347 105.911 133.191 104.675 135.037 103.921C136.022 103.519 137.101 103.185 138.191 103.032ZM155.344 102.358L155.602 102.4C158.408 102.874 162.053 103.821 163.382 106.047C163.432 106.362 163.379 106.43 163.335 106.474L163.321 106.488C163.285 106.526 163.257 106.578 163.088 106.621C163.041 106.612 162.993 106.602 162.946 106.592C162.337 106.463 161.855 106.286 161.388 106.101L160.882 105.9C160.296 105.667 159.704 105.443 159.076 105.278C157.737 104.925 156.36 104.677 154.962 104.544C154.659 104.515 154.367 104.432 154.136 104.291C153.918 104.156 153.751 103.97 153.675 103.723C153.576 103.402 153.605 103.16 153.817 102.871C153.977 102.654 154.206 102.504 154.469 102.417C154.736 102.329 155.041 102.309 155.344 102.358Z" fill="black"/>
<path fillRule="evenodd" clipRule="evenodd" d="M169.958 120.679C169.653 117.292 164.789 115.857 162.367 115.431C154.3 113.766 147.437 118.039 137.818 118.126C136.847 118.139 134.071 117.995 132.78 117.696C126.23 116.389 119.686 114.999 113.259 113.284C112.314 113.478 112.034 114.562 112.683 115.179C118.839 117.096 128.257 118.813 133.23 119.008C133.135 124.65 129.743 130.324 125.059 133.444C132.508 140.678 149.881 143.057 160.105 139.26C165.135 137.934 170.442 126.069 169.958 120.679" fill="white"/>
<path fillRule="evenodd" clipRule="evenodd" d="M112.739 113.455C112.462 113.445 112.624 112.736 113.247 112.837C121.298 114.491 131.327 117.64 139.601 117.617C145.688 117.442 151.142 114.465 157.263 114.447C161.377 114.516 166.624 115.03 169.503 117.929C173.301 128.507 164.749 142.894 151.292 142.977L148.746 142.815C140.064 142.254 130.553 141.355 124.958 134.887L124.914 134.92V134.92C124.077 134.427 124.124 133.362 124.835 132.814L124.856 132.843V132.843C124.87 132.824 124.885 132.806 124.899 132.787L124.89 132.762V132.762C125.164 132.51 125.475 132.274 125.758 132.063L125.759 132.067V132.067C129.961 128.993 132.704 124.344 132.862 119.53C131.471 119.866 108.101 115.611 112.272 114.573C115.256 115.458 118.258 116.259 121.32 116.895C121.371 116.87 121.445 116.877 121.473 116.927C125.219 117.736 129.041 118.199 132.867 118.574C132.863 118.413 132.856 118.252 132.847 118.092C126.043 116.928 119.373 115.201 112.739 113.455ZM167.833 117.748C153.878 111.557 146.95 120.703 133.453 118.185C134.866 123.717 131.379 129.682 126.643 133.296C133.524 138.527 136.502 139.319 145.529 140.167L146.708 140.291C148.481 140.475 150.27 140.647 152.049 140.674C161.274 140.084 168.245 131.656 169.288 124.019L169.294 123.808C169.34 121.869 169.239 119.818 168.261 118.042C168.081 117.987 167.925 117.888 167.833 117.748ZM148.403 122.608C148.885 122.513 149.377 122.975 149.078 123.379C148.112 124.688 145.75 125.195 144.098 125.4C142.184 125.638 140.33 125.451 138.512 124.877C138.415 124.847 138.422 124.695 138.538 124.708C140.264 124.888 142.043 124.756 143.72 124.355C145.421 124.064 146.794 123.071 148.403 122.608ZM161.516 121.665C161.508 121.417 162.9 122.136 163.12 122.233C164.82 123.129 166.788 123.195 168.663 123.547C169.1 123.694 169.099 124.182 168.662 124.329C166.322 124.876 162.771 123.442 161.516 121.665Z" fill="black"/>
</svg>
