<svg width="375" height="667" viewBox="0 0 375 667" fill="none" xmlns="http://www.w3.org/2000/svg">
<g clip-path="url(#clip0)">
<rect width="375" height="667" fill="white"/>
<path d="M37.9015 349.84H61.2935L64.2175 334.962H68.9475V355H21.2175V351.302L29.3015 349.496V298.584L21.2175 296.778V293.08H46.8455V296.778L37.9015 298.584V349.84ZM117.701 331.35C117.701 335.134 117.128 338.689 115.981 342.014C114.892 345.339 113.344 348.091 111.337 350.27C107.955 353.997 102.967 355.86 96.3735 355.86C89.9521 355.86 85.0501 354.054 81.6675 350.442C79.7181 348.321 78.1988 345.712 77.1095 342.616C76.0775 339.463 75.5615 336.051 75.5615 332.382C75.5615 328.598 76.1061 325.015 77.1955 321.632C78.2848 318.249 79.8615 315.469 81.9255 313.29C83.7601 311.341 85.8815 309.936 88.2895 309.076C90.6975 308.159 93.5068 307.7 96.7175 307.7C99.8708 307.7 102.709 308.159 105.231 309.076C107.754 309.936 109.875 311.283 111.595 313.118C113.602 315.239 115.121 317.905 116.153 321.116C117.185 324.269 117.701 327.681 117.701 331.35ZM84.7635 331.436C84.7635 338.316 85.7955 343.447 87.8595 346.83C88.8341 348.321 89.9808 349.467 91.2995 350.27C92.6755 351.015 94.4528 351.388 96.6315 351.388C100.587 351.388 103.54 350.041 105.489 347.346C106.521 345.855 107.267 343.791 107.725 341.154C108.241 338.517 108.499 335.478 108.499 332.038C108.499 325.215 107.467 320.113 105.403 316.73C104.429 315.239 103.253 314.121 101.877 313.376C100.501 312.573 98.7241 312.172 96.5455 312.172C92.5321 312.172 89.6368 313.491 87.8595 316.128C85.7955 319.339 84.7635 324.441 84.7635 331.436ZM147.632 307.7C152.62 307.7 156.576 308.933 159.5 311.398C162.481 313.806 163.972 317.045 163.972 321.116C163.972 325.531 162.195 327.738 158.64 327.738C156.977 327.738 155.687 327.279 154.77 326.362C153.853 325.445 153.394 324.212 153.394 322.664C153.394 321.231 153.767 319.998 154.512 318.966C155.315 317.934 156.375 317.217 157.694 316.816C156.031 313.663 152.849 312.086 148.148 312.086C143.447 312.086 140.007 313.605 137.828 316.644C135.707 319.683 134.646 324.47 134.646 331.006C134.646 336.453 135.391 340.609 136.882 343.476C139.175 347.891 142.931 350.098 148.148 350.098C150.785 350.098 153.308 349.525 155.716 348.378C158.124 347.231 160.188 345.597 161.908 343.476L164.488 345.54C162.195 349.095 159.557 351.703 156.576 353.366C153.595 355.029 150.097 355.86 146.084 355.86C142.071 355.86 138.573 355.057 135.592 353.452C132.668 351.789 130.375 349.381 128.712 346.228C127.737 344.393 126.963 342.301 126.39 339.95C125.874 337.542 125.616 334.991 125.616 332.296C125.616 328.569 126.132 325.215 127.164 322.234C128.196 319.195 129.658 316.615 131.55 314.494C133.499 312.315 135.821 310.653 138.516 309.506C141.268 308.302 144.307 307.7 147.632 307.7ZM171.036 344.938C171.036 342.702 171.523 340.724 172.498 339.004C173.53 337.284 175.135 335.765 177.314 334.446C179.492 333.07 182.302 331.895 185.742 330.92C189.182 329.945 193.31 329.085 198.126 328.34C197.839 324.957 197.495 322.32 197.094 320.428C196.75 318.536 196.262 317.017 195.632 315.87C194.829 314.379 193.711 313.29 192.278 312.602C190.844 311.857 189.296 311.484 187.634 311.484C186.028 311.484 184.566 311.771 183.248 312.344C181.986 312.917 181.126 313.691 180.668 314.666C181.47 315.297 182.044 316.071 182.388 316.988C182.789 317.848 182.99 318.679 182.99 319.482C182.99 320.915 182.502 322.062 181.528 322.922C180.61 323.725 179.464 324.126 178.088 324.126C176.712 324.126 175.565 323.667 174.648 322.75C173.788 321.833 173.358 320.543 173.358 318.88C173.358 317.103 173.845 315.526 174.82 314.15C175.794 312.717 177.056 311.541 178.604 310.624C180.209 309.649 181.986 308.933 183.936 308.474C185.942 307.958 187.92 307.7 189.87 307.7C194.743 307.7 198.584 309.105 201.394 311.914C204.948 315.469 206.726 321.775 206.726 330.834V343.304C206.726 346.171 206.898 348.149 207.242 349.238C207.643 350.27 208.474 350.786 209.736 350.786H213.606V353.366C209.478 355.029 206.267 355.86 203.974 355.86C203.114 355.86 202.397 355.717 201.824 355.43C201.25 355.143 200.792 354.656 200.448 353.968C200.104 353.223 199.846 352.248 199.674 351.044C199.559 349.84 199.502 348.321 199.502 346.486H199.158C197.38 349.41 195.03 351.703 192.106 353.366C189.182 355.029 186.028 355.86 182.646 355.86C179.034 355.86 176.196 354.914 174.132 353.022C172.068 351.073 171.036 348.378 171.036 344.938ZM186.258 350.872C187.863 350.872 189.526 350.471 191.246 349.668C193.023 348.808 194.514 347.633 195.718 346.142C197.495 343.963 198.384 340.753 198.384 336.51C198.384 335.535 198.355 334.589 198.298 333.672C198.24 332.697 198.154 331.78 198.04 330.92C194.542 331.608 191.618 332.325 189.268 333.07C186.974 333.815 185.111 334.675 183.678 335.65C182.302 336.567 181.327 337.657 180.754 338.918C180.18 340.122 179.894 341.527 179.894 343.132C179.894 345.597 180.438 347.518 181.528 348.894C182.674 350.213 184.251 350.872 186.258 350.872ZM250.939 338.488H255.841V355H217.743V350.184L245.951 313.376H225.827L223.763 324.642H218.861V308.56H255.497V313.376L227.289 350.184H249.219L250.939 338.488ZM306.33 331.35C306.33 335.134 305.757 338.689 304.61 342.014C303.521 345.339 301.973 348.091 299.966 350.27C296.584 353.997 291.596 355.86 285.002 355.86C278.581 355.86 273.679 354.054 270.296 350.442C268.347 348.321 266.828 345.712 265.738 342.616C264.706 339.463 264.19 336.051 264.19 332.382C264.19 328.598 264.735 325.015 265.824 321.632C266.914 318.249 268.49 315.469 270.554 313.29C272.389 311.341 274.51 309.936 276.918 309.076C279.326 308.159 282.136 307.7 285.346 307.7C288.5 307.7 291.338 308.159 293.86 309.076C296.383 309.936 298.504 311.283 300.224 313.118C302.231 315.239 303.75 317.905 304.782 321.116C305.814 324.269 306.33 327.681 306.33 331.35ZM273.392 331.436C273.392 338.316 274.424 343.447 276.488 346.83C277.463 348.321 278.61 349.467 279.928 350.27C281.304 351.015 283.082 351.388 285.26 351.388C289.216 351.388 292.169 350.041 294.118 347.346C295.15 345.855 295.896 343.791 296.354 341.154C296.87 338.517 297.128 335.478 297.128 332.038C297.128 325.215 296.096 320.113 294.032 316.73C293.058 315.239 291.882 314.121 290.506 313.376C289.13 312.573 287.353 312.172 285.174 312.172C281.161 312.172 278.266 313.491 276.488 316.128C274.424 319.339 273.392 324.441 273.392 331.436ZM313.557 344.938C313.557 342.702 314.044 340.724 315.019 339.004C316.051 337.284 317.656 335.765 319.835 334.446C322.014 333.07 324.823 331.895 328.263 330.92C331.703 329.945 335.831 329.085 340.647 328.34C340.36 324.957 340.016 322.32 339.615 320.428C339.271 318.536 338.784 317.017 338.153 315.87C337.35 314.379 336.232 313.29 334.799 312.602C333.366 311.857 331.818 311.484 330.155 311.484C328.55 311.484 327.088 311.771 325.769 312.344C324.508 312.917 323.648 313.691 323.189 314.666C323.992 315.297 324.565 316.071 324.909 316.988C325.31 317.848 325.511 318.679 325.511 319.482C325.511 320.915 325.024 322.062 324.049 322.922C323.132 323.725 321.985 324.126 320.609 324.126C319.233 324.126 318.086 323.667 317.169 322.75C316.309 321.833 315.879 320.543 315.879 318.88C315.879 317.103 316.366 315.526 317.341 314.15C318.316 312.717 319.577 311.541 321.125 310.624C322.73 309.649 324.508 308.933 326.457 308.474C328.464 307.958 330.442 307.7 332.391 307.7C337.264 307.7 341.106 309.105 343.915 311.914C347.47 315.469 349.247 321.775 349.247 330.834V343.304C349.247 346.171 349.419 348.149 349.763 349.238C350.164 350.27 350.996 350.786 352.257 350.786H356.127V353.366C351.999 355.029 348.788 355.86 346.495 355.86C345.635 355.86 344.918 355.717 344.345 355.43C343.772 355.143 343.313 354.656 342.969 353.968C342.625 353.223 342.367 352.248 342.195 351.044C342.08 349.84 342.023 348.321 342.023 346.486H341.679C339.902 349.41 337.551 351.703 334.627 353.366C331.703 355.029 328.55 355.86 325.167 355.86C321.555 355.86 318.717 354.914 316.653 353.022C314.589 351.073 313.557 348.378 313.557 344.938ZM328.779 350.872C330.384 350.872 332.047 350.471 333.767 349.668C335.544 348.808 337.035 347.633 338.239 346.142C340.016 343.963 340.905 340.753 340.905 336.51C340.905 335.535 340.876 334.589 340.819 333.672C340.762 332.697 340.676 331.78 340.561 330.92C337.064 331.608 334.14 332.325 331.789 333.07C329.496 333.815 327.632 334.675 326.199 335.65C324.823 336.567 323.848 337.657 323.275 338.918C322.702 340.122 322.415 341.527 322.415 343.132C322.415 345.597 322.96 347.518 324.049 348.894C325.196 350.213 326.772 350.872 328.779 350.872Z" fill="black"/>
<path d="M43.7057 407.324L46.2277 406.96L46.5657 403.684L48.7497 403.372V406.96H52.0777V408.26H48.7497V417.542C48.7497 418.131 48.7583 418.539 48.7757 418.764C48.793 418.972 48.8277 419.145 48.8797 419.284C48.9317 419.423 49.027 419.509 49.1657 419.544C49.3043 419.579 49.5297 419.596 49.8417 419.596H51.6617V420.35C50.8297 420.662 50.093 420.887 49.4517 421.026C48.8277 421.182 48.325 421.26 47.9437 421.26C47.1637 421.26 46.661 420.939 46.4357 420.298C46.349 420.09 46.2883 419.83 46.2537 419.518C46.2363 419.189 46.2277 418.695 46.2277 418.036V408.26H43.7057V407.324ZM63.981 413.642C63.981 412.533 63.9463 411.701 63.877 411.146C63.825 410.574 63.721 410.132 63.565 409.82C63.1317 408.971 62.369 408.546 61.277 408.546C60.7917 408.546 60.3237 408.633 59.873 408.806C59.4223 408.979 59.0237 409.213 58.677 409.508C58.2957 409.855 58.0097 410.253 57.819 410.704C57.6457 411.155 57.5417 411.718 57.507 412.394V419.44L59.249 419.934V421H52.983V419.934L54.985 419.44V402.28L52.983 401.786V400.72H57.507V409.404C58.027 408.572 58.7117 407.913 59.561 407.428C60.4277 406.943 61.355 406.7 62.343 406.7C63.0363 406.7 63.6603 406.821 64.215 407.064C64.7697 407.307 65.2117 407.653 65.541 408.104C65.8877 408.589 66.1303 409.274 66.269 410.158C66.425 411.025 66.503 412.203 66.503 413.694V419.44L68.505 419.934V421H62.239V419.934L63.981 419.44V413.642ZM72.9134 414.136C72.9134 415.401 73.0868 416.45 73.4334 417.282C73.7801 418.097 74.2654 418.677 74.8894 419.024C75.5308 419.353 76.2328 419.518 76.9954 419.518C77.8274 419.518 78.5728 419.353 79.2314 419.024C79.9074 418.677 80.5141 418.209 81.0514 417.62L81.8834 418.244C81.5714 418.66 81.2334 419.05 80.8694 419.414C80.5228 419.778 80.1241 420.099 79.6734 420.376C79.2228 420.653 78.7201 420.87 78.1654 421.026C77.6108 421.182 76.9954 421.26 76.3194 421.26C75.1234 421.26 74.0661 421.009 73.1474 420.506C72.2288 419.986 71.5268 419.232 71.0414 418.244C70.7814 417.707 70.5908 417.117 70.4694 416.476C70.3481 415.817 70.2874 415.107 70.2874 414.344C70.2874 411.9 70.8421 410.019 71.9514 408.702C73.0608 407.367 74.5861 406.7 76.5274 406.7C78.3128 406.7 79.6821 407.255 80.6354 408.364C81.5888 409.456 82.0654 410.973 82.0654 412.914C82.0654 413.087 82.0568 413.252 82.0394 413.408C82.0394 413.547 82.0221 413.789 81.9874 414.136H72.9134ZM76.3714 408.104C74.2914 408.104 73.1474 409.69 72.9394 412.862H79.4394V412.004C79.4394 410.756 79.1708 409.794 78.6334 409.118C78.1134 408.442 77.3594 408.104 76.3714 408.104ZM93.6576 414.136C93.6576 415.401 93.8309 416.45 94.1776 417.282C94.5242 418.097 95.0096 418.677 95.6336 419.024C96.2749 419.353 96.9769 419.518 97.7396 419.518C98.5716 419.518 99.3169 419.353 99.9756 419.024C100.652 418.677 101.258 418.209 101.796 417.62L102.628 418.244C102.316 418.66 101.978 419.05 101.614 419.414C101.267 419.778 100.868 420.099 100.418 420.376C99.9669 420.653 99.4642 420.87 98.9096 421.026C98.3549 421.182 97.7396 421.26 97.0636 421.26C95.8676 421.26 94.8102 421.009 93.8916 420.506C92.9729 419.986 92.2709 419.232 91.7856 418.244C91.5256 417.707 91.3349 417.117 91.2136 416.476C91.0922 415.817 91.0316 415.107 91.0316 414.344C91.0316 411.9 91.5862 410.019 92.6956 408.702C93.8049 407.367 95.3302 406.7 97.2716 406.7C99.0569 406.7 100.426 407.255 101.38 408.364C102.333 409.456 102.81 410.973 102.81 412.914C102.81 413.087 102.801 413.252 102.784 413.408C102.784 413.547 102.766 413.789 102.732 414.136H93.6576ZM97.1156 408.104C95.0356 408.104 93.8916 409.69 93.6836 412.862H100.184V412.004C100.184 410.756 99.9149 409.794 99.3776 409.118C98.8576 408.442 98.1036 408.104 97.1156 408.104ZM104.94 417.958C104.94 417.282 105.087 416.684 105.382 416.164C105.694 415.644 106.179 415.185 106.838 414.786C107.497 414.37 108.346 414.015 109.386 413.72C110.426 413.425 111.674 413.165 113.13 412.94C113.043 411.917 112.939 411.12 112.818 410.548C112.714 409.976 112.567 409.517 112.376 409.17C112.133 408.719 111.795 408.39 111.362 408.182C110.929 407.957 110.461 407.844 109.958 407.844C109.473 407.844 109.031 407.931 108.632 408.104C108.251 408.277 107.991 408.511 107.852 408.806C108.095 408.997 108.268 409.231 108.372 409.508C108.493 409.768 108.554 410.019 108.554 410.262C108.554 410.695 108.407 411.042 108.112 411.302C107.835 411.545 107.488 411.666 107.072 411.666C106.656 411.666 106.309 411.527 106.032 411.25C105.772 410.973 105.642 410.583 105.642 410.08C105.642 409.543 105.789 409.066 106.084 408.65C106.379 408.217 106.76 407.861 107.228 407.584C107.713 407.289 108.251 407.073 108.84 406.934C109.447 406.778 110.045 406.7 110.634 406.7C112.107 406.7 113.269 407.125 114.118 407.974C115.193 409.049 115.73 410.955 115.73 413.694V417.464C115.73 418.331 115.782 418.929 115.886 419.258C116.007 419.57 116.259 419.726 116.64 419.726H117.81V420.506C116.562 421.009 115.591 421.26 114.898 421.26C114.638 421.26 114.421 421.217 114.248 421.13C114.075 421.043 113.936 420.896 113.832 420.688C113.728 420.463 113.65 420.168 113.598 419.804C113.563 419.44 113.546 418.981 113.546 418.426H113.442C112.905 419.31 112.194 420.003 111.31 420.506C110.426 421.009 109.473 421.26 108.45 421.26C107.358 421.26 106.5 420.974 105.876 420.402C105.252 419.813 104.94 418.998 104.94 417.958ZM109.542 419.752C110.027 419.752 110.53 419.631 111.05 419.388C111.587 419.128 112.038 418.773 112.402 418.322C112.939 417.663 113.208 416.693 113.208 415.41C113.208 415.115 113.199 414.829 113.182 414.552C113.165 414.257 113.139 413.98 113.104 413.72C112.047 413.928 111.163 414.145 110.452 414.37C109.759 414.595 109.195 414.855 108.762 415.15C108.346 415.427 108.051 415.757 107.878 416.138C107.705 416.502 107.618 416.927 107.618 417.412C107.618 418.157 107.783 418.738 108.112 419.154C108.459 419.553 108.935 419.752 109.542 419.752ZM124.261 420.064C125.249 420.064 126.046 419.873 126.653 419.492C127.26 419.093 127.563 418.53 127.563 417.802C127.563 417.369 127.45 417.005 127.225 416.71C127 416.415 126.705 416.164 126.341 415.956C125.994 415.748 125.596 415.575 125.145 415.436C124.712 415.28 124.287 415.141 123.871 415.02C123.334 414.864 122.805 414.682 122.285 414.474C121.782 414.266 121.323 414.006 120.907 413.694C120.508 413.365 120.188 412.975 119.945 412.524C119.702 412.056 119.581 411.493 119.581 410.834C119.581 409.586 120.032 408.589 120.933 407.844C121.852 407.081 123.126 406.7 124.755 406.7C126.142 406.7 127.234 406.995 128.031 407.584C128.846 408.156 129.253 408.945 129.253 409.95C129.253 410.505 129.132 410.938 128.889 411.25C128.646 411.562 128.3 411.718 127.849 411.718C127.45 411.718 127.121 411.597 126.861 411.354C126.601 411.111 126.471 410.799 126.471 410.418C126.471 410.089 126.558 409.794 126.731 409.534C126.904 409.257 127.13 409.057 127.407 408.936C127.147 408.572 126.809 408.312 126.393 408.156C125.994 407.983 125.474 407.896 124.833 407.896C122.753 407.896 121.713 408.633 121.713 410.106C121.713 410.505 121.782 410.834 121.921 411.094C122.06 411.354 122.268 411.579 122.545 411.77C122.822 411.961 123.16 412.134 123.559 412.29C123.975 412.429 124.452 412.585 124.989 412.758C125.578 412.949 126.159 413.148 126.731 413.356C127.303 413.564 127.814 413.824 128.265 414.136C128.733 414.448 129.106 414.838 129.383 415.306C129.678 415.774 129.825 416.355 129.825 417.048C129.825 417.724 129.686 418.322 129.409 418.842C129.132 419.362 128.742 419.804 128.239 420.168C127.736 420.515 127.138 420.783 126.445 420.974C125.752 421.165 124.989 421.26 124.157 421.26C122.614 421.26 121.375 420.957 120.439 420.35C119.52 419.726 119.061 418.877 119.061 417.802C119.061 417.247 119.182 416.814 119.425 416.502C119.685 416.173 120.049 416.008 120.517 416.008C120.933 416.008 121.28 416.129 121.557 416.372C121.852 416.615 121.999 416.935 121.999 417.334C121.999 417.663 121.904 417.975 121.713 418.27C121.54 418.565 121.323 418.781 121.063 418.92C121.288 419.267 121.687 419.544 122.259 419.752C122.848 419.96 123.516 420.064 124.261 420.064ZM131.929 408.026V406.96H136.453V419.44L138.455 419.934V421H131.929V419.934L133.931 419.44V408.52L131.929 408.026ZM133.567 402.774C133.567 402.271 133.706 401.873 133.983 401.578C134.278 401.283 134.676 401.136 135.179 401.136C135.682 401.136 136.08 401.283 136.375 401.578C136.67 401.873 136.817 402.271 136.817 402.774C136.817 403.277 136.67 403.675 136.375 403.97C136.08 404.247 135.682 404.386 135.179 404.386C134.676 404.386 134.278 404.247 133.983 403.97C133.706 403.675 133.567 403.277 133.567 402.774ZM142.941 414.136C142.941 415.401 143.114 416.45 143.461 417.282C143.807 418.097 144.293 418.677 144.917 419.024C145.558 419.353 146.26 419.518 147.023 419.518C147.855 419.518 148.6 419.353 149.259 419.024C149.935 418.677 150.541 418.209 151.079 417.62L151.911 418.244C151.599 418.66 151.261 419.05 150.897 419.414C150.55 419.778 150.151 420.099 149.701 420.376C149.25 420.653 148.747 420.87 148.193 421.026C147.638 421.182 147.023 421.26 146.347 421.26C145.151 421.26 144.093 421.009 143.175 420.506C142.256 419.986 141.554 419.232 141.069 418.244C140.809 417.707 140.618 417.117 140.497 416.476C140.375 415.817 140.315 415.107 140.315 414.344C140.315 411.9 140.869 410.019 141.979 408.702C143.088 407.367 144.613 406.7 146.555 406.7C148.34 406.7 149.709 407.255 150.663 408.364C151.616 409.456 152.093 410.973 152.093 412.914C152.093 413.087 152.084 413.252 152.067 413.408C152.067 413.547 152.049 413.789 152.015 414.136H142.941ZM146.399 408.104C144.319 408.104 143.175 409.69 142.967 412.862H149.467V412.004C149.467 410.756 149.198 409.794 148.661 409.118C148.141 408.442 147.387 408.104 146.399 408.104ZM159.579 420.064C160.567 420.064 161.365 419.873 161.971 419.492C162.578 419.093 162.881 418.53 162.881 417.802C162.881 417.369 162.769 417.005 162.543 416.71C162.318 416.415 162.023 416.164 161.659 415.956C161.313 415.748 160.914 415.575 160.463 415.436C160.03 415.28 159.605 415.141 159.189 415.02C158.652 414.864 158.123 414.682 157.603 414.474C157.101 414.266 156.641 414.006 156.225 413.694C155.827 413.365 155.506 412.975 155.263 412.524C155.021 412.056 154.899 411.493 154.899 410.834C154.899 409.586 155.35 408.589 156.251 407.844C157.17 407.081 158.444 406.7 160.073 406.7C161.46 406.7 162.552 406.995 163.349 407.584C164.164 408.156 164.571 408.945 164.571 409.95C164.571 410.505 164.45 410.938 164.207 411.25C163.965 411.562 163.618 411.718 163.167 411.718C162.769 411.718 162.439 411.597 162.179 411.354C161.919 411.111 161.789 410.799 161.789 410.418C161.789 410.089 161.876 409.794 162.049 409.534C162.223 409.257 162.448 409.057 162.725 408.936C162.465 408.572 162.127 408.312 161.711 408.156C161.313 407.983 160.793 407.896 160.151 407.896C158.071 407.896 157.031 408.633 157.031 410.106C157.031 410.505 157.101 410.834 157.239 411.094C157.378 411.354 157.586 411.579 157.863 411.77C158.141 411.961 158.479 412.134 158.877 412.29C159.293 412.429 159.77 412.585 160.307 412.758C160.897 412.949 161.477 413.148 162.049 413.356C162.621 413.564 163.133 413.824 163.583 414.136C164.051 414.448 164.424 414.838 164.701 415.306C164.996 415.774 165.143 416.355 165.143 417.048C165.143 417.724 165.005 418.322 164.727 418.842C164.45 419.362 164.06 419.804 163.557 420.168C163.055 420.515 162.457 420.783 161.763 420.974C161.07 421.165 160.307 421.26 159.475 421.26C157.933 421.26 156.693 420.957 155.757 420.35C154.839 419.726 154.379 418.877 154.379 417.802C154.379 417.247 154.501 416.814 154.743 416.502C155.003 416.173 155.367 416.008 155.835 416.008C156.251 416.008 156.598 416.129 156.875 416.372C157.17 416.615 157.317 416.935 157.317 417.334C157.317 417.663 157.222 417.975 157.031 418.27C156.858 418.565 156.641 418.781 156.381 418.92C156.607 419.267 157.005 419.544 157.577 419.752C158.167 419.96 158.834 420.064 159.579 420.064ZM166.546 407.324L169.068 406.96L169.406 403.684L171.59 403.372V406.96H174.918V408.26H171.59V417.542C171.59 418.131 171.598 418.539 171.616 418.764C171.633 418.972 171.668 419.145 171.72 419.284C171.772 419.423 171.867 419.509 172.006 419.544C172.144 419.579 172.37 419.596 172.682 419.596H174.502V420.35C173.67 420.662 172.933 420.887 172.292 421.026C171.668 421.182 171.165 421.26 170.784 421.26C170.004 421.26 169.501 420.939 169.276 420.298C169.189 420.09 169.128 419.83 169.094 419.518C169.076 419.189 169.068 418.695 169.068 418.036V408.26H166.546V407.324ZM188.135 417.88L188.447 419.414H188.577L188.889 417.88L191.931 406.7H193.803L196.949 417.88L197.261 419.414H197.365L197.677 417.88L200.277 408.52L198.587 408.026V406.96H203.527V408.026L202.123 408.52L198.249 421.26H195.571L192.477 411.12L189.461 421.26H186.783L182.805 408.52L181.427 408.026V406.96H187.251V408.026L185.457 408.52L188.135 417.88ZM204.649 417.958C204.649 417.282 204.796 416.684 205.091 416.164C205.403 415.644 205.888 415.185 206.547 414.786C207.206 414.37 208.055 414.015 209.095 413.72C210.135 413.425 211.383 413.165 212.839 412.94C212.752 411.917 212.648 411.12 212.527 410.548C212.423 409.976 212.276 409.517 212.085 409.17C211.842 408.719 211.504 408.39 211.071 408.182C210.638 407.957 210.17 407.844 209.667 407.844C209.182 407.844 208.74 407.931 208.341 408.104C207.96 408.277 207.7 408.511 207.561 408.806C207.804 408.997 207.977 409.231 208.081 409.508C208.202 409.768 208.263 410.019 208.263 410.262C208.263 410.695 208.116 411.042 207.821 411.302C207.544 411.545 207.197 411.666 206.781 411.666C206.365 411.666 206.018 411.527 205.741 411.25C205.481 410.973 205.351 410.583 205.351 410.08C205.351 409.543 205.498 409.066 205.793 408.65C206.088 408.217 206.469 407.861 206.937 407.584C207.422 407.289 207.96 407.073 208.549 406.934C209.156 406.778 209.754 406.7 210.343 406.7C211.816 406.7 212.978 407.125 213.827 407.974C214.902 409.049 215.439 410.955 215.439 413.694V417.464C215.439 418.331 215.491 418.929 215.595 419.258C215.716 419.57 215.968 419.726 216.349 419.726H217.519V420.506C216.271 421.009 215.3 421.26 214.607 421.26C214.347 421.26 214.13 421.217 213.957 421.13C213.784 421.043 213.645 420.896 213.541 420.688C213.437 420.463 213.359 420.168 213.307 419.804C213.272 419.44 213.255 418.981 213.255 418.426H213.151C212.614 419.31 211.903 420.003 211.019 420.506C210.135 421.009 209.182 421.26 208.159 421.26C207.067 421.26 206.209 420.974 205.585 420.402C204.961 419.813 204.649 418.998 204.649 417.958ZM209.251 419.752C209.736 419.752 210.239 419.631 210.759 419.388C211.296 419.128 211.747 418.773 212.111 418.322C212.648 417.663 212.917 416.693 212.917 415.41C212.917 415.115 212.908 414.829 212.891 414.552C212.874 414.257 212.848 413.98 212.813 413.72C211.756 413.928 210.872 414.145 210.161 414.37C209.468 414.595 208.904 414.855 208.471 415.15C208.055 415.427 207.76 415.757 207.587 416.138C207.414 416.502 207.327 416.927 207.327 417.412C207.327 418.157 207.492 418.738 207.821 419.154C208.168 419.553 208.644 419.752 209.251 419.752ZM226.115 420.376C225.751 421.381 225.413 422.239 225.101 422.95C224.807 423.661 224.495 424.233 224.165 424.666C223.836 425.117 223.463 425.437 223.047 425.628C222.649 425.836 222.163 425.94 221.591 425.94C221.175 425.94 220.785 425.879 220.421 425.758C220.075 425.654 219.763 425.498 219.485 425.29C219.225 425.082 219.017 424.839 218.861 424.562C218.705 424.285 218.627 423.981 218.627 423.652C218.627 423.167 218.766 422.759 219.043 422.43C219.321 422.118 219.685 421.962 220.135 421.962C220.534 421.962 220.846 422.066 221.071 422.274C221.314 422.499 221.435 422.803 221.435 423.184C221.435 423.427 221.383 423.661 221.279 423.886C221.193 424.111 221.071 424.311 220.915 424.484C220.95 424.675 221.045 424.796 221.201 424.848C221.375 424.9 221.531 424.926 221.669 424.926C221.843 424.926 222.007 424.9 222.163 424.848C222.337 424.796 222.501 424.666 222.657 424.458C222.831 424.267 223.004 423.99 223.177 423.626C223.368 423.262 223.567 422.768 223.775 422.144L224.087 421.182L218.705 408.52L217.145 408.026V406.96H222.969L223.177 408.026L221.331 408.52L225.205 418.712H225.309L228.585 408.52L227.077 408.026V406.96H232.017V408.026L230.431 408.52L226.115 420.376ZM238.503 407.324L241.025 406.96L241.363 403.684L243.547 403.372V406.96H246.875V408.26H243.547V417.542C243.547 418.131 243.555 418.539 243.573 418.764C243.59 418.972 243.625 419.145 243.677 419.284C243.729 419.423 243.824 419.509 243.963 419.544C244.101 419.579 244.327 419.596 244.639 419.596H246.459V420.35C245.627 420.662 244.89 420.887 244.249 421.026C243.625 421.182 243.122 421.26 242.741 421.26C241.961 421.26 241.458 420.939 241.233 420.298C241.146 420.09 241.085 419.83 241.051 419.518C241.033 419.189 241.025 418.695 241.025 418.036V408.26H238.503V407.324ZM261.066 413.85C261.066 414.994 260.893 416.069 260.546 417.074C260.217 418.079 259.749 418.911 259.142 419.57C258.119 420.697 256.611 421.26 254.618 421.26C252.677 421.26 251.195 420.714 250.172 419.622C249.583 418.981 249.123 418.192 248.794 417.256C248.482 416.303 248.326 415.271 248.326 414.162C248.326 413.018 248.491 411.935 248.82 410.912C249.149 409.889 249.626 409.049 250.25 408.39C250.805 407.801 251.446 407.376 252.174 407.116C252.902 406.839 253.751 406.7 254.722 406.7C255.675 406.7 256.533 406.839 257.296 407.116C258.059 407.376 258.7 407.783 259.22 408.338C259.827 408.979 260.286 409.785 260.598 410.756C260.91 411.709 261.066 412.741 261.066 413.85ZM251.108 413.876C251.108 415.956 251.42 417.507 252.044 418.53C252.339 418.981 252.685 419.327 253.084 419.57C253.5 419.795 254.037 419.908 254.696 419.908C255.892 419.908 256.785 419.501 257.374 418.686C257.686 418.235 257.911 417.611 258.05 416.814C258.206 416.017 258.284 415.098 258.284 414.058C258.284 411.995 257.972 410.453 257.348 409.43C257.053 408.979 256.698 408.641 256.282 408.416C255.866 408.173 255.329 408.052 254.67 408.052C253.457 408.052 252.581 408.451 252.044 409.248C251.42 410.219 251.108 411.761 251.108 413.876ZM278.51 403.424C276.864 403.424 275.633 403.961 274.818 405.036C274.298 405.712 273.891 406.605 273.596 407.714C273.302 408.806 273.154 410.011 273.154 411.328C273.154 412.576 273.284 413.737 273.544 414.812C273.804 415.869 274.168 416.762 274.636 417.49C275.104 418.218 275.668 418.755 276.326 419.102C277.002 419.431 277.843 419.596 278.848 419.596C280.391 419.596 281.622 419.232 282.54 418.504C283.459 417.759 284.04 416.658 284.282 415.202H285.712C285.314 417.247 284.534 418.773 283.372 419.778C282.211 420.766 280.616 421.26 278.588 421.26C276.196 421.26 274.29 420.567 272.868 419.18C272.019 418.348 271.369 417.308 270.918 416.06C270.468 414.795 270.242 413.382 270.242 411.822C270.242 410.071 270.528 408.494 271.1 407.09C271.672 405.669 272.478 404.525 273.518 403.658C274.836 402.566 276.578 402.02 278.744 402.02C279.282 402.02 279.758 402.055 280.174 402.124C280.608 402.176 281.006 402.28 281.37 402.436C281.734 402.575 282.072 402.765 282.384 403.008C282.714 403.251 283.043 403.554 283.372 403.918L283.892 402.28H285.322V408.026H283.736C283.234 404.958 281.492 403.424 278.51 403.424ZM294.984 421.286C293.944 421.286 293.008 421.13 292.176 420.818C291.344 420.506 290.65 420.064 290.096 419.492L289.81 421H288.354V415.098H289.94C290.044 416.762 290.451 417.975 291.162 418.738C291.89 419.483 292.999 419.856 294.49 419.856C296.968 419.856 298.208 418.911 298.208 417.022C298.208 416.467 298.095 415.982 297.87 415.566C297.662 415.15 297.358 414.777 296.96 414.448C296.561 414.101 296.067 413.789 295.478 413.512C294.906 413.217 294.256 412.923 293.528 412.628C292.696 412.299 291.959 411.978 291.318 411.666C290.694 411.337 290.165 410.973 289.732 410.574C289.316 410.158 288.995 409.69 288.77 409.17C288.544 408.633 288.432 407.983 288.432 407.22C288.432 405.573 288.943 404.291 289.966 403.372C291.006 402.453 292.392 401.994 294.126 401.994C295.842 401.994 297.237 402.479 298.312 403.45L298.52 402.28H299.976V408.182H298.494C298.494 406.501 298.182 405.287 297.558 404.542C296.951 403.779 295.972 403.398 294.62 403.398C292.245 403.398 291.058 404.481 291.058 406.648C291.058 407.081 291.11 407.454 291.214 407.766C291.318 408.061 291.508 408.338 291.786 408.598C292.08 408.858 292.47 409.109 292.956 409.352C293.441 409.595 294.065 409.881 294.828 410.21C295.902 410.678 296.821 411.129 297.584 411.562C298.346 411.978 298.962 412.42 299.43 412.888C299.915 413.356 300.27 413.859 300.496 414.396C300.721 414.933 300.834 415.54 300.834 416.216C300.834 417.013 300.686 417.733 300.392 418.374C300.114 418.998 299.716 419.527 299.196 419.96C298.693 420.393 298.078 420.723 297.35 420.948C296.639 421.173 295.85 421.286 294.984 421.286ZM314.272 414.708H307.304L305.718 419.336L307.876 419.882V421H301.792V419.882L303.924 419.336L310.164 402.02H312.582L318.744 419.336L320.824 419.882V421H313.674V419.882L315.806 419.336L314.272 414.708ZM307.824 413.2H313.778L310.97 404.334H310.866L307.824 413.2ZM326.439 401.682C326.439 402.098 326.361 402.592 326.205 403.164C326.067 403.736 325.954 404.273 325.867 404.776C326.162 404.62 326.465 404.455 326.777 404.282C327.089 404.091 327.384 403.918 327.661 403.762C327.956 403.589 328.233 403.45 328.493 403.346C328.753 403.242 328.987 403.19 329.195 403.19C329.421 403.19 329.646 403.268 329.871 403.424C330.097 403.58 330.209 403.857 330.209 404.256C330.209 404.62 330.079 404.88 329.819 405.036C329.559 405.192 329.221 405.296 328.805 405.348C328.407 405.4 327.965 405.435 327.479 405.452C327.011 405.452 326.561 405.487 326.127 405.556C326.405 405.833 326.699 406.111 327.011 406.388C327.323 406.665 327.609 406.934 327.869 407.194C328.147 407.454 328.372 407.714 328.545 407.974C328.719 408.234 328.805 408.477 328.805 408.702C328.805 408.927 328.701 409.144 328.493 409.352C328.285 409.56 328.043 409.664 327.765 409.664C327.471 409.664 327.219 409.551 327.011 409.326C326.803 409.083 326.613 408.789 326.439 408.442C326.266 408.078 326.101 407.688 325.945 407.272C325.789 406.839 325.616 406.44 325.425 406.076C325.235 406.475 325.061 406.891 324.905 407.324C324.749 407.74 324.585 408.121 324.411 408.468C324.238 408.815 324.047 409.109 323.839 409.352C323.649 409.577 323.406 409.69 323.111 409.69C322.851 409.69 322.609 409.595 322.383 409.404C322.175 409.196 322.071 408.971 322.071 408.728C322.071 408.52 322.149 408.295 322.305 408.052C322.479 407.792 322.695 407.523 322.955 407.246C323.215 406.969 323.493 406.691 323.787 406.414C324.099 406.137 324.403 405.851 324.697 405.556C324.264 405.487 323.805 405.452 323.319 405.452C322.851 405.435 322.418 405.4 322.019 405.348C321.621 405.296 321.291 405.201 321.031 405.062C320.771 404.906 320.641 404.655 320.641 404.308C320.641 403.909 320.745 403.632 320.953 403.476C321.161 403.303 321.387 403.216 321.629 403.216C321.803 403.216 322.019 403.268 322.279 403.372C322.539 403.476 322.817 403.606 323.111 403.762C323.423 403.918 323.727 404.091 324.021 404.282C324.333 404.455 324.637 404.611 324.931 404.75C324.845 404.213 324.723 403.675 324.567 403.138C324.429 402.583 324.359 402.098 324.359 401.682C324.359 401.318 324.446 401.023 324.619 400.798C324.793 400.573 325.053 400.46 325.399 400.46C325.746 400.46 326.006 400.573 326.179 400.798C326.353 401.006 326.439 401.301 326.439 401.682Z" fill="black"/>
<path fill-rule="evenodd" clip-rule="evenodd" d="M127.985 504.122C126.61 500.223 125.346 498.57 122.905 497.215C120.621 495.948 117.287 494.883 112.422 494.105C107.355 493.458 107.211 491.532 105.941 488.436C105.57 487.506 103.734 487.258 102.941 487.929C102.829 487.841 102.713 487.76 102.592 487.687C102.7 487.243 101.816 485.971 101.846 485.547C102.154 481.116 100.172 478.891 95.2258 478.064C94.1501 477.884 86.8434 477.778 85.7946 477.99C81.2093 478.917 76.6954 481.86 77.3861 485.406C75.9468 486.782 74.5381 487.622 72.3175 488.065C68.8594 488.386 70.5966 524.214 76.6025 545.679C79.1794 554.888 140.795 539.213 138.011 534.6C138.406 533.755 137.686 532.826 138.011 531.953C138.246 531.321 138.848 531.059 139.15 530.434C139.577 529.553 139.113 528.372 138.633 527.474C138.437 527.026 138.995 526.544 139.15 526.087C139.887 523.932 138.201 524.122 136.985 522.681C137.003 522.677 137.319 521.648 137.318 521.654C137.504 520.919 137.038 519.978 136.631 519.366C136.356 518.951 135.767 518.692 135.182 518.74C135.772 517.277 136.517 516.06 137.318 514.65C138.735 512.166 140.083 509.567 142.118 507.319C142.951 506.398 142.278 505.551 140.929 505.489C136.565 505.286 132.247 504.826 127.985 504.122Z" fill="#EDB98A"/>
<path fill-rule="evenodd" clip-rule="evenodd" d="M121.171 504.423L111.208 516.755C111.208 516.755 113.571 516.928 114.528 517.264C115.484 517.6 119.876 521.684 119.876 521.684L120.574 523.932L118.921 525.745L119.566 526.883C119.566 526.883 120.026 526.112 121.171 525.513C122.317 524.915 124.843 523.932 124.843 523.932C124.843 523.932 124.003 523.604 124.003 523.218C124.003 522.832 123.264 521.187 124.843 520.566C126.422 519.944 134.581 518.49 134.581 518.49L142.85 505.733L121.171 504.423Z" fill="#EC7495"/>
<path fill-rule="evenodd" clip-rule="evenodd" d="M76.7243 488.148L108.362 492.209L122.905 497.215L125.279 498.553L111.208 516.755L89.4809 519.655L83.9456 530.17L85.0755 542.023L120.42 538.941L135.667 537.616L139.251 548.198L138.603 552.551L137.662 554.758L99.8652 562.221C99.8652 562.221 80.6188 560.857 77.207 560.857C73.7953 560.857 48.7809 562.674 48.7809 562.674L42.9933 562.221C42.9933 562.221 30.1881 552.351 28.2021 548.838C26.216 545.325 21.9213 523.971 21.9213 523.971L22.3942 520.69L33.4575 499.867C33.4575 499.867 34.9349 498.886 36.7974 497.215C38.66 495.545 76.7243 488.148 76.7243 488.148Z" fill="#9DDADB"/>
<path fill-rule="evenodd" clip-rule="evenodd" d="M133.984 518.227C131.125 518.333 128.263 518.83 125.677 519.731C124.619 520.1 123.66 520.633 123.379 521.51C123.237 521.958 123.272 522.42 123.347 522.872C123.404 523.215 123.418 523.652 123.825 523.884C123.895 523.923 123.969 523.953 124.046 523.975C123.092 524.29 122.183 524.668 121.376 525.058C120.638 525.415 119.88 525.964 119.539 526.583C119.511 526.513 119.482 526.447 119.454 526.385C118.873 525.13 117.979 524.102 116.571 523.411C116.411 522.985 114.695 521.15 113.101 521.219C111.355 521.294 109.951 521.388 108.372 521.975C107.796 521.966 107.222 521.971 106.655 521.99C106.557 521.992 106.562 522.089 106.655 522.097C107.115 522.14 107.576 522.187 108.036 522.242C109.131 522.371 110.222 522.533 111.289 522.735C112.57 522.977 113.895 523.221 115.092 523.644C117.413 524.466 118.85 526.617 118.555 528.487C118.506 528.794 118.344 529.722 117.762 529.626C117.27 529.545 117.074 528.794 116.902 528.516C116.442 527.778 115.612 527.296 114.617 526.969C113.449 526.585 112.198 526.326 110.987 526.024C110.301 525.852 109.615 525.68 108.927 525.509C108.224 525.333 107.555 525.089 106.806 525.213C106.354 525.288 106.301 525.682 106.555 525.908C106.942 526.253 107.516 526.355 108.072 526.497C108.807 526.683 109.541 526.87 110.274 527.057C111.408 527.346 112.595 527.589 113.701 527.942L113.666 528C113.576 527.981 113.47 528.047 113.488 528.128C113.654 528.874 113.884 529.737 113.628 530.484C113.426 531.077 112.715 531.734 111.791 531.559C111.936 531.462 111.99 531.295 111.892 531.141C111.526 530.568 106.732 528.31 106.305 529.149C106.29 529.178 106.334 529.2 106.369 529.196C106.734 529.14 107.344 529.595 107.635 529.739C108.057 529.947 108.484 530.15 108.9 530.363C109.356 530.596 109.801 530.841 110.235 531.093C110.575 531.292 110.832 531.498 111.223 531.599C111.018 531.67 110.856 531.803 110.787 531.972C110.61 532.414 110.269 532.789 109.678 532.984C109.058 533.187 108.359 533.059 107.707 533.109C106.817 533.174 106.041 533.483 105.393 533.925C104.032 534.855 103.349 536.493 101.446 536.932C100.309 537.194 99.0472 537.029 97.896 536.91C96.6107 536.778 95.3586 536.673 94.0638 536.811C92.8243 536.944 91.6526 537.258 90.5203 537.641C89.4589 537.999 88.2856 538.405 87.3442 538.941C87.1502 538.503 86.9546 538.071 86.8062 537.624C86.4563 536.569 86.2671 535.494 86.2212 534.41C86.1787 533.377 86.2576 532.34 86.3789 531.312C86.439 530.799 86.5336 530.288 86.5935 529.775C86.6091 529.646 86.6408 529.507 86.6645 529.369C88.3456 528.643 90.1117 528.087 91.8921 527.515C91.897 527.514 91.9017 527.512 91.9065 527.511C91.9617 527.492 92.0153 527.475 92.0705 527.458C92.0689 527.455 92.0673 527.453 92.0642 527.45C92.2676 527.359 92.4095 527.238 92.4947 527.102C95.0605 525.858 97.2052 524.159 98.8043 522.177C99.4746 521.346 100.12 520.484 100.996 519.757C101.93 518.98 103.039 518.519 104.411 518.279C106.014 517.998 107.667 517.829 109.31 517.733C110.208 517.682 111.211 517.601 112.188 517.604C112.87 517.608 113.537 517.65 114.149 517.774C115.056 517.956 115.585 518.46 116.155 518.97C116.699 519.459 117.24 519.949 117.747 520.459C118.228 520.942 118.683 521.442 119.077 521.966C119.313 522.279 119.533 522.602 119.717 522.936C119.782 523.053 119.867 523.187 119.906 523.309C119.946 523.433 119.873 523.563 120.063 523.563C119.282 523.571 118.763 524.995 119.539 524.962C120.63 524.915 121.178 523.959 120.965 523.11C120.583 521.596 118.524 519.767 118.116 519.379C117.216 518.524 116.287 517.407 114.846 517.009C114.825 517.003 114.803 516.998 114.783 516.993C115.202 516.702 115.533 516.354 115.85 516C116.177 515.635 116.566 515.218 116.674 514.785C116.741 514.509 116.273 514.352 116.051 514.594C115.727 514.945 115.571 515.391 115.33 515.777C115.084 516.169 114.784 516.539 114.548 516.935C113.978 516.807 113.363 516.748 112.737 516.729C113.527 515.947 114.877 514.438 115.04 514.244C115.787 513.347 116.498 512.422 117.178 511.495C117.913 510.492 118.542 509.447 119.246 508.432C119.645 507.856 120.047 507.276 120.49 506.717C120.643 506.526 120.807 506.334 120.993 506.16C121.029 506.126 121.075 506.097 121.118 506.065C121.166 506.045 121.217 506.023 121.245 506.012C121.501 505.904 121.591 505.655 121.77 505.497C122.057 505.242 122.395 505.212 122.827 505.209C123.748 505.202 124.672 505.228 125.592 505.247C126.943 505.274 128.293 505.314 129.643 505.365C130.051 505.382 130.458 505.398 130.867 505.416C132.83 505.502 134.792 505.614 136.749 505.751C138.481 505.872 140.212 506.069 141.945 506.164C139.599 510.241 136.997 514.245 134.051 518.11C134.021 518.149 133.998 518.188 133.984 518.227ZM120.965 528.732C120.586 528.859 120.219 529.017 119.876 529.197C119.933 528.917 119.947 528.621 119.932 528.325C120.214 528.546 120.575 528.673 120.965 528.732ZM137.121 521.718C137.094 521.72 137.069 521.73 137.056 521.75C136.533 522.54 136.752 523.422 137.607 524.042C138.055 524.365 139.031 524.729 138.999 525.26C138.972 525.689 138.334 526.049 138.061 526.403C137.807 526.733 137.712 527.095 137.916 527.453C138.176 527.911 138.903 528.093 139.152 528.543C139.468 529.114 138.955 529.803 138.596 530.3C138.261 530.76 137.829 531.22 137.542 531.707C135.62 532.435 131.258 533.757 130.732 533.831C130.092 533.922 129.451 534.008 128.807 534.089C127.572 534.246 126.334 534.391 125.093 534.519C124.387 534.592 123.679 534.663 122.971 534.72C122.352 534.768 121.655 534.834 121.157 534.494C120.152 533.806 120.715 532.654 121.351 531.96C121.364 531.946 121.364 531.933 121.359 531.922C121.958 531.819 122.556 531.699 123.152 531.615C124.298 531.453 125.453 531.317 126.609 531.196C128.984 530.948 131.374 530.784 133.762 530.619C134.353 530.578 134.36 529.897 133.762 529.938C130.332 530.167 126.885 530.385 123.5 530.868C122.652 530.988 121.81 531.124 120.972 531.278C120.577 531.349 120.152 531.461 119.738 531.465C119.712 531.465 119.687 531.465 119.662 531.464C118.85 531.445 118.732 530.937 119.178 530.513C119.233 530.461 119.29 530.409 119.348 530.36C120.137 529.672 121.119 529.213 122.131 528.738C123.265 528.625 124.396 528.373 125.506 528.189C128.247 527.732 130.988 527.275 133.731 526.82C134.268 526.73 134.04 526.125 133.502 526.214C131.42 526.559 129.339 526.904 127.257 527.249L124.21 527.754C123.601 527.854 122.841 528.056 122.125 528.129C121.772 528.165 121.43 528.169 121.121 528.116C120.122 527.943 120.072 527.031 120.503 526.489C120.985 525.88 121.897 525.499 122.706 525.154C124.108 524.555 125.599 524.125 127.057 523.629C127.315 523.587 127.574 523.546 127.832 523.504C129.337 523.262 131.056 523.143 132.472 522.699C132.896 522.568 132.664 522.079 132.245 522.086C131.146 522.103 129.996 522.389 128.922 522.559C127.76 522.743 126.596 522.926 125.434 523.11C125.317 523.128 124.626 523.29 124.522 523.254C124.456 523.231 124.432 523.063 124.41 522.952C124.339 522.587 124.287 522.205 124.365 521.839C124.535 521.019 125.47 520.633 126.416 520.318C128.523 519.618 130.834 519.18 133.133 519.005C133.663 518.964 134.193 518.939 134.726 518.926C135.352 518.912 135.867 518.832 136.184 519.283C136.683 519.993 136.957 520.907 137.121 521.718ZM134.195 547.481C133.736 546.319 133.861 545.079 133.546 543.895C133.384 543.284 133.163 542.677 132.921 542.081C132.725 541.599 132.4 541.086 132.363 540.583C132.361 540.55 132.415 540.53 132.452 540.546C133.1 540.817 133.597 541.404 133.966 541.864C134.409 542.415 134.746 542.991 135.019 543.598C135.561 544.806 136.007 546.263 135.307 547.481C135.099 547.843 134.367 547.916 134.195 547.481ZM116.279 556.272C115.595 555.923 115.096 555.435 114.516 555.004C113.946 554.58 114.838 553.928 115.408 554.352C115.903 554.719 116.333 555.178 116.916 555.475C117.196 555.618 117.326 555.877 117.142 556.107C116.98 556.309 116.559 556.415 116.279 556.272ZM112.464 542.851C113.713 542.456 114.941 542.026 116.248 541.742C117.029 541.572 117.36 542.463 116.583 542.632C115.38 542.894 114.251 543.285 113.101 543.648C112.362 543.882 111.721 543.086 112.464 542.851ZM99.2752 542.575C98.9698 542.024 100.191 541.786 100.492 542.33C100.838 542.955 101.235 543.565 101.582 544.19C101.887 544.741 100.666 544.979 100.365 544.435C100.019 543.81 99.6215 543.201 99.2752 542.575ZM86.2577 553.582C86.0543 553.78 85.7151 553.888 85.3946 553.747C85.1262 553.63 84.9624 553.317 85.1683 553.116C85.7697 552.53 86.3789 551.951 87.0836 551.428C87.655 551.004 88.5466 551.657 87.9757 552.081C87.3464 552.547 86.7949 553.058 86.2577 553.582ZM84.3964 491.824C84.9755 492.113 85.4828 492.465 85.9775 492.826C86.5527 493.247 85.6604 493.899 85.0852 493.479C84.6684 493.174 84.248 492.865 83.7596 492.621C83.4775 492.48 83.3508 492.218 83.5333 491.99C83.6968 491.785 84.1149 491.684 84.3964 491.824ZM103.335 506.674C103.008 507.153 102.713 507.624 102.694 508.169C102.674 508.762 101.413 508.763 101.433 508.169C101.457 507.455 101.816 506.837 102.246 506.208C102.609 505.676 103.696 506.144 103.335 506.674ZM110.284 494.748C110.962 494.417 111.593 495.217 110.921 495.544C110.376 495.81 109.83 496.076 109.285 496.342C108.607 496.672 107.976 495.873 108.649 495.545C109.194 495.279 109.739 495.013 110.284 494.748ZM80.1444 515.6C80.0287 516.186 78.8131 515.935 78.9278 515.355C79.1052 514.457 79.3217 513.571 79.6546 512.697C79.8726 512.125 81.0892 512.369 80.8711 512.942C80.5382 513.816 80.3217 514.702 80.1444 515.6ZM75.7211 526.17C74.9091 526.158 74.9089 525.235 75.7211 525.248C76.456 525.259 77.1784 525.401 77.8873 525.53C78.6758 525.674 78.3395 526.564 77.5518 526.42C76.9526 526.31 76.3424 526.18 75.7211 526.17ZM74.0882 547.464C73.8092 547.563 73.523 547.653 73.241 547.747C72.6763 547.936 72.1119 548.125 71.5476 548.315C70.3721 548.709 69.1973 549.105 68.0235 549.503C65.6737 550.298 63.3058 551.066 60.9504 551.853C58.5485 552.655 56.1528 553.469 53.7602 554.286C52.6329 554.671 51.4971 555.042 50.3636 555.417C49.3943 555.737 48.1963 556.297 47.1323 556.35C47.0775 556.353 47.0593 556.302 47.0905 556.276C47.4925 555.942 48.1337 555.747 48.662 555.53C49.2016 555.308 49.7514 555.099 50.2986 554.887C51.4394 554.445 52.5817 554.006 53.7335 553.58C56.0375 552.727 58.346 551.88 60.6549 551.035C63.0097 550.172 65.3615 549.304 67.7369 548.472C68.8554 548.08 69.9749 547.69 71.095 547.301C71.7019 547.09 72.309 546.879 72.9162 546.669C73.1784 546.578 73.438 546.48 73.7061 546.399C74.0624 546.291 74.3331 546.313 74.7006 546.247C75.2998 546.139 75.5593 546.696 75.0992 546.939C74.7204 547.139 74.5211 547.31 74.0882 547.464ZM65.6659 556.926C65.5364 556.696 65.8075 556.417 66.1065 556.359C66.4646 556.29 66.7518 556.449 66.8825 556.681C67.2284 557.297 67.721 557.861 68.3551 558.338C68.9219 558.764 68.0303 559.417 67.463 558.991C66.6684 558.393 66.0975 557.694 65.6659 556.926ZM59.4696 542.114C58.8945 541.694 59.7867 541.041 60.3617 541.462L61.9968 542.658C62.5719 543.078 61.6795 543.731 61.1046 543.31L59.4696 542.114ZM42.6949 540.164C41.5194 540.417 40.1483 540.648 39.3469 541.382C39.3077 541.418 39.242 541.372 39.2655 541.336C40.2915 539.78 43.2339 539.235 45.2711 538.689C46.712 538.304 48.1904 537.984 49.6814 537.698C49.5323 536.454 49.9433 535.121 50.0862 533.883C50.2387 532.561 50.3628 531.236 50.4265 529.91C50.4916 528.558 50.5074 527.196 50.4465 525.844C50.386 524.496 50.1467 523.164 50.042 521.821C50.0319 521.691 50.2792 521.685 50.3325 521.792C50.9516 523.039 51.2161 524.42 51.4177 525.734C51.6252 527.088 51.6941 528.438 51.6676 529.8C51.6402 531.201 51.5288 532.598 51.376 533.994C51.3036 534.655 51.2196 535.316 51.1403 535.977C51.0797 536.482 51.0516 536.982 50.911 537.471C51.8102 537.309 52.7114 537.157 53.6099 537.008C56.4747 536.535 59.3515 536.097 62.2043 535.585C63.6047 535.334 64.985 535.034 66.3791 534.767C67.6918 534.515 69.0774 534.211 70.4251 534.099C70.9061 534.058 70.9673 534.54 70.6489 534.703C69.5535 535.266 68.0987 535.657 66.8335 535.972C65.5637 536.288 64.2437 536.515 62.9422 536.75C60.228 537.238 57.4881 537.637 54.7523 538.053C52.0202 538.468 49.283 538.88 46.5817 539.393C45.2809 539.64 43.9844 539.888 42.6949 540.164ZM36.2532 515.477C35.5508 515.778 34.9167 514.981 35.6166 514.68C36.5323 514.287 37.5084 513.991 38.4923 513.703C39.2473 513.482 39.5722 514.375 38.8277 514.593C37.9435 514.852 37.0761 515.124 36.2532 515.477ZM33.7098 549.761C33.0055 550.059 32.3709 549.262 33.0732 548.964C34.0594 548.546 35.1395 548.267 36.1616 547.901C36.8888 547.64 37.5274 548.437 36.7982 548.698C35.7763 549.064 34.6961 549.343 33.7098 549.761ZM32.5658 530.3C33.2468 530.773 34.1556 530.996 35.0126 531.244C35.7598 531.461 35.4321 532.353 34.6772 532.134C33.6095 531.824 32.522 531.541 31.6737 530.952C31.0836 530.542 31.9773 529.891 32.5658 530.3ZM40.0994 503.87C40.848 504.085 40.5202 504.977 39.764 504.76C38.9253 504.519 38.0592 504.336 37.2206 504.095C36.4721 503.881 36.7998 502.989 37.556 503.205C38.3946 503.446 39.2607 503.629 40.0994 503.87ZM53.3894 493.372C54.1848 493.274 54.5236 494.163 53.7248 494.262C52.7338 494.384 51.758 494.528 50.8181 494.794C50.059 495.008 49.7334 494.116 50.4826 493.904C51.4227 493.638 52.3986 493.494 53.3894 493.372ZM57.7806 518.932C57.0512 518.669 57.6912 517.874 58.4172 518.135C59.1824 518.41 59.9752 518.623 60.81 518.753C61.605 518.877 61.2664 519.766 60.4746 519.643C59.535 519.496 58.641 519.241 57.7806 518.932ZM61.928 504.534C62.7134 504.377 63.0455 505.267 62.2634 505.424C60.8875 505.7 59.4709 505.843 58.0848 506.089C57.2949 506.228 56.9607 505.338 57.7494 505.199C59.1354 504.953 60.5522 504.81 61.928 504.534ZM79.5222 500.016C80.3208 500.124 79.9804 501.014 79.1869 500.906C78.3421 500.792 77.4859 500.79 76.6294 500.79C75.8163 500.789 75.8177 499.867 76.6294 499.867C77.6024 499.867 78.563 499.886 79.5222 500.016ZM136.903 504.837C134.842 504.693 132.778 504.578 130.711 504.491C130.614 504.488 130.52 504.483 130.423 504.48C130.412 504.464 130.398 504.448 130.384 504.432C129.709 503.708 129.212 502.984 128.782 502.165C128.37 501.385 127.971 500.581 127.337 499.877C126.614 499.076 125.638 498.448 124.568 497.905C123.919 498.224 123.317 498.598 122.766 498.994C122.186 499.41 121.294 498.758 121.874 498.341C122.364 497.989 122.886 497.664 123.439 497.37C122.801 497.087 122.15 496.82 121.515 496.555C119.135 495.562 116.699 494.644 114.212 493.804C113.056 493.413 111.886 493.066 110.708 492.714C110.074 492.525 109.448 492.281 108.814 492.062C108.859 491.735 108.725 491.368 108.382 491.152C108.128 490.994 107.931 490.935 107.628 490.823C107.56 490.806 107.519 490.796 107.5 490.79C107.514 490.792 107.555 490.801 107.623 490.818C107.784 490.872 107.796 490.856 107.661 490.77C107.653 490.583 107.15 490.189 107.035 489.996C106.634 489.335 106.51 488.636 105.918 488.034C105.103 487.205 103.734 486.891 102.458 487.172C102.326 486.175 102.291 485.133 101.777 484.243C101.763 484.218 101.717 484.208 101.697 484.234C101.16 484.902 101.115 485.646 101.074 486.417C101.034 487.14 101.072 487.88 101.201 488.598C101.119 488.644 101.036 488.688 100.949 488.731C100.542 488.927 100.104 489.078 99.6433 489.19C98.7665 489.402 97.8471 489.494 96.9277 489.527C94.5543 489.61 92.1083 489.434 89.7743 489.137C87.4135 488.836 83.7943 488.384 81.6937 487.52C80.3073 486.95 79.0285 486.254 77.7321 485.581C78.2022 484.473 78.322 483.283 77.8489 482.347C77.7922 482.235 77.5525 482.215 77.5067 482.347C77.2102 483.24 77.1235 484.138 76.7293 485.02C76.7229 485.033 76.7166 485.047 76.7103 485.059C76.5873 484.998 76.4643 484.938 76.3413 484.878C76.0574 484.741 75.6711 484.844 75.5008 485.04C72.7771 488.178 68.4641 488.358 63.9349 488.919C58.9782 489.533 53.9966 490.195 49.2308 491.395C44.6732 492.544 40.3175 494.217 36.867 496.715C36.0859 497.281 35.3554 497.884 34.6659 498.513C35.333 498.575 35.9946 498.67 36.6476 498.82C37.4208 498.998 37.0886 499.889 36.3122 499.71C35.4729 499.517 34.6243 499.422 33.7671 499.374C31.4225 501.72 29.5944 504.381 28.0136 506.999C24.9815 512.019 23.0079 517.365 22.0996 522.808C22.5983 522.59 23.1059 522.382 23.6262 522.188C24.3491 521.919 24.9867 522.715 24.263 522.985C23.4594 523.284 22.6787 523.613 21.9224 523.971C21.592 526.353 21.464 528.751 21.5415 531.145C21.7261 536.853 22.7795 542.728 25.1624 548.173C26.3309 550.846 27.8796 553.497 30.1867 555.755C31.2307 556.778 32.4167 557.701 33.8139 558.471C34.4904 558.844 35.2064 559.178 35.9618 559.459C36.9348 559.824 38.2027 559.944 39.0417 560.459C39.3177 560.629 39.5306 560.853 39.6914 561.105C39.5984 561.585 39.5873 562.066 39.7671 562.546C39.8239 562.696 39.9784 562.818 40.1693 562.877C40.1724 562.918 40.1724 562.959 40.1724 562.998C40.1724 563.017 40.2103 563.021 40.215 563.003C40.2229 562.967 40.2308 562.931 40.2387 562.894C40.3002 562.909 40.3648 562.916 40.4311 562.916C42.8265 562.923 45.225 562.88 47.6237 562.821C47.4382 562.405 47.2373 561.993 47.0444 561.577C46.7825 561.013 48.0014 560.773 48.2609 561.332C48.4866 561.818 48.7225 562.3 48.9324 562.787C51.5025 562.717 54.0718 562.633 56.6365 562.571C62.0914 562.439 67.5447 562.395 73.001 562.311C81.4745 562.179 90.0096 561.91 98.4962 562.173C98.7897 561.718 99.1182 561.273 99.4296 560.823C99.7971 560.293 100.885 560.76 100.519 561.289C100.303 561.601 100.078 561.91 99.8652 562.221C101.584 562.287 103.301 562.373 105.014 562.491C107.938 562.691 110.834 563.048 113.754 563.269C116.724 563.495 119.629 563.455 122.575 563.096C123.105 563.032 123.417 562.797 123.546 562.507C123.551 562.506 123.554 562.503 123.557 562.5C123.708 562.371 123.851 562.263 123.997 562.17C124.172 562.087 124.361 562.016 124.584 561.954C124.999 561.839 125.431 561.768 125.869 561.721C126.352 561.668 126.841 561.663 127.323 561.62C127.73 561.582 128.127 561.525 128.525 561.456C129.239 561.331 129.917 561.169 130.592 560.953C131.181 560.765 131.712 560.495 132.213 560.201C133.251 559.646 134.15 558.938 134.935 558.202C135.393 557.772 135.823 557.325 136.214 556.86C136.896 556.055 137.476 555.219 138.063 554.376C138.275 554.126 138.47 553.87 138.647 553.609C137.501 553.362 136.343 553.16 135.128 553.146C134.315 553.136 134.316 552.213 135.128 552.223C136.522 552.239 137.84 552.478 139.15 552.761C139.214 552.637 139.275 552.512 139.332 552.386C139.488 552.122 139.618 551.851 139.725 551.576C139.788 551.451 139.851 551.327 139.914 551.202C140.056 550.771 140.198 550.338 140.341 549.906C140.627 549.214 140.852 548.511 141.018 547.799C141.157 547.331 141.264 546.859 141.336 546.382C141.557 545.225 141.737 544.07 141.75 542.901C141.731 542.18 141.668 541.46 141.56 540.743C141.515 540.257 141.437 539.772 141.333 539.291C141.198 538.576 141.064 537.868 140.838 537.162C140.669 536.684 140.501 536.207 140.332 535.729C139.911 534.734 139.414 533.758 138.841 532.804C138.81 532.744 138.651 532.612 138.555 532.611C138.482 532.61 138.381 532.659 138.414 532.723C138.417 532.729 138.42 532.736 138.424 532.742C138.391 532.687 138.359 532.632 138.326 532.578C138.298 532.527 138.187 532.426 138.102 532.427C138.097 532.427 138.092 532.427 138.086 532.428C138.108 532.416 138.129 532.401 138.149 532.384C138.715 531.894 139.083 531.249 139.488 530.681C139.824 530.213 140.141 529.719 140.233 529.19C140.313 528.725 140.204 528.267 139.805 527.891C139.351 527.463 138.496 527.262 138.971 526.644C139.51 525.941 140.304 525.33 139.513 524.531C139.111 524.124 138.474 523.9 138.001 523.546C137.457 523.136 137.198 522.588 137.213 522.029C137.246 522.043 137.29 522.036 137.306 522.001C137.763 520.991 137.432 519.881 136.963 518.897C136.708 518.363 136.167 518.217 135.538 518.19C138.263 514.297 140.813 510.342 143.085 506.295C143.161 506.163 143.235 506.03 143.309 505.897C143.42 505.699 143.186 505.435 142.917 505.391C140.952 505.076 138.905 504.976 136.903 504.837Z" fill="black"/>
<path fill-rule="evenodd" clip-rule="evenodd" d="M95.1937 439.933C103.506 439.933 113.916 446.469 116.963 449.25C119.525 451.588 119.163 463.635 119.163 470.781C119.163 472.275 118.183 475.104 117.827 476.533C116.523 481.772 110.843 486.165 99.6002 486.165C90.4461 486.165 83.4014 484.166 76.5891 479.055C75.035 477.888 67.4449 482.063 65.8926 480.56C61.8381 480.56 58.4479 454.448 66.4083 446.615C74.3688 438.783 86.8816 439.933 95.1937 439.933Z" fill="#EDB98A"/>
<path fill-rule="evenodd" clip-rule="evenodd" d="M70.2107 441.772C75.0138 438.76 81.4125 437.311 87.8683 437.418C91.2118 437.474 94.5436 437.913 97.7013 438.664C99.2808 439.042 100.811 439.534 102.273 440.091C102.8 440.291 103.286 440.526 103.754 440.775L103.87 440.838H103.872C105.126 441.149 106.246 441.707 107.262 442.36C109.298 442.248 111.351 442.374 113.32 442.807C116.06 443.41 118.597 444.515 120.378 446.084C122.454 447.911 123.144 450.127 122.897 452.414L122.852 452.803C122.609 454.823 122.173 457.422 119.767 458.75C119.584 458.851 119.382 458.927 119.172 458.974C120.723 460.804 121.995 462.837 122.756 464.889C125.662 472.728 123.428 480.904 119.933 488.46C119.647 489.082 118.281 489.496 117.585 488.887C116.344 487.8 114.54 486.97 112.512 486.815C111.26 486.719 110.014 486.893 108.831 486.501C108.367 486.347 107.919 486.094 107.597 485.788C105.6 486.309 103.45 486.556 101.317 486.495C97.8169 486.396 94.0752 485.561 91.6671 483.728C91.2806 483.434 91.1827 483.104 91.2717 482.806C91.5737 482.732 91.8837 482.676 92.2031 482.642C95.2568 483.882 98.6229 484.711 102.241 484.763C104.331 484.794 106.37 484.592 108.065 483.692C108.431 483.498 108.769 483.282 109.08 483.05C112.624 481.479 115.123 478.81 116.31 475.951C117.417 473.285 117.281 470.509 116.9 467.775L116.699 466.332C116.407 464.214 116.135 462.09 116.059 459.963L116.082 459.962V459.962C116.83 459.929 116.836 459.121 116.082 459.155C114.132 459.242 112.197 459.021 110.254 459.117C110.237 458.484 110.171 457.853 109.901 457.242C109.747 456.893 108.865 456.825 108.772 457.242C108.647 457.801 108.601 458.357 108.588 458.919C105.679 458.892 102.772 458.723 99.8631 458.793C99.3265 458.398 99.1556 457.699 98.9046 457.212C98.868 457.14 98.8314 457.07 98.7933 456.998C98.5727 457.694 98.26 458.374 97.8487 459.04L97.1352 459.041C93.0868 459.054 88.956 459.138 85.0028 459.717C84.728 459.572 84.5645 459.318 84.5203 459.088C84.2336 457.589 83.8243 456.13 83.099 454.701L82.9952 454.5C82.9868 454.483 82.9778 454.465 82.9684 454.446C82.434 455.041 81.7963 455.595 81.1008 456.111C80.6909 456.416 80.2611 456.707 79.82 456.989C79.3915 457.317 78.9487 457.64 78.5195 457.969C78.5363 458.029 78.551 458.09 78.5628 458.152C78.6941 458.834 78.7078 459.526 78.6116 460.212C78.4377 461.451 77.9303 462.644 77.1152 463.749L77.0894 463.859C76.9656 464.377 76.7895 464.912 76.3783 465.301C76.8915 465.698 77.2869 466.171 77.5161 466.697C77.7202 467.165 76.7802 467.571 76.2928 467.188C75.9056 466.884 75.4753 466.632 75.0028 466.431C74.9729 466.459 74.919 466.472 74.8586 466.449C73.5425 465.945 71.3072 466.098 69.9926 466.572C68.3574 467.161 67.7192 468.371 67.9007 469.597C68.0749 470.769 68.8185 472.138 70.2605 472.738C70.9222 473.014 71.4375 473.037 72.1401 472.905C72.3648 472.863 72.6433 472.734 72.7629 472.67L72.8806 472.605C73.3412 472.354 73.7702 472.182 74.314 472.175C74.8702 472.056 75.4291 472.222 75.6418 472.624L75.6549 472.65C75.7545 472.854 75.936 473.112 75.8965 473.425C75.8555 473.76 75.633 474.064 75.3007 474.31C75.2436 474.352 75.1821 474.394 75.1192 474.434C80.843 478.705 81.5779 485.361 78.6428 490.697C78.5154 490.931 78.3793 491.162 78.2373 491.391C77.7469 492.176 75.8584 491.933 75.6184 491.155C75.5466 490.922 75.4676 490.69 75.3812 490.46C75.2224 490.034 75.0406 489.613 74.8355 489.198L74.7576 489.043C74.5834 488.7 74.4209 488.354 74.2452 488.011L74.2276 487.971C74.2211 487.956 74.2137 487.938 74.2057 487.918L73.9085 488.365V488.365L73.0053 489.714C72.5826 490.343 71.2397 490.001 71.1898 489.395L71.1886 489.374C71.1842 489.262 71.1783 489.151 71.1681 489.041C71.1037 488.216 70.8973 487.415 70.5694 486.631L70.4511 486.733C68.6894 488.234 66.6219 489.641 63.7857 489.987C63.0742 490.074 62.2691 489.562 62.758 489.066C62.96 488.861 63.1547 488.651 63.3392 488.438C63.1796 488.387 63.0288 488.333 62.8898 488.279C61.8138 487.862 60.9179 487.269 60.1772 486.596C58.6064 485.169 58.0443 483.373 57.9067 481.615C57.7603 479.757 57.9974 477.799 58.7338 476.007C59.0529 475.232 59.4847 474.488 59.9839 473.767C59.9488 473.702 59.9151 473.638 59.8814 473.573C59.3427 472.538 58.9006 471.479 58.5332 470.409C57.7925 468.247 57.3943 466.017 57.346 463.796C57.2581 459.817 58.2536 455.775 60.3514 452.065C62.5179 448.238 65.7766 444.552 70.2107 441.772ZM67.5125 476.559C67.1146 476.127 66.1192 476.516 66.4886 476.951L66.5024 476.966C67.1333 477.652 67.429 478.431 67.7921 479.194C68.0248 479.686 69.1564 479.476 68.9207 478.979L68.8427 478.814C68.4815 478.039 68.1519 477.252 67.5125 476.559ZM70.9781 468.317L71.2424 468.229C72.0761 467.954 72.8067 467.768 73.7917 468.007C75.1107 468.327 76.5234 469.345 75.6318 470.333C75.3039 470.697 74.7213 470.842 74.1211 470.757C73.1093 470.612 72.8481 469.984 72.3347 469.468L72.2463 469.381C71.9333 469.069 71.5374 468.638 71.0162 468.516C70.8976 468.487 70.8478 468.36 70.9781 468.317ZM71.721 447.342L71.8061 447.29C72.3727 446.945 71.5412 446.376 70.9776 446.719C68.3982 448.29 67.5023 450.749 66.1643 452.845C65.8642 453.316 66.8728 453.728 67.1758 453.252C68.4522 451.253 69.2993 448.86 71.721 447.342V447.342ZM102.718 446.655C102.044 446.446 101.454 447.122 102.102 447.344L102.126 447.352C104.404 448.062 105.373 449.668 106.301 451.16C106.597 451.636 107.606 451.225 107.313 450.753L107.145 450.485C106.177 448.948 105.047 447.382 102.718 446.655ZM106.288 445.684C105.574 445.514 105.268 446.293 105.976 446.463C107.907 446.927 109.232 447.926 110.349 449.068C110.768 449.496 111.782 449.092 111.359 448.66C110.062 447.334 108.522 446.221 106.288 445.684Z" fill="#A55728"/>
<path fill-rule="evenodd" clip-rule="evenodd" d="M100.408 477.389C99.5242 477.127 98.7354 476.689 98.1587 476.13C97.9582 475.936 97.9062 475.731 97.9483 475.543C97.9956 475.332 98.1672 475.141 98.4013 475.012C98.6361 474.884 98.9299 474.82 99.2138 474.852C99.4606 474.881 99.7062 474.979 99.9006 475.183L99.9412 475.223C100.284 475.561 100.731 475.838 101.24 476.016C101.731 476.188 102.279 476.268 102.847 476.222C103.929 476.133 104.674 475.707 105.466 475.13C105.565 475.057 105.663 474.981 105.762 474.905C105.824 474.836 105.91 474.791 106.007 474.768C106.113 474.742 106.234 474.743 106.344 474.771C106.451 474.798 106.546 474.85 106.61 474.918C106.671 474.983 106.705 475.063 106.694 475.155C106.622 475.754 106.191 476.288 105.58 476.708C104.901 477.174 104.001 477.496 103.154 477.609C102.221 477.734 101.269 477.645 100.408 477.389V477.389ZM103.594 468.152C104.587 468.591 106.101 469.615 105.032 470.703C103.775 471.663 101.964 470.563 101.072 470.065C100.245 469.679 99.3152 470.671 100.083 471.122C106.53 474.594 109.146 468.267 104.097 467.635C103.541 467.566 103.334 468.016 103.594 468.152ZM92.0412 464.113C92.151 463.122 94.2252 462.897 94.4316 463.877C94.6163 464.756 94.3988 465.562 93.855 466.353C93.3354 467.108 92.0295 466.756 91.9307 466.068C91.7983 465.146 91.973 464.729 92.0412 464.113ZM107.831 463.674C108.12 463.399 108.537 463.21 109.038 463.317C110.601 463.649 110.14 465.263 109.591 466.049C109.293 466.476 108.329 466.584 107.893 466.208C107.183 465.595 106.843 464.372 107.746 463.768C107.77 463.737 107.797 463.706 107.831 463.674ZM93.833 459.777L94.0799 459.746C94.8437 459.65 95.7934 459.558 96.3337 460.004C96.6202 460.241 96.7188 460.681 96.3337 460.908C95.6561 461.307 94.907 461.152 94.0951 461.186C93.426 461.214 92.7829 461.295 92.1384 461.429C90.7244 461.723 89.5722 462.259 88.3646 462.849C88.2061 462.926 88.0444 462.779 88.12 462.671C88.8171 461.677 90.1681 460.862 91.5213 460.364C92.2436 460.099 93.034 459.878 93.833 459.777ZM106.406 459.333L106.595 459.361C108.651 459.673 111.323 460.298 112.297 461.767C112.334 461.975 112.295 462.02 112.263 462.049L112.252 462.058C112.226 462.083 112.205 462.118 112.081 462.146C112.047 462.14 112.012 462.134 111.977 462.127C111.531 462.042 111.178 461.925 110.836 461.803L110.465 461.67C110.035 461.517 109.601 461.369 109.141 461.26C108.16 461.027 107.15 460.863 106.125 460.775C105.903 460.756 105.689 460.702 105.52 460.608C105.36 460.519 105.238 460.397 105.182 460.233C105.11 460.022 105.131 459.862 105.286 459.671C105.404 459.528 105.571 459.429 105.764 459.372C105.96 459.314 106.184 459.3 106.406 459.333Z" fill="black"/>
<path fill-rule="evenodd" clip-rule="evenodd" d="M117.117 471.423C116.894 469.187 113.329 468.24 111.553 467.96C105.64 466.861 100.61 469.68 93.5599 469.738C92.8484 469.747 90.8135 469.652 89.8672 469.454C85.066 468.592 80.2698 467.674 75.5589 466.543C74.8663 466.671 74.6614 467.386 75.1369 467.793C79.6489 469.058 86.5517 470.191 90.197 470.32C90.127 474.043 87.6411 477.787 84.2082 479.846C89.6681 484.62 102.402 486.19 109.896 483.684C113.582 482.809 117.472 474.979 117.117 471.423" fill="white"/>
<path fill-rule="evenodd" clip-rule="evenodd" d="M75.1781 466.656C74.975 466.649 75.0934 466.181 75.5507 466.248C81.451 467.339 88.8021 469.417 94.8669 469.402C99.3283 469.287 103.326 467.322 107.812 467.31C110.828 467.356 114.673 467.695 116.783 469.608C119.567 476.588 113.299 486.082 103.436 486.137L101.569 486.03C95.2061 485.66 88.2352 485.067 84.1338 480.798L84.1018 480.82V480.82C83.4885 480.495 83.5227 479.792 84.0439 479.431L84.0594 479.45V479.45C84.0694 479.437 84.0804 479.425 84.091 479.413L84.0844 479.396V479.396C84.2849 479.23 84.5129 479.074 84.7202 478.935L84.7213 478.938V478.938C87.8009 476.909 89.8118 473.841 89.9275 470.665C88.908 470.886 71.7783 468.078 74.8361 467.393C77.0232 467.978 79.2232 468.506 81.4676 468.926C81.5052 468.909 81.5592 468.914 81.5799 468.947C84.3255 469.481 87.1265 469.786 89.9312 470.033C89.9282 469.927 89.9232 469.821 89.9163 469.715C84.9294 468.948 80.0405 467.808 75.1781 466.656ZM115.559 469.488C105.331 465.403 100.253 471.439 90.3608 469.777C91.3957 473.428 88.8401 477.363 85.369 479.749C90.4125 483.2 92.5954 483.723 99.2114 484.283L100.076 484.364C101.375 484.486 102.687 484.6 103.99 484.617C110.752 484.228 115.861 478.666 116.626 473.626L116.63 473.487C116.664 472.208 116.59 470.854 115.873 469.683C115.741 469.646 115.627 469.581 115.559 469.488ZM101.318 472.696C101.672 472.633 102.032 472.938 101.813 473.205C101.105 474.068 99.3736 474.403 98.1626 474.538C96.7602 474.695 95.4008 474.571 94.0686 474.193C93.9972 474.173 94.0023 474.073 94.0878 474.081C95.3527 474.2 96.6568 474.113 97.8859 473.848C99.1321 473.656 100.138 473.001 101.318 472.696ZM110.929 472.074C110.923 471.91 111.944 472.384 112.105 472.448C113.351 473.04 114.793 473.083 116.168 473.315C116.488 473.412 116.487 473.734 116.167 473.832C114.452 474.192 111.849 473.246 110.929 472.074Z" fill="black"/>
<path fill-rule="evenodd" clip-rule="evenodd" d="M263.015 227.674C264.39 223.775 265.654 222.122 268.095 220.767C270.379 219.5 273.713 218.435 278.578 217.657C283.645 217.009 283.789 215.084 285.059 211.988C285.43 211.058 287.266 210.81 288.059 211.481C288.171 211.393 288.287 211.312 288.408 211.239C288.3 210.795 289.184 209.523 289.154 209.099C288.846 204.668 290.828 202.443 295.774 201.615C296.85 201.435 304.157 201.33 305.205 201.542C309.791 202.469 314.305 205.412 313.614 208.958C315.053 210.334 316.462 211.173 318.682 211.617C322.141 211.938 320.403 247.766 314.398 269.23C311.821 278.44 250.205 262.765 252.989 258.152C252.594 257.307 253.314 256.378 252.989 255.505C252.754 254.873 252.152 254.611 251.85 253.986C251.423 253.105 251.887 251.924 252.367 251.026C252.563 250.578 252.005 250.096 251.85 249.639C251.113 247.484 252.799 247.674 254.015 246.233C253.997 246.229 253.681 245.2 253.682 245.205C253.496 244.471 253.962 243.53 254.369 242.917C254.644 242.503 255.233 242.244 255.818 242.291C255.228 240.829 254.483 239.612 253.682 238.202C252.265 235.718 250.917 233.119 248.882 230.871C248.049 229.95 248.722 229.103 250.071 229.041C254.435 228.838 258.753 228.378 263.015 227.674Z" fill="#D08B5B"/>
<path fill-rule="evenodd" clip-rule="evenodd" d="M269.829 227.975L279.792 240.307C279.792 240.307 277.429 240.48 276.472 240.816C275.516 241.152 271.124 245.235 271.124 245.235L270.426 247.484L272.079 249.297L271.434 250.435C271.434 250.435 270.974 249.664 269.829 249.065C268.683 248.467 266.157 247.484 266.157 247.484C266.157 247.484 266.997 247.156 266.997 246.77C266.997 246.384 267.736 244.739 266.157 244.118C264.578 243.496 256.419 242.042 256.419 242.042L248.15 229.285L269.829 227.975Z" fill="#FDEA6B"/>
<path fill-rule="evenodd" clip-rule="evenodd" d="M314.276 211.7L282.638 215.761L268.095 220.767L265.721 222.105L279.792 240.307L301.519 243.206L307.054 253.722L305.925 265.575L270.58 262.493L255.333 261.168L251.749 271.75L252.397 276.103L253.338 278.31L291.135 285.773C291.135 285.773 310.381 284.409 313.793 284.409C317.205 284.409 342.219 286.226 342.219 286.226L348.007 285.773C348.007 285.773 360.812 275.903 362.798 272.39C364.784 268.877 369.079 247.523 369.079 247.523L368.606 244.241L357.542 223.419C357.542 223.419 356.065 222.438 354.203 220.767C352.34 219.096 314.276 211.7 314.276 211.7Z" fill="black"/>
<path fill-rule="evenodd" clip-rule="evenodd" d="M257.016 241.779C259.875 241.885 262.737 242.382 265.323 243.283C266.381 243.652 267.34 244.185 267.621 245.062C267.763 245.51 267.728 245.972 267.653 246.424C267.596 246.767 267.582 247.204 267.175 247.436C267.105 247.475 267.031 247.505 266.954 247.527C267.908 247.842 268.817 248.22 269.624 248.61C270.362 248.966 271.12 249.516 271.461 250.135C271.489 250.065 271.518 249.999 271.546 249.937C272.127 248.682 273.021 247.654 274.429 246.963C274.589 246.537 276.305 244.702 277.899 244.771C279.645 244.846 281.049 244.94 282.628 245.527C283.204 245.517 283.778 245.523 284.345 245.542C284.443 245.544 284.438 245.641 284.345 245.649C283.885 245.692 283.424 245.739 282.964 245.794C281.869 245.922 280.778 246.085 279.711 246.287C278.43 246.529 277.105 246.773 275.908 247.196C273.587 248.018 272.15 250.169 272.445 252.039C272.494 252.346 272.656 253.274 273.238 253.178C273.73 253.097 273.926 252.346 274.098 252.068C274.558 251.33 275.388 250.848 276.383 250.521C277.551 250.137 278.802 249.878 280.013 249.576C280.699 249.404 281.385 249.232 282.073 249.061C282.776 248.885 283.445 248.641 284.194 248.765C284.646 248.84 284.699 249.234 284.445 249.46C284.058 249.805 283.484 249.907 282.928 250.048C282.193 250.235 281.459 250.422 280.726 250.609C279.592 250.897 278.405 251.141 277.299 251.494L277.334 251.551C277.424 251.533 277.53 251.599 277.512 251.68C277.346 252.426 277.116 253.289 277.372 254.036C277.574 254.629 278.285 255.285 279.209 255.111C279.064 255.014 279.01 254.847 279.108 254.692C279.474 254.12 284.268 251.862 284.695 252.7C284.71 252.73 284.666 252.752 284.631 252.748C284.266 252.692 283.656 253.147 283.365 253.291C282.943 253.499 282.516 253.702 282.1 253.915C281.644 254.148 281.199 254.393 280.765 254.645C280.425 254.844 280.168 255.05 279.777 255.151C279.982 255.222 280.144 255.355 280.213 255.524C280.39 255.966 280.731 256.341 281.322 256.536C281.942 256.739 282.641 256.611 283.293 256.66C284.183 256.726 284.959 257.035 285.607 257.477C286.968 258.407 287.651 260.045 289.554 260.484C290.691 260.746 291.953 260.581 293.104 260.462C294.389 260.33 295.641 260.225 296.936 260.363C298.176 260.496 299.347 260.81 300.48 261.192C301.541 261.551 302.714 261.957 303.656 262.492C303.85 262.055 304.045 261.623 304.194 261.176C304.544 260.121 304.733 259.046 304.779 257.962C304.821 256.929 304.742 255.892 304.621 254.864C304.561 254.351 304.466 253.84 304.407 253.327C304.391 253.198 304.359 253.059 304.336 252.921C302.654 252.195 300.888 251.639 299.108 251.067C299.103 251.066 299.098 251.064 299.094 251.063C299.038 251.044 298.985 251.027 298.93 251.009C298.931 251.007 298.933 251.005 298.936 251.002C298.732 250.911 298.59 250.79 298.505 250.654C295.939 249.409 293.795 247.71 292.196 245.729C291.525 244.898 290.88 244.036 290.004 243.309C289.07 242.532 287.961 242.071 286.589 241.831C284.986 241.55 283.333 241.381 281.69 241.285C280.792 241.233 279.789 241.153 278.812 241.156C278.13 241.16 277.463 241.202 276.851 241.326C275.944 241.508 275.415 242.012 274.845 242.522C274.301 243.011 273.76 243.501 273.253 244.011C272.772 244.494 272.317 244.994 271.923 245.517C271.687 245.831 271.467 246.154 271.283 246.488C271.218 246.605 271.133 246.739 271.094 246.861C271.054 246.985 271.127 247.115 270.937 247.115C271.718 247.123 272.237 248.547 271.461 248.513C270.37 248.467 269.822 247.51 270.035 246.662C270.417 245.148 272.476 243.319 272.884 242.931C273.784 242.075 274.713 240.959 276.154 240.561C276.175 240.555 276.197 240.549 276.217 240.545C275.798 240.254 275.467 239.906 275.15 239.552C274.823 239.187 274.434 238.769 274.326 238.337C274.259 238.061 274.727 237.904 274.949 238.145C275.273 238.497 275.429 238.943 275.67 239.329C275.916 239.721 276.216 240.091 276.452 240.487C277.022 240.359 277.637 240.3 278.263 240.281C277.473 239.499 276.123 237.99 275.96 237.796C275.213 236.899 274.502 235.974 273.822 235.047C273.087 234.044 272.458 232.999 271.754 231.983C271.355 231.408 270.953 230.828 270.51 230.269C270.357 230.078 270.193 229.886 270.007 229.712C269.971 229.678 269.925 229.649 269.882 229.616C269.834 229.597 269.783 229.575 269.755 229.563C269.499 229.456 269.409 229.207 269.23 229.049C268.943 228.794 268.605 228.764 268.173 228.761C267.252 228.754 266.328 228.78 265.408 228.799C264.057 228.826 262.707 228.866 261.357 228.917C260.949 228.934 260.542 228.95 260.133 228.968C258.17 229.054 256.208 229.165 254.251 229.303C252.519 229.424 250.788 229.621 249.055 229.716C251.401 233.793 254.003 237.797 256.949 241.661C256.979 241.701 257.002 241.74 257.016 241.779ZM270.035 252.284C270.414 252.411 270.781 252.569 271.124 252.749C271.067 252.469 271.053 252.173 271.068 251.877C270.786 252.098 270.425 252.225 270.035 252.284ZM253.879 245.27C253.906 245.272 253.931 245.282 253.944 245.302C254.467 246.092 254.248 246.974 253.393 247.594C252.945 247.917 251.969 248.281 252.001 248.812C252.028 249.241 252.666 249.601 252.939 249.955C253.193 250.285 253.288 250.647 253.084 251.005C252.824 251.463 252.097 251.645 251.848 252.095C251.532 252.666 252.045 253.355 252.404 253.852C252.739 254.312 253.171 254.772 253.458 255.259C255.38 255.987 259.742 257.309 260.268 257.383C260.908 257.474 261.549 257.56 262.193 257.641C263.428 257.798 264.666 257.943 265.907 258.071C266.613 258.144 267.321 258.215 268.029 258.272C268.648 258.32 269.345 258.386 269.843 258.046C270.848 257.358 270.285 256.206 269.649 255.511C269.636 255.498 269.636 255.485 269.641 255.473C269.042 255.371 268.444 255.251 267.848 255.167C266.702 255.005 265.547 254.869 264.391 254.748C262.016 254.5 259.626 254.336 257.238 254.171C256.647 254.13 256.64 253.449 257.238 253.49C260.668 253.719 264.115 253.937 267.5 254.42C268.348 254.54 269.19 254.676 270.028 254.83C270.423 254.901 270.848 255.013 271.262 255.017C271.288 255.017 271.313 255.017 271.338 255.015C272.15 254.997 272.268 254.488 271.822 254.065C271.767 254.013 271.71 253.961 271.652 253.912C270.863 253.224 269.881 252.765 268.869 252.29C267.735 252.177 266.604 251.925 265.494 251.741C262.753 251.284 260.012 250.827 257.269 250.371C256.732 250.282 256.96 249.677 257.498 249.766C259.58 250.111 261.661 250.456 263.743 250.801L266.79 251.306C267.399 251.406 268.159 251.608 268.875 251.681C269.228 251.716 269.57 251.721 269.879 251.668C270.878 251.495 270.928 250.583 270.497 250.04C270.015 249.431 269.103 249.051 268.294 248.706C266.892 248.107 265.401 247.677 263.943 247.181C263.685 247.139 263.426 247.098 263.168 247.056C261.663 246.814 259.944 246.695 258.528 246.251C258.104 246.12 258.336 245.631 258.755 245.637C259.854 245.655 261.004 245.941 262.078 246.11C263.24 246.295 264.404 246.478 265.566 246.662C265.683 246.68 266.374 246.842 266.478 246.806C266.544 246.783 266.568 246.615 266.59 246.504C266.661 246.139 266.713 245.756 266.635 245.391C266.465 244.57 265.53 244.185 264.584 243.87C262.477 243.17 260.166 242.732 257.867 242.556C257.337 242.516 256.807 242.491 256.274 242.478C255.648 242.464 255.133 242.383 254.816 242.834C254.317 243.545 254.043 244.459 253.879 245.27ZM256.805 271.032C257.264 269.871 257.139 268.631 257.454 267.447C257.616 266.835 257.837 266.229 258.079 265.633C258.275 265.151 258.6 264.638 258.637 264.135C258.639 264.102 258.585 264.082 258.548 264.098C257.9 264.369 257.403 264.955 257.034 265.416C256.591 265.966 256.254 266.543 255.981 267.15C255.439 268.358 254.993 269.815 255.693 271.032C255.901 271.395 256.633 271.467 256.805 271.032ZM274.721 279.824C275.405 279.475 275.904 278.987 276.484 278.556C277.054 278.132 276.162 277.48 275.592 277.903C275.097 278.271 274.667 278.73 274.084 279.027C273.804 279.17 273.674 279.429 273.858 279.658C274.02 279.861 274.441 279.967 274.721 279.824ZM278.536 266.403C277.287 266.008 276.059 265.578 274.752 265.294C273.971 265.124 273.64 266.015 274.417 266.183C275.62 266.446 276.749 266.836 277.899 267.2C278.638 267.434 279.279 266.638 278.536 266.403ZM291.725 266.127C292.03 265.576 290.809 265.338 290.508 265.882C290.162 266.507 289.765 267.117 289.418 267.742C289.113 268.293 290.334 268.531 290.635 267.987C290.981 267.362 291.378 266.752 291.725 266.127ZM304.742 277.134C304.946 277.332 305.285 277.44 305.605 277.299C305.874 277.182 306.038 276.869 305.832 276.668C305.23 276.082 304.621 275.503 303.916 274.98C303.345 274.556 302.453 275.209 303.024 275.632C303.654 276.099 304.205 276.61 304.742 277.134ZM306.604 215.376C306.025 215.665 305.517 216.017 305.022 216.378C304.447 216.799 305.34 217.451 305.915 217.031C306.332 216.726 306.752 216.417 307.24 216.173C307.523 216.032 307.649 215.77 307.467 215.542C307.303 215.337 306.885 215.235 306.604 215.376ZM287.665 230.226C287.992 230.705 288.287 231.175 288.306 231.72C288.326 232.314 289.587 232.315 289.567 231.72C289.543 231.007 289.184 230.389 288.754 229.76C288.391 229.228 287.304 229.696 287.665 230.226ZM280.716 218.299C280.038 217.969 279.407 218.768 280.079 219.096C280.624 219.362 281.17 219.628 281.715 219.894C282.393 220.224 283.024 219.425 282.351 219.097C281.806 218.831 281.261 218.565 280.716 218.299ZM310.856 239.152C310.971 239.738 312.187 239.487 312.072 238.906C311.895 238.009 311.678 237.123 311.345 236.249C311.127 235.677 309.911 235.921 310.129 236.494C310.462 237.368 310.678 238.254 310.856 239.152ZM315.279 249.722C316.091 249.71 316.091 248.787 315.279 248.8C314.544 248.811 313.822 248.952 313.113 249.082C312.324 249.226 312.66 250.116 313.448 249.972C314.047 249.862 314.658 249.732 315.279 249.722ZM316.912 271.016C317.191 271.115 317.477 271.205 317.759 271.299C318.324 271.488 318.888 271.677 319.452 271.867C320.628 272.261 321.803 272.657 322.977 273.055C325.326 273.85 327.694 274.618 330.05 275.405C332.452 276.207 334.847 277.021 337.24 277.838C338.367 278.223 339.503 278.594 340.636 278.969C341.606 279.289 342.804 279.849 343.868 279.902C343.922 279.905 343.941 279.854 343.91 279.828C343.508 279.494 342.866 279.299 342.338 279.082C341.798 278.86 341.249 278.651 340.701 278.439C339.561 277.997 338.418 277.558 337.266 277.132C334.962 276.279 332.654 275.432 330.345 274.587C327.99 273.724 325.639 272.856 323.263 272.024C322.145 271.632 321.025 271.242 319.905 270.853C319.298 270.642 318.691 270.431 318.084 270.221C317.822 270.13 317.562 270.032 317.294 269.951C316.938 269.843 316.667 269.865 316.299 269.799C315.7 269.691 315.441 270.248 315.901 270.491C316.28 270.691 316.479 270.862 316.912 271.016ZM325.334 280.478C325.464 280.248 325.193 279.968 324.894 279.911C324.535 279.842 324.248 280.001 324.117 280.233C323.772 280.848 323.279 281.413 322.645 281.89C322.078 282.316 322.97 282.969 323.537 282.542C324.332 281.945 324.903 281.246 325.334 280.478ZM331.53 265.666C332.106 265.246 331.213 264.593 330.638 265.014L329.003 266.21C328.428 266.63 329.321 267.283 329.895 266.862L331.53 265.666ZM348.305 263.716C349.481 263.969 350.852 264.2 351.653 264.934C351.692 264.97 351.758 264.924 351.735 264.888C350.709 263.332 347.766 262.786 345.729 262.241C344.288 261.856 342.81 261.536 341.319 261.25C341.468 260.006 341.057 258.673 340.914 257.435C340.761 256.113 340.637 254.788 340.573 253.462C340.508 252.11 340.493 250.748 340.553 249.395C340.614 248.048 340.853 246.716 340.958 245.373C340.968 245.243 340.721 245.237 340.667 245.344C340.048 246.591 339.784 247.972 339.582 249.286C339.375 250.64 339.306 251.99 339.332 253.352C339.36 254.753 339.471 256.15 339.624 257.545C339.696 258.207 339.78 258.868 339.86 259.529C339.92 260.034 339.948 260.534 340.089 261.023C339.19 260.861 338.289 260.708 337.39 260.56C334.525 260.087 331.649 259.648 328.796 259.137C327.395 258.886 326.015 258.586 324.621 258.319C323.308 258.067 321.923 257.763 320.575 257.65C320.094 257.61 320.033 258.092 320.351 258.255C321.446 258.817 322.901 259.209 324.167 259.524C325.436 259.84 326.756 260.067 328.058 260.301C330.772 260.79 333.512 261.189 336.248 261.605C338.98 262.02 341.717 262.432 344.418 262.945C345.719 263.192 347.016 263.44 348.305 263.716ZM354.747 239.029C355.449 239.33 356.083 238.532 355.383 238.232C354.468 237.839 353.492 237.543 352.508 237.255C351.753 237.034 351.428 237.927 352.172 238.145C353.057 238.404 353.924 238.676 354.747 239.029ZM357.29 273.313C357.994 273.611 358.629 272.814 357.927 272.516C356.941 272.098 355.86 271.819 354.838 271.453C354.111 271.192 353.473 271.989 354.202 272.25C355.224 272.616 356.304 272.894 357.29 273.313ZM358.434 253.852C357.753 254.325 356.844 254.547 355.987 254.796C355.24 255.013 355.568 255.905 356.323 255.686C357.39 255.376 358.478 255.093 359.326 254.504C359.916 254.094 359.023 253.443 358.434 253.852ZM350.901 227.422C350.152 227.637 350.48 228.529 351.236 228.312C352.075 228.071 352.941 227.888 353.779 227.647C354.528 227.433 354.2 226.541 353.444 226.757C352.605 226.998 351.739 227.181 350.901 227.422ZM337.611 216.924C336.815 216.826 336.476 217.715 337.275 217.814C338.266 217.936 339.242 218.079 340.182 218.345C340.941 218.56 341.267 217.668 340.517 217.456C339.577 217.19 338.601 217.046 337.611 216.924ZM333.219 242.484C333.949 242.221 333.309 241.426 332.583 241.687C331.818 241.962 331.025 242.175 330.19 242.305C329.395 242.429 329.734 243.318 330.525 243.195C331.465 243.048 332.359 242.793 333.219 242.484ZM329.072 228.086C328.287 227.929 327.955 228.819 328.737 228.976C330.113 229.252 331.529 229.395 332.915 229.641C333.705 229.78 334.039 228.89 333.251 228.751C331.865 228.505 330.448 228.362 329.072 228.086ZM311.478 223.568C310.679 223.676 311.02 224.565 311.813 224.458C312.658 224.344 313.514 224.342 314.371 224.342C315.184 224.341 315.182 223.419 314.371 223.419C313.398 223.419 312.437 223.438 311.478 223.568ZM254.097 228.389C256.158 228.245 258.222 228.13 260.289 228.043C260.386 228.04 260.48 228.035 260.577 228.032C260.588 228.015 260.602 228 260.616 227.984C261.291 227.26 261.788 226.536 262.218 225.716C262.63 224.937 263.029 224.133 263.663 223.429C264.386 222.627 265.362 222 266.432 221.457C267.081 221.776 267.683 222.149 268.234 222.546C268.814 222.962 269.706 222.31 269.126 221.893C268.636 221.541 268.114 221.216 267.561 220.922C268.199 220.638 268.85 220.372 269.485 220.107C271.865 219.114 274.301 218.196 276.788 217.356C277.944 216.965 279.114 216.618 280.292 216.266C280.926 216.077 281.552 215.833 282.186 215.614C282.141 215.286 282.275 214.92 282.618 214.704C282.872 214.546 283.069 214.487 283.372 214.375C283.44 214.358 283.481 214.348 283.5 214.342C283.486 214.344 283.445 214.353 283.377 214.369C283.216 214.424 283.204 214.407 283.339 214.322C283.347 214.135 283.85 213.741 283.965 213.548C284.366 212.887 284.49 212.188 285.082 211.586C285.897 210.757 287.266 210.443 288.542 210.724C288.674 209.727 288.709 208.685 289.223 207.794C289.237 207.77 289.283 207.76 289.303 207.786C289.84 208.454 289.885 209.198 289.926 209.969C289.966 210.692 289.928 211.431 289.799 212.15C289.881 212.196 289.964 212.24 290.051 212.283C290.458 212.479 290.896 212.63 291.357 212.742C292.234 212.954 293.153 213.046 294.072 213.079C296.446 213.162 298.892 212.986 301.226 212.689C303.586 212.388 307.206 211.936 309.306 211.072C310.693 210.502 311.971 209.806 313.268 209.133C312.798 208.025 312.678 206.835 313.151 205.899C313.208 205.787 313.448 205.767 313.493 205.899C313.79 206.792 313.876 207.689 314.271 208.572C314.277 208.585 314.283 208.599 314.29 208.611C314.413 208.55 314.536 208.49 314.659 208.43C314.943 208.293 315.329 208.396 315.499 208.592C318.223 211.73 322.536 211.91 327.065 212.471C332.022 213.084 337.003 213.747 341.769 214.947C346.327 216.096 350.682 217.769 354.133 220.267C354.914 220.833 355.645 221.436 356.334 222.065C355.667 222.127 355.005 222.222 354.352 222.372C353.579 222.55 353.911 223.441 354.688 223.262C355.527 223.069 356.376 222.974 357.233 222.926C359.578 225.272 361.406 227.932 362.986 230.551C366.019 235.571 367.992 240.917 368.9 246.36C368.402 246.142 367.894 245.933 367.374 245.74C366.651 245.471 366.013 246.267 366.737 246.537C367.541 246.836 368.321 247.165 369.078 247.523C369.408 249.905 369.536 252.303 369.458 254.697C369.274 260.405 368.221 266.279 365.838 271.725C364.669 274.398 363.12 277.049 360.813 279.307C359.769 280.33 358.583 281.253 357.186 282.022C356.51 282.396 355.794 282.73 355.038 283.011C354.065 283.376 352.797 283.495 351.958 284.011C351.682 284.181 351.469 284.404 351.309 284.657C351.402 285.137 351.413 285.618 351.233 286.098C351.176 286.248 351.022 286.37 350.831 286.429C350.828 286.47 350.828 286.511 350.828 286.55C350.828 286.568 350.79 286.573 350.785 286.555C350.777 286.519 350.769 286.483 350.761 286.446C350.7 286.461 350.635 286.468 350.569 286.468C348.173 286.475 345.775 286.432 343.376 286.373C343.562 285.957 343.763 285.545 343.956 285.129C344.218 284.565 342.999 284.325 342.739 284.884C342.513 285.37 342.277 285.852 342.068 286.339C339.497 286.269 336.928 286.185 334.364 286.123C328.909 285.991 323.455 285.947 317.999 285.863C309.526 285.731 300.99 285.462 292.504 285.725C292.21 285.27 291.882 284.825 291.57 284.375C291.203 283.845 290.115 284.312 290.481 284.841C290.697 285.153 290.922 285.462 291.135 285.773C289.416 285.838 287.699 285.925 285.986 286.043C283.062 286.243 280.166 286.6 277.246 286.821C274.276 287.047 271.371 287.007 268.425 286.648C267.895 286.584 267.583 286.349 267.454 286.059C267.449 286.057 267.446 286.055 267.443 286.052C267.292 285.922 267.149 285.815 267.003 285.722C266.828 285.639 266.639 285.568 266.416 285.506C266.001 285.391 265.569 285.32 265.131 285.273C264.648 285.22 264.159 285.215 263.677 285.172C263.27 285.134 262.873 285.077 262.475 285.008C261.761 284.883 261.083 284.721 260.408 284.505C259.819 284.317 259.288 284.047 258.787 283.753C257.749 283.198 256.85 282.49 256.065 281.754C255.607 281.323 255.177 280.877 254.786 280.412C254.104 279.607 253.524 278.771 252.937 277.928C252.725 277.678 252.53 277.422 252.353 277.161C253.499 276.913 254.657 276.712 255.872 276.698C256.685 276.688 256.684 275.765 255.872 275.775C254.478 275.791 253.16 276.029 251.85 276.313C251.786 276.189 251.725 276.064 251.668 275.938C251.512 275.674 251.382 275.403 251.275 275.128C251.212 275.003 251.149 274.879 251.086 274.754C250.944 274.323 250.802 273.89 250.659 273.458C250.373 272.766 250.148 272.063 249.982 271.351C249.843 270.883 249.736 270.411 249.664 269.934C249.443 268.777 249.263 267.622 249.25 266.452C249.269 265.732 249.332 265.012 249.44 264.295C249.485 263.809 249.563 263.324 249.667 262.843C249.802 262.128 249.936 261.42 250.162 260.714C250.331 260.236 250.499 259.759 250.668 259.281C251.089 258.286 251.586 257.31 252.159 256.356C252.19 256.296 252.349 256.164 252.445 256.163C252.518 256.162 252.619 256.21 252.586 256.275C252.583 256.281 252.58 256.288 252.576 256.294C252.609 256.239 252.641 256.184 252.674 256.13C252.702 256.079 252.813 255.978 252.898 255.979C252.903 255.979 252.908 255.979 252.914 255.98C252.892 255.968 252.871 255.953 252.851 255.936C252.285 255.446 251.917 254.801 251.512 254.233C251.176 253.765 250.859 253.271 250.767 252.742C250.687 252.277 250.796 251.819 251.195 251.443C251.649 251.015 252.504 250.814 252.029 250.196C251.49 249.492 250.696 248.882 251.487 248.083C251.889 247.676 252.526 247.452 252.999 247.098C253.543 246.688 253.802 246.14 253.787 245.581C253.754 245.595 253.71 245.588 253.694 245.553C253.237 244.543 253.568 243.433 254.037 242.449C254.292 241.915 254.833 241.769 255.462 241.742C252.737 237.849 250.187 233.894 247.915 229.847C247.839 229.714 247.765 229.582 247.691 229.449C247.58 229.251 247.814 228.987 248.083 228.943C250.048 228.628 252.095 228.528 254.097 228.389Z" fill="#78E185"/>
<path fill-rule="evenodd" clip-rule="evenodd" d="M273.055 173.486C274.425 169.288 279.658 167.457 284.371 167.166C297.133 166.039 310.122 172.081 315.78 181.878C320.308 189.316 320.45 197.131 310.715 201.378C310.184 201.627 309.629 201.893 309.062 202.134C308.569 202.523 308.062 202.897 307.508 203.211C302.207 206.171 295.701 207.452 289.396 207.174C280.087 207.014 276.763 201.65 274.73 194.77C272.585 187.921 271.385 180.489 273.055 173.486V173.486Z" fill="#D08B5B"/>
<path fill-rule="evenodd" clip-rule="evenodd" d="M289.763 200.144C290.362 199.673 290.835 199.031 291.109 198.3C291.205 198.046 291.183 197.811 291.095 197.615C290.996 197.395 290.808 197.222 290.59 197.131C290.372 197.039 290.129 197.031 289.921 197.126C289.741 197.208 289.582 197.367 289.494 197.63L289.475 197.683C289.313 198.123 289.054 198.519 288.718 198.82C288.393 199.11 287.997 199.312 287.549 199.38C286.695 199.509 285.998 199.201 285.219 198.736C285.122 198.676 285.025 198.615 284.926 198.552C284.858 198.489 284.778 198.459 284.698 198.454C284.608 198.448 284.517 198.474 284.44 198.528C284.367 198.58 284.309 198.656 284.281 198.744C284.253 198.827 284.251 198.922 284.287 199.02C284.521 199.659 285.01 200.152 285.603 200.482C286.261 200.849 287.046 201.013 287.728 200.959C288.479 200.9 289.18 200.603 289.763 200.144V200.144ZM284.571 190.728C283.942 191.415 283.089 192.849 284.232 193.814C285.48 194.599 286.537 193.019 287.072 192.289C287.59 191.695 288.597 192.584 288.144 193.236C284.246 198.373 280.357 192.014 284.033 190.27C284.437 190.078 284.73 190.526 284.571 190.728ZM292.207 183.905C291.828 182.846 290.174 183.034 290.308 184.148C290.429 185.145 290.836 185.98 291.487 186.729C292.11 187.445 293.004 186.787 292.875 186.016C292.701 184.982 292.443 184.563 292.207 183.905ZM279.994 186.727C279.691 186.486 279.315 186.368 278.964 186.589C277.867 187.278 278.701 188.944 279.355 189.687C279.711 190.09 280.481 190.006 280.702 189.505C281.063 188.688 280.958 187.282 280.087 186.812C280.059 186.783 280.029 186.754 279.994 186.727ZM289.544 179.548L289.345 179.565C288.732 179.62 287.978 179.717 287.698 180.318C287.549 180.636 287.605 181.137 287.967 181.304C288.605 181.598 289.132 181.273 289.763 181.14C290.283 181.031 290.8 180.984 291.333 180.996C292.502 181.021 293.544 181.366 294.644 181.757C294.788 181.808 294.868 181.613 294.778 181.511C293.948 180.573 292.671 179.965 291.488 179.705C290.856 179.566 290.185 179.491 289.544 179.548ZM279.79 181.69L279.654 181.76C278.173 182.532 276.315 183.772 276.008 185.579C276.042 185.814 276.085 185.854 276.118 185.879L276.129 185.888C276.157 185.909 276.183 185.942 276.286 185.947C276.311 185.933 276.335 185.919 276.36 185.905C276.676 185.719 276.912 185.517 277.137 185.313L277.381 185.09C277.664 184.833 277.952 184.581 278.272 184.365C278.953 183.906 279.677 183.516 280.435 183.206C280.599 183.139 280.747 183.035 280.848 182.897C280.944 182.767 281.001 182.607 280.995 182.418C280.987 182.172 280.924 182.002 280.748 181.826C280.615 181.694 280.457 181.621 280.293 181.599C280.126 181.577 279.95 181.608 279.79 181.69Z" fill="black"/>
<path fill-rule="evenodd" clip-rule="evenodd" d="M267.992 215.565C268.365 214.426 268.85 213.316 269.299 212.196C269.377 211.646 269.419 211.093 269.407 210.539C269.37 208.558 268.826 206.588 268.233 204.689C267.027 200.831 265.764 197.017 265.018 193.062C263.686 185.987 263.844 178.546 267.307 171.832C270.307 166.017 275.66 161.103 282.806 158.982C284.918 158.354 287.105 157.953 289.317 157.719C289.59 157.667 289.862 157.616 290.133 157.566C293.196 157.003 296.308 156.636 299.435 156.637C304.621 156.638 309.812 157.62 314.255 159.882C318.727 162.158 322 165.514 323.667 169.734C325.402 174.124 325.539 178.973 328.343 183.025C329.171 184.222 330.123 185.351 331.035 186.501C333.398 188.508 335.967 190.742 336.661 193.641C337.518 197.223 335.233 200.414 333.067 203.364C331.109 206.027 328.455 209.703 330.784 212.725C331.883 214.15 333.574 215.169 334.873 216.453C336.219 217.786 337.298 219.341 337.904 221.033C339.042 224.211 338.341 227.626 335.905 230.291C334.636 231.678 332.962 232.641 331.136 233.419C329.266 234.215 327.439 234.974 325.926 236.238C325.235 236.815 324.607 237.44 324.017 238.092C323.478 238.895 322.841 239.654 322.113 240.356C321.313 241.128 319.613 240.223 320.338 239.325C320.391 239.259 320.444 239.194 320.497 239.128C321.027 238.473 321.56 237.817 322.12 237.181C323.76 234.704 324.282 231.752 323.25 229.02C322.983 228.31 322.624 227.642 322.189 227.017C322.115 227.21 322.032 227.401 321.944 227.59C321.6 228.323 321.11 229.196 320.467 229.955C320.468 230.451 320.407 230.946 320.263 231.436C319.374 234.469 315.94 236.13 312.833 237.445C312.529 237.575 312.228 237.7 311.932 237.823C311.12 238.162 310.19 237.208 310.673 236.576C310.8 236.41 310.922 236.24 311.038 236.069C312.418 234.033 312.998 231.657 312.471 229.351C311.914 226.911 310.094 224.966 308.29 223.103C306.518 221.271 304.621 219.407 303.747 217.102C302.781 214.556 303.391 211.931 304.535 209.477C305.583 207.231 307.027 205.135 308.215 202.942C307.789 203.344 307.349 203.735 306.894 204.113C306.382 204.539 305.859 205.022 305.242 205.336C304.786 205.568 304.29 205.099 304.642 204.745C305.105 204.279 305.709 203.905 306.228 203.484C306.726 203.079 307.208 202.66 307.678 202.232C308.256 201.704 308.803 201.154 309.328 200.59C309.72 199.605 310.032 198.599 310.275 197.582C310.606 196.205 310.902 194.743 310.796 193.341C310.688 191.902 309.752 190.941 308.526 190.038C308.007 189.656 307.484 189.278 306.961 188.9C305.858 188.293 304.812 187.606 303.794 186.918C301.981 185.693 300.221 184.39 298.534 183.041C298.082 182.679 297.633 182.313 297.189 181.942C295.642 180.736 294.161 179.469 292.758 178.152C291.416 177.816 290.119 177.345 288.896 176.774C289.438 177.191 289.984 177.602 290.529 178.016C291.741 178.941 292.999 179.867 294.386 180.598C294.528 180.674 294.454 180.856 294.283 180.837C292.559 180.64 290.935 180.245 289.401 179.558C287.842 178.858 286.448 177.868 285.142 176.87C284.421 176.638 283.721 176.327 283.08 176.018C283.046 176.002 283.012 175.984 282.978 175.968C283.681 177.585 284.682 179.404 286.632 179.888C286.696 179.904 286.696 179.992 286.622 179.993C285.002 180 283.67 179.454 282.596 178.61C281.744 178.151 280.928 177.66 280.146 177.12C279.388 176.596 278.666 176.03 277.977 175.44C278.976 176.929 280.082 178.377 281.173 179.809C281.23 179.885 281.125 179.998 281.026 179.948C278.827 178.838 277.123 177.344 275.698 175.545C275.487 175.28 275.286 175.01 275.088 174.738C275.25 175.172 275.423 175.603 275.608 176.03C275.941 176.804 276.27 177.581 276.604 178.354C276.784 178.771 276.998 179.177 277.23 179.575C277.397 179.859 277.609 180.14 277.657 180.459C277.66 180.481 277.634 180.496 277.612 180.493C276.751 180.358 275.915 179.578 275.281 179.101C274.928 178.835 274.595 178.54 274.286 178.227C274.335 180.125 274.401 182.021 274.554 183.918C274.835 187.403 275.291 190.877 275.82 194.336C276.288 197.395 276.685 200.609 278.851 203.172C280.527 205.155 283.14 206.448 285.931 206.991C286.177 207.04 286.425 207.082 286.673 207.118C290.703 207.704 294.625 206.577 298.062 204.776C299.094 204.235 300.071 205.497 299.079 206.093C295.364 208.323 290.553 209.276 286.175 208.606C286.548 212.941 284.252 217.197 281.946 221.017C280.655 223.155 279.363 225.28 278.493 227.569C277.755 229.512 277.291 231.513 277.209 233.548C277.11 235.948 277.465 238.336 277.987 240.682C278.015 240.809 278.044 240.938 278.073 241.065C278.189 241.568 277.674 242.024 277.077 241.795C274.439 240.786 273.195 238.396 272.396 236.168C271.648 234.08 271.102 231.939 270.744 229.773C270.438 230.614 270.2 231.472 270.027 232.342C270.003 232.467 269.98 232.591 269.958 232.716C269.83 233.443 268.548 233.462 268.307 232.806C268.263 232.687 268.221 232.569 268.181 232.449C266.929 228.883 266.439 225.119 266.794 221.384C266.981 219.419 267.366 217.47 267.992 215.565" fill="black"/>
<path fill-rule="evenodd" clip-rule="evenodd" d="M273.197 193.155C275.14 194.299 277.911 194.126 279.857 192.834C284.854 189.512 280.704 183.626 276.091 182.839C275.537 182.839 274.769 182.714 274.112 182.796C274.048 182.783 273.939 182.886 273.77 182.85C269.227 184.378 269.66 191.196 273.197 193.155M290.924 189.54C293.212 191.302 296.702 191.215 299.2 189.587C304.149 186.432 300.932 181.107 296.734 179.686C288.342 178.787 286.666 186.299 290.924 189.54M301.513 182.083C301.518 182.08 301.523 182.077 301.527 182.074C301.496 182.069 301.465 182.064 301.434 182.059C301.449 182.079 301.463 182.098 301.477 182.118C301.489 182.106 301.499 182.093 301.513 182.083M267.956 187.229C268.396 187.13 269.046 187.052 269.472 187.247C269.744 184.286 272.478 180.983 275.781 182.19C278.2 182.34 280.218 183.433 281.619 185.175C283.132 183.849 285.935 183.633 287.712 184.53C288.022 181.358 290.199 179.779 293.034 178.975C296.061 177.797 299.811 179.861 301.29 181.863C302.081 181.596 303.238 181.086 304.103 181.369C308.781 179.065 317.279 176.452 318.433 176.881C319.207 176.969 319.949 178.421 318.968 178.731C318.07 178.816 318.813 177.579 317.909 177.667C313.165 178.465 308.813 180.356 304.261 181.768C303.962 182.369 302.663 182.842 301.904 182.8C303.883 186.317 302.04 189.433 298.581 191.026C293.223 193.479 287.288 190.004 287.677 184.901C285.798 184.515 283.845 184.993 282.081 185.821C287.543 195.52 269.049 199.224 269.438 187.63C267.724 188.929 266.993 187.631 267.956 187.229" fill="black"/>
</g>
<defs>
<clipPath id="clip0">
<rect width="375" height="667" fill="white"/>
</clipPath>
</defs>
</svg>
