<svg width="320" height="320" viewBox="0 0 320 320" fill="none" xmlns="http://www.w3.org/2000/svg">
<g clip-path="url(#clip0)">
<rect width="320" height="320" fill="#EEFAFA"/>
<path fill-rule="evenodd" clip-rule="evenodd" d="M133.985 163.122C132.61 159.223 131.346 157.57 128.905 156.215C126.621 154.948 123.287 153.883 118.422 153.105C113.355 152.458 113.211 150.532 111.941 147.436C111.57 146.506 109.734 146.258 108.941 146.929C108.829 146.841 108.713 146.76 108.592 146.687C108.7 146.243 107.816 144.971 107.846 144.547C108.154 140.116 106.172 137.891 101.226 137.064C100.15 136.884 92.8434 136.778 91.7946 136.99C87.2093 137.917 82.6954 140.861 83.3861 144.406C81.9468 145.782 80.5381 146.622 78.3175 147.065C74.8594 147.386 76.5966 183.214 82.6025 204.679C85.1794 213.888 146.795 198.213 144.011 193.601C144.406 192.755 143.686 191.826 144.011 190.953C144.246 190.321 144.848 190.06 145.15 189.434C145.577 188.553 145.113 187.372 144.633 186.474C144.437 186.026 144.995 185.544 145.15 185.087C145.887 182.932 144.201 183.122 142.985 181.681C143.003 181.677 143.319 180.648 143.318 180.654C143.504 179.919 143.038 178.979 142.631 178.366C142.356 177.951 141.767 177.692 141.182 177.74C141.772 176.277 142.517 175.06 143.318 173.65C144.735 171.166 146.083 168.568 148.118 166.319C148.951 165.398 148.278 164.551 146.929 164.489C142.565 164.286 138.247 163.826 133.985 163.122Z" fill="#EDB98A"/>
<path fill-rule="evenodd" clip-rule="evenodd" d="M127.171 163.423L117.208 175.755C117.208 175.755 119.571 175.928 120.528 176.264C121.484 176.6 125.876 180.684 125.876 180.684L126.574 182.932L124.921 184.745L125.566 185.883C125.566 185.883 126.026 185.112 127.171 184.514C128.317 183.915 130.843 182.932 130.843 182.932C130.843 182.932 130.003 182.604 130.003 182.218C130.003 181.832 129.264 180.187 130.843 179.566C132.422 178.944 140.581 177.49 140.581 177.49L148.85 164.733L127.171 163.423Z" fill="#EC7495"/>
<path fill-rule="evenodd" clip-rule="evenodd" d="M82.7243 147.149L114.362 151.209L128.905 156.215L131.279 157.553L117.208 175.755L95.4809 178.655L89.9456 189.17L91.0755 201.023L126.42 197.941L141.667 196.616L145.251 207.198L144.603 211.551L143.662 213.758L105.865 221.221C105.865 221.221 86.6188 219.857 83.207 219.857C79.7953 219.857 54.7809 221.674 54.7809 221.674L48.9933 221.221C48.9933 221.221 36.1881 211.351 34.2021 207.838C32.216 204.325 27.9213 182.971 27.9213 182.971L28.3942 179.69L39.4575 158.867C39.4575 158.867 40.9349 157.886 42.7974 156.215C44.66 154.545 82.7243 147.149 82.7243 147.149Z" fill="#9DDADB"/>
<path fill-rule="evenodd" clip-rule="evenodd" d="M139.984 177.227C137.125 177.333 134.263 177.831 131.677 178.731C130.619 179.1 129.66 179.633 129.379 180.51C129.237 180.958 129.272 181.42 129.347 181.872C129.404 182.215 129.418 182.652 129.825 182.884C129.895 182.923 129.969 182.953 130.046 182.975C129.092 183.29 128.183 183.668 127.376 184.058C126.638 184.415 125.88 184.964 125.539 185.583C125.511 185.513 125.482 185.447 125.454 185.385C124.873 184.13 123.979 183.102 122.571 182.411C122.411 181.985 120.695 180.15 119.101 180.219C117.355 180.294 115.951 180.388 114.372 180.975C113.796 180.966 113.222 180.971 112.655 180.99C112.557 180.992 112.562 181.089 112.655 181.097C113.115 181.14 113.576 181.187 114.036 181.242C115.131 181.371 116.222 181.533 117.289 181.735C118.57 181.977 119.895 182.221 121.092 182.644C123.413 183.467 124.85 185.617 124.555 187.488C124.506 187.794 124.344 188.722 123.762 188.626C123.27 188.545 123.074 187.794 122.902 187.516C122.442 186.778 121.612 186.296 120.617 185.97C119.449 185.585 118.198 185.326 116.987 185.024C116.301 184.852 115.615 184.68 114.927 184.509C114.224 184.333 113.555 184.089 112.806 184.213C112.354 184.288 112.301 184.682 112.555 184.908C112.942 185.253 113.516 185.355 114.072 185.497C114.807 185.683 115.541 185.87 116.274 186.057C117.408 186.346 118.595 186.589 119.701 186.942L119.666 187C119.576 186.981 119.47 187.047 119.488 187.128C119.654 187.874 119.884 188.737 119.628 189.484C119.426 190.077 118.715 190.734 117.791 190.559C117.936 190.462 117.99 190.295 117.892 190.141C117.526 189.568 112.732 187.31 112.305 188.149C112.29 188.178 112.334 188.2 112.369 188.196C112.734 188.14 113.344 188.595 113.635 188.739C114.057 188.947 114.484 189.15 114.9 189.363C115.356 189.596 115.801 189.841 116.235 190.093C116.575 190.292 116.832 190.498 117.223 190.599C117.018 190.67 116.856 190.803 116.787 190.972C116.61 191.414 116.269 191.789 115.678 191.984C115.058 192.187 114.359 192.059 113.707 192.109C112.817 192.174 112.041 192.483 111.393 192.925C110.032 193.855 109.349 195.493 107.446 195.932C106.309 196.194 105.047 196.029 103.896 195.91C102.611 195.778 101.359 195.673 100.064 195.811C98.8243 195.944 97.6526 196.258 96.5203 196.641C95.4589 196.999 94.2856 197.405 93.3442 197.941C93.1502 197.503 92.9546 197.071 92.8062 196.624C92.4563 195.569 92.2671 194.494 92.2212 193.41C92.1787 192.377 92.2576 191.34 92.3789 190.312C92.4389 189.799 92.5336 189.288 92.5935 188.775C92.6091 188.646 92.6408 188.507 92.6645 188.369C94.3456 187.643 96.1117 187.087 97.8921 186.515C97.897 186.514 97.9017 186.512 97.9065 186.511C97.9617 186.492 98.0153 186.475 98.0705 186.458C98.0689 186.455 98.0673 186.453 98.0642 186.451C98.2676 186.36 98.4095 186.238 98.4947 186.102C101.06 184.858 103.205 183.159 104.804 181.177C105.475 180.346 106.12 179.485 106.996 178.757C107.93 177.98 109.039 177.519 110.411 177.279C112.014 176.998 113.667 176.829 115.31 176.733C116.208 176.682 117.211 176.601 118.188 176.604C118.87 176.608 119.537 176.65 120.149 176.774C121.055 176.956 121.585 177.46 122.155 177.97C122.699 178.459 123.24 178.949 123.747 179.459C124.228 179.942 124.683 180.442 125.077 180.966C125.313 181.279 125.533 181.602 125.717 181.936C125.782 182.053 125.867 182.187 125.906 182.309C125.946 182.433 125.873 182.563 126.063 182.563C125.282 182.571 124.763 183.995 125.539 183.962C126.63 183.915 127.178 182.959 126.965 182.11C126.583 180.596 124.524 178.767 124.116 178.379C123.216 177.524 122.287 176.407 120.846 176.009C120.825 176.003 120.803 175.998 120.783 175.993C121.202 175.702 121.533 175.354 121.85 175C122.177 174.635 122.566 174.218 122.674 173.785C122.741 173.509 122.273 173.352 122.051 173.594C121.727 173.945 121.571 174.391 121.33 174.777C121.084 175.169 120.784 175.54 120.548 175.935C119.978 175.807 119.363 175.748 118.737 175.729C119.527 174.947 120.877 173.438 121.04 173.244C121.787 172.347 122.498 171.422 123.178 170.495C123.913 169.492 124.542 168.447 125.246 167.432C125.645 166.856 126.047 166.276 126.49 165.717C126.643 165.526 126.807 165.334 126.993 165.16C127.029 165.126 127.075 165.097 127.118 165.065C127.166 165.045 127.217 165.023 127.245 165.012C127.501 164.904 127.591 164.655 127.77 164.497C128.057 164.242 128.395 164.212 128.827 164.209C129.748 164.202 130.672 164.228 131.592 164.247C132.943 164.274 134.293 164.314 135.643 164.366C136.051 164.382 136.458 164.398 136.867 164.416C138.83 164.502 140.792 164.614 142.749 164.751C144.481 164.872 146.212 165.069 147.945 165.164C145.599 169.242 142.997 173.245 140.051 177.11C140.021 177.149 139.998 177.188 139.984 177.227ZM126.965 187.732C126.586 187.859 126.219 188.017 125.876 188.197C125.933 187.917 125.947 187.621 125.932 187.325C126.214 187.546 126.575 187.673 126.965 187.732ZM143.121 180.718C143.094 180.72 143.069 180.73 143.056 180.75C142.533 181.54 142.752 182.423 143.607 183.042C144.055 183.365 145.031 183.729 144.999 184.26C144.972 184.689 144.334 185.049 144.061 185.403C143.807 185.733 143.712 186.095 143.916 186.453C144.176 186.911 144.903 187.093 145.152 187.543C145.468 188.114 144.955 188.803 144.596 189.3C144.261 189.76 143.829 190.22 143.542 190.707C141.62 191.435 137.258 192.757 136.732 192.831C136.092 192.922 135.451 193.008 134.807 193.089C133.572 193.246 132.334 193.391 131.093 193.519C130.387 193.592 129.679 193.663 128.971 193.72C128.352 193.768 127.655 193.834 127.157 193.494C126.152 192.806 126.715 191.654 127.351 190.96C127.364 190.946 127.364 190.933 127.359 190.922C127.958 190.819 128.556 190.699 129.152 190.615C130.298 190.453 131.453 190.317 132.609 190.196C134.984 189.948 137.374 189.784 139.762 189.619C140.353 189.578 140.36 188.897 139.762 188.938C136.332 189.167 132.885 189.385 129.5 189.869C128.652 189.988 127.81 190.124 126.972 190.278C126.577 190.35 126.152 190.461 125.738 190.465C125.712 190.465 125.687 190.465 125.662 190.464C124.85 190.445 124.732 189.937 125.178 189.513C125.233 189.461 125.29 189.409 125.348 189.36C126.137 188.672 127.119 188.213 128.131 187.738C129.265 187.625 130.396 187.373 131.506 187.189C134.247 186.732 136.988 186.275 139.731 185.82C140.268 185.73 140.04 185.125 139.502 185.214C137.42 185.559 135.339 185.904 133.257 186.249L130.21 186.754C129.601 186.854 128.841 187.056 128.125 187.129C127.772 187.165 127.43 187.169 127.121 187.116C126.122 186.943 126.072 186.031 126.503 185.489C126.985 184.88 127.897 184.499 128.706 184.154C130.108 183.555 131.599 183.125 133.057 182.629C133.315 182.587 133.574 182.546 133.832 182.504C135.337 182.262 137.056 182.143 138.472 181.699C138.896 181.568 138.664 181.079 138.245 181.086C137.146 181.103 135.996 181.389 134.922 181.559C133.76 181.743 132.596 181.927 131.434 182.11C131.317 182.128 130.626 182.29 130.522 182.254C130.456 182.231 130.432 182.063 130.41 181.952C130.339 181.587 130.287 181.205 130.365 180.839C130.535 180.019 131.47 179.633 132.416 179.318C134.523 178.618 136.834 178.18 139.133 178.005C139.663 177.964 140.193 177.939 140.726 177.926C141.352 177.912 141.867 177.832 142.184 178.283C142.683 178.993 142.957 179.907 143.121 180.718ZM140.195 206.481C139.736 205.319 139.861 204.079 139.546 202.895C139.384 202.284 139.163 201.677 138.921 201.081C138.725 200.599 138.4 200.086 138.363 199.583C138.361 199.55 138.415 199.53 138.452 199.546C139.1 199.817 139.597 200.404 139.966 200.864C140.409 201.415 140.746 201.991 141.019 202.598C141.561 203.806 142.007 205.263 141.307 206.481C141.099 206.843 140.367 206.916 140.195 206.481ZM122.279 215.272C121.595 214.923 121.096 214.435 120.516 214.004C119.946 213.58 120.838 212.928 121.408 213.352C121.903 213.719 122.333 214.178 122.916 214.475C123.196 214.618 123.326 214.877 123.142 215.107C122.98 215.31 122.559 215.415 122.279 215.272ZM118.464 201.851C119.713 201.457 120.941 201.026 122.248 200.742C123.029 200.572 123.36 201.463 122.583 201.632C121.38 201.894 120.251 202.285 119.101 202.648C118.362 202.882 117.721 202.086 118.464 201.851ZM105.275 201.575C104.97 201.024 106.191 200.786 106.492 201.33C106.838 201.955 107.235 202.565 107.582 203.19C107.887 203.741 106.666 203.979 106.365 203.435C106.019 202.81 105.622 202.201 105.275 201.575ZM92.2577 212.582C92.0543 212.78 91.7151 212.888 91.3946 212.747C91.1262 212.63 90.9624 212.317 91.1683 212.116C91.7697 211.53 92.3789 210.951 93.0836 210.428C93.655 210.004 94.5466 210.657 93.9757 211.081C93.3464 211.547 92.7949 212.058 92.2577 212.582ZM90.3964 150.824C90.9755 151.113 91.4828 151.465 91.9775 151.827C92.5526 152.247 91.6604 152.899 91.0852 152.479C90.6684 152.174 90.248 151.865 89.7596 151.621C89.4775 151.48 89.3508 151.218 89.5333 150.99C89.6968 150.785 90.1149 150.684 90.3964 150.824ZM109.335 165.674C109.008 166.153 108.713 166.624 108.694 167.169C108.674 167.762 107.413 167.763 107.433 167.169C107.457 166.455 107.816 165.837 108.246 165.208C108.609 164.676 109.696 165.144 109.335 165.674ZM116.284 153.748C116.962 153.417 117.593 154.217 116.921 154.544C116.376 154.81 115.83 155.076 115.285 155.342C114.607 155.672 113.976 154.873 114.649 154.545C115.194 154.279 115.739 154.013 116.284 153.748ZM86.1444 174.6C86.0287 175.186 84.8131 174.935 84.9278 174.355C85.1052 173.457 85.3217 172.571 85.6546 171.697C85.8726 171.125 87.0892 171.369 86.8711 171.942C86.5382 172.816 86.3217 173.702 86.1444 174.6ZM81.7211 185.171C80.9091 185.158 80.9089 184.235 81.7211 184.248C82.456 184.259 83.1784 184.401 83.8873 184.53C84.6758 184.674 84.3395 185.564 83.5518 185.42C82.9526 185.31 82.3424 185.18 81.7211 185.171ZM80.0882 206.464C79.8092 206.564 79.523 206.653 79.241 206.747C78.6763 206.936 78.1119 207.125 77.5476 207.315C76.3721 207.709 75.1973 208.105 74.0235 208.503C71.6737 209.298 69.3058 210.066 66.9504 210.853C64.5485 211.655 62.1528 212.469 59.7602 213.286C58.6329 213.671 57.4971 214.042 56.3636 214.417C55.3943 214.737 54.1963 215.297 53.1323 215.35C53.0775 215.353 53.0593 215.302 53.0905 215.276C53.4925 214.942 54.1337 214.747 54.662 214.53C55.2016 214.308 55.7514 214.099 56.2986 213.887C57.4394 213.445 58.5816 213.006 59.7335 212.58C62.0375 211.727 64.346 210.88 66.6549 210.035C69.0097 209.172 71.3615 208.304 73.7369 207.472C74.8554 207.081 75.9749 206.69 77.095 206.301C77.7019 206.09 78.309 205.879 78.9162 205.669C79.1784 205.578 79.438 205.48 79.7061 205.399C80.0624 205.291 80.3331 205.313 80.7006 205.247C81.2998 205.139 81.5593 205.696 81.0992 205.939C80.7204 206.139 80.5211 206.31 80.0882 206.464ZM71.6658 215.927C71.5364 215.696 71.8075 215.417 72.1065 215.359C72.4646 215.29 72.7518 215.449 72.8825 215.681C73.2284 216.297 73.721 216.861 74.3551 217.338C74.9219 217.764 74.0303 218.417 73.463 217.991C72.6684 217.393 72.0975 216.694 71.6658 215.927ZM65.4696 201.114C64.8944 200.694 65.7867 200.041 66.3617 200.462L67.9968 201.658C68.5719 202.078 67.6795 202.731 67.1046 202.31L65.4696 201.114ZM48.6949 199.164C47.5193 199.417 46.1483 199.648 45.3469 200.382C45.3077 200.418 45.242 200.372 45.2655 200.336C46.2915 198.78 49.2339 198.235 51.2711 197.69C52.712 197.304 54.1904 196.984 55.6814 196.699C55.5323 195.454 55.9433 194.121 56.0862 192.883C56.2387 191.562 56.3628 190.236 56.4265 188.911C56.4916 187.558 56.5074 186.196 56.4465 184.844C56.386 183.496 56.1467 182.164 56.042 180.821C56.0319 180.691 56.2792 180.685 56.3325 180.792C56.9516 182.039 57.2161 183.42 57.4177 184.734C57.6252 186.088 57.6941 187.438 57.6676 188.8C57.6402 190.201 57.5288 191.598 57.376 192.994C57.3036 193.655 57.2196 194.316 57.1403 194.977C57.0797 195.482 57.0516 195.982 56.911 196.471C57.8102 196.309 58.7114 196.157 59.6099 196.008C62.4747 195.535 65.3515 195.097 68.2043 194.585C69.6047 194.334 70.985 194.034 72.3791 193.767C73.6918 193.515 75.0774 193.211 76.4251 193.099C76.9061 193.058 76.9673 193.54 76.6489 193.703C75.5535 194.266 74.0987 194.657 72.8335 194.972C71.5637 195.288 70.2437 195.515 68.9422 195.75C66.228 196.238 63.4881 196.637 60.7523 197.053C58.0202 197.468 55.283 197.881 52.5817 198.393C51.2809 198.64 49.9844 198.888 48.6949 199.164ZM42.2532 174.477C41.5508 174.778 40.9167 173.981 41.6166 173.68C42.5323 173.287 43.5084 172.991 44.4923 172.703C45.2473 172.482 45.5722 173.375 44.8277 173.593C43.9435 173.852 43.0761 174.124 42.2532 174.477ZM39.7098 208.761C39.0055 209.059 38.3709 208.262 39.0732 207.964C40.0594 207.546 41.1395 207.267 42.1616 206.901C42.8887 206.64 43.5274 207.437 42.7982 207.698C41.7763 208.064 40.6961 208.343 39.7098 208.761ZM38.5658 189.3C39.2468 189.773 40.1556 189.996 41.0126 190.244C41.7598 190.461 41.4321 191.353 40.6771 191.134C39.6095 190.824 38.522 190.541 37.6737 189.952C37.0836 189.542 37.9773 188.891 38.5658 189.3ZM46.0994 162.87C46.848 163.085 46.5201 163.977 45.764 163.76C44.9253 163.519 44.0592 163.336 43.2206 163.095C42.4721 162.881 42.7998 161.989 43.556 162.206C44.3946 162.446 45.2607 162.629 46.0994 162.87ZM59.3894 152.372C60.1848 152.274 60.5236 153.163 59.7248 153.262C58.7338 153.384 57.758 153.528 56.8181 153.794C56.059 154.008 55.7334 153.116 56.4826 152.904C57.4227 152.638 58.3986 152.494 59.3894 152.372ZM63.7806 177.932C63.0512 177.669 63.6912 176.874 64.4172 177.135C65.1824 177.41 65.9752 177.623 66.81 177.753C67.605 177.877 67.2664 178.766 66.4746 178.643C65.535 178.496 64.641 178.241 63.7806 177.932ZM67.928 163.534C68.7134 163.377 69.0455 164.267 68.2634 164.424C66.8875 164.7 65.4709 164.843 64.0848 165.089C63.2949 165.228 62.9607 164.338 63.7494 164.199C65.1354 163.953 66.5522 163.81 67.928 163.534ZM85.5222 159.016C86.3208 159.124 85.9804 160.014 85.1869 159.906C84.3421 159.792 83.4859 159.79 82.6294 159.79C81.8163 159.789 81.8177 158.867 82.6294 158.867C83.6024 158.867 84.563 158.886 85.5222 159.016ZM142.903 163.837C140.842 163.693 138.778 163.578 136.711 163.491C136.614 163.488 136.52 163.483 136.423 163.48C136.412 163.464 136.398 163.449 136.384 163.432C135.709 162.708 135.212 161.984 134.782 161.165C134.37 160.385 133.971 159.581 133.337 158.877C132.614 158.076 131.638 157.448 130.568 156.905C129.919 157.224 129.317 157.598 128.766 157.994C128.186 158.41 127.294 157.758 127.874 157.341C128.364 156.989 128.886 156.664 129.439 156.37C128.801 156.087 128.15 155.82 127.515 155.555C125.135 154.562 122.699 153.644 120.212 152.804C119.056 152.413 117.886 152.066 116.708 151.714C116.074 151.525 115.448 151.281 114.814 151.062C114.859 150.735 114.725 150.368 114.382 150.152C114.128 149.994 113.931 149.935 113.628 149.823C113.56 149.806 113.519 149.796 113.5 149.79C113.514 149.792 113.555 149.801 113.623 149.818C113.784 149.872 113.796 149.856 113.661 149.77C113.653 149.583 113.15 149.189 113.035 148.996C112.634 148.335 112.51 147.636 111.918 147.034C111.103 146.205 109.734 145.891 108.458 146.172C108.326 145.175 108.291 144.133 107.777 143.243C107.763 143.218 107.717 143.208 107.697 143.234C107.16 143.902 107.115 144.646 107.074 145.417C107.034 146.14 107.072 146.88 107.201 147.598C107.119 147.644 107.036 147.688 106.949 147.731C106.542 147.927 106.104 148.078 105.643 148.19C104.766 148.402 103.847 148.494 102.928 148.527C100.554 148.61 98.1083 148.434 95.7743 148.137C93.4135 147.836 89.7943 147.384 87.6937 146.52C86.3073 145.95 85.0285 145.254 83.7321 144.581C84.2022 143.473 84.322 142.283 83.8489 141.347C83.7922 141.235 83.5525 141.215 83.5067 141.347C83.2102 142.24 83.1235 143.138 82.7293 144.02C82.7229 144.033 82.7166 144.047 82.7103 144.059C82.5873 143.998 82.4643 143.938 82.3413 143.878C82.0574 143.741 81.6711 143.844 81.5008 144.04C78.7771 147.178 74.4641 147.358 69.9349 147.919C64.9782 148.533 59.9965 149.195 55.2308 150.395C50.6732 151.544 46.3175 153.217 42.867 155.716C42.0859 156.281 41.3554 156.884 40.6659 157.513C41.333 157.575 41.9946 157.67 42.6476 157.82C43.4208 157.998 43.0886 158.889 42.3122 158.71C41.4729 158.517 40.6243 158.422 39.767 158.374C37.4225 160.72 35.5944 163.381 34.0136 165.999C30.9815 171.019 29.0078 176.365 28.0996 181.808C28.5983 181.59 29.1059 181.382 29.6262 181.188C30.3491 180.919 30.9867 181.715 30.263 181.985C29.4593 182.284 28.6787 182.613 27.9224 182.971C27.592 185.353 27.4639 187.751 27.5415 190.145C27.726 195.853 28.7795 201.728 31.1624 207.173C32.3309 209.846 33.8796 212.497 36.1867 214.755C37.2307 215.778 38.4166 216.701 39.8139 217.471C40.4904 217.844 41.2064 218.178 41.9618 218.459C42.9348 218.824 44.2027 218.944 45.0417 219.459C45.3177 219.629 45.5306 219.853 45.6914 220.105C45.5984 220.585 45.5873 221.066 45.7671 221.546C45.8239 221.696 45.9784 221.818 46.1693 221.877C46.1724 221.919 46.1724 221.959 46.1724 221.998C46.1724 222.017 46.2103 222.021 46.215 222.003C46.2229 221.967 46.2308 221.931 46.2387 221.894C46.3002 221.909 46.3648 221.916 46.431 221.916C48.8265 221.923 51.225 221.88 53.6237 221.821C53.4382 221.405 53.2373 220.993 53.0444 220.577C52.7825 220.013 54.0014 219.773 54.2609 220.332C54.4866 220.818 54.7225 221.3 54.9324 221.787C57.5025 221.717 60.0718 221.633 62.6365 221.571C68.0914 221.439 73.5447 221.395 79.001 221.311C87.4745 221.179 96.0096 220.91 104.496 221.173C104.79 220.718 105.118 220.273 105.43 219.823C105.797 219.293 106.885 219.76 106.519 220.289C106.303 220.601 106.078 220.91 105.865 221.221C107.584 221.287 109.301 221.373 111.014 221.491C113.938 221.691 116.834 222.048 119.754 222.269C122.724 222.495 125.629 222.455 128.575 222.096C129.105 222.032 129.417 221.797 129.546 221.507C129.551 221.506 129.554 221.503 129.557 221.5C129.708 221.371 129.851 221.263 129.997 221.17C130.172 221.087 130.361 221.016 130.584 220.954C130.999 220.839 131.431 220.768 131.869 220.721C132.352 220.668 132.841 220.663 133.323 220.62C133.73 220.582 134.127 220.525 134.525 220.456C135.239 220.331 135.917 220.169 136.592 219.953C137.18 219.765 137.712 219.495 138.213 219.201C139.251 218.646 140.15 217.938 140.935 217.202C141.393 216.772 141.823 216.325 142.214 215.86C142.896 215.055 143.476 214.219 144.063 213.376C144.275 213.126 144.47 212.87 144.647 212.609C143.501 212.362 142.343 212.16 141.128 212.146C140.315 212.136 140.316 211.214 141.128 211.223C142.522 211.239 143.84 211.478 145.15 211.761C145.214 211.637 145.275 211.512 145.332 211.386C145.488 211.122 145.618 210.851 145.725 210.576C145.788 210.452 145.851 210.327 145.914 210.202C146.056 209.771 146.198 209.338 146.341 208.906C146.627 208.214 146.852 207.511 147.018 206.8C147.157 206.331 147.264 205.859 147.336 205.382C147.557 204.225 147.737 203.07 147.75 201.901C147.731 201.18 147.668 200.46 147.56 199.744C147.515 199.257 147.437 198.772 147.333 198.291C147.198 197.576 147.064 196.868 146.838 196.162C146.669 195.684 146.501 195.207 146.332 194.729C145.911 193.734 145.414 192.758 144.841 191.804C144.81 191.744 144.651 191.612 144.555 191.611C144.482 191.61 144.381 191.659 144.414 191.723C144.417 191.729 144.42 191.736 144.424 191.742C144.391 191.687 144.359 191.632 144.326 191.578C144.298 191.527 144.187 191.426 144.102 191.427C144.097 191.427 144.092 191.427 144.086 191.428C144.108 191.416 144.129 191.401 144.149 191.384C144.715 190.894 145.083 190.249 145.488 189.682C145.824 189.213 146.141 188.719 146.233 188.19C146.313 187.725 146.204 187.267 145.805 186.891C145.351 186.463 144.496 186.263 144.971 185.644C145.51 184.941 146.304 184.33 145.513 183.531C145.111 183.124 144.474 182.9 144.001 182.546C143.457 182.136 143.198 181.589 143.213 181.029C143.246 181.043 143.29 181.036 143.306 181.001C143.763 179.991 143.432 178.881 142.963 177.897C142.708 177.363 142.167 177.217 141.538 177.19C144.263 173.297 146.813 169.342 149.085 165.295C149.161 165.163 149.235 165.03 149.309 164.897C149.42 164.699 149.186 164.435 148.917 164.391C146.952 164.076 144.905 163.976 142.903 163.837Z" fill="black"/>
<path fill-rule="evenodd" clip-rule="evenodd" d="M101.194 98.933C109.506 98.933 119.916 105.469 122.963 108.25C125.525 110.588 125.163 122.635 125.163 129.781C125.163 131.275 124.183 134.104 123.827 135.533C122.523 140.772 116.843 145.165 105.6 145.165C96.4461 145.165 89.4014 143.166 82.5891 138.055C81.035 136.888 73.4449 141.063 71.8926 139.56C67.8381 139.56 64.4479 113.448 72.4083 105.615C80.3688 97.7832 92.8816 98.933 101.194 98.933Z" fill="#EDB98A"/>
<path fill-rule="evenodd" clip-rule="evenodd" d="M76.2107 100.772C81.0138 97.7603 87.4125 96.3113 93.8683 96.4182C97.2118 96.4737 100.544 96.9127 103.701 97.6644C105.281 98.0418 106.811 98.5342 108.273 99.0912C108.8 99.2915 109.286 99.5262 109.754 99.7754L109.87 99.8379H109.872C111.126 100.149 112.246 100.707 113.262 101.36C115.298 101.248 117.351 101.374 119.32 101.807C122.06 102.41 124.597 103.515 126.378 105.084C128.454 106.911 129.144 109.127 128.897 111.414L128.852 111.803C128.609 113.823 128.173 116.422 125.767 117.75C125.584 117.851 125.382 117.927 125.172 117.974C126.723 119.804 127.995 121.837 128.756 123.889C131.662 131.728 129.428 139.904 125.933 147.46C125.647 148.082 124.281 148.496 123.585 147.887C122.344 146.8 120.54 145.97 118.512 145.815C117.26 145.719 116.014 145.893 114.831 145.501C114.367 145.347 113.919 145.094 113.597 144.788C111.6 145.309 109.45 145.556 107.317 145.495C103.817 145.396 100.075 144.561 97.6671 142.728C97.2806 142.434 97.1827 142.104 97.2717 141.806C97.5737 141.732 97.8837 141.677 98.2031 141.642C101.257 142.882 104.623 143.711 108.241 143.763C110.331 143.794 112.37 143.592 114.065 142.692C114.431 142.498 114.769 142.282 115.08 142.05C118.624 140.479 121.123 137.81 122.31 134.951C123.417 132.285 123.281 129.509 122.9 126.775L122.699 125.332C122.407 123.214 122.135 121.09 122.059 118.963L122.082 118.962V118.962C122.83 118.929 122.836 118.121 122.082 118.155C120.132 118.242 118.197 118.021 116.254 118.117C116.237 117.484 116.171 116.853 115.901 116.242C115.747 115.893 114.865 115.825 114.772 116.242C114.647 116.801 114.601 117.357 114.588 117.919C111.679 117.892 108.772 117.723 105.863 117.793C105.326 117.398 105.156 116.699 104.905 116.212C104.868 116.14 104.831 116.07 104.793 115.998C104.573 116.694 104.26 117.374 103.849 118.04L103.135 118.041C99.0868 118.054 94.956 118.138 91.0028 118.717C90.728 118.572 90.5645 118.318 90.5203 118.088C90.2336 116.589 89.8243 115.13 89.099 113.701L88.9952 113.5C88.9868 113.483 88.9778 113.465 88.9684 113.446C88.434 114.041 87.7963 114.595 87.1008 115.111C86.6909 115.416 86.2611 115.707 85.82 115.989C85.3915 116.317 84.9487 116.64 84.5195 116.969C84.5363 117.029 84.551 117.09 84.5628 117.152C84.6941 117.834 84.7078 118.526 84.6116 119.212C84.4377 120.451 83.9303 121.644 83.1152 122.749L83.0894 122.859C82.9656 123.377 82.7895 123.912 82.3783 124.301C82.8915 124.698 83.2869 125.171 83.5161 125.697C83.7202 126.165 82.7802 126.571 82.2928 126.188C81.9056 125.884 81.4753 125.632 81.0028 125.431C80.9729 125.459 80.919 125.472 80.8586 125.449C79.5425 124.945 77.3072 125.098 75.9926 125.572C74.3574 126.161 73.7192 127.371 73.9007 128.597C74.0749 129.769 74.8185 131.138 76.2605 131.738C76.9222 132.014 77.4375 132.037 78.1401 131.905C78.3648 131.863 78.6433 131.734 78.7629 131.67L78.8806 131.605C79.3412 131.354 79.7702 131.182 80.314 131.175C80.8702 131.056 81.4291 131.222 81.6418 131.624L81.6549 131.65C81.7545 131.854 81.936 132.112 81.8965 132.425C81.8555 132.76 81.633 133.064 81.3007 133.31C81.2436 133.352 81.1821 133.394 81.1192 133.434C86.843 137.705 87.5779 144.361 84.6428 149.697C84.5154 149.931 84.3793 150.162 84.2373 150.391C83.7469 151.176 81.8584 150.933 81.6184 150.155C81.5466 149.922 81.4676 149.69 81.3812 149.46C81.2224 149.034 81.0406 148.613 80.8355 148.198L80.7576 148.043C80.5834 147.7 80.4209 147.354 80.2452 147.011L80.2276 146.971C80.2211 146.956 80.2137 146.938 80.2057 146.918L79.9085 147.365V147.365L79.0053 148.714C78.5826 149.343 77.2397 149.001 77.1898 148.395L77.1886 148.374C77.1842 148.262 77.1783 148.151 77.1681 148.041C77.1037 147.216 76.8973 146.415 76.5694 145.631L76.4511 145.733C74.6894 147.234 72.6219 148.641 69.7857 148.987C69.0742 149.074 68.2691 148.562 68.758 148.066C68.96 147.861 69.1547 147.651 69.3392 147.438C69.1796 147.387 69.0288 147.334 68.8898 147.279C67.8138 146.862 66.9179 146.269 66.1772 145.596C64.6064 144.169 64.0443 142.373 63.9067 140.615C63.7603 138.757 63.9974 136.799 64.7338 135.007C65.0529 134.232 65.4847 133.488 65.9839 132.767C65.9488 132.702 65.9151 132.638 65.8814 132.573C65.3427 131.538 64.9006 130.479 64.5332 129.409C63.7925 127.247 63.3943 125.017 63.346 122.796C63.2581 118.817 64.2536 114.775 66.3514 111.065C68.5179 107.238 71.7766 103.552 76.2107 100.772ZM73.5125 135.559C73.1146 135.127 72.1192 135.516 72.4886 135.951L72.5024 135.966C73.1333 136.652 73.429 137.431 73.7921 138.194C74.0248 138.686 75.1564 138.476 74.9207 137.979L74.8427 137.814C74.4815 137.039 74.1519 136.252 73.5125 135.559ZM76.9781 127.317L77.2424 127.229C78.0761 126.954 78.8067 126.768 79.7917 127.007C81.1107 127.327 82.5234 128.345 81.6318 129.333C81.3039 129.697 80.7213 129.842 80.1211 129.757C79.1093 129.612 78.8481 128.984 78.3347 128.468L78.2463 128.381C77.9333 128.069 77.5374 127.638 77.0162 127.516C76.8976 127.487 76.8478 127.36 76.9781 127.317ZM77.721 106.342L77.8061 106.29C78.3727 105.945 77.5412 105.376 76.9776 105.719C74.3982 107.29 73.5023 109.749 72.1643 111.845C71.8642 112.316 72.8728 112.728 73.1758 112.252C74.4522 110.253 75.2993 107.86 77.721 106.342V106.342ZM108.718 105.655C108.044 105.446 107.454 106.122 108.102 106.345L108.126 106.352C110.404 107.062 111.373 108.668 112.301 110.16C112.597 110.636 113.606 110.225 113.313 109.753L113.145 109.485C112.177 107.948 111.047 106.382 108.718 105.655ZM112.288 104.685C111.574 104.514 111.268 105.293 111.976 105.464C113.907 105.927 115.232 106.926 116.349 108.068C116.768 108.496 117.782 108.092 117.359 107.66C116.062 106.334 114.522 105.221 112.288 104.685Z" fill="#A55728"/>
<path fill-rule="evenodd" clip-rule="evenodd" d="M106.408 136.389C105.524 136.127 104.735 135.689 104.159 135.13C103.958 134.936 103.906 134.731 103.948 134.543C103.996 134.332 104.167 134.141 104.401 134.012C104.636 133.884 104.93 133.82 105.214 133.852C105.461 133.881 105.706 133.979 105.901 134.183L105.941 134.223C106.284 134.561 106.731 134.838 107.24 135.016C107.731 135.188 108.279 135.268 108.847 135.222C109.929 135.133 110.674 134.707 111.466 134.13C111.565 134.057 111.663 133.981 111.762 133.905C111.824 133.836 111.91 133.791 112.007 133.768C112.113 133.742 112.234 133.743 112.344 133.771C112.451 133.798 112.546 133.85 112.61 133.918C112.671 133.983 112.705 134.063 112.694 134.155C112.622 134.754 112.191 135.288 111.58 135.708C110.901 136.174 110.001 136.496 109.154 136.609C108.221 136.734 107.269 136.645 106.408 136.389V136.389ZM109.594 127.152C110.587 127.591 112.101 128.615 111.032 129.703C109.775 130.663 107.964 129.563 107.072 129.065C106.245 128.679 105.315 129.671 106.083 130.122C112.53 133.594 115.146 127.266 110.097 126.635C109.541 126.566 109.334 127.016 109.594 127.152ZM98.0412 123.113C98.151 122.122 100.225 121.897 100.432 122.877C100.616 123.755 100.399 124.562 99.855 125.353C99.3354 126.108 98.0295 125.756 97.9307 125.068C97.7983 124.146 97.973 123.729 98.0412 123.113ZM113.831 122.674C114.12 122.398 114.537 122.21 115.038 122.317C116.601 122.649 116.14 124.263 115.591 125.049C115.293 125.475 114.329 125.584 113.893 125.208C113.183 124.595 112.843 123.372 113.746 122.768C113.77 122.737 113.797 122.706 113.831 122.674ZM99.833 118.777L100.08 118.746C100.844 118.65 101.793 118.558 102.334 119.004C102.62 119.241 102.719 119.681 102.334 119.908C101.656 120.307 100.907 120.152 100.095 120.186C99.426 120.214 98.7829 120.295 98.1384 120.429C96.7244 120.723 95.5722 121.259 94.3646 121.849C94.2061 121.926 94.0444 121.779 94.12 121.671C94.8171 120.677 96.1681 119.861 97.5213 119.364C98.2436 119.099 99.034 118.878 99.833 118.777ZM112.406 118.332L112.595 118.361C114.651 118.673 117.323 119.298 118.297 120.767C118.334 120.975 118.295 121.02 118.263 121.049L118.252 121.058C118.226 121.083 118.205 121.117 118.081 121.146C118.047 121.14 118.012 121.133 117.977 121.127C117.531 121.042 117.178 120.924 116.836 120.803L116.465 120.67C116.035 120.517 115.601 120.369 115.141 120.26C114.16 120.027 113.15 119.863 112.125 119.775C111.903 119.756 111.689 119.702 111.52 119.608C111.36 119.519 111.238 119.397 111.182 119.233C111.11 119.022 111.131 118.862 111.286 118.671C111.404 118.528 111.571 118.429 111.764 118.372C111.96 118.314 112.184 118.3 112.406 118.332Z" fill="black"/>
<path fill-rule="evenodd" clip-rule="evenodd" d="M123.117 130.423C122.894 128.187 119.329 127.24 117.553 126.96C111.64 125.861 106.61 128.68 99.5599 128.738C98.8484 128.747 96.8135 128.652 95.8672 128.454C91.066 127.592 86.2698 126.674 81.5589 125.543C80.8663 125.671 80.6614 126.386 81.1369 126.793C85.6489 128.058 92.5517 129.191 96.197 129.32C96.127 133.043 93.6411 136.787 90.2082 138.846C95.6681 143.62 108.402 145.19 115.896 142.684C119.582 141.81 123.472 133.979 123.117 130.423" fill="white"/>
<path fill-rule="evenodd" clip-rule="evenodd" d="M81.1781 125.656C80.975 125.649 81.0934 125.181 81.5507 125.248C87.451 126.339 94.8021 128.417 100.867 128.402C105.328 128.287 109.326 126.322 113.812 126.31C116.828 126.356 120.673 126.695 122.783 128.608C125.567 135.588 119.299 145.082 109.436 145.137L107.569 145.03C101.206 144.66 94.2352 144.067 90.1338 139.798L90.1018 139.82V139.82C89.4885 139.495 89.5227 138.792 90.0439 138.431L90.0594 138.45V138.45C90.0694 138.437 90.0804 138.425 90.091 138.413L90.0844 138.396V138.396C90.2849 138.23 90.5129 138.074 90.7202 137.935L90.7213 137.938V137.938C93.8009 135.909 95.8118 132.841 95.9275 129.665C94.908 129.886 77.7783 127.078 80.8361 126.393C83.0232 126.978 85.2232 127.506 87.4676 127.926C87.5052 127.909 87.5592 127.914 87.5799 127.947C90.3255 128.481 93.1265 128.786 95.9312 129.033C95.9282 128.927 95.9232 128.821 95.9163 128.715C90.9294 127.948 86.0405 126.808 81.1781 125.656ZM121.559 128.488C111.331 124.403 106.253 130.439 96.3608 128.777C97.3957 132.428 94.8401 136.364 91.369 138.749C96.4125 142.2 98.5954 142.723 105.211 143.283L106.076 143.365C107.375 143.486 108.687 143.6 109.99 143.617C116.752 143.228 121.861 137.666 122.626 132.627L122.63 132.487C122.664 131.208 122.59 129.854 121.873 128.683C121.741 128.646 121.627 128.581 121.559 128.488ZM107.318 131.696C107.672 131.633 108.032 131.938 107.813 132.205C107.105 133.068 105.374 133.403 104.163 133.538C102.76 133.695 101.401 133.572 100.069 133.193C99.9972 133.173 100.002 133.073 100.088 133.081C101.353 133.2 102.657 133.113 103.886 132.848C105.132 132.657 106.138 132.001 107.318 131.696ZM116.929 131.074C116.923 130.91 117.944 131.384 118.105 131.448C119.351 132.04 120.793 132.083 122.168 132.315C122.488 132.412 122.487 132.734 122.167 132.832C120.452 133.192 117.849 132.246 116.929 131.074Z" fill="black"/>
<path d="M187.946 119.098L187.504 116.446H183.162V123.258L186.204 123.752V125H178.118V123.882L180.562 123.258V107.944L178.118 107.398V106.28H192.756V111.844H191.352L190.52 107.788H183.162V114.886H187.504L187.946 112.234H189.272V119.098H187.946ZM194.465 112.026V110.96H198.989V123.44L200.991 123.934V125H194.465V123.934L196.467 123.44V112.52L194.465 112.026ZM196.103 106.774C196.103 106.271 196.242 105.873 196.519 105.578C196.814 105.283 197.213 105.136 197.715 105.136C198.218 105.136 198.617 105.283 198.911 105.578C199.206 105.873 199.353 106.271 199.353 106.774C199.353 107.277 199.206 107.675 198.911 107.97C198.617 108.247 198.218 108.386 197.715 108.386C197.213 108.386 196.814 108.247 196.519 107.97C196.242 107.675 196.103 107.277 196.103 106.774ZM204.567 112.52L202.565 112.026V110.96H206.309L206.881 113.56H206.985C207.505 112.676 208.198 111.983 209.065 111.48C209.949 110.96 210.902 110.7 211.925 110.7C212.618 110.7 213.242 110.821 213.797 111.064C214.352 111.307 214.794 111.653 215.123 112.104C215.47 112.589 215.712 113.274 215.851 114.158C216.007 115.025 216.085 116.203 216.085 117.694V123.44L218.087 123.934V125H211.821V123.934L213.563 123.44V117.642C213.563 116.533 213.528 115.701 213.459 115.146C213.407 114.574 213.303 114.132 213.147 113.82C212.714 112.971 211.951 112.546 210.859 112.546C210.374 112.546 209.906 112.633 209.455 112.806C209.004 112.979 208.606 113.213 208.259 113.508C207.878 113.855 207.592 114.262 207.401 114.73C207.228 115.181 207.124 115.77 207.089 116.498V123.44L208.831 123.934V125H202.565V123.934L204.567 123.44V112.52ZM219.862 118.11C219.862 116.966 220.009 115.891 220.304 114.886C220.599 113.881 221.041 113.049 221.63 112.39C222.133 111.835 222.722 111.419 223.398 111.142C224.091 110.847 224.897 110.7 225.816 110.7C226.596 110.7 227.298 110.847 227.922 111.142C228.546 111.437 229.109 111.965 229.612 112.728V106.28L227.61 105.786V104.72H232.134V123.44L234.136 123.934V125L230.106 125.26L229.898 123.128C229.361 123.943 228.754 124.506 228.078 124.818C227.402 125.113 226.648 125.26 225.816 125.26C224.932 125.26 224.135 125.13 223.424 124.87C222.713 124.61 222.124 124.194 221.656 123.622C221.101 122.946 220.659 122.14 220.33 121.204C220.018 120.251 219.862 119.219 219.862 118.11ZM229.612 118.084C229.612 115.952 229.309 114.401 228.702 113.43C228.425 112.979 228.087 112.641 227.688 112.416C227.289 112.173 226.761 112.052 226.102 112.052C224.923 112.052 224.048 112.459 223.476 113.274C223.164 113.725 222.939 114.349 222.8 115.146C222.661 115.943 222.592 116.862 222.592 117.902C222.592 119.982 222.895 121.525 223.502 122.53C223.797 122.981 224.143 123.327 224.542 123.57C224.941 123.795 225.469 123.908 226.128 123.908C226.735 123.908 227.255 123.813 227.688 123.622C228.121 123.414 228.459 123.111 228.702 122.712C228.997 122.227 229.222 121.603 229.378 120.84C229.534 120.06 229.612 119.141 229.612 118.084ZM242.379 121.958C242.379 121.282 242.526 120.684 242.821 120.164C243.133 119.644 243.618 119.185 244.277 118.786C244.935 118.37 245.785 118.015 246.825 117.72C247.865 117.425 249.113 117.165 250.569 116.94C250.482 115.917 250.378 115.12 250.257 114.548C250.153 113.976 250.005 113.517 249.815 113.17C249.572 112.719 249.234 112.39 248.801 112.182C248.367 111.957 247.899 111.844 247.397 111.844C246.911 111.844 246.469 111.931 246.071 112.104C245.689 112.277 245.429 112.511 245.291 112.806C245.533 112.997 245.707 113.231 245.811 113.508C245.932 113.768 245.993 114.019 245.993 114.262C245.993 114.695 245.845 115.042 245.551 115.302C245.273 115.545 244.927 115.666 244.511 115.666C244.095 115.666 243.748 115.527 243.471 115.25C243.211 114.973 243.081 114.583 243.081 114.08C243.081 113.543 243.228 113.066 243.523 112.65C243.817 112.217 244.199 111.861 244.667 111.584C245.152 111.289 245.689 111.073 246.279 110.934C246.885 110.778 247.483 110.7 248.073 110.7C249.546 110.7 250.707 111.125 251.557 111.974C252.631 113.049 253.169 114.955 253.169 117.694V121.464C253.169 122.331 253.221 122.929 253.325 123.258C253.446 123.57 253.697 123.726 254.079 123.726H255.249V124.506C254.001 125.009 253.03 125.26 252.337 125.26C252.077 125.26 251.86 125.217 251.687 125.13C251.513 125.043 251.375 124.896 251.271 124.688C251.167 124.463 251.089 124.168 251.037 123.804C251.002 123.44 250.985 122.981 250.985 122.426H250.881C250.343 123.31 249.633 124.003 248.749 124.506C247.865 125.009 246.911 125.26 245.889 125.26C244.797 125.26 243.939 124.974 243.315 124.402C242.691 123.813 242.379 122.998 242.379 121.958ZM246.981 123.752C247.466 123.752 247.969 123.631 248.489 123.388C249.026 123.128 249.477 122.773 249.841 122.322C250.378 121.663 250.647 120.693 250.647 119.41C250.647 119.115 250.638 118.829 250.621 118.552C250.603 118.257 250.577 117.98 250.543 117.72C249.485 117.928 248.601 118.145 247.891 118.37C247.197 118.595 246.634 118.855 246.201 119.15C245.785 119.427 245.49 119.757 245.317 120.138C245.143 120.502 245.057 120.927 245.057 121.412C245.057 122.157 245.221 122.738 245.551 123.154C245.897 123.553 246.374 123.752 246.981 123.752ZM177.468 141.324L179.99 140.96V140.7C179.99 138.707 180.423 137.173 181.29 136.098C182.157 135.006 183.327 134.46 184.8 134.46C185.84 134.46 186.663 134.711 187.27 135.214C187.877 135.699 188.18 136.323 188.18 137.086C188.18 137.571 188.059 137.944 187.816 138.204C187.573 138.447 187.244 138.568 186.828 138.568C186.429 138.568 186.109 138.455 185.866 138.23C185.623 138.005 185.502 137.684 185.502 137.268C185.502 136.817 185.641 136.367 185.918 135.916C185.623 135.604 185.225 135.448 184.722 135.448C184.323 135.448 183.977 135.535 183.682 135.708C183.387 135.881 183.162 136.107 183.006 136.384C182.85 136.661 182.729 136.982 182.642 137.346C182.573 137.693 182.529 138.065 182.512 138.464C182.512 138.845 182.512 139.244 182.512 139.66V140.96H185.84V142.26H182.512V153.44L185.32 153.934V155H177.988V153.934L179.99 153.44V142.26H177.468V141.324ZM187.433 151.958C187.433 151.282 187.581 150.684 187.875 150.164C188.187 149.644 188.673 149.185 189.331 148.786C189.99 148.37 190.839 148.015 191.879 147.72C192.919 147.425 194.167 147.165 195.623 146.94C195.537 145.917 195.433 145.12 195.311 144.548C195.207 143.976 195.06 143.517 194.869 143.17C194.627 142.719 194.289 142.39 193.855 142.182C193.422 141.957 192.954 141.844 192.451 141.844C191.966 141.844 191.524 141.931 191.125 142.104C190.744 142.277 190.484 142.511 190.345 142.806C190.588 142.997 190.761 143.231 190.865 143.508C190.987 143.768 191.047 144.019 191.047 144.262C191.047 144.695 190.9 145.042 190.605 145.302C190.328 145.545 189.981 145.666 189.565 145.666C189.149 145.666 188.803 145.527 188.525 145.25C188.265 144.973 188.135 144.583 188.135 144.08C188.135 143.543 188.283 143.066 188.577 142.65C188.872 142.217 189.253 141.861 189.721 141.584C190.207 141.289 190.744 141.073 191.333 140.934C191.94 140.778 192.538 140.7 193.127 140.7C194.601 140.7 195.762 141.125 196.611 141.974C197.686 143.049 198.223 144.955 198.223 147.694V151.464C198.223 152.331 198.275 152.929 198.379 153.258C198.501 153.57 198.752 153.726 199.133 153.726H200.303V154.506C199.055 155.009 198.085 155.26 197.391 155.26C197.131 155.26 196.915 155.217 196.741 155.13C196.568 155.043 196.429 154.896 196.325 154.688C196.221 154.463 196.143 154.168 196.091 153.804C196.057 153.44 196.039 152.981 196.039 152.426H195.935C195.398 153.31 194.687 154.003 193.803 154.506C192.919 155.009 191.966 155.26 190.943 155.26C189.851 155.26 188.993 154.974 188.369 154.402C187.745 153.813 187.433 152.998 187.433 151.958ZM192.035 153.752C192.521 153.752 193.023 153.631 193.543 153.388C194.081 153.128 194.531 152.773 194.895 152.322C195.433 151.663 195.701 150.693 195.701 149.41C195.701 149.115 195.693 148.829 195.675 148.552C195.658 148.257 195.632 147.98 195.597 147.72C194.54 147.928 193.656 148.145 192.945 148.37C192.252 148.595 191.689 148.855 191.255 149.15C190.839 149.427 190.545 149.757 190.371 150.138C190.198 150.502 190.111 150.927 190.111 151.412C190.111 152.157 190.276 152.738 190.605 153.154C190.952 153.553 191.429 153.752 192.035 153.752ZM209.172 142.468C209.016 142.364 208.843 142.312 208.652 142.312C208.323 142.312 207.976 142.52 207.612 142.936C207.248 143.335 206.927 143.846 206.65 144.47C206.407 145.059 206.217 145.709 206.078 146.42C205.939 147.113 205.87 147.833 205.87 148.578V153.44L208.678 153.934V155H201.346V153.934L203.348 153.44V142.52L201.346 142.026V140.96H205.09L205.662 144.392H205.766C206.165 143.213 206.693 142.303 207.352 141.662C208.028 141.021 208.782 140.7 209.614 140.7C210.29 140.7 210.853 140.917 211.304 141.35C211.755 141.766 211.98 142.329 211.98 143.04C211.98 143.56 211.841 143.976 211.564 144.288C211.304 144.583 210.949 144.73 210.498 144.73C210.047 144.73 209.692 144.591 209.432 144.314C209.172 144.019 209.042 143.638 209.042 143.17C209.042 143.066 209.051 142.971 209.068 142.884C209.085 142.797 209.12 142.659 209.172 142.468ZM215.256 142.52L213.254 142.026V140.96H216.998L217.57 143.56H217.674C218.177 142.676 218.844 141.983 219.676 141.48C220.526 140.96 221.427 140.7 222.38 140.7C223.108 140.7 223.741 140.839 224.278 141.116C224.833 141.376 225.24 141.705 225.5 142.104C225.778 142.537 226.003 143.109 226.176 143.82C226.731 142.832 227.45 142.069 228.334 141.532C229.218 140.977 230.163 140.7 231.168 140.7C231.862 140.7 232.486 140.839 233.04 141.116C233.595 141.376 234.02 141.74 234.314 142.208C234.47 142.451 234.6 142.745 234.704 143.092C234.808 143.439 234.895 143.872 234.964 144.392C235.034 144.895 235.077 145.493 235.094 146.186C235.129 146.879 235.146 147.694 235.146 148.63V153.44L237.148 153.934V155H230.882V153.934L232.624 153.44V147.642C232.624 146.533 232.59 145.701 232.52 145.146C232.468 144.574 232.364 144.132 232.208 143.82C231.775 142.971 231.047 142.546 230.024 142.546C229.574 142.546 229.14 142.633 228.724 142.806C228.326 142.979 227.962 143.213 227.632 143.508C227.251 143.855 226.965 144.262 226.774 144.73C226.601 145.181 226.497 145.77 226.462 146.498V153.44L228.204 153.934V155H222.198V153.934L223.94 153.44V147.642C223.94 146.533 223.906 145.701 223.836 145.146C223.784 144.574 223.68 144.132 223.524 143.82C223.091 142.971 222.363 142.546 221.34 142.546C220.89 142.546 220.456 142.633 220.04 142.806C219.642 142.979 219.278 143.213 218.948 143.508C218.567 143.855 218.281 144.262 218.09 144.73C217.917 145.181 217.813 145.77 217.778 146.498V153.44L219.52 153.934V155H213.254V153.934L215.256 153.44V142.52ZM241.506 148.136C241.506 149.401 241.68 150.45 242.026 151.282C242.373 152.097 242.858 152.677 243.482 153.024C244.124 153.353 244.826 153.518 245.588 153.518C246.42 153.518 247.166 153.353 247.824 153.024C248.5 152.677 249.107 152.209 249.644 151.62L250.476 152.244C250.164 152.66 249.826 153.05 249.462 153.414C249.116 153.778 248.717 154.099 248.266 154.376C247.816 154.653 247.313 154.87 246.758 155.026C246.204 155.182 245.588 155.26 244.912 155.26C243.716 155.26 242.659 155.009 241.74 154.506C240.822 153.986 240.12 153.232 239.634 152.244C239.374 151.707 239.184 151.117 239.062 150.476C238.941 149.817 238.88 149.107 238.88 148.344C238.88 145.9 239.435 144.019 240.544 142.702C241.654 141.367 243.179 140.7 245.12 140.7C246.906 140.7 248.275 141.255 249.228 142.364C250.182 143.456 250.658 144.973 250.658 146.914C250.658 147.087 250.65 147.252 250.632 147.408C250.632 147.547 250.615 147.789 250.58 148.136H241.506ZM244.964 142.104C242.884 142.104 241.74 143.69 241.532 146.862H248.032V146.004C248.032 144.756 247.764 143.794 247.226 143.118C246.706 142.442 245.952 142.104 244.964 142.104ZM260.563 142.468C260.407 142.364 260.233 142.312 260.043 142.312C259.713 142.312 259.367 142.52 259.003 142.936C258.639 143.335 258.318 143.846 258.041 144.47C257.798 145.059 257.607 145.709 257.469 146.42C257.33 147.113 257.261 147.833 257.261 148.578V153.44L260.069 153.934V155H252.737V153.934L254.739 153.44V142.52L252.737 142.026V140.96H256.481L257.053 144.392H257.157C257.555 143.213 258.084 142.303 258.743 141.662C259.419 141.021 260.173 140.7 261.005 140.7C261.681 140.7 262.244 140.917 262.695 141.35C263.145 141.766 263.371 142.329 263.371 143.04C263.371 143.56 263.232 143.976 262.955 144.288C262.695 144.583 262.339 144.73 261.889 144.73C261.438 144.73 261.083 144.591 260.823 144.314C260.563 144.019 260.433 143.638 260.433 143.17C260.433 143.066 260.441 142.971 260.459 142.884C260.476 142.797 260.511 142.659 260.563 142.468ZM177.988 181.958C177.988 181.282 178.135 180.684 178.43 180.164C178.742 179.644 179.227 179.185 179.886 178.786C180.545 178.37 181.394 178.015 182.434 177.72C183.474 177.425 184.722 177.165 186.178 176.94C186.091 175.917 185.987 175.12 185.866 174.548C185.762 173.976 185.615 173.517 185.424 173.17C185.181 172.719 184.843 172.39 184.41 172.182C183.977 171.957 183.509 171.844 183.006 171.844C182.521 171.844 182.079 171.931 181.68 172.104C181.299 172.277 181.039 172.511 180.9 172.806C181.143 172.997 181.316 173.231 181.42 173.508C181.541 173.768 181.602 174.019 181.602 174.262C181.602 174.695 181.455 175.042 181.16 175.302C180.883 175.545 180.536 175.666 180.12 175.666C179.704 175.666 179.357 175.527 179.08 175.25C178.82 174.973 178.69 174.583 178.69 174.08C178.69 173.543 178.837 173.066 179.132 172.65C179.427 172.217 179.808 171.861 180.276 171.584C180.761 171.289 181.299 171.073 181.888 170.934C182.495 170.778 183.093 170.7 183.682 170.7C185.155 170.7 186.317 171.125 187.166 171.974C188.241 173.049 188.778 174.955 188.778 177.694V181.464C188.778 182.331 188.83 182.929 188.934 183.258C189.055 183.57 189.307 183.726 189.688 183.726H190.858V184.506C189.61 185.009 188.639 185.26 187.946 185.26C187.686 185.26 187.469 185.217 187.296 185.13C187.123 185.043 186.984 184.896 186.88 184.688C186.776 184.463 186.698 184.168 186.646 183.804C186.611 183.44 186.594 182.981 186.594 182.426H186.49C185.953 183.31 185.242 184.003 184.358 184.506C183.474 185.009 182.521 185.26 181.498 185.26C180.406 185.26 179.548 184.974 178.924 184.402C178.3 183.813 177.988 182.998 177.988 181.958ZM182.59 183.752C183.075 183.752 183.578 183.631 184.098 183.388C184.635 183.128 185.086 182.773 185.45 182.322C185.987 181.663 186.256 180.693 186.256 179.41C186.256 179.115 186.247 178.829 186.23 178.552C186.213 178.257 186.187 177.98 186.152 177.72C185.095 177.928 184.211 178.145 183.5 178.37C182.807 178.595 182.243 178.855 181.81 179.15C181.394 179.427 181.099 179.757 180.926 180.138C180.753 180.502 180.666 180.927 180.666 181.412C180.666 182.157 180.831 182.738 181.16 183.154C181.507 183.553 181.983 183.752 182.59 183.752ZM193.903 172.52L191.901 172.026V170.96H195.645L196.217 173.56H196.321C196.841 172.676 197.534 171.983 198.401 171.48C199.285 170.96 200.238 170.7 201.261 170.7C201.954 170.7 202.578 170.821 203.133 171.064C203.688 171.307 204.13 171.653 204.459 172.104C204.806 172.589 205.048 173.274 205.187 174.158C205.343 175.025 205.421 176.203 205.421 177.694V183.44L207.423 183.934V185H201.157V183.934L202.899 183.44V177.642C202.899 176.533 202.864 175.701 202.795 175.146C202.743 174.574 202.639 174.132 202.483 173.82C202.05 172.971 201.287 172.546 200.195 172.546C199.71 172.546 199.242 172.633 198.791 172.806C198.34 172.979 197.942 173.213 197.595 173.508C197.214 173.855 196.928 174.262 196.737 174.73C196.564 175.181 196.46 175.77 196.425 176.498V183.44L198.167 183.934V185H191.901V183.934L193.903 183.44V172.52ZM209.198 178.11C209.198 176.966 209.345 175.891 209.64 174.886C209.935 173.881 210.377 173.049 210.966 172.39C211.469 171.835 212.058 171.419 212.734 171.142C213.427 170.847 214.233 170.7 215.152 170.7C215.932 170.7 216.634 170.847 217.258 171.142C217.882 171.437 218.445 171.965 218.948 172.728V166.28L216.946 165.786V164.72H221.47V183.44L223.472 183.934V185L219.442 185.26L219.234 183.128C218.697 183.943 218.09 184.506 217.414 184.818C216.738 185.113 215.984 185.26 215.152 185.26C214.268 185.26 213.471 185.13 212.76 184.87C212.049 184.61 211.46 184.194 210.992 183.622C210.437 182.946 209.995 182.14 209.666 181.204C209.354 180.251 209.198 179.219 209.198 178.11ZM218.948 178.084C218.948 175.952 218.645 174.401 218.038 173.43C217.761 172.979 217.423 172.641 217.024 172.416C216.625 172.173 216.097 172.052 215.438 172.052C214.259 172.052 213.384 172.459 212.812 173.274C212.5 173.725 212.275 174.349 212.136 175.146C211.997 175.943 211.928 176.862 211.928 177.902C211.928 179.982 212.231 181.525 212.838 182.53C213.133 182.981 213.479 183.327 213.878 183.57C214.277 183.795 214.805 183.908 215.464 183.908C216.071 183.908 216.591 183.813 217.024 183.622C217.457 183.414 217.795 183.111 218.038 182.712C218.333 182.227 218.558 181.603 218.714 180.84C218.87 180.06 218.948 179.141 218.948 178.084ZM238.579 170.7C240.087 170.7 241.283 171.073 242.167 171.818C243.068 172.546 243.519 173.525 243.519 174.756C243.519 176.091 242.981 176.758 241.907 176.758C241.404 176.758 241.014 176.619 240.737 176.342C240.459 176.065 240.321 175.692 240.321 175.224C240.321 174.791 240.433 174.418 240.659 174.106C240.901 173.794 241.222 173.577 241.621 173.456C241.118 172.503 240.156 172.026 238.735 172.026C237.313 172.026 236.273 172.485 235.615 173.404C234.973 174.323 234.653 175.77 234.653 177.746C234.653 179.393 234.878 180.649 235.329 181.516C236.022 182.851 237.157 183.518 238.735 183.518C239.532 183.518 240.295 183.345 241.023 182.998C241.751 182.651 242.375 182.157 242.895 181.516L243.675 182.14C242.981 183.215 242.184 184.003 241.283 184.506C240.381 185.009 239.324 185.26 238.111 185.26C236.897 185.26 235.84 185.017 234.939 184.532C234.055 184.029 233.361 183.301 232.859 182.348C232.564 181.793 232.33 181.161 232.157 180.45C232.001 179.722 231.923 178.951 231.923 178.136C231.923 177.009 232.079 175.995 232.391 175.094C232.703 174.175 233.145 173.395 233.717 172.754C234.306 172.095 235.008 171.593 235.823 171.246C236.655 170.882 237.573 170.7 238.579 170.7ZM253.428 172.468C253.272 172.364 253.099 172.312 252.908 172.312C252.579 172.312 252.232 172.52 251.868 172.936C251.504 173.335 251.183 173.846 250.906 174.47C250.663 175.059 250.473 175.709 250.334 176.42C250.195 177.113 250.126 177.833 250.126 178.578V183.44L252.934 183.934V185H245.602V183.934L247.604 183.44V172.52L245.602 172.026V170.96H249.346L249.918 174.392H250.022C250.421 173.213 250.949 172.303 251.608 171.662C252.284 171.021 253.038 170.7 253.87 170.7C254.546 170.7 255.109 170.917 255.56 171.35C256.011 171.766 256.236 172.329 256.236 173.04C256.236 173.56 256.097 173.976 255.82 174.288C255.56 174.583 255.205 174.73 254.754 174.73C254.303 174.73 253.948 174.591 253.688 174.314C253.428 174.019 253.298 173.638 253.298 173.17C253.298 173.066 253.307 172.971 253.324 172.884C253.341 172.797 253.376 172.659 253.428 172.468ZM260.295 178.136C260.295 179.401 260.469 180.45 260.815 181.282C261.162 182.097 261.647 182.677 262.271 183.024C262.913 183.353 263.615 183.518 264.377 183.518C265.209 183.518 265.955 183.353 266.613 183.024C267.289 182.677 267.896 182.209 268.433 181.62L269.265 182.244C268.953 182.66 268.615 183.05 268.251 183.414C267.905 183.778 267.506 184.099 267.055 184.376C266.605 184.653 266.102 184.87 265.547 185.026C264.993 185.182 264.377 185.26 263.701 185.26C262.505 185.26 261.448 185.009 260.529 184.506C259.611 183.986 258.909 183.232 258.423 182.244C258.163 181.707 257.973 181.117 257.851 180.476C257.73 179.817 257.669 179.107 257.669 178.344C257.669 175.9 258.224 174.019 259.333 172.702C260.443 171.367 261.968 170.7 263.909 170.7C265.695 170.7 267.064 171.255 268.017 172.364C268.971 173.456 269.447 174.973 269.447 176.914C269.447 177.087 269.439 177.252 269.421 177.408C269.421 177.547 269.404 177.789 269.369 178.136H260.295ZM263.753 172.104C261.673 172.104 260.529 173.69 260.321 176.862H266.821V176.004C266.821 174.756 266.553 173.794 266.015 173.118C265.495 172.442 264.741 172.104 263.753 172.104ZM271.578 181.958C271.578 181.282 271.725 180.684 272.02 180.164C272.332 179.644 272.817 179.185 273.476 178.786C274.135 178.37 274.984 178.015 276.024 177.72C277.064 177.425 278.312 177.165 279.768 176.94C279.681 175.917 279.577 175.12 279.456 174.548C279.352 173.976 279.205 173.517 279.014 173.17C278.771 172.719 278.433 172.39 278 172.182C277.567 171.957 277.099 171.844 276.596 171.844C276.111 171.844 275.669 171.931 275.27 172.104C274.889 172.277 274.629 172.511 274.49 172.806C274.733 172.997 274.906 173.231 275.01 173.508C275.131 173.768 275.192 174.019 275.192 174.262C275.192 174.695 275.045 175.042 274.75 175.302C274.473 175.545 274.126 175.666 273.71 175.666C273.294 175.666 272.947 175.527 272.67 175.25C272.41 174.973 272.28 174.583 272.28 174.08C272.28 173.543 272.427 173.066 272.722 172.65C273.017 172.217 273.398 171.861 273.866 171.584C274.351 171.289 274.889 171.073 275.478 170.934C276.085 170.778 276.683 170.7 277.272 170.7C278.745 170.7 279.907 171.125 280.756 171.974C281.831 173.049 282.368 174.955 282.368 177.694V181.464C282.368 182.331 282.42 182.929 282.524 183.258C282.645 183.57 282.897 183.726 283.278 183.726H284.448V184.506C283.2 185.009 282.229 185.26 281.536 185.26C281.276 185.26 281.059 185.217 280.886 185.13C280.713 185.043 280.574 184.896 280.47 184.688C280.366 184.463 280.288 184.168 280.236 183.804C280.201 183.44 280.184 182.981 280.184 182.426H280.08C279.543 183.31 278.832 184.003 277.948 184.506C277.064 185.009 276.111 185.26 275.088 185.26C273.996 185.26 273.138 184.974 272.514 184.402C271.89 183.813 271.578 182.998 271.578 181.958ZM276.18 183.752C276.665 183.752 277.168 183.631 277.688 183.388C278.225 183.128 278.676 182.773 279.04 182.322C279.577 181.663 279.846 180.693 279.846 179.41C279.846 179.115 279.837 178.829 279.82 178.552C279.803 178.257 279.777 177.98 279.742 177.72C278.685 177.928 277.801 178.145 277.09 178.37C276.397 178.595 275.833 178.855 275.4 179.15C274.984 179.427 274.689 179.757 274.516 180.138C274.343 180.502 274.256 180.927 274.256 181.412C274.256 182.157 274.421 182.738 274.75 183.154C275.097 183.553 275.573 183.752 276.18 183.752ZM284.789 171.324L287.311 170.96L287.649 167.684L289.833 167.372V170.96H293.161V172.26H289.833V181.542C289.833 182.131 289.841 182.539 289.859 182.764C289.876 182.972 289.911 183.145 289.963 183.284C290.015 183.423 290.11 183.509 290.249 183.544C290.387 183.579 290.613 183.596 290.925 183.596H292.745V184.35C291.913 184.662 291.176 184.887 290.535 185.026C289.911 185.182 289.408 185.26 289.027 185.26C288.247 185.26 287.744 184.939 287.519 184.298C287.432 184.09 287.371 183.83 287.337 183.518C287.319 183.189 287.311 182.695 287.311 182.036V172.26H284.789V171.324ZM297.264 178.136C297.264 179.401 297.437 180.45 297.784 181.282C298.131 182.097 298.616 182.677 299.24 183.024C299.881 183.353 300.583 183.518 301.346 183.518C302.178 183.518 302.923 183.353 303.582 183.024C304.258 182.677 304.865 182.209 305.402 181.62L306.234 182.244C305.922 182.66 305.584 183.05 305.22 183.414C304.873 183.778 304.475 184.099 304.024 184.376C303.573 184.653 303.071 184.87 302.516 185.026C301.961 185.182 301.346 185.26 300.67 185.26C299.474 185.26 298.417 185.009 297.498 184.506C296.579 183.986 295.877 183.232 295.392 182.244C295.132 181.707 294.941 181.117 294.82 180.476C294.699 179.817 294.638 179.107 294.638 178.344C294.638 175.9 295.193 174.019 296.302 172.702C297.411 171.367 298.937 170.7 300.878 170.7C302.663 170.7 304.033 171.255 304.986 172.364C305.939 173.456 306.416 174.973 306.416 176.914C306.416 177.087 306.407 177.252 306.39 177.408C306.39 177.547 306.373 177.789 306.338 178.136H297.264ZM300.722 172.104C298.642 172.104 297.498 173.69 297.29 176.862H303.79V176.004C303.79 174.756 303.521 173.794 302.984 173.118C302.464 172.442 301.71 172.104 300.722 172.104ZM186.048 214.376C185.684 215.381 185.346 216.239 185.034 216.95C184.739 217.661 184.427 218.233 184.098 218.666C183.769 219.117 183.396 219.437 182.98 219.628C182.581 219.836 182.096 219.94 181.524 219.94C181.108 219.94 180.718 219.879 180.354 219.758C180.007 219.654 179.695 219.498 179.418 219.29C179.158 219.082 178.95 218.839 178.794 218.562C178.638 218.285 178.56 217.981 178.56 217.652C178.56 217.167 178.699 216.759 178.976 216.43C179.253 216.118 179.617 215.962 180.068 215.962C180.467 215.962 180.779 216.066 181.004 216.274C181.247 216.499 181.368 216.803 181.368 217.184C181.368 217.427 181.316 217.661 181.212 217.886C181.125 218.111 181.004 218.311 180.848 218.484C180.883 218.675 180.978 218.796 181.134 218.848C181.307 218.9 181.463 218.926 181.602 218.926C181.775 218.926 181.94 218.9 182.096 218.848C182.269 218.796 182.434 218.666 182.59 218.458C182.763 218.267 182.937 217.99 183.11 217.626C183.301 217.262 183.5 216.768 183.708 216.144L184.02 215.182L178.638 202.52L177.078 202.026V200.96H182.902L183.11 202.026L181.264 202.52L185.138 212.712H185.242L188.518 202.52L187.01 202.026V200.96H191.95V202.026L190.364 202.52L186.048 214.376ZM205.713 207.85C205.713 208.994 205.54 210.069 205.193 211.074C204.864 212.079 204.396 212.911 203.789 213.57C202.767 214.697 201.259 215.26 199.265 215.26C197.324 215.26 195.842 214.714 194.819 213.622C194.23 212.981 193.771 212.192 193.441 211.256C193.129 210.303 192.973 209.271 192.973 208.162C192.973 207.018 193.138 205.935 193.467 204.912C193.797 203.889 194.273 203.049 194.897 202.39C195.452 201.801 196.093 201.376 196.821 201.116C197.549 200.839 198.399 200.7 199.369 200.7C200.323 200.7 201.181 200.839 201.943 201.116C202.706 201.376 203.347 201.783 203.867 202.338C204.474 202.979 204.933 203.785 205.245 204.756C205.557 205.709 205.713 206.741 205.713 207.85ZM195.755 207.876C195.755 209.956 196.067 211.507 196.691 212.53C196.986 212.981 197.333 213.327 197.731 213.57C198.147 213.795 198.685 213.908 199.343 213.908C200.539 213.908 201.432 213.501 202.021 212.686C202.333 212.235 202.559 211.611 202.697 210.814C202.853 210.017 202.931 209.098 202.931 208.058C202.931 205.995 202.619 204.453 201.995 203.43C201.701 202.979 201.345 202.641 200.929 202.416C200.513 202.173 199.976 202.052 199.317 202.052C198.104 202.052 197.229 202.451 196.691 203.248C196.067 204.219 195.755 205.761 195.755 207.876ZM211.928 208.318C211.928 208.873 211.937 209.358 211.954 209.774C211.971 210.19 211.989 210.545 212.006 210.84C212.041 211.135 212.084 211.386 212.136 211.594C212.188 211.802 212.257 211.984 212.344 212.14C212.743 212.989 213.471 213.414 214.528 213.414C214.996 213.414 215.447 213.327 215.88 213.154C216.313 212.981 216.695 212.747 217.024 212.452C217.405 212.105 217.683 211.707 217.856 211.256C218.047 210.788 218.159 210.19 218.194 209.462V202.52L215.932 202.026V200.96H220.716V213.44L222.718 213.934V215L218.688 215.26L218.402 212.4H218.298C217.795 213.284 217.111 213.986 216.244 214.506C215.377 215.009 214.45 215.26 213.462 215.26C212.803 215.26 212.197 215.139 211.642 214.896C211.105 214.653 210.68 214.307 210.368 213.856C210.021 213.371 209.77 212.695 209.614 211.828C209.475 210.944 209.406 209.757 209.406 208.266V202.52L207.664 202.026V200.96H211.928V208.318ZM232.125 202.468C231.969 202.364 231.796 202.312 231.605 202.312C231.276 202.312 230.929 202.52 230.565 202.936C230.201 203.335 229.881 203.846 229.603 204.47C229.361 205.059 229.17 205.709 229.031 206.42C228.893 207.113 228.823 207.833 228.823 208.578V213.44L231.631 213.934V215H224.299V213.934L226.301 213.44V202.52L224.299 202.026V200.96H228.043L228.615 204.392H228.719C229.118 203.213 229.647 202.303 230.305 201.662C230.981 201.021 231.735 200.7 232.567 200.7C233.243 200.7 233.807 200.917 234.257 201.35C234.708 201.766 234.933 202.329 234.933 203.04C234.933 203.56 234.795 203.976 234.517 204.288C234.257 204.583 233.902 204.73 233.451 204.73C233.001 204.73 232.645 204.591 232.385 204.314C232.125 204.019 231.995 203.638 231.995 203.17C231.995 203.066 232.004 202.971 232.021 202.884C232.039 202.797 232.073 202.659 232.125 202.468ZM255.719 207.85C255.719 208.994 255.554 210.069 255.225 211.074C254.896 212.062 254.436 212.894 253.847 213.57C252.876 214.697 251.481 215.26 249.661 215.26C248.777 215.26 247.988 215.061 247.295 214.662C246.602 214.246 245.986 213.483 245.449 212.374L244.669 215H243.447V196.28L241.445 195.786V194.72H245.969V202.468C246.489 201.809 247.07 201.35 247.711 201.09C248.352 200.83 249.072 200.7 249.869 200.7C250.753 200.7 251.55 200.83 252.261 201.09C252.989 201.35 253.578 201.766 254.029 202.338C254.566 202.997 254.982 203.803 255.277 204.756C255.572 205.709 255.719 206.741 255.719 207.85ZM245.969 207.876C245.969 210.008 246.272 211.559 246.879 212.53C247.156 212.981 247.494 213.327 247.893 213.57C248.292 213.795 248.82 213.908 249.479 213.908C250.658 213.908 251.533 213.501 252.105 212.686C252.417 212.235 252.642 211.611 252.781 210.814C252.92 210.017 252.989 209.098 252.989 208.058C252.989 205.978 252.686 204.435 252.079 203.43C251.784 202.979 251.438 202.641 251.039 202.416C250.64 202.173 250.112 202.052 249.453 202.052C248.846 202.052 248.326 202.156 247.893 202.364C247.46 202.555 247.122 202.849 246.879 203.248C246.584 203.733 246.359 204.366 246.203 205.146C246.047 205.909 245.969 206.819 245.969 207.876ZM270.84 207.85C270.84 208.994 270.667 210.069 270.32 211.074C269.991 212.079 269.523 212.911 268.916 213.57C267.894 214.697 266.386 215.26 264.392 215.26C262.451 215.26 260.969 214.714 259.946 213.622C259.357 212.981 258.898 212.192 258.568 211.256C258.256 210.303 258.1 209.271 258.1 208.162C258.1 207.018 258.265 205.935 258.594 204.912C258.924 203.889 259.4 203.049 260.024 202.39C260.579 201.801 261.22 201.376 261.948 201.116C262.676 200.839 263.526 200.7 264.496 200.7C265.45 200.7 266.308 200.839 267.07 201.116C267.833 201.376 268.474 201.783 268.994 202.338C269.601 202.979 270.06 203.785 270.372 204.756C270.684 205.709 270.84 206.741 270.84 207.85ZM260.882 207.876C260.882 209.956 261.194 211.507 261.818 212.53C262.113 212.981 262.46 213.327 262.858 213.57C263.274 213.795 263.812 213.908 264.47 213.908C265.666 213.908 266.559 213.501 267.148 212.686C267.46 212.235 267.686 211.611 267.824 210.814C267.98 210.017 268.058 209.098 268.058 208.058C268.058 205.995 267.746 204.453 267.122 203.43C266.828 202.979 266.472 202.641 266.056 202.416C265.64 202.173 265.103 202.052 264.444 202.052C263.231 202.052 262.356 202.451 261.818 203.248C261.194 204.219 260.882 205.761 260.882 207.876ZM279.509 206.654L282.551 202.52L280.991 202.026V200.96H285.879V202.026L284.397 202.52L280.185 207.538L284.787 213.466L286.217 213.934V215H280.523V213.934L282.005 213.44L278.651 209.124L275.427 213.44L276.987 213.934V215H272.099V213.934L273.555 213.44L277.975 208.24L273.555 202.52L272.099 202.026V200.96H277.481V202.026L276.337 202.52L279.509 206.654ZM288.017 213.622C288.017 213.102 288.164 212.695 288.459 212.4C288.754 212.088 289.152 211.932 289.655 211.932C290.158 211.932 290.556 212.088 290.851 212.4C291.163 212.712 291.319 213.119 291.319 213.622C291.319 214.125 291.163 214.523 290.851 214.818C290.556 215.113 290.158 215.26 289.655 215.26C289.135 215.26 288.728 215.121 288.433 214.844C288.156 214.549 288.017 214.142 288.017 213.622Z" fill="black"/>
</g>
<defs>
<clipPath id="clip0">
<rect width="320" height="320" fill="white"/>
</clipPath>
</defs>
</svg>
