<svg width="320" height="320" viewBox="0 0 320 320" fill="none" xmlns="http://www.w3.org/2000/svg">
<g clip-path="url(#clip0)">
<rect width="320" height="320" fill="white"/>
<path fill-rule="evenodd" clip-rule="evenodd" d="M227.719 37.4113C226.01 36.6419 223.731 37.5343 224.682 39.5684C225.7 41.7467 229.465 41.7736 231.591 41.7304C231.378 41.7203 230.693 39.7228 230.458 39.421C229.766 38.5305 228.77 37.8852 227.719 37.4113ZM247.412 76.4654C247.844 76.8001 247.447 76.4968 247.412 76.4654V76.4654ZM226.073 47.2637C225.072 47.9578 225.025 49.1834 225.842 50.013C226.815 51.0006 228.591 50.9646 229.917 50.8684C230.517 50.8248 233.72 50.592 232.961 50.1161C233.019 50.1361 233.141 50.1847 233.272 50.2508C233.342 50.4838 233.416 50.716 233.493 50.9472C233.474 50.9572 233.458 50.9679 233.438 50.9779C233.46 50.9692 233.475 50.9598 233.494 50.951C234.264 53.2615 235.361 55.4614 236.796 57.5195C236.259 57.3275 235.703 57.1822 235.139 57.1175C233.468 56.9256 229.952 58.1045 231.822 60.1244C233.614 62.0608 236.404 59.9834 238.438 59.6969C240.411 62.1967 242.586 64.5925 244.866 66.9082C244.726 66.9479 244.603 67.0306 244.533 67.1595C243.619 66.7383 242.666 66.1356 241.819 65.9725C240.598 65.7374 238.094 65.5949 237.17 66.5874C236.035 67.8078 237.252 68.7991 238.593 69.0332C240.539 69.3726 243.085 68.5099 244.956 67.9269C245.17 67.9613 245.404 67.9044 245.544 67.749C245.585 67.7367 245.626 67.7246 245.667 67.7128C247.975 70.0172 250.372 72.2455 252.754 74.425C252.729 74.4238 252.703 74.4224 252.677 74.4211C252.056 74.0511 251.389 73.7475 250.667 73.5884C248.995 73.2186 247.029 73.2168 245.672 74.3147C244.321 75.408 243.843 77.3199 245.24 78.5475C248.038 81.0048 252.16 75.402 253.571 75.1682C255.992 77.3598 258.552 79.4074 261.152 81.4137C260.857 81.3321 260.554 81.2721 260.241 81.2451C257.692 81.0236 251.707 83.8614 254.836 86.6535C257.563 89.0865 260.719 84.4035 262.916 82.7658C265.366 84.6357 267.83 86.4929 270.224 88.4225C268.918 88.1077 267.656 88.0613 266.256 88.4453C264.808 88.8433 262.47 89.8363 263.386 91.6119C264.317 93.4175 267.124 92.5959 268.586 92.0226C269.383 91.7099 270.982 90.6547 272.386 90.2102C276.206 93.485 279.516 97.092 282.021 101.341C283.585 103.994 284.772 106.829 285.608 109.742C286.141 111.601 287.192 114.724 286.981 117.144C287.984 112.3 286.171 106.482 284.218 102.152C282.422 98.1702 279.735 94.6749 276.587 91.5285C277.377 89.3716 284.026 86.2606 280.051 84.2566C277.941 83.197 275.779 84.9552 275.317 86.8173C275.001 88.0968 275.483 89.7046 275.996 90.9465C275.006 89.9874 273.976 89.0592 272.915 88.1617C271.45 86.9214 269.949 85.717 268.433 84.5278C270.93 82.398 273.294 76.3093 269.945 75.3135C265.001 73.8472 267.382 82.1525 267.727 83.7091C267.825 83.7143 267.901 83.6874 267.957 83.6299C267.929 83.7724 267.897 83.9248 267.858 84.0785C264.958 81.8144 262.014 79.5947 259.168 77.2764C259.424 77.1043 259.832 76.4468 260.152 76.0968C260.876 75.3078 261.567 74.4836 262.073 73.5606C262.872 72.1021 263.642 69.7755 261.525 68.9176C259.222 67.9828 258.128 70.6142 258.112 72.184C258.101 73.2696 258.427 74.3009 258.596 75.365C258.649 75.6969 258.445 77.1929 258.943 76.5494C258.92 76.7866 258.916 76.9585 258.928 77.0803C258.417 76.662 257.91 76.2392 257.406 75.8133C257.429 75.7596 257.447 75.7009 257.451 75.6329C257.478 75.165 256.959 74.9847 256.595 75.1218C255.93 74.5482 255.272 73.9673 254.625 73.3749C253.255 72.1199 251.864 70.829 250.484 69.5107C250.783 69.2771 250.664 68.9535 250.944 68.7055C251.224 68.458 251.775 68.3211 252.104 68.0912C252.931 67.5127 253.617 66.6698 254.113 65.8403C254.932 64.4697 255.991 61.5944 253.598 60.9412C251.132 60.2668 249.88 63.0345 249.721 64.7649C249.69 65.1001 249.967 68.1207 250.178 69.2176C247.624 66.7675 245.111 64.2255 242.834 61.6392C243.524 61.6334 245.481 60.3495 245.877 59.9991C246.842 59.1446 248.377 57.2563 246.685 56.257C245.18 55.3707 243.325 56.6544 242.681 57.902C242.576 58.1074 242.203 60.0195 242.174 60.8774C241.231 59.7806 240.332 58.6775 239.496 57.5707C238.939 56.8349 238.417 56.0797 237.93 55.3084C238.047 55.248 238.158 55.1427 238.262 55.0117C240.772 54.625 243.971 51.0698 241.023 49.8329C239.62 49.2447 238.098 50.4588 237.41 51.4528C237.269 51.6562 237.041 52.6786 236.856 53.485C235.453 50.9299 234.381 48.2247 233.565 45.4512C233.783 45.4019 233.968 45.2504 233.993 44.9898C235.211 44.3591 236.173 43.834 237.024 42.6212C237.552 41.8679 238.504 40.1469 236.951 39.7288C234.931 39.1848 233.662 41.9868 233.496 43.3669C233.477 43.5271 233.478 43.993 233.484 44.42C233.414 44.4113 233.343 44.4123 233.274 44.4235C232.81 42.7061 232.439 40.9665 232.145 39.2241C233.247 38.9018 233.438 33.6433 232.704 32.8945C231.063 31.218 229.905 33.6398 229.992 34.9198C230.096 36.4291 230.849 37.802 231.746 39.0204C231.842 39.1494 231.815 39.1432 231.84 38.9634C231.853 39.0523 231.886 39.1178 231.935 39.1653C231.888 39.9598 231.798 40.7731 231.842 41.4761C231.966 43.4893 232.224 45.5142 232.599 47.5015C232.69 47.9848 232.795 48.4642 232.912 48.9394C232.026 48.2538 230.83 47.6446 230.363 47.4541C229.149 46.9602 227.278 46.4269 226.073 47.2637ZM287.124 117.151C287.067 117.853 286.928 118.496 286.667 119.026C286.863 118.423 287.012 117.795 287.124 117.151Z" fill="#F2F2F2"/>
<g opacity="0.7">
<path opacity="0.7" fill-rule="evenodd" clip-rule="evenodd" d="M260.967 84.9604C265.714 84.7368 271.584 87.2524 272.091 91.9371C272.459 95.3409 272.345 98.7349 272.914 102.134C273.369 104.85 274.332 107.457 275.645 109.932C276.908 112.311 279.528 114.336 280.209 116.878C280.643 118.498 280.4 120.776 279.801 122.36C279.073 124.286 279.46 124.134 280.911 125.75C283.754 128.917 286.315 132.165 288.125 135.948C290.733 141.396 292.443 147.765 291.475 153.729C291.352 154.487 291.206 157.205 290.057 157.395C288.774 157.607 289.374 156.053 289.442 155.55C289.879 152.347 290.267 149.546 289.74 146.292C287.708 133.738 277.788 125.466 271.329 114.811C270.974 114.261 270.224 112.953 269.703 112.09C268.88 110.727 268.053 108.134 266.939 107.123C264.841 105.219 266.77 109.047 267.178 109.777C267.695 110.701 268.264 111.684 268.793 112.493C271.217 116.247 273.922 120.345 276.425 124.215C265.6 126.454 257.976 114.639 255.071 106.871C252.678 100.471 249.814 85.508 260.967 84.9604Z" fill="#69A1AC"/>
<path opacity="0.7" fill-rule="evenodd" clip-rule="evenodd" d="M324.59 73.0759C316.655 73.6475 311.56 78.4014 309.189 85.0507C307.911 88.6341 307.764 92.3152 307.054 95.9977C305.986 101.538 303.687 105.737 299.194 109.684C297.802 110.906 296.777 112.161 296.048 113.504C294.601 114.845 293.341 116.362 292.415 118.217C291.233 120.586 290.899 123.428 292.264 125.79C292.631 126.424 293.546 127.699 294.495 128.278C290.942 135.147 288.989 142.67 289.209 150.184C289.342 154.719 289.586 159.256 289.871 163.786C289.947 165.003 290.384 167.011 291.039 164.971C291.639 163.106 290.887 160.177 290.817 158.227C290.478 148.732 290.189 140.098 294.494 131.226C294.946 130.296 295.425 129.374 295.923 128.459C295.952 128.443 295.98 128.425 296.007 128.407C296.026 128.42 296.043 128.434 296.062 128.447C296.094 128.396 296.138 128.334 296.189 128.266C296.332 128.132 296.456 127.963 296.575 127.774C296.957 127.293 297.389 126.729 297.392 126.42C297.392 126.417 297.39 126.414 297.39 126.411C300.056 122.461 303.108 118.729 306.227 115.069C306.203 115.096 309.609 110.886 309.082 113.214C308.828 114.336 306.323 116.473 305.312 117.661C303.073 120.305 300.445 123.655 298.261 126.895C297.967 127.048 297.552 127.801 297.252 128.361C297.086 128.646 296.931 128.932 296.779 129.182C304.518 131.503 310.538 126.827 314.643 121.389C314.648 121.382 314.652 121.375 314.657 121.369C315.906 119.866 317.186 118.374 318.784 117.186C321.451 115.204 324.308 114.854 327.452 113.879C336.028 111.219 339.674 101.128 340.832 93.6415C342.138 85.195 335.748 72.243 324.59 73.0759Z" fill="#89C5CC"/>
<path opacity="0.7" fill-rule="evenodd" clip-rule="evenodd" d="M308.915 49.4221C300.771 57.1178 296.836 67.792 293.72 77.8268C290.24 89.0346 287.942 100.415 287.854 112.068C287.796 119.724 287.566 127.428 288.059 135.075C288.233 137.79 288.531 140.511 289.006 143.198C289.045 143.418 290.105 149.417 291.12 148.019C291.698 147.224 290.033 141.796 289.907 140.892C289.2 135.8 289.035 130.671 289.07 125.542C289.127 117.098 288.852 108.696 289.795 100.283C289.936 99.0269 290.047 97.7075 290.375 96.4787C290.724 95.1722 290.28 95.7425 291.417 95.2253C292.521 94.7225 293.886 94.7943 295.032 94.1635C299.577 91.6612 301.902 85.2336 303.712 81.0162C305.782 76.1934 307.04 71.0506 308.045 65.9753C308.782 62.2464 309.31 58.5401 309.608 54.7632C309.702 53.5728 309.708 52.328 309.966 51.1575C310.035 50.8418 310.383 50.2833 310.371 50.0037C310.344 49.4119 309.951 49.0639 309.918 48.5667C309.577 48.8452 309.243 49.1306 308.915 49.4221Z" fill="#89C5CC"/>
<path opacity="0.7" fill-rule="evenodd" clip-rule="evenodd" d="M264.506 151.956C264.506 164.683 275.87 175 289.888 175C303.906 175 315.27 164.683 315.27 151.956" fill="#89C5CC"/>
<path opacity="0.7" fill-rule="evenodd" clip-rule="evenodd" d="M291.925 152.029H290.583C290.676 150.502 290.799 148.977 291.081 147.466C292.157 141.688 295.521 133.202 302.899 132.264C303.171 132.229 304.172 132.224 305.385 132.288C305.96 131.996 306.604 131.82 307.283 131.78C313.565 131.359 320.58 135.96 323.61 140.748C326.053 144.609 325.641 149.678 324.133 153.78C323.122 156.526 320.917 160.441 317.24 160.479C312.639 160.527 312.417 155.364 312.328 152.346C312.21 148.334 311.652 144.838 308.169 142.103C307.358 141.466 306.47 140.906 305.651 140.278C304.367 139.294 302.948 138.287 302.783 136.66C302.555 134.416 303.95 134.012 306.081 134.429C306.444 134.5 310.103 135.99 309.561 134.812C309.396 134.452 308.792 134.167 308.029 133.953C306.056 133.759 303.703 133.533 303.027 133.668C295.726 135.122 292.884 144.302 292.129 150.135C292.048 150.765 291.982 151.397 291.925 152.029V152.029Z" fill="#69A1AC"/>
</g>
<path d="M32.858 100.944L30.752 100.398V99.28H36.654V100.398L34.522 100.944L29.218 110.668V116.336L31.662 116.882V118H24.174V116.882L26.618 116.336V111.084L21.028 100.944L18.87 100.398V99.28H26.046V100.398L23.862 100.944L28.334 109.264L32.858 100.944ZM48.3989 110.85C48.3989 111.994 48.2256 113.069 47.8789 114.074C47.5496 115.079 47.0816 115.911 46.4749 116.57C45.4522 117.697 43.9442 118.26 41.9509 118.26C40.0096 118.26 38.5276 117.714 37.5049 116.622C36.9156 115.981 36.4562 115.192 36.1269 114.256C35.8149 113.303 35.6589 112.271 35.6589 111.162C35.6589 110.018 35.8236 108.935 36.1529 107.912C36.4822 106.889 36.9589 106.049 37.5829 105.39C38.1376 104.801 38.7789 104.376 39.5069 104.116C40.2349 103.839 41.0842 103.7 42.0549 103.7C43.0082 103.7 43.8662 103.839 44.6289 104.116C45.3916 104.376 46.0329 104.783 46.5529 105.338C47.1596 105.979 47.6189 106.785 47.9309 107.756C48.2429 108.709 48.3989 109.741 48.3989 110.85ZM38.4409 110.876C38.4409 112.956 38.7529 114.507 39.3769 115.53C39.6716 115.981 40.0182 116.327 40.4169 116.57C40.8329 116.795 41.3702 116.908 42.0289 116.908C43.2249 116.908 44.1176 116.501 44.7069 115.686C45.0189 115.235 45.2442 114.611 45.3829 113.814C45.5389 113.017 45.6169 112.098 45.6169 111.058C45.6169 108.995 45.3049 107.453 44.6809 106.43C44.3862 105.979 44.0309 105.641 43.6149 105.416C43.1989 105.173 42.6616 105.052 42.0029 105.052C40.7896 105.052 39.9142 105.451 39.3769 106.248C38.7529 107.219 38.4409 108.761 38.4409 110.876ZM54.6137 111.318C54.6137 111.873 54.6224 112.358 54.6397 112.774C54.657 113.19 54.6744 113.545 54.6917 113.84C54.7264 114.135 54.7697 114.386 54.8217 114.594C54.8737 114.802 54.943 114.984 55.0297 115.14C55.4284 115.989 56.1564 116.414 57.2137 116.414C57.6817 116.414 58.1324 116.327 58.5657 116.154C58.999 115.981 59.3804 115.747 59.7097 115.452C60.091 115.105 60.3684 114.707 60.5417 114.256C60.7324 113.788 60.845 113.19 60.8797 112.462V105.52L58.6177 105.026V103.96H63.4017V116.44L65.4037 116.934V118L61.3737 118.26L61.0877 115.4H60.9837C60.481 116.284 59.7964 116.986 58.9297 117.506C58.063 118.009 57.1357 118.26 56.1477 118.26C55.489 118.26 54.8824 118.139 54.3277 117.896C53.7904 117.653 53.3657 117.307 53.0537 116.856C52.707 116.371 52.4557 115.695 52.2997 114.828C52.161 113.944 52.0917 112.757 52.0917 111.266V105.52L50.3497 105.026V103.96H54.6137V111.318ZM74.8108 105.468C74.6548 105.364 74.4815 105.312 74.2908 105.312C73.9615 105.312 73.6148 105.52 73.2508 105.936C72.8868 106.335 72.5662 106.846 72.2888 107.47C72.0462 108.059 71.8555 108.709 71.7168 109.42C71.5782 110.113 71.5088 110.833 71.5088 111.578V116.44L74.3168 116.934V118H66.9848V116.934L68.9868 116.44V105.52L66.9848 105.026V103.96H70.7288L71.3008 107.392H71.4048C71.8035 106.213 72.3322 105.303 72.9908 104.662C73.6668 104.021 74.4208 103.7 75.2528 103.7C75.9288 103.7 76.4922 103.917 76.9428 104.35C77.3935 104.766 77.6188 105.329 77.6188 106.04C77.6188 106.56 77.4802 106.976 77.2028 107.288C76.9428 107.583 76.5875 107.73 76.1368 107.73C75.6862 107.73 75.3308 107.591 75.0708 107.314C74.8108 107.019 74.6808 106.638 74.6808 106.17C74.6808 106.066 74.6895 105.971 74.7068 105.884C74.7242 105.797 74.7588 105.659 74.8108 105.468ZM19.468 134.324L21.99 133.96V133.7C21.99 131.707 22.4233 130.173 23.29 129.098C24.1567 128.006 25.3267 127.46 26.8 127.46C27.84 127.46 28.6633 127.711 29.27 128.214C29.8767 128.699 30.18 129.323 30.18 130.086C30.18 130.571 30.0587 130.944 29.816 131.204C29.5733 131.447 29.244 131.568 28.828 131.568C28.4293 131.568 28.1087 131.455 27.866 131.23C27.6233 131.005 27.502 130.684 27.502 130.268C27.502 129.817 27.6407 129.367 27.918 128.916C27.6233 128.604 27.2247 128.448 26.722 128.448C26.3233 128.448 25.9767 128.535 25.682 128.708C25.3873 128.881 25.162 129.107 25.006 129.384C24.85 129.661 24.7287 129.982 24.642 130.346C24.5727 130.693 24.5293 131.065 24.512 131.464C24.512 131.845 24.512 132.244 24.512 132.66V133.96H27.84V135.26H24.512V146.44L27.32 146.934V148H19.988V146.934L21.99 146.44V135.26H19.468V134.324ZM29.4333 144.958C29.4333 144.282 29.5806 143.684 29.8753 143.164C30.1873 142.644 30.6726 142.185 31.3313 141.786C31.99 141.37 32.8393 141.015 33.8793 140.72C34.9193 140.425 36.1673 140.165 37.6233 139.94C37.5366 138.917 37.4326 138.12 37.3113 137.548C37.2073 136.976 37.06 136.517 36.8693 136.17C36.6266 135.719 36.2886 135.39 35.8553 135.182C35.422 134.957 34.954 134.844 34.4513 134.844C33.966 134.844 33.524 134.931 33.1253 135.104C32.744 135.277 32.484 135.511 32.3453 135.806C32.588 135.997 32.7613 136.231 32.8653 136.508C32.9866 136.768 33.0473 137.019 33.0473 137.262C33.0473 137.695 32.9 138.042 32.6053 138.302C32.328 138.545 31.9813 138.666 31.5653 138.666C31.1493 138.666 30.8026 138.527 30.5253 138.25C30.2653 137.973 30.1353 137.583 30.1353 137.08C30.1353 136.543 30.2826 136.066 30.5773 135.65C30.872 135.217 31.2533 134.861 31.7213 134.584C32.2066 134.289 32.744 134.073 33.3333 133.934C33.94 133.778 34.538 133.7 35.1273 133.7C36.6006 133.7 37.762 134.125 38.6113 134.974C39.686 136.049 40.2233 137.955 40.2233 140.694V144.464C40.2233 145.331 40.2753 145.929 40.3793 146.258C40.5006 146.57 40.752 146.726 41.1333 146.726H42.3033V147.506C41.0553 148.009 40.0846 148.26 39.3913 148.26C39.1313 148.26 38.9146 148.217 38.7413 148.13C38.568 148.043 38.4293 147.896 38.3253 147.688C38.2213 147.463 38.1433 147.168 38.0913 146.804C38.0566 146.44 38.0393 145.981 38.0393 145.426H37.9353C37.398 146.31 36.6873 147.003 35.8033 147.506C34.9193 148.009 33.966 148.26 32.9433 148.26C31.8513 148.26 30.9933 147.974 30.3693 147.402C29.7453 146.813 29.4333 145.998 29.4333 144.958ZM34.0353 146.752C34.5206 146.752 35.0233 146.631 35.5433 146.388C36.0806 146.128 36.5313 145.773 36.8953 145.322C37.4326 144.663 37.7013 143.693 37.7013 142.41C37.7013 142.115 37.6926 141.829 37.6753 141.552C37.658 141.257 37.632 140.98 37.5973 140.72C36.54 140.928 35.656 141.145 34.9453 141.37C34.252 141.595 33.6886 141.855 33.2553 142.15C32.8393 142.427 32.5446 142.757 32.3713 143.138C32.198 143.502 32.1113 143.927 32.1113 144.412C32.1113 145.157 32.276 145.738 32.6053 146.154C32.952 146.553 33.4286 146.752 34.0353 146.752ZM51.1722 135.468C51.0162 135.364 50.8428 135.312 50.6522 135.312C50.3228 135.312 49.9762 135.52 49.6122 135.936C49.2482 136.335 48.9275 136.846 48.6502 137.47C48.4075 138.059 48.2168 138.709 48.0782 139.42C47.9395 140.113 47.8702 140.833 47.8702 141.578V146.44L50.6782 146.934V148H43.3462V146.934L45.3482 146.44V135.52L43.3462 135.026V133.96H47.0902L47.6622 137.392H47.7662C48.1648 136.213 48.6935 135.303 49.3522 134.662C50.0282 134.021 50.7822 133.7 51.6142 133.7C52.2902 133.7 52.8535 133.917 53.3042 134.35C53.7548 134.766 53.9802 135.329 53.9802 136.04C53.9802 136.56 53.8415 136.976 53.5642 137.288C53.3042 137.583 52.9488 137.73 52.4982 137.73C52.0475 137.73 51.6922 137.591 51.4322 137.314C51.1722 137.019 51.0422 136.638 51.0422 136.17C51.0422 136.066 51.0508 135.971 51.0682 135.884C51.0855 135.797 51.1202 135.659 51.1722 135.468ZM57.2564 135.52L55.2544 135.026V133.96H58.9984L59.5704 136.56H59.6744C60.177 135.676 60.8444 134.983 61.6764 134.48C62.5257 133.96 63.427 133.7 64.3804 133.7C65.1084 133.7 65.741 133.839 66.2784 134.116C66.833 134.376 67.2404 134.705 67.5004 135.104C67.7777 135.537 68.003 136.109 68.1764 136.82C68.731 135.832 69.4504 135.069 70.3344 134.532C71.2184 133.977 72.163 133.7 73.1684 133.7C73.8617 133.7 74.4857 133.839 75.0404 134.116C75.595 134.376 76.0197 134.74 76.3144 135.208C76.4704 135.451 76.6004 135.745 76.7044 136.092C76.8084 136.439 76.895 136.872 76.9644 137.392C77.0337 137.895 77.077 138.493 77.0944 139.186C77.129 139.879 77.1464 140.694 77.1464 141.63V146.44L79.1484 146.934V148H72.8824V146.934L74.6244 146.44V140.642C74.6244 139.533 74.5897 138.701 74.5204 138.146C74.4684 137.574 74.3644 137.132 74.2084 136.82C73.775 135.971 73.047 135.546 72.0244 135.546C71.5737 135.546 71.1404 135.633 70.7244 135.806C70.3257 135.979 69.9617 136.213 69.6324 136.508C69.251 136.855 68.965 137.262 68.7744 137.73C68.601 138.181 68.497 138.77 68.4624 139.498V146.44L70.2044 146.934V148H64.1984V146.934L65.9404 146.44V140.642C65.9404 139.533 65.9057 138.701 65.8364 138.146C65.7844 137.574 65.6804 137.132 65.5244 136.82C65.091 135.971 64.363 135.546 63.3404 135.546C62.8897 135.546 62.4564 135.633 62.0404 135.806C61.6417 135.979 61.2777 136.213 60.9484 136.508C60.567 136.855 60.281 137.262 60.0904 137.73C59.917 138.181 59.813 138.77 59.7784 139.498V146.44L61.5204 146.934V148H55.2544V146.934L57.2564 146.44V135.52ZM83.5062 141.136C83.5062 142.401 83.6795 143.45 84.0262 144.282C84.3729 145.097 84.8582 145.677 85.4822 146.024C86.1235 146.353 86.8255 146.518 87.5882 146.518C88.4202 146.518 89.1655 146.353 89.8242 146.024C90.5002 145.677 91.1069 145.209 91.6442 144.62L92.4762 145.244C92.1642 145.66 91.8262 146.05 91.4622 146.414C91.1155 146.778 90.7169 147.099 90.2662 147.376C89.8155 147.653 89.3129 147.87 88.7582 148.026C88.2035 148.182 87.5882 148.26 86.9122 148.26C85.7162 148.26 84.6589 148.009 83.7402 147.506C82.8215 146.986 82.1195 146.232 81.6342 145.244C81.3742 144.707 81.1835 144.117 81.0622 143.476C80.9409 142.817 80.8802 142.107 80.8802 141.344C80.8802 138.9 81.4349 137.019 82.5442 135.702C83.6535 134.367 85.1789 133.7 87.1202 133.7C88.9055 133.7 90.2749 134.255 91.2282 135.364C92.1815 136.456 92.6582 137.973 92.6582 139.914C92.6582 140.087 92.6495 140.252 92.6322 140.408C92.6322 140.547 92.6149 140.789 92.5802 141.136H83.5062ZM86.9642 135.104C84.8842 135.104 83.7402 136.69 83.5322 139.862H90.0322V139.004C90.0322 137.756 89.7635 136.794 89.2262 136.118C88.7062 135.442 87.9522 135.104 86.9642 135.104ZM102.563 135.468C102.407 135.364 102.233 135.312 102.043 135.312C101.713 135.312 101.367 135.52 101.003 135.936C100.639 136.335 100.318 136.846 100.041 137.47C99.7981 138.059 99.6074 138.709 99.4688 139.42C99.3301 140.113 99.2608 140.833 99.2608 141.578V146.44L102.069 146.934V148H94.7368V146.934L96.7388 146.44V135.52L94.7368 135.026V133.96H98.4808L99.0528 137.392H99.1568C99.5554 136.213 100.084 135.303 100.743 134.662C101.419 134.021 102.173 133.7 103.005 133.7C103.681 133.7 104.244 133.917 104.695 134.35C105.145 134.766 105.371 135.329 105.371 136.04C105.371 136.56 105.232 136.976 104.955 137.288C104.695 137.583 104.339 137.73 103.889 137.73C103.438 137.73 103.083 137.591 102.823 137.314C102.563 137.019 102.433 136.638 102.433 136.17C102.433 136.066 102.441 135.971 102.459 135.884C102.476 135.797 102.511 135.659 102.563 135.468ZM26.696 181.614V182.68H19.65V181.614L21.652 181.12V165.52L19.65 165.026V163.96H23.394L23.784 165.962C24.3387 165.095 24.9627 164.506 25.656 164.194C26.3667 163.865 27.164 163.7 28.048 163.7C28.932 163.7 29.7293 163.83 30.44 164.09C31.168 164.35 31.7573 164.766 32.208 165.338C32.728 165.997 33.1353 166.785 33.43 167.704C33.742 168.623 33.898 169.628 33.898 170.72C33.898 171.829 33.7247 172.878 33.378 173.866C33.0487 174.837 32.598 175.651 32.026 176.31C31.0553 177.437 29.66 178 27.84 178C27.0947 178 26.4187 177.861 25.812 177.584C25.2227 177.307 24.6767 176.804 24.174 176.076V181.12L26.696 181.614ZM24.148 170.746C24.148 172.809 24.4513 174.317 25.058 175.27C25.3353 175.721 25.6733 176.067 26.072 176.31C26.4707 176.535 26.9993 176.648 27.658 176.648C28.8367 176.648 29.712 176.241 30.284 175.426C30.596 174.993 30.8213 174.395 30.96 173.632C31.0987 172.852 31.168 171.951 31.168 170.928C31.168 168.9 30.8647 167.401 30.258 166.43C29.9633 165.979 29.6167 165.641 29.218 165.416C28.8193 165.173 28.2907 165.052 27.632 165.052C27.0253 165.052 26.5053 165.156 26.072 165.364C25.6387 165.555 25.3007 165.849 25.058 166.248C24.7633 166.716 24.538 167.323 24.382 168.068C24.226 168.813 24.148 169.706 24.148 170.746ZM43.8597 165.468C43.7037 165.364 43.5303 165.312 43.3397 165.312C43.0103 165.312 42.6637 165.52 42.2997 165.936C41.9357 166.335 41.615 166.846 41.3377 167.47C41.095 168.059 40.9043 168.709 40.7657 169.42C40.627 170.113 40.5577 170.833 40.5577 171.578V176.44L43.3657 176.934V178H36.0337V176.934L38.0357 176.44V165.52L36.0337 165.026V163.96H39.7777L40.3497 167.392H40.4537C40.8523 166.213 41.381 165.303 42.0397 164.662C42.7157 164.021 43.4697 163.7 44.3017 163.7C44.9777 163.7 45.541 163.917 45.9917 164.35C46.4423 164.766 46.6677 165.329 46.6677 166.04C46.6677 166.56 46.529 166.976 46.2517 167.288C45.9917 167.583 45.6363 167.73 45.1857 167.73C44.735 167.73 44.3797 167.591 44.1197 167.314C43.8597 167.019 43.7297 166.638 43.7297 166.17C43.7297 166.066 43.7383 165.971 43.7557 165.884C43.773 165.797 43.8077 165.659 43.8597 165.468ZM50.7269 171.136C50.7269 172.401 50.9002 173.45 51.2469 174.282C51.5936 175.097 52.0789 175.677 52.7029 176.024C53.3442 176.353 54.0462 176.518 54.8089 176.518C55.6409 176.518 56.3862 176.353 57.0449 176.024C57.7209 175.677 58.3276 175.209 58.8649 174.62L59.6969 175.244C59.3849 175.66 59.0469 176.05 58.6829 176.414C58.3362 176.778 57.9376 177.099 57.4869 177.376C57.0362 177.653 56.5336 177.87 55.9789 178.026C55.4242 178.182 54.8089 178.26 54.1329 178.26C52.9369 178.26 51.8796 178.009 50.9609 177.506C50.0422 176.986 49.3402 176.232 48.8549 175.244C48.5949 174.707 48.4042 174.117 48.2829 173.476C48.1616 172.817 48.1009 172.107 48.1009 171.344C48.1009 168.9 48.6556 167.019 49.7649 165.702C50.8742 164.367 52.3996 163.7 54.3409 163.7C56.1262 163.7 57.4956 164.255 58.4489 165.364C59.4022 166.456 59.8789 167.973 59.8789 169.914C59.8789 170.087 59.8702 170.252 59.8529 170.408C59.8529 170.547 59.8356 170.789 59.8009 171.136H50.7269ZM54.1849 165.104C52.1049 165.104 50.9609 166.69 50.7529 169.862H57.2529V169.004C57.2529 167.756 56.9842 166.794 56.4469 166.118C55.9269 165.442 55.1729 165.104 54.1849 165.104ZM68.7175 181.614V182.68H61.6715V181.614L63.6735 181.12V165.52L61.6715 165.026V163.96H65.4155L65.8055 165.962C66.3602 165.095 66.9842 164.506 67.6775 164.194C68.3882 163.865 69.1855 163.7 70.0695 163.7C70.9535 163.7 71.7508 163.83 72.4615 164.09C73.1895 164.35 73.7788 164.766 74.2295 165.338C74.7495 165.997 75.1568 166.785 75.4515 167.704C75.7635 168.623 75.9195 169.628 75.9195 170.72C75.9195 171.829 75.7462 172.878 75.3995 173.866C75.0702 174.837 74.6195 175.651 74.0475 176.31C73.0768 177.437 71.6815 178 69.8615 178C69.1162 178 68.4402 177.861 67.8335 177.584C67.2442 177.307 66.6982 176.804 66.1955 176.076V181.12L68.7175 181.614ZM66.1695 170.746C66.1695 172.809 66.4728 174.317 67.0795 175.27C67.3568 175.721 67.6948 176.067 68.0935 176.31C68.4922 176.535 69.0208 176.648 69.6795 176.648C70.8582 176.648 71.7335 176.241 72.3055 175.426C72.6175 174.993 72.8428 174.395 72.9815 173.632C73.1202 172.852 73.1895 171.951 73.1895 170.928C73.1895 168.9 72.8862 167.401 72.2795 166.43C71.9848 165.979 71.6382 165.641 71.2395 165.416C70.8408 165.173 70.3122 165.052 69.6535 165.052C69.0468 165.052 68.5268 165.156 68.0935 165.364C67.6602 165.555 67.3222 165.849 67.0795 166.248C66.7848 166.716 66.5595 167.323 66.4035 168.068C66.2475 168.813 66.1695 169.706 66.1695 170.746ZM78.1071 174.958C78.1071 174.282 78.2545 173.684 78.5491 173.164C78.8611 172.644 79.3465 172.185 80.0051 171.786C80.6638 171.37 81.5131 171.015 82.5531 170.72C83.5931 170.425 84.8411 170.165 86.2971 169.94C86.2105 168.917 86.1065 168.12 85.9851 167.548C85.8811 166.976 85.7338 166.517 85.5431 166.17C85.3005 165.719 84.9625 165.39 84.5291 165.182C84.0958 164.957 83.6278 164.844 83.1251 164.844C82.6398 164.844 82.1978 164.931 81.7991 165.104C81.4178 165.277 81.1578 165.511 81.0191 165.806C81.2618 165.997 81.4351 166.231 81.5391 166.508C81.6605 166.768 81.7211 167.019 81.7211 167.262C81.7211 167.695 81.5738 168.042 81.2791 168.302C81.0018 168.545 80.6551 168.666 80.2391 168.666C79.8231 168.666 79.4765 168.527 79.1991 168.25C78.9391 167.973 78.8091 167.583 78.8091 167.08C78.8091 166.543 78.9565 166.066 79.2511 165.65C79.5458 165.217 79.9271 164.861 80.3951 164.584C80.8805 164.289 81.4178 164.073 82.0071 163.934C82.6138 163.778 83.2118 163.7 83.8011 163.7C85.2745 163.7 86.4358 164.125 87.2851 164.974C88.3598 166.049 88.8971 167.955 88.8971 170.694V174.464C88.8971 175.331 88.9491 175.929 89.0531 176.258C89.1745 176.57 89.4258 176.726 89.8071 176.726H90.9771V177.506C89.7291 178.009 88.7585 178.26 88.0651 178.26C87.8051 178.26 87.5885 178.217 87.4151 178.13C87.2418 178.043 87.1031 177.896 86.9991 177.688C86.8951 177.463 86.8171 177.168 86.7651 176.804C86.7305 176.44 86.7131 175.981 86.7131 175.426H86.6091C86.0718 176.31 85.3611 177.003 84.4771 177.506C83.5931 178.009 82.6398 178.26 81.6171 178.26C80.5251 178.26 79.6671 177.974 79.0431 177.402C78.4191 176.813 78.1071 175.998 78.1071 174.958ZM82.7091 176.752C83.1945 176.752 83.6971 176.631 84.2171 176.388C84.7545 176.128 85.2051 175.773 85.5691 175.322C86.1065 174.663 86.3751 173.693 86.3751 172.41C86.3751 172.115 86.3665 171.829 86.3491 171.552C86.3318 171.257 86.3058 170.98 86.2711 170.72C85.2138 170.928 84.3298 171.145 83.6191 171.37C82.9258 171.595 82.3625 171.855 81.9291 172.15C81.5131 172.427 81.2185 172.757 81.0451 173.138C80.8718 173.502 80.7851 173.927 80.7851 174.412C80.7851 175.157 80.9498 175.738 81.2791 176.154C81.6258 176.553 82.1025 176.752 82.7091 176.752ZM99.846 165.468C99.69 165.364 99.5167 165.312 99.326 165.312C98.9967 165.312 98.65 165.52 98.286 165.936C97.922 166.335 97.6013 166.846 97.324 167.47C97.0813 168.059 96.8907 168.709 96.752 169.42C96.6133 170.113 96.544 170.833 96.544 171.578V176.44L99.352 176.934V178H92.02V176.934L94.022 176.44V165.52L92.02 165.026V163.96H95.764L96.336 167.392H96.44C96.8387 166.213 97.3673 165.303 98.026 164.662C98.702 164.021 99.456 163.7 100.288 163.7C100.964 163.7 101.527 163.917 101.978 164.35C102.429 164.766 102.654 165.329 102.654 166.04C102.654 166.56 102.515 166.976 102.238 167.288C101.978 167.583 101.623 167.73 101.172 167.73C100.721 167.73 100.366 167.591 100.106 167.314C99.846 167.019 99.716 166.638 99.716 166.17C99.716 166.066 99.7247 165.971 99.742 165.884C99.7593 165.797 99.794 165.659 99.846 165.468ZM106.713 171.136C106.713 172.401 106.887 173.45 107.233 174.282C107.58 175.097 108.065 175.677 108.689 176.024C109.331 176.353 110.033 176.518 110.795 176.518C111.627 176.518 112.373 176.353 113.031 176.024C113.707 175.677 114.314 175.209 114.851 174.62L115.683 175.244C115.371 175.66 115.033 176.05 114.669 176.414C114.323 176.778 113.924 177.099 113.473 177.376C113.023 177.653 112.52 177.87 111.965 178.026C111.411 178.182 110.795 178.26 110.119 178.26C108.923 178.26 107.866 178.009 106.947 177.506C106.029 176.986 105.327 176.232 104.841 175.244C104.581 174.707 104.391 174.117 104.269 173.476C104.148 172.817 104.087 172.107 104.087 171.344C104.087 168.9 104.642 167.019 105.751 165.702C106.861 164.367 108.386 163.7 110.327 163.7C112.113 163.7 113.482 164.255 114.435 165.364C115.389 166.456 115.865 167.973 115.865 169.914C115.865 170.087 115.857 170.252 115.839 170.408C115.839 170.547 115.822 170.789 115.787 171.136H106.713ZM110.171 165.104C108.091 165.104 106.947 166.69 106.739 169.862H113.239V169.004C113.239 167.756 112.971 166.794 112.433 166.118C111.913 165.442 111.159 165.104 110.171 165.104ZM123.352 177.064C124.34 177.064 125.137 176.873 125.744 176.492C126.35 176.093 126.654 175.53 126.654 174.802C126.654 174.369 126.541 174.005 126.316 173.71C126.09 173.415 125.796 173.164 125.432 172.956C125.085 172.748 124.686 172.575 124.236 172.436C123.802 172.28 123.378 172.141 122.962 172.02C122.424 171.864 121.896 171.682 121.376 171.474C120.873 171.266 120.414 171.006 119.998 170.694C119.599 170.365 119.278 169.975 119.036 169.524C118.793 169.056 118.672 168.493 118.672 167.834C118.672 166.586 119.122 165.589 120.024 164.844C120.942 164.081 122.216 163.7 123.846 163.7C125.232 163.7 126.324 163.995 127.122 164.584C127.936 165.156 128.344 165.945 128.344 166.95C128.344 167.505 128.222 167.938 127.98 168.25C127.737 168.562 127.39 168.718 126.94 168.718C126.541 168.718 126.212 168.597 125.952 168.354C125.692 168.111 125.562 167.799 125.562 167.418C125.562 167.089 125.648 166.794 125.822 166.534C125.995 166.257 126.22 166.057 126.498 165.936C126.238 165.572 125.9 165.312 125.484 165.156C125.085 164.983 124.565 164.896 123.924 164.896C121.844 164.896 120.804 165.633 120.804 167.106C120.804 167.505 120.873 167.834 121.012 168.094C121.15 168.354 121.358 168.579 121.636 168.77C121.913 168.961 122.251 169.134 122.65 169.29C123.066 169.429 123.542 169.585 124.08 169.758C124.669 169.949 125.25 170.148 125.822 170.356C126.394 170.564 126.905 170.824 127.356 171.136C127.824 171.448 128.196 171.838 128.474 172.306C128.768 172.774 128.916 173.355 128.916 174.048C128.916 174.724 128.777 175.322 128.5 175.842C128.222 176.362 127.832 176.804 127.33 177.168C126.827 177.515 126.229 177.783 125.536 177.974C124.842 178.165 124.08 178.26 123.248 178.26C121.705 178.26 120.466 177.957 119.53 177.35C118.611 176.726 118.152 175.877 118.152 174.802C118.152 174.247 118.273 173.814 118.516 173.502C118.776 173.173 119.14 173.008 119.608 173.008C120.024 173.008 120.37 173.129 120.648 173.372C120.942 173.615 121.09 173.935 121.09 174.334C121.09 174.663 120.994 174.975 120.804 175.27C120.63 175.565 120.414 175.781 120.154 175.92C120.379 176.267 120.778 176.544 121.35 176.752C121.939 176.96 122.606 177.064 123.352 177.064ZM28.048 207.376C27.684 208.381 27.346 209.239 27.034 209.95C26.7393 210.661 26.4273 211.233 26.098 211.666C25.7687 212.117 25.396 212.437 24.98 212.628C24.5813 212.836 24.096 212.94 23.524 212.94C23.108 212.94 22.718 212.879 22.354 212.758C22.0073 212.654 21.6953 212.498 21.418 212.29C21.158 212.082 20.95 211.839 20.794 211.562C20.638 211.285 20.56 210.981 20.56 210.652C20.56 210.167 20.6987 209.759 20.976 209.43C21.2533 209.118 21.6173 208.962 22.068 208.962C22.4667 208.962 22.7787 209.066 23.004 209.274C23.2467 209.499 23.368 209.803 23.368 210.184C23.368 210.427 23.316 210.661 23.212 210.886C23.1253 211.111 23.004 211.311 22.848 211.484C22.8827 211.675 22.978 211.796 23.134 211.848C23.3073 211.9 23.4633 211.926 23.602 211.926C23.7753 211.926 23.94 211.9 24.096 211.848C24.2693 211.796 24.434 211.666 24.59 211.458C24.7633 211.267 24.9367 210.99 25.11 210.626C25.3007 210.262 25.5 209.768 25.708 209.144L26.02 208.182L20.638 195.52L19.078 195.026V193.96H24.902L25.11 195.026L23.264 195.52L27.138 205.712H27.242L30.518 195.52L29.01 195.026V193.96H33.95V195.026L32.364 195.52L28.048 207.376ZM47.7133 200.85C47.7133 201.994 47.54 203.069 47.1933 204.074C46.864 205.079 46.396 205.911 45.7893 206.57C44.7667 207.697 43.2587 208.26 41.2653 208.26C39.324 208.26 37.842 207.714 36.8193 206.622C36.23 205.981 35.7707 205.192 35.4413 204.256C35.1293 203.303 34.9733 202.271 34.9733 201.162C34.9733 200.018 35.138 198.935 35.4673 197.912C35.7967 196.889 36.2733 196.049 36.8973 195.39C37.452 194.801 38.0933 194.376 38.8213 194.116C39.5493 193.839 40.3987 193.7 41.3693 193.7C42.3227 193.7 43.1807 193.839 43.9433 194.116C44.706 194.376 45.3473 194.783 45.8673 195.338C46.474 195.979 46.9333 196.785 47.2453 197.756C47.5573 198.709 47.7133 199.741 47.7133 200.85ZM37.7553 200.876C37.7553 202.956 38.0673 204.507 38.6913 205.53C38.986 205.981 39.3327 206.327 39.7313 206.57C40.1473 206.795 40.6847 206.908 41.3433 206.908C42.5393 206.908 43.432 206.501 44.0213 205.686C44.3333 205.235 44.5587 204.611 44.6973 203.814C44.8533 203.017 44.9313 202.098 44.9313 201.058C44.9313 198.995 44.6193 197.453 43.9953 196.43C43.7007 195.979 43.3453 195.641 42.9293 195.416C42.5133 195.173 41.976 195.052 41.3173 195.052C40.104 195.052 39.2287 195.451 38.6913 196.248C38.0673 197.219 37.7553 198.761 37.7553 200.876ZM53.9282 201.318C53.9282 201.873 53.9368 202.358 53.9542 202.774C53.9715 203.19 53.9888 203.545 54.0062 203.84C54.0408 204.135 54.0842 204.386 54.1362 204.594C54.1882 204.802 54.2575 204.984 54.3442 205.14C54.7428 205.989 55.4708 206.414 56.5282 206.414C56.9962 206.414 57.4468 206.327 57.8802 206.154C58.3135 205.981 58.6948 205.747 59.0242 205.452C59.4055 205.105 59.6828 204.707 59.8562 204.256C60.0468 203.788 60.1595 203.19 60.1942 202.462V195.52L57.9322 195.026V193.96H62.7162V206.44L64.7182 206.934V208L60.6882 208.26L60.4022 205.4H60.2982C59.7955 206.284 59.1108 206.986 58.2442 207.506C57.3775 208.009 56.4502 208.26 55.4622 208.26C54.8035 208.26 54.1968 208.139 53.6422 207.896C53.1048 207.653 52.6802 207.307 52.3682 206.856C52.0215 206.371 51.7702 205.695 51.6142 204.828C51.4755 203.944 51.4062 202.757 51.4062 201.266V195.52L49.6642 195.026V193.96H53.9282V201.318ZM74.1253 195.468C73.9693 195.364 73.7959 195.312 73.6053 195.312C73.2759 195.312 72.9293 195.52 72.5653 195.936C72.2013 196.335 71.8806 196.846 71.6033 197.47C71.3606 198.059 71.1699 198.709 71.0313 199.42C70.8926 200.113 70.8233 200.833 70.8233 201.578V206.44L73.6313 206.934V208H66.2993V206.934L68.3013 206.44V195.52L66.2993 195.026V193.96H70.0433L70.6153 197.392H70.7193C71.1179 196.213 71.6466 195.303 72.3053 194.662C72.9813 194.021 73.7353 193.7 74.5673 193.7C75.2433 193.7 75.8066 193.917 76.2573 194.35C76.7079 194.766 76.9333 195.329 76.9333 196.04C76.9333 196.56 76.7946 196.976 76.5173 197.288C76.2573 197.583 75.9019 197.73 75.4513 197.73C75.0006 197.73 74.6453 197.591 74.3853 197.314C74.1253 197.019 73.9953 196.638 73.9953 196.17C73.9953 196.066 74.0039 195.971 74.0213 195.884C74.0386 195.797 74.0733 195.659 74.1253 195.468ZM97.7191 200.85C97.7191 201.994 97.5544 203.069 97.2251 204.074C96.8957 205.062 96.4364 205.894 95.8471 206.57C94.8764 207.697 93.4811 208.26 91.6611 208.26C90.7771 208.26 89.9884 208.061 89.2951 207.662C88.6017 207.246 87.9864 206.483 87.4491 205.374L86.6691 208H85.4471V189.28L83.4451 188.786V187.72H87.9691V195.468C88.4891 194.809 89.0697 194.35 89.7111 194.09C90.3524 193.83 91.0717 193.7 91.8691 193.7C92.7531 193.7 93.5504 193.83 94.2611 194.09C94.9891 194.35 95.5784 194.766 96.0291 195.338C96.5664 195.997 96.9824 196.803 97.2771 197.756C97.5717 198.709 97.7191 199.741 97.7191 200.85ZM87.9691 200.876C87.9691 203.008 88.2724 204.559 88.8791 205.53C89.1564 205.981 89.4944 206.327 89.8931 206.57C90.2917 206.795 90.8204 206.908 91.4791 206.908C92.6577 206.908 93.5331 206.501 94.1051 205.686C94.4171 205.235 94.6424 204.611 94.7811 203.814C94.9197 203.017 94.9891 202.098 94.9891 201.058C94.9891 198.978 94.6857 197.435 94.0791 196.43C93.7844 195.979 93.4377 195.641 93.0391 195.416C92.6404 195.173 92.1117 195.052 91.4531 195.052C90.8464 195.052 90.3264 195.156 89.8931 195.364C89.4597 195.555 89.1217 195.849 88.8791 196.248C88.5844 196.733 88.3591 197.366 88.2031 198.146C88.0471 198.909 87.9691 199.819 87.9691 200.876ZM112.84 200.85C112.84 201.994 112.667 203.069 112.32 204.074C111.991 205.079 111.523 205.911 110.916 206.57C109.894 207.697 108.386 208.26 106.392 208.26C104.451 208.26 102.969 207.714 101.946 206.622C101.357 205.981 100.898 205.192 100.568 204.256C100.256 203.303 100.1 202.271 100.1 201.162C100.1 200.018 100.265 198.935 100.594 197.912C100.924 196.889 101.4 196.049 102.024 195.39C102.579 194.801 103.22 194.376 103.948 194.116C104.676 193.839 105.526 193.7 106.496 193.7C107.45 193.7 108.308 193.839 109.07 194.116C109.833 194.376 110.474 194.783 110.994 195.338C111.601 195.979 112.06 196.785 112.372 197.756C112.684 198.709 112.84 199.741 112.84 200.85ZM102.882 200.876C102.882 202.956 103.194 204.507 103.818 205.53C104.113 205.981 104.46 206.327 104.858 206.57C105.274 206.795 105.812 206.908 106.47 206.908C107.666 206.908 108.559 206.501 109.148 205.686C109.46 205.235 109.686 204.611 109.824 203.814C109.98 203.017 110.058 202.098 110.058 201.058C110.058 198.995 109.746 197.453 109.122 196.43C108.828 195.979 108.472 195.641 108.056 195.416C107.64 195.173 107.103 195.052 106.444 195.052C105.231 195.052 104.356 195.451 103.818 196.248C103.194 197.219 102.882 198.761 102.882 200.876ZM121.509 199.654L124.551 195.52L122.991 195.026V193.96H127.879V195.026L126.397 195.52L122.185 200.538L126.787 206.466L128.217 206.934V208H122.523V206.934L124.005 206.44L120.651 202.124L117.427 206.44L118.987 206.934V208H114.099V206.934L115.555 206.44L119.975 201.24L115.555 195.52L114.099 195.026V193.96H119.481V195.026L118.337 195.52L121.509 199.654ZM130.017 206.622C130.017 206.102 130.164 205.695 130.459 205.4C130.754 205.088 131.152 204.932 131.655 204.932C132.158 204.932 132.556 205.088 132.851 205.4C133.163 205.712 133.319 206.119 133.319 206.622C133.319 207.125 133.163 207.523 132.851 207.818C132.556 208.113 132.158 208.26 131.655 208.26C131.135 208.26 130.728 208.121 130.433 207.844C130.156 207.549 130.017 207.142 130.017 206.622Z" fill="black"/>
<path fill-rule="evenodd" clip-rule="evenodd" d="M189.015 163.122C190.39 159.223 191.654 157.57 194.095 156.215C196.379 154.948 199.713 153.883 204.578 153.105C209.645 152.458 209.789 150.532 211.059 147.436C211.43 146.506 213.266 146.258 214.059 146.929C214.171 146.841 214.287 146.76 214.408 146.687C214.3 146.243 215.184 144.971 215.154 144.547C214.846 140.116 216.828 137.891 221.774 137.064C222.85 136.884 230.157 136.778 231.205 136.99C235.791 137.917 240.305 140.861 239.614 144.406C241.053 145.782 242.462 146.622 244.682 147.065C248.141 147.386 246.403 183.214 240.398 204.679C237.821 213.888 176.205 198.213 178.989 193.601C178.594 192.755 179.314 191.826 178.989 190.953C178.754 190.321 178.152 190.06 177.85 189.434C177.423 188.553 177.887 187.372 178.367 186.474C178.563 186.026 178.005 185.544 177.85 185.087C177.113 182.932 178.799 183.122 180.015 181.681C179.997 181.677 179.681 180.648 179.682 180.654C179.496 179.919 179.962 178.979 180.369 178.366C180.644 177.951 181.233 177.692 181.818 177.74C181.228 176.277 180.483 175.06 179.682 173.65C178.265 171.166 176.917 168.568 174.882 166.319C174.049 165.398 174.722 164.551 176.071 164.489C180.435 164.286 184.753 163.826 189.015 163.122Z" fill="#D08B5B"/>
<path fill-rule="evenodd" clip-rule="evenodd" d="M195.829 163.423L205.792 175.755C205.792 175.755 203.429 175.928 202.472 176.264C201.516 176.6 197.124 180.684 197.124 180.684L196.426 182.932L198.079 184.745L197.434 185.883C197.434 185.883 196.974 185.112 195.829 184.514C194.683 183.915 192.157 182.932 192.157 182.932C192.157 182.932 192.997 182.604 192.997 182.218C192.997 181.832 193.736 180.187 192.157 179.566C190.578 178.944 182.419 177.49 182.419 177.49L174.15 164.733L195.829 163.423Z" fill="#FDEA6B"/>
<path fill-rule="evenodd" clip-rule="evenodd" d="M240.276 147.149L208.638 151.209L194.095 156.215L191.721 157.553L205.792 175.755L227.519 178.655L233.054 189.17L231.925 201.023L196.58 197.941L181.333 196.616L177.749 207.198L178.397 211.551L179.339 213.758L217.135 221.221C217.135 221.221 236.381 219.857 239.793 219.857C243.205 219.857 268.219 221.674 268.219 221.674L274.007 221.221C274.007 221.221 286.812 211.351 288.798 207.838C290.784 204.325 295.079 182.971 295.079 182.971L294.606 179.69L283.542 158.867C283.542 158.867 282.065 157.886 280.203 156.215C278.34 154.545 240.276 147.149 240.276 147.149Z" fill="black"/>
<path fill-rule="evenodd" clip-rule="evenodd" d="M183.016 177.227C185.875 177.333 188.737 177.831 191.323 178.731C192.381 179.1 193.34 179.633 193.621 180.51C193.763 180.958 193.728 181.42 193.653 181.872C193.596 182.215 193.582 182.652 193.175 182.884C193.105 182.923 193.031 182.953 192.954 182.975C193.908 183.29 194.817 183.668 195.624 184.058C196.362 184.415 197.12 184.964 197.461 185.583C197.489 185.513 197.518 185.447 197.546 185.385C198.127 184.13 199.021 183.102 200.429 182.411C200.589 181.985 202.305 180.15 203.899 180.219C205.645 180.294 207.049 180.388 208.628 180.975C209.204 180.966 209.778 180.971 210.345 180.99C210.443 180.992 210.438 181.089 210.345 181.097C209.885 181.14 209.424 181.187 208.964 181.242C207.869 181.371 206.778 181.533 205.711 181.735C204.43 181.977 203.105 182.221 201.908 182.644C199.587 183.467 198.15 185.617 198.445 187.488C198.494 187.794 198.656 188.722 199.238 188.626C199.73 188.545 199.926 187.794 200.098 187.516C200.558 186.778 201.388 186.296 202.383 185.97C203.551 185.585 204.802 185.326 206.013 185.024C206.699 184.852 207.385 184.68 208.073 184.509C208.776 184.333 209.445 184.089 210.194 184.213C210.646 184.288 210.699 184.682 210.445 184.908C210.058 185.253 209.484 185.355 208.928 185.497C208.193 185.683 207.459 185.87 206.726 186.057C205.592 186.346 204.405 186.589 203.299 186.942L203.334 187C203.424 186.981 203.53 187.047 203.512 187.128C203.346 187.874 203.116 188.737 203.372 189.484C203.574 190.077 204.285 190.734 205.209 190.559C205.064 190.462 205.01 190.295 205.108 190.141C205.474 189.568 210.268 187.31 210.695 188.149C210.71 188.178 210.666 188.2 210.631 188.196C210.266 188.14 209.656 188.595 209.365 188.739C208.943 188.947 208.516 189.15 208.1 189.363C207.644 189.596 207.199 189.841 206.765 190.093C206.425 190.292 206.168 190.498 205.777 190.599C205.982 190.67 206.144 190.803 206.213 190.972C206.39 191.414 206.731 191.789 207.322 191.984C207.942 192.187 208.641 192.059 209.293 192.109C210.183 192.174 210.959 192.483 211.607 192.925C212.968 193.855 213.651 195.493 215.554 195.932C216.691 196.194 217.953 196.029 219.104 195.91C220.389 195.778 221.641 195.673 222.936 195.811C224.176 195.944 225.347 196.258 226.48 196.641C227.541 196.999 228.714 197.405 229.656 197.941C229.85 197.503 230.045 197.071 230.194 196.624C230.544 195.569 230.733 194.494 230.779 193.41C230.821 192.377 230.742 191.34 230.621 190.312C230.561 189.799 230.466 189.288 230.407 188.775C230.391 188.646 230.359 188.507 230.336 188.369C228.654 187.643 226.888 187.087 225.108 186.515C225.103 186.514 225.098 186.512 225.094 186.511C225.038 186.492 224.985 186.475 224.93 186.458C224.931 186.455 224.933 186.453 224.936 186.451C224.732 186.36 224.59 186.238 224.505 186.102C221.939 184.858 219.795 183.159 218.196 181.177C217.525 180.346 216.88 179.485 216.004 178.757C215.07 177.98 213.961 177.519 212.589 177.279C210.986 176.998 209.333 176.829 207.69 176.733C206.792 176.682 205.789 176.601 204.812 176.604C204.13 176.608 203.463 176.65 202.851 176.774C201.944 176.956 201.415 177.46 200.845 177.97C200.301 178.459 199.76 178.949 199.253 179.459C198.772 179.942 198.317 180.442 197.923 180.966C197.687 181.279 197.467 181.602 197.283 181.936C197.218 182.053 197.133 182.187 197.094 182.309C197.054 182.433 197.127 182.563 196.937 182.563C197.718 182.571 198.237 183.995 197.461 183.962C196.37 183.915 195.822 182.959 196.035 182.11C196.417 180.596 198.476 178.767 198.884 178.379C199.784 177.524 200.713 176.407 202.154 176.009C202.175 176.003 202.197 175.998 202.217 175.993C201.798 175.702 201.467 175.354 201.15 175C200.823 174.635 200.434 174.218 200.326 173.785C200.259 173.509 200.727 173.352 200.949 173.594C201.273 173.945 201.429 174.391 201.67 174.777C201.916 175.169 202.216 175.54 202.452 175.935C203.022 175.807 203.637 175.748 204.263 175.729C203.473 174.947 202.123 173.438 201.96 173.244C201.213 172.347 200.502 171.422 199.822 170.495C199.087 169.492 198.458 168.447 197.754 167.432C197.355 166.856 196.953 166.276 196.51 165.717C196.357 165.526 196.193 165.334 196.007 165.16C195.971 165.126 195.925 165.097 195.882 165.065C195.834 165.045 195.783 165.023 195.755 165.012C195.499 164.904 195.409 164.655 195.23 164.497C194.943 164.242 194.605 164.212 194.173 164.209C193.252 164.202 192.328 164.228 191.408 164.247C190.057 164.274 188.707 164.314 187.357 164.366C186.949 164.382 186.542 164.398 186.133 164.416C184.17 164.502 182.208 164.614 180.251 164.751C178.519 164.872 176.788 165.069 175.055 165.164C177.401 169.242 180.003 173.245 182.949 177.11C182.979 177.149 183.002 177.188 183.016 177.227ZM196.035 187.732C196.414 187.859 196.781 188.017 197.124 188.197C197.067 187.917 197.053 187.621 197.068 187.325C196.786 187.546 196.425 187.673 196.035 187.732ZM179.879 180.718C179.906 180.72 179.931 180.73 179.944 180.75C180.467 181.54 180.248 182.423 179.393 183.042C178.945 183.365 177.969 183.729 178.001 184.26C178.028 184.689 178.666 185.049 178.939 185.403C179.193 185.733 179.288 186.095 179.084 186.453C178.824 186.911 178.097 187.093 177.848 187.543C177.532 188.114 178.045 188.803 178.404 189.3C178.739 189.76 179.171 190.22 179.458 190.707C181.38 191.435 185.742 192.757 186.268 192.831C186.908 192.922 187.549 193.008 188.193 193.089C189.428 193.246 190.666 193.391 191.907 193.519C192.613 193.592 193.321 193.663 194.029 193.72C194.648 193.768 195.345 193.834 195.843 193.494C196.848 192.806 196.285 191.654 195.649 190.96C195.636 190.946 195.636 190.933 195.641 190.922C195.042 190.819 194.444 190.699 193.848 190.615C192.702 190.453 191.547 190.317 190.391 190.196C188.016 189.948 185.626 189.784 183.238 189.619C182.647 189.578 182.64 188.897 183.238 188.938C186.668 189.167 190.115 189.385 193.5 189.869C194.348 189.988 195.19 190.124 196.028 190.278C196.423 190.35 196.848 190.461 197.262 190.465C197.288 190.465 197.313 190.465 197.338 190.464C198.15 190.445 198.268 189.937 197.822 189.513C197.767 189.461 197.71 189.409 197.652 189.36C196.863 188.672 195.881 188.213 194.869 187.738C193.735 187.625 192.604 187.373 191.494 187.189C188.753 186.732 186.012 186.275 183.269 185.82C182.732 185.73 182.96 185.125 183.498 185.214C185.58 185.559 187.661 185.904 189.743 186.249L192.79 186.754C193.399 186.854 194.159 187.056 194.875 187.129C195.228 187.165 195.57 187.169 195.879 187.116C196.878 186.943 196.928 186.031 196.497 185.489C196.015 184.88 195.103 184.499 194.294 184.154C192.892 183.555 191.401 183.125 189.943 182.629C189.685 182.587 189.426 182.546 189.168 182.504C187.663 182.262 185.944 182.143 184.528 181.699C184.104 181.568 184.336 181.079 184.755 181.086C185.854 181.103 187.004 181.389 188.078 181.559C189.24 181.743 190.404 181.927 191.566 182.11C191.683 182.128 192.374 182.29 192.478 182.254C192.544 182.231 192.568 182.063 192.59 181.952C192.661 181.587 192.713 181.205 192.635 180.839C192.465 180.019 191.53 179.633 190.584 179.318C188.477 178.618 186.166 178.18 183.867 178.005C183.337 177.964 182.807 177.939 182.274 177.926C181.648 177.912 181.133 177.832 180.816 178.283C180.317 178.993 180.043 179.907 179.879 180.718ZM182.805 206.481C183.264 205.319 183.139 204.079 183.454 202.895C183.616 202.284 183.837 201.677 184.079 201.081C184.275 200.599 184.6 200.086 184.637 199.583C184.639 199.55 184.585 199.53 184.548 199.546C183.9 199.817 183.403 200.404 183.034 200.864C182.591 201.415 182.254 201.991 181.981 202.598C181.439 203.806 180.993 205.263 181.693 206.481C181.901 206.843 182.633 206.916 182.805 206.481ZM200.721 215.272C201.405 214.923 201.904 214.435 202.484 214.004C203.054 213.58 202.162 212.928 201.592 213.352C201.097 213.719 200.667 214.178 200.084 214.475C199.804 214.618 199.674 214.877 199.858 215.107C200.02 215.31 200.441 215.415 200.721 215.272ZM204.536 201.851C203.287 201.457 202.059 201.026 200.752 200.742C199.971 200.572 199.64 201.463 200.417 201.632C201.62 201.894 202.749 202.285 203.899 202.648C204.638 202.882 205.279 202.086 204.536 201.851ZM217.725 201.575C218.03 201.024 216.809 200.786 216.508 201.33C216.162 201.955 215.765 202.565 215.418 203.19C215.113 203.741 216.334 203.979 216.635 203.435C216.981 202.81 217.378 202.201 217.725 201.575ZM230.742 212.582C230.946 212.78 231.285 212.888 231.605 212.747C231.874 212.63 232.038 212.317 231.832 212.116C231.23 211.53 230.621 210.951 229.916 210.428C229.345 210.004 228.453 210.657 229.024 211.081C229.654 211.547 230.205 212.058 230.742 212.582ZM232.604 150.824C232.025 151.113 231.517 151.465 231.022 151.827C230.447 152.247 231.34 152.899 231.915 152.479C232.332 152.174 232.752 151.865 233.24 151.621C233.523 151.48 233.649 151.218 233.467 150.99C233.303 150.785 232.885 150.684 232.604 150.824ZM213.665 165.674C213.992 166.153 214.287 166.624 214.306 167.169C214.326 167.762 215.587 167.763 215.567 167.169C215.543 166.455 215.184 165.837 214.754 165.208C214.391 164.676 213.304 165.144 213.665 165.674ZM206.716 153.748C206.038 153.417 205.407 154.217 206.079 154.544C206.624 154.81 207.17 155.076 207.715 155.342C208.393 155.672 209.024 154.873 208.351 154.545C207.806 154.279 207.261 154.013 206.716 153.748ZM236.856 174.6C236.971 175.186 238.187 174.935 238.072 174.355C237.895 173.457 237.678 172.571 237.345 171.697C237.127 171.125 235.911 171.369 236.129 171.942C236.462 172.816 236.678 173.702 236.856 174.6ZM241.279 185.171C242.091 185.158 242.091 184.235 241.279 184.248C240.544 184.259 239.822 184.401 239.113 184.53C238.324 184.674 238.66 185.564 239.448 185.42C240.047 185.31 240.658 185.18 241.279 185.171ZM242.912 206.464C243.191 206.564 243.477 206.653 243.759 206.747C244.324 206.936 244.888 207.125 245.452 207.315C246.628 207.709 247.803 208.105 248.977 208.503C251.326 209.298 253.694 210.066 256.05 210.853C258.452 211.655 260.847 212.469 263.24 213.286C264.367 213.671 265.503 214.042 266.636 214.417C267.606 214.737 268.804 215.297 269.868 215.35C269.922 215.353 269.941 215.302 269.91 215.276C269.508 214.942 268.866 214.747 268.338 214.53C267.798 214.308 267.249 214.099 266.701 213.887C265.561 213.445 264.418 213.006 263.266 212.58C260.962 211.727 258.654 210.88 256.345 210.035C253.99 209.172 251.639 208.304 249.263 207.472C248.145 207.081 247.025 206.69 245.905 206.301C245.298 206.09 244.691 205.879 244.084 205.669C243.822 205.578 243.562 205.48 243.294 205.399C242.938 205.291 242.667 205.313 242.299 205.247C241.7 205.139 241.441 205.696 241.901 205.939C242.28 206.139 242.479 206.31 242.912 206.464ZM251.334 215.927C251.464 215.696 251.193 215.417 250.894 215.359C250.535 215.29 250.248 215.449 250.117 215.681C249.772 216.297 249.279 216.861 248.645 217.338C248.078 217.764 248.97 218.417 249.537 217.991C250.332 217.393 250.903 216.694 251.334 215.927ZM257.53 201.114C258.106 200.694 257.213 200.041 256.638 200.462L255.003 201.658C254.428 202.078 255.321 202.731 255.895 202.31L257.53 201.114ZM274.305 199.164C275.481 199.417 276.852 199.648 277.653 200.382C277.692 200.418 277.758 200.372 277.735 200.336C276.709 198.78 273.766 198.235 271.729 197.69C270.288 197.304 268.81 196.984 267.319 196.699C267.468 195.454 267.057 194.121 266.914 192.883C266.761 191.562 266.637 190.236 266.573 188.911C266.508 187.558 266.493 186.196 266.553 184.844C266.614 183.496 266.853 182.164 266.958 180.821C266.968 180.691 266.721 180.685 266.667 180.792C266.048 182.039 265.784 183.42 265.582 184.734C265.375 186.088 265.306 187.438 265.332 188.8C265.36 190.201 265.471 191.598 265.624 192.994C265.696 193.655 265.78 194.316 265.86 194.977C265.92 195.482 265.948 195.982 266.089 196.471C265.19 196.309 264.289 196.157 263.39 196.008C260.525 195.535 257.649 195.097 254.796 194.585C253.395 194.334 252.015 194.034 250.621 193.767C249.308 193.515 247.923 193.211 246.575 193.099C246.094 193.058 246.033 193.54 246.351 193.703C247.446 194.266 248.901 194.657 250.167 194.972C251.436 195.288 252.756 195.515 254.058 195.75C256.772 196.238 259.512 196.637 262.248 197.053C264.98 197.468 267.717 197.881 270.418 198.393C271.719 198.64 273.016 198.888 274.305 199.164ZM280.747 174.477C281.449 174.778 282.083 173.981 281.383 173.68C280.468 173.287 279.492 172.991 278.508 172.703C277.753 172.482 277.428 173.375 278.172 173.593C279.057 173.852 279.924 174.124 280.747 174.477ZM283.29 208.761C283.994 209.059 284.629 208.262 283.927 207.964C282.941 207.546 281.86 207.267 280.838 206.901C280.111 206.64 279.473 207.437 280.202 207.698C281.224 208.064 282.304 208.343 283.29 208.761ZM284.434 189.3C283.753 189.773 282.844 189.996 281.987 190.244C281.24 190.461 281.568 191.353 282.323 191.134C283.39 190.824 284.478 190.541 285.326 189.952C285.916 189.542 285.023 188.891 284.434 189.3ZM276.901 162.87C276.152 163.085 276.48 163.977 277.236 163.76C278.075 163.519 278.941 163.336 279.779 163.095C280.528 162.881 280.2 161.989 279.444 162.206C278.605 162.446 277.739 162.629 276.901 162.87ZM263.611 152.372C262.815 152.274 262.476 153.163 263.275 153.262C264.266 153.384 265.242 153.528 266.182 153.794C266.941 154.008 267.267 153.116 266.517 152.904C265.577 152.638 264.601 152.494 263.611 152.372ZM259.219 177.932C259.949 177.669 259.309 176.874 258.583 177.135C257.818 177.41 257.025 177.623 256.19 177.753C255.395 177.877 255.734 178.766 256.525 178.643C257.465 178.496 258.359 178.241 259.219 177.932ZM255.072 163.534C254.287 163.377 253.955 164.267 254.737 164.424C256.113 164.7 257.529 164.843 258.915 165.089C259.705 165.228 260.039 164.338 259.251 164.199C257.865 163.953 256.448 163.81 255.072 163.534ZM237.478 159.016C236.679 159.124 237.02 160.014 237.813 159.906C238.658 159.792 239.514 159.79 240.371 159.79C241.184 159.789 241.182 158.867 240.371 158.867C239.398 158.867 238.437 158.886 237.478 159.016ZM180.097 163.837C182.158 163.693 184.222 163.578 186.289 163.491C186.386 163.488 186.48 163.483 186.577 163.48C186.588 163.464 186.602 163.449 186.616 163.432C187.291 162.708 187.788 161.984 188.218 161.165C188.63 160.385 189.029 159.581 189.663 158.877C190.386 158.076 191.362 157.448 192.432 156.905C193.081 157.224 193.683 157.598 194.234 157.994C194.814 158.41 195.706 157.758 195.126 157.341C194.636 156.989 194.114 156.664 193.561 156.37C194.199 156.087 194.85 155.82 195.485 155.555C197.865 154.562 200.301 153.644 202.788 152.804C203.944 152.413 205.114 152.066 206.292 151.714C206.926 151.525 207.552 151.281 208.186 151.062C208.141 150.735 208.275 150.368 208.618 150.152C208.872 149.994 209.069 149.935 209.372 149.823C209.44 149.806 209.481 149.796 209.5 149.79C209.486 149.792 209.445 149.801 209.377 149.818C209.216 149.872 209.204 149.856 209.339 149.77C209.347 149.583 209.85 149.189 209.965 148.996C210.366 148.335 210.49 147.636 211.082 147.034C211.897 146.205 213.266 145.891 214.542 146.172C214.674 145.175 214.709 144.133 215.223 143.243C215.237 143.218 215.283 143.208 215.303 143.234C215.84 143.902 215.885 144.646 215.926 145.417C215.966 146.14 215.928 146.88 215.799 147.598C215.881 147.644 215.964 147.688 216.051 147.731C216.458 147.927 216.896 148.078 217.357 148.19C218.234 148.402 219.153 148.494 220.072 148.527C222.446 148.61 224.892 148.434 227.226 148.137C229.586 147.836 233.206 147.384 235.306 146.52C236.693 145.95 237.971 145.254 239.268 144.581C238.798 143.473 238.678 142.283 239.151 141.347C239.208 141.235 239.448 141.215 239.493 141.347C239.79 142.24 239.876 143.138 240.271 144.02C240.277 144.033 240.283 144.047 240.29 144.059C240.413 143.998 240.536 143.938 240.659 143.878C240.943 143.741 241.329 143.844 241.499 144.04C244.223 147.178 248.536 147.358 253.065 147.919C258.022 148.533 263.003 149.195 267.769 150.395C272.327 151.544 276.682 153.217 280.133 155.716C280.914 156.281 281.645 156.884 282.334 157.513C281.667 157.575 281.005 157.67 280.352 157.82C279.579 157.998 279.911 158.889 280.688 158.71C281.527 158.517 282.376 158.422 283.233 158.374C285.578 160.72 287.406 163.381 288.986 165.999C292.019 171.019 293.992 176.365 294.9 181.808C294.402 181.59 293.894 181.382 293.374 181.188C292.651 180.919 292.013 181.715 292.737 181.985C293.541 182.284 294.321 182.613 295.078 182.971C295.408 185.353 295.536 187.751 295.458 190.145C295.274 195.853 294.221 201.728 291.838 207.173C290.669 209.846 289.12 212.497 286.813 214.755C285.769 215.778 284.583 216.701 283.186 217.471C282.51 217.844 281.794 218.178 281.038 218.459C280.065 218.824 278.797 218.944 277.958 219.459C277.682 219.629 277.469 219.853 277.309 220.105C277.402 220.585 277.413 221.066 277.233 221.546C277.176 221.696 277.022 221.818 276.831 221.877C276.828 221.919 276.828 221.959 276.828 221.998C276.828 222.017 276.79 222.021 276.785 222.003C276.777 221.967 276.769 221.931 276.761 221.894C276.7 221.909 276.635 221.916 276.569 221.916C274.173 221.923 271.775 221.88 269.376 221.821C269.562 221.405 269.763 220.993 269.956 220.577C270.218 220.013 268.999 219.773 268.739 220.332C268.513 220.818 268.277 221.3 268.068 221.787C265.497 221.717 262.928 221.633 260.364 221.571C254.909 221.439 249.455 221.395 243.999 221.311C235.526 221.179 226.99 220.91 218.504 221.173C218.21 220.718 217.882 220.273 217.57 219.823C217.203 219.293 216.115 219.76 216.481 220.289C216.697 220.601 216.922 220.91 217.135 221.221C215.416 221.287 213.699 221.373 211.986 221.491C209.062 221.691 206.166 222.048 203.246 222.269C200.276 222.495 197.371 222.455 194.425 222.096C193.895 222.032 193.583 221.797 193.454 221.507C193.449 221.506 193.446 221.503 193.443 221.5C193.292 221.371 193.149 221.263 193.003 221.17C192.828 221.087 192.639 221.016 192.416 220.954C192.001 220.839 191.569 220.768 191.131 220.721C190.648 220.668 190.159 220.663 189.677 220.62C189.27 220.582 188.873 220.525 188.475 220.456C187.761 220.331 187.083 220.169 186.408 219.953C185.819 219.765 185.288 219.495 184.787 219.201C183.749 218.646 182.85 217.938 182.065 217.202C181.607 216.772 181.177 216.325 180.786 215.86C180.104 215.055 179.524 214.219 178.937 213.376C178.725 213.126 178.53 212.87 178.353 212.609C179.499 212.362 180.657 212.16 181.872 212.146C182.685 212.136 182.684 211.214 181.872 211.223C180.478 211.239 179.16 211.478 177.85 211.761C177.786 211.637 177.725 211.512 177.668 211.386C177.512 211.122 177.382 210.851 177.275 210.576C177.212 210.452 177.149 210.327 177.086 210.202C176.944 209.771 176.802 209.338 176.659 208.906C176.373 208.214 176.148 207.511 175.982 206.8C175.843 206.331 175.736 205.859 175.664 205.382C175.443 204.225 175.263 203.07 175.25 201.901C175.269 201.18 175.332 200.46 175.44 199.744C175.485 199.257 175.563 198.772 175.667 198.291C175.802 197.576 175.936 196.868 176.162 196.162C176.331 195.684 176.499 195.207 176.668 194.729C177.089 193.734 177.586 192.758 178.159 191.804C178.19 191.744 178.349 191.612 178.445 191.611C178.518 191.61 178.619 191.659 178.586 191.723C178.583 191.729 178.58 191.736 178.576 191.742C178.609 191.687 178.641 191.632 178.674 191.578C178.702 191.527 178.813 191.426 178.898 191.427C178.903 191.427 178.908 191.427 178.914 191.428C178.892 191.416 178.871 191.401 178.851 191.384C178.285 190.894 177.917 190.249 177.512 189.682C177.176 189.213 176.859 188.719 176.767 188.19C176.687 187.725 176.796 187.267 177.195 186.891C177.649 186.463 178.504 186.263 178.029 185.644C177.49 184.941 176.696 184.33 177.487 183.531C177.889 183.124 178.526 182.9 178.999 182.546C179.543 182.136 179.802 181.589 179.787 181.029C179.754 181.043 179.71 181.036 179.694 181.001C179.237 179.991 179.568 178.881 180.037 177.897C180.292 177.363 180.833 177.217 181.462 177.19C178.737 173.297 176.187 169.342 173.915 165.295C173.839 165.163 173.765 165.03 173.691 164.897C173.58 164.699 173.814 164.435 174.083 164.391C176.048 164.076 178.095 163.976 180.097 163.837Z" fill="#78E185"/>
<path fill-rule="evenodd" clip-rule="evenodd" d="M199.055 108.934C200.425 104.736 205.658 102.905 210.371 102.614C223.133 101.488 236.122 107.529 241.78 117.326C246.308 124.764 246.45 132.579 236.715 136.826C236.184 137.075 235.629 137.341 235.062 137.583C234.569 137.972 234.062 138.345 233.508 138.659C228.207 141.619 221.701 142.9 215.396 142.622C206.087 142.463 202.763 137.098 200.73 130.218C198.585 123.369 197.385 115.937 199.055 108.934V108.934Z" fill="#D08B5B"/>
<path fill-rule="evenodd" clip-rule="evenodd" d="M215.763 135.593C216.362 135.121 216.835 134.479 217.109 133.748C217.205 133.494 217.183 133.259 217.095 133.063C216.996 132.843 216.808 132.67 216.59 132.579C216.372 132.487 216.129 132.48 215.921 132.574C215.741 132.657 215.582 132.815 215.494 133.078L215.475 133.131C215.313 133.571 215.054 133.967 214.718 134.268C214.393 134.558 213.997 134.76 213.549 134.828C212.695 134.957 211.998 134.649 211.219 134.184C211.122 134.125 211.025 134.063 210.926 134C210.858 133.938 210.778 133.907 210.698 133.902C210.608 133.896 210.517 133.923 210.44 133.976C210.367 134.028 210.309 134.104 210.281 134.192C210.253 134.275 210.251 134.37 210.287 134.468C210.521 135.107 211.01 135.6 211.603 135.93C212.261 136.297 213.046 136.461 213.728 136.407C214.479 136.348 215.18 136.052 215.763 135.593V135.593ZM210.571 126.176C209.942 126.863 209.089 128.297 210.232 129.262C211.48 130.047 212.537 128.467 213.072 127.737C213.59 127.143 214.597 128.032 214.144 128.684C210.246 133.821 206.357 127.462 210.033 125.718C210.437 125.526 210.73 125.974 210.571 126.176ZM218.207 119.353C217.828 118.295 216.174 118.483 216.308 119.596C216.429 120.593 216.836 121.428 217.487 122.177C218.11 122.893 219.004 122.235 218.875 121.464C218.701 120.43 218.443 120.011 218.207 119.353ZM205.994 122.175C205.691 121.935 205.315 121.817 204.964 122.037C203.867 122.726 204.701 124.392 205.355 125.135C205.711 125.538 206.481 125.455 206.702 124.954C207.063 124.136 206.958 122.73 206.087 122.26C206.059 122.231 206.029 122.202 205.994 122.175ZM215.544 114.996L215.345 115.013C214.732 115.068 213.978 115.166 213.698 115.766C213.549 116.084 213.605 116.586 213.967 116.753C214.605 117.046 215.132 116.721 215.763 116.588C216.283 116.479 216.8 116.432 217.333 116.444C218.502 116.469 219.544 116.814 220.644 117.205C220.788 117.256 220.868 117.061 220.778 116.959C219.948 116.021 218.671 115.413 217.488 115.153C216.856 115.014 216.185 114.939 215.544 114.996ZM205.79 117.138L205.654 117.209C204.173 117.98 202.315 119.22 202.008 121.027C202.042 121.262 202.085 121.302 202.118 121.327L202.129 121.336C202.157 121.357 202.183 121.39 202.286 121.395C202.311 121.382 202.335 121.368 202.36 121.353C202.676 121.167 202.912 120.965 203.137 120.761L203.381 120.538C203.664 120.281 203.952 120.029 204.272 119.814C204.953 119.354 205.677 118.964 206.435 118.654C206.599 118.587 206.747 118.483 206.848 118.346C206.944 118.215 207.001 118.056 206.995 117.866C206.987 117.62 206.924 117.45 206.748 117.274C206.615 117.142 206.457 117.069 206.293 117.047C206.126 117.025 205.95 117.057 205.79 117.138Z" fill="black"/>
<path fill-rule="evenodd" clip-rule="evenodd" d="M193.992 151.013C194.365 149.875 194.85 148.764 195.299 147.644C195.377 147.094 195.419 146.541 195.407 145.987C195.37 144.006 194.826 142.036 194.233 140.138C193.027 136.28 191.764 132.465 191.018 128.51C189.686 121.435 189.844 113.994 193.307 107.28C196.307 101.465 201.66 96.5508 208.806 94.4297C210.918 93.8024 213.105 93.4007 215.317 93.1674C215.59 93.1154 215.862 93.0642 216.133 93.0144C219.196 92.4514 222.308 92.0845 225.435 92.0849C230.621 92.0857 235.812 93.0685 240.255 95.3297C244.727 97.6066 248 100.962 249.667 105.182C251.402 109.572 251.539 114.421 254.343 118.473C255.171 119.67 256.123 120.799 257.035 121.95C259.398 123.956 261.967 126.19 262.661 129.089C263.518 132.671 261.233 135.862 259.067 138.812C257.109 141.476 254.455 145.152 256.784 148.173C257.883 149.598 259.574 150.618 260.873 151.901C262.219 153.234 263.298 154.789 263.904 156.481C265.042 159.659 264.341 163.074 261.905 165.739C260.636 167.126 258.962 168.089 257.136 168.868C255.266 169.664 253.439 170.422 251.926 171.686C251.235 172.263 250.607 172.888 250.017 173.54C249.478 174.343 248.841 175.102 248.113 175.804C247.313 176.576 245.613 175.671 246.338 174.773C246.391 174.707 246.444 174.642 246.497 174.576C247.027 173.921 247.56 173.266 248.12 172.629C249.76 170.152 250.282 167.201 249.25 164.468C248.983 163.758 248.624 163.09 248.189 162.465C248.115 162.658 248.032 162.849 247.944 163.038C247.6 163.771 247.11 164.644 246.467 165.403C246.468 165.899 246.407 166.394 246.263 166.884C245.374 169.918 241.94 171.578 238.833 172.893C238.529 173.023 238.228 173.148 237.932 173.271C237.12 173.61 236.19 172.656 236.673 172.024C236.8 171.858 236.922 171.688 237.038 171.517C238.418 169.482 238.998 167.105 238.471 164.799C237.914 162.359 236.094 160.414 234.29 158.551C232.518 156.72 230.621 154.855 229.747 152.55C228.781 150.004 229.391 147.38 230.535 144.925C231.583 142.679 233.027 140.583 234.215 138.39C233.789 138.792 233.349 139.183 232.894 139.561C232.382 139.987 231.859 140.47 231.242 140.784C230.786 141.016 230.29 140.547 230.642 140.193C231.105 139.727 231.709 139.354 232.228 138.932C232.726 138.527 233.208 138.109 233.678 137.68C234.256 137.152 234.803 136.602 235.328 136.038C235.72 135.054 236.032 134.047 236.275 133.03C236.606 131.654 236.902 130.192 236.796 128.789C236.688 127.35 235.752 126.389 234.526 125.486C234.007 125.104 233.484 124.727 232.961 124.348C231.858 123.742 230.812 123.054 229.794 122.366C227.981 121.141 226.221 119.838 224.534 118.489C224.082 118.128 223.633 117.761 223.189 117.39C221.642 116.184 220.161 114.917 218.758 113.6C217.416 113.264 216.119 112.793 214.896 112.222C215.438 112.639 215.984 113.05 216.529 113.465C217.741 114.389 218.999 115.315 220.386 116.047C220.528 116.123 220.454 116.304 220.283 116.285C218.559 116.088 216.935 115.693 215.401 115.006C213.842 114.306 212.448 113.316 211.142 112.318C210.421 112.086 209.721 111.775 209.08 111.466C209.046 111.45 209.012 111.432 208.978 111.416C209.681 113.033 210.682 114.853 212.632 115.336C212.696 115.352 212.696 115.44 212.622 115.441C211.002 115.448 209.67 114.902 208.596 114.058C207.744 113.599 206.928 113.108 206.146 112.568C205.388 112.044 204.666 111.478 203.977 110.888C204.976 112.377 206.082 113.825 207.173 115.257C207.23 115.333 207.125 115.447 207.026 115.396C204.827 114.286 203.123 112.792 201.698 110.993C201.487 110.728 201.286 110.459 201.088 110.186C201.25 110.62 201.423 111.051 201.608 111.479C201.941 112.253 202.27 113.029 202.604 113.802C202.784 114.22 202.998 114.625 203.23 115.023C203.397 115.307 203.609 115.588 203.657 115.908C203.66 115.929 203.634 115.944 203.612 115.941C202.751 115.807 201.915 115.026 201.281 114.549C200.928 114.283 200.595 113.989 200.286 113.675C200.335 115.573 200.401 117.469 200.554 119.366C200.835 122.851 201.291 126.325 201.82 129.784C202.288 132.843 202.685 136.057 204.851 138.62C206.527 140.603 209.14 141.896 211.931 142.439C212.177 142.488 212.425 142.53 212.673 142.566C216.703 143.152 220.625 142.025 224.062 140.224C225.094 139.683 226.071 140.945 225.079 141.541C221.364 143.771 216.553 144.724 212.175 144.054C212.548 148.389 210.252 152.646 207.946 156.465C206.655 158.603 205.363 160.728 204.493 163.017C203.755 164.961 203.291 166.961 203.209 168.997C203.11 171.396 203.465 173.785 203.987 176.13C204.015 176.257 204.044 176.386 204.073 176.513C204.189 177.017 203.674 177.472 203.077 177.243C200.439 176.234 199.195 173.844 198.396 171.616C197.648 169.528 197.102 167.387 196.744 165.222C196.438 166.062 196.2 166.92 196.027 167.79C196.003 167.915 195.98 168.04 195.958 168.164C195.83 168.891 194.548 168.91 194.307 168.254C194.263 168.135 194.221 168.017 194.181 167.897C192.929 164.331 192.439 160.567 192.794 156.832C192.981 154.867 193.366 152.918 193.992 151.013" fill="black"/>
<path fill-rule="evenodd" clip-rule="evenodd" d="M199.197 128.604C201.14 129.748 203.911 129.574 205.857 128.282C210.854 124.96 206.704 119.074 202.091 118.287C201.537 118.287 200.769 118.162 200.112 118.244C200.048 118.231 199.939 118.335 199.77 118.298C195.227 119.826 195.66 126.644 199.197 128.604M216.924 124.988C219.212 126.75 222.702 126.663 225.2 125.035C230.149 121.88 226.932 116.555 222.734 115.134C214.342 114.235 212.666 121.747 216.924 124.988M227.513 117.531C227.518 117.528 227.523 117.525 227.527 117.522C227.496 117.517 227.465 117.512 227.434 117.507C227.449 117.527 227.463 117.546 227.477 117.566C227.489 117.554 227.499 117.541 227.513 117.531M193.956 122.677C194.396 122.578 195.046 122.5 195.472 122.695C195.744 119.734 198.478 116.431 201.781 117.638C204.2 117.788 206.218 118.881 207.619 120.624C209.132 119.297 211.935 119.081 213.712 119.978C214.022 116.807 216.199 115.227 219.034 114.423C222.061 113.245 225.811 115.309 227.29 117.311C228.081 117.044 229.238 116.534 230.103 116.817C234.781 114.513 243.279 111.901 244.433 112.329C245.207 112.417 245.949 113.869 244.968 114.179C244.07 114.264 244.813 113.027 243.909 113.115C239.165 113.913 234.813 115.804 230.261 117.216C229.962 117.817 228.663 118.29 227.904 118.248C229.883 121.765 228.04 124.881 224.581 126.474C219.223 128.927 213.288 125.452 213.677 120.349C211.798 119.963 209.845 120.441 208.081 121.269C213.543 130.968 195.049 134.672 195.438 123.078C193.724 124.378 192.993 123.079 193.956 122.677" fill="black"/>
</g>
<defs>
<clipPath id="clip0">
<rect width="320" height="320" fill="white"/>
</clipPath>
</defs>
</svg>
