<svg width="320" height="320" viewBox="0 0 320 320" fill="none" xmlns="http://www.w3.org/2000/svg">
<rect width="320" height="320" fill="#E33092"/>
<path fill-rule="evenodd" clip-rule="evenodd" d="M133.985 163.122C132.61 159.223 131.346 157.57 128.905 156.215C126.621 154.948 123.287 153.883 118.422 153.105C113.355 152.458 113.211 150.532 111.941 147.436C111.57 146.506 109.734 146.258 108.941 146.929C108.829 146.841 108.713 146.76 108.592 146.687C108.7 146.243 107.816 144.971 107.846 144.547C108.154 140.116 106.172 137.891 101.226 137.064C100.15 136.884 92.8434 136.778 91.7946 136.99C87.2093 137.917 82.6954 140.86 83.3861 144.406C81.9468 145.782 80.5381 146.622 78.3175 147.065C74.8594 147.386 76.5966 183.214 82.6025 204.679C85.1794 213.888 146.795 198.213 144.011 193.6C144.406 192.755 143.686 191.826 144.011 190.953C144.246 190.321 144.848 190.06 145.15 189.434C145.577 188.553 145.113 187.372 144.633 186.474C144.437 186.026 144.995 185.544 145.15 185.087C145.887 182.932 144.201 183.122 142.985 181.681C143.003 181.677 143.319 180.648 143.318 180.654C143.504 179.919 143.038 178.979 142.631 178.366C142.356 177.951 141.767 177.692 141.182 177.74C141.772 176.277 142.517 175.06 143.318 173.65C144.735 171.166 146.083 168.568 148.118 166.319C148.951 165.398 148.278 164.551 146.929 164.489C142.565 164.286 138.247 163.826 133.985 163.122Z" fill="#EDB98A"/>
<path fill-rule="evenodd" clip-rule="evenodd" d="M127.171 163.423L117.208 175.755C117.208 175.755 119.571 175.928 120.528 176.264C121.484 176.6 125.876 180.684 125.876 180.684L126.574 182.932L124.921 184.745L125.566 185.883C125.566 185.883 126.026 185.112 127.171 184.514C128.317 183.915 130.843 182.932 130.843 182.932C130.843 182.932 130.003 182.604 130.003 182.218C130.003 181.832 129.264 180.187 130.843 179.566C132.422 178.944 140.581 177.49 140.581 177.49L148.85 164.733L127.171 163.423Z" fill="#EC7495"/>
<path fill-rule="evenodd" clip-rule="evenodd" d="M82.7243 147.148L114.362 151.209L128.905 156.215L131.279 157.553L117.208 175.755L95.4809 178.655L89.9456 189.17L91.0755 201.023L126.42 197.941L141.667 196.616L145.251 207.198L144.603 211.551L143.662 213.758L105.865 221.221C105.865 221.221 86.6188 219.857 83.207 219.857C79.7953 219.857 54.7809 221.674 54.7809 221.674L48.9933 221.221C48.9933 221.221 36.1881 211.351 34.2021 207.838C32.216 204.325 27.9213 182.971 27.9213 182.971L28.3942 179.69L39.4575 158.867C39.4575 158.867 40.9349 157.886 42.7974 156.215C44.66 154.545 82.7243 147.148 82.7243 147.148Z" fill="#9DDADB"/>
<path fill-rule="evenodd" clip-rule="evenodd" d="M139.984 177.227C137.125 177.333 134.263 177.831 131.677 178.731C130.619 179.1 129.66 179.633 129.379 180.51C129.237 180.958 129.272 181.42 129.347 181.872C129.404 182.215 129.418 182.652 129.825 182.884C129.895 182.923 129.969 182.953 130.046 182.975C129.092 183.29 128.183 183.668 127.376 184.058C126.638 184.415 125.88 184.964 125.539 185.583C125.511 185.513 125.482 185.447 125.454 185.385C124.873 184.13 123.979 183.102 122.571 182.411C122.411 181.985 120.695 180.15 119.101 180.219C117.355 180.294 115.951 180.388 114.372 180.975C113.796 180.966 113.222 180.971 112.655 180.99C112.557 180.992 112.562 181.089 112.655 181.097C113.115 181.14 113.576 181.187 114.036 181.242C115.131 181.371 116.222 181.533 117.289 181.735C118.57 181.977 119.895 182.221 121.092 182.644C123.413 183.467 124.85 185.617 124.555 187.488C124.506 187.794 124.344 188.722 123.762 188.626C123.27 188.545 123.074 187.794 122.902 187.516C122.442 186.778 121.612 186.296 120.617 185.97C119.449 185.585 118.198 185.326 116.987 185.024C116.301 184.852 115.615 184.68 114.927 184.509C114.224 184.333 113.555 184.089 112.806 184.213C112.354 184.288 112.301 184.682 112.555 184.908C112.942 185.253 113.516 185.355 114.072 185.497C114.807 185.683 115.541 185.87 116.274 186.057C117.408 186.346 118.595 186.589 119.701 186.942L119.666 187C119.576 186.981 119.47 187.047 119.488 187.128C119.654 187.874 119.884 188.737 119.628 189.484C119.426 190.077 118.715 190.734 117.791 190.559C117.936 190.462 117.99 190.295 117.892 190.141C117.526 189.568 112.732 187.31 112.305 188.149C112.29 188.178 112.334 188.2 112.369 188.196C112.734 188.14 113.344 188.595 113.635 188.739C114.057 188.947 114.484 189.15 114.9 189.363C115.356 189.596 115.801 189.841 116.235 190.093C116.575 190.292 116.832 190.498 117.223 190.599C117.018 190.67 116.856 190.803 116.787 190.972C116.61 191.414 116.269 191.789 115.678 191.984C115.058 192.187 114.359 192.059 113.707 192.109C112.817 192.174 112.041 192.483 111.393 192.925C110.032 193.855 109.349 195.493 107.446 195.932C106.309 196.194 105.047 196.029 103.896 195.91C102.611 195.778 101.359 195.673 100.064 195.811C98.8243 195.944 97.6526 196.258 96.5203 196.641C95.4589 196.999 94.2856 197.405 93.3442 197.941C93.1502 197.503 92.9546 197.071 92.8062 196.624C92.4563 195.569 92.2671 194.494 92.2212 193.41C92.1787 192.377 92.2576 191.34 92.3789 190.312C92.4389 189.799 92.5336 189.288 92.5935 188.775C92.6091 188.646 92.6408 188.507 92.6645 188.369C94.3456 187.643 96.1117 187.087 97.8921 186.515C97.897 186.514 97.9017 186.512 97.9065 186.511C97.9617 186.492 98.0153 186.475 98.0705 186.458C98.0689 186.455 98.0673 186.453 98.0642 186.451C98.2676 186.36 98.4095 186.238 98.4947 186.102C101.06 184.858 103.205 183.159 104.804 181.177C105.475 180.346 106.12 179.485 106.996 178.757C107.93 177.98 109.039 177.519 110.411 177.279C112.014 176.998 113.667 176.829 115.31 176.733C116.208 176.682 117.211 176.601 118.188 176.604C118.87 176.608 119.537 176.65 120.149 176.774C121.055 176.956 121.585 177.46 122.155 177.97C122.699 178.459 123.24 178.949 123.747 179.459C124.228 179.942 124.683 180.442 125.077 180.966C125.313 181.279 125.533 181.602 125.717 181.936C125.782 182.053 125.867 182.187 125.906 182.309C125.946 182.433 125.873 182.563 126.063 182.563C125.282 182.571 124.763 183.995 125.539 183.962C126.63 183.915 127.178 182.959 126.965 182.11C126.583 180.596 124.524 178.767 124.116 178.379C123.216 177.524 122.287 176.407 120.846 176.009C120.825 176.003 120.803 175.998 120.783 175.993C121.202 175.702 121.533 175.354 121.85 175C122.177 174.635 122.566 174.218 122.674 173.785C122.741 173.509 122.273 173.352 122.051 173.594C121.727 173.945 121.571 174.391 121.33 174.777C121.084 175.169 120.784 175.54 120.548 175.935C119.978 175.807 119.363 175.748 118.737 175.729C119.527 174.947 120.877 173.438 121.04 173.244C121.787 172.347 122.498 171.422 123.178 170.495C123.913 169.492 124.542 168.447 125.246 167.432C125.645 166.856 126.047 166.276 126.49 165.717C126.643 165.526 126.807 165.334 126.993 165.16C127.029 165.126 127.075 165.097 127.118 165.065C127.166 165.045 127.217 165.023 127.245 165.012C127.501 164.904 127.591 164.655 127.77 164.497C128.057 164.242 128.395 164.212 128.827 164.209C129.748 164.202 130.672 164.228 131.592 164.247C132.943 164.274 134.293 164.314 135.643 164.366C136.051 164.382 136.458 164.398 136.867 164.416C138.83 164.502 140.792 164.614 142.749 164.751C144.481 164.872 146.212 165.069 147.945 165.164C145.599 169.242 142.997 173.245 140.051 177.11C140.021 177.149 139.998 177.188 139.984 177.227ZM126.965 187.732C126.586 187.859 126.219 188.017 125.876 188.197C125.933 187.917 125.947 187.621 125.932 187.325C126.214 187.546 126.575 187.673 126.965 187.732ZM143.121 180.718C143.094 180.72 143.069 180.73 143.056 180.75C142.533 181.54 142.752 182.423 143.607 183.042C144.055 183.365 145.031 183.729 144.999 184.26C144.972 184.689 144.334 185.049 144.061 185.403C143.807 185.733 143.712 186.095 143.916 186.453C144.176 186.911 144.903 187.093 145.152 187.543C145.468 188.114 144.955 188.803 144.596 189.3C144.261 189.76 143.829 190.22 143.542 190.707C141.62 191.435 137.258 192.757 136.732 192.831C136.092 192.922 135.451 193.008 134.807 193.089C133.572 193.246 132.334 193.391 131.093 193.519C130.387 193.592 129.679 193.663 128.971 193.72C128.352 193.768 127.655 193.834 127.157 193.494C126.152 192.806 126.715 191.654 127.351 190.96C127.364 190.946 127.364 190.933 127.359 190.922C127.958 190.819 128.556 190.699 129.152 190.615C130.298 190.453 131.453 190.317 132.609 190.196C134.984 189.948 137.374 189.784 139.762 189.619C140.353 189.578 140.36 188.897 139.762 188.938C136.332 189.167 132.885 189.385 129.5 189.869C128.652 189.988 127.81 190.124 126.972 190.278C126.577 190.35 126.152 190.461 125.738 190.465C125.712 190.465 125.687 190.465 125.662 190.464C124.85 190.445 124.732 189.937 125.178 189.513C125.233 189.461 125.29 189.409 125.348 189.36C126.137 188.672 127.119 188.213 128.131 187.738C129.265 187.625 130.396 187.373 131.506 187.189C134.247 186.732 136.988 186.275 139.731 185.82C140.268 185.73 140.04 185.125 139.502 185.214C137.42 185.559 135.339 185.904 133.257 186.249L130.21 186.754C129.601 186.854 128.841 187.056 128.125 187.129C127.772 187.165 127.43 187.169 127.121 187.116C126.122 186.943 126.072 186.031 126.503 185.489C126.985 184.88 127.897 184.499 128.706 184.154C130.108 183.555 131.599 183.125 133.057 182.629C133.315 182.587 133.574 182.546 133.832 182.504C135.337 182.262 137.056 182.143 138.472 181.699C138.896 181.568 138.664 181.079 138.245 181.086C137.146 181.103 135.996 181.389 134.922 181.559C133.76 181.743 132.596 181.927 131.434 182.11C131.317 182.128 130.626 182.29 130.522 182.254C130.456 182.231 130.432 182.063 130.41 181.952C130.339 181.587 130.287 181.205 130.365 180.839C130.535 180.019 131.47 179.633 132.416 179.318C134.523 178.618 136.834 178.18 139.133 178.005C139.663 177.964 140.193 177.939 140.726 177.926C141.352 177.912 141.867 177.832 142.184 178.283C142.683 178.993 142.957 179.907 143.121 180.718ZM140.195 206.481C139.736 205.319 139.861 204.079 139.546 202.895C139.384 202.284 139.163 201.677 138.921 201.081C138.725 200.599 138.4 200.086 138.363 199.583C138.361 199.55 138.415 199.53 138.452 199.546C139.1 199.817 139.597 200.404 139.966 200.864C140.409 201.415 140.746 201.991 141.019 202.598C141.561 203.806 142.007 205.263 141.307 206.481C141.099 206.843 140.367 206.916 140.195 206.481ZM122.279 215.272C121.595 214.923 121.096 214.435 120.516 214.004C119.946 213.58 120.838 212.928 121.408 213.352C121.903 213.719 122.333 214.178 122.916 214.475C123.196 214.618 123.326 214.877 123.142 215.107C122.98 215.31 122.559 215.415 122.279 215.272ZM118.464 201.851C119.713 201.457 120.941 201.026 122.248 200.742C123.029 200.572 123.36 201.463 122.583 201.632C121.38 201.894 120.251 202.285 119.101 202.648C118.362 202.882 117.721 202.086 118.464 201.851ZM105.275 201.575C104.97 201.024 106.191 200.786 106.492 201.33C106.838 201.955 107.235 202.565 107.582 203.19C107.887 203.741 106.666 203.979 106.365 203.435C106.019 202.81 105.622 202.201 105.275 201.575ZM92.2577 212.582C92.0543 212.78 91.7151 212.888 91.3946 212.747C91.1262 212.63 90.9624 212.317 91.1683 212.116C91.7697 211.53 92.3789 210.951 93.0836 210.428C93.655 210.004 94.5466 210.657 93.9757 211.081C93.3464 211.547 92.7949 212.058 92.2577 212.582ZM90.3964 150.824C90.9755 151.113 91.4828 151.465 91.9775 151.827C92.5526 152.247 91.6604 152.899 91.0852 152.479C90.6684 152.174 90.248 151.865 89.7596 151.621C89.4775 151.48 89.3508 151.218 89.5333 150.99C89.6968 150.785 90.1149 150.684 90.3964 150.824ZM109.335 165.674C109.008 166.153 108.713 166.624 108.694 167.169C108.674 167.762 107.413 167.763 107.433 167.169C107.457 166.455 107.816 165.837 108.246 165.208C108.609 164.676 109.696 165.144 109.335 165.674ZM116.284 153.748C116.962 153.417 117.593 154.217 116.921 154.544C116.376 154.81 115.83 155.076 115.285 155.342C114.607 155.672 113.976 154.873 114.649 154.545C115.194 154.279 115.739 154.013 116.284 153.748ZM86.1444 174.6C86.0287 175.186 84.8131 174.935 84.9278 174.355C85.1052 173.457 85.3217 172.571 85.6546 171.697C85.8726 171.125 87.0892 171.369 86.8711 171.942C86.5382 172.816 86.3217 173.702 86.1444 174.6ZM81.7211 185.171C80.9091 185.158 80.9089 184.235 81.7211 184.248C82.456 184.259 83.1784 184.401 83.8873 184.53C84.6758 184.674 84.3395 185.564 83.5518 185.42C82.9526 185.31 82.3424 185.18 81.7211 185.171ZM80.0882 206.464C79.8092 206.564 79.523 206.653 79.241 206.747C78.6763 206.936 78.1119 207.125 77.5476 207.315C76.3721 207.709 75.1973 208.105 74.0235 208.503C71.6737 209.298 69.3058 210.066 66.9504 210.853C64.5485 211.655 62.1528 212.469 59.7602 213.286C58.6329 213.671 57.4971 214.042 56.3636 214.417C55.3943 214.737 54.1963 215.297 53.1323 215.35C53.0775 215.353 53.0593 215.302 53.0905 215.276C53.4925 214.942 54.1337 214.747 54.662 214.53C55.2016 214.308 55.7514 214.099 56.2986 213.887C57.4394 213.445 58.5816 213.006 59.7335 212.58C62.0375 211.727 64.346 210.88 66.6549 210.035C69.0097 209.172 71.3615 208.304 73.7369 207.472C74.8554 207.081 75.9749 206.69 77.095 206.301C77.7019 206.09 78.309 205.879 78.9162 205.669C79.1784 205.578 79.438 205.48 79.7061 205.399C80.0624 205.291 80.3331 205.313 80.7006 205.247C81.2998 205.139 81.5593 205.696 81.0992 205.939C80.7204 206.139 80.5211 206.31 80.0882 206.464ZM71.6658 215.927C71.5364 215.696 71.8075 215.417 72.1065 215.359C72.4646 215.29 72.7518 215.449 72.8825 215.681C73.2284 216.297 73.721 216.861 74.3551 217.338C74.9219 217.764 74.0303 218.417 73.463 217.991C72.6684 217.393 72.0975 216.694 71.6658 215.927ZM65.4696 201.114C64.8944 200.694 65.7867 200.041 66.3617 200.462L67.9968 201.658C68.5719 202.078 67.6795 202.731 67.1046 202.31L65.4696 201.114ZM48.6949 199.164C47.5193 199.417 46.1483 199.648 45.3469 200.382C45.3077 200.418 45.242 200.372 45.2655 200.336C46.2915 198.78 49.2339 198.235 51.2711 197.69C52.712 197.304 54.1904 196.984 55.6814 196.699C55.5323 195.454 55.9433 194.121 56.0862 192.883C56.2387 191.562 56.3628 190.236 56.4265 188.911C56.4916 187.558 56.5074 186.196 56.4465 184.844C56.386 183.496 56.1467 182.164 56.042 180.821C56.0319 180.691 56.2792 180.685 56.3325 180.792C56.9516 182.039 57.2161 183.42 57.4177 184.734C57.6252 186.088 57.6941 187.438 57.6676 188.8C57.6402 190.201 57.5288 191.598 57.376 192.994C57.3036 193.655 57.2196 194.316 57.1403 194.977C57.0797 195.482 57.0516 195.982 56.911 196.471C57.8102 196.309 58.7114 196.157 59.6099 196.008C62.4747 195.535 65.3515 195.097 68.2043 194.585C69.6047 194.334 70.985 194.034 72.3791 193.767C73.6918 193.515 75.0774 193.211 76.4251 193.099C76.9061 193.058 76.9673 193.54 76.6489 193.703C75.5535 194.266 74.0987 194.657 72.8335 194.972C71.5637 195.288 70.2437 195.515 68.9422 195.75C66.228 196.238 63.4881 196.637 60.7523 197.053C58.0202 197.468 55.283 197.881 52.5817 198.393C51.2809 198.64 49.9844 198.888 48.6949 199.164ZM42.2532 174.477C41.5508 174.778 40.9167 173.981 41.6166 173.68C42.5323 173.287 43.5084 172.991 44.4923 172.703C45.2473 172.482 45.5722 173.375 44.8277 173.593C43.9435 173.852 43.0761 174.124 42.2532 174.477ZM39.7098 208.761C39.0055 209.059 38.3709 208.262 39.0732 207.964C40.0594 207.546 41.1395 207.267 42.1616 206.901C42.8887 206.64 43.5274 207.437 42.7982 207.698C41.7763 208.064 40.6961 208.343 39.7098 208.761ZM38.5658 189.3C39.2468 189.773 40.1556 189.996 41.0126 190.244C41.7598 190.461 41.4321 191.353 40.6771 191.134C39.6095 190.824 38.522 190.541 37.6737 189.952C37.0836 189.542 37.9773 188.891 38.5658 189.3ZM46.0994 162.87C46.848 163.085 46.5201 163.977 45.764 163.76C44.9253 163.519 44.0592 163.336 43.2206 163.095C42.4721 162.881 42.7998 161.989 43.556 162.206C44.3946 162.446 45.2607 162.629 46.0994 162.87ZM59.3894 152.372C60.1848 152.274 60.5236 153.163 59.7248 153.262C58.7338 153.384 57.758 153.528 56.8181 153.794C56.059 154.008 55.7334 153.116 56.4826 152.904C57.4227 152.638 58.3986 152.494 59.3894 152.372ZM63.7806 177.932C63.0512 177.669 63.6912 176.874 64.4172 177.135C65.1824 177.41 65.9752 177.623 66.81 177.753C67.605 177.877 67.2664 178.766 66.4746 178.643C65.535 178.496 64.641 178.241 63.7806 177.932ZM67.928 163.534C68.7134 163.377 69.0455 164.267 68.2634 164.424C66.8875 164.7 65.4709 164.843 64.0848 165.089C63.2949 165.228 62.9607 164.338 63.7494 164.199C65.1354 163.953 66.5522 163.81 67.928 163.534ZM85.5222 159.016C86.3208 159.124 85.9804 160.014 85.1869 159.906C84.3421 159.792 83.4859 159.79 82.6294 159.79C81.8163 159.789 81.8177 158.867 82.6294 158.867C83.6024 158.867 84.563 158.886 85.5222 159.016ZM142.903 163.837C140.842 163.693 138.778 163.578 136.711 163.491C136.614 163.488 136.52 163.483 136.423 163.48C136.412 163.464 136.398 163.449 136.384 163.432C135.709 162.708 135.212 161.984 134.782 161.165C134.37 160.385 133.971 159.581 133.337 158.877C132.614 158.076 131.638 157.448 130.568 156.905C129.919 157.224 129.317 157.598 128.766 157.994C128.186 158.41 127.294 157.758 127.874 157.341C128.364 156.989 128.886 156.664 129.439 156.37C128.801 156.087 128.15 155.82 127.515 155.555C125.135 154.562 122.699 153.644 120.212 152.804C119.056 152.413 117.886 152.066 116.708 151.714C116.074 151.525 115.448 151.281 114.814 151.062C114.859 150.735 114.725 150.368 114.382 150.152C114.128 149.994 113.931 149.935 113.628 149.823C113.56 149.806 113.519 149.796 113.5 149.79C113.514 149.792 113.555 149.801 113.623 149.818C113.784 149.872 113.796 149.856 113.661 149.77C113.653 149.583 113.15 149.189 113.035 148.996C112.634 148.335 112.51 147.636 111.918 147.034C111.103 146.205 109.734 145.891 108.458 146.172C108.326 145.175 108.291 144.133 107.777 143.243C107.763 143.218 107.717 143.208 107.697 143.234C107.16 143.902 107.115 144.646 107.074 145.417C107.034 146.14 107.072 146.88 107.201 147.598C107.119 147.644 107.036 147.688 106.949 147.731C106.542 147.927 106.104 148.078 105.643 148.19C104.766 148.402 103.847 148.494 102.928 148.527C100.554 148.61 98.1083 148.434 95.7743 148.137C93.4135 147.836 89.7943 147.384 87.6937 146.52C86.3073 145.95 85.0285 145.254 83.7321 144.581C84.2022 143.473 84.322 142.283 83.8489 141.347C83.7922 141.235 83.5525 141.215 83.5067 141.347C83.2102 142.24 83.1235 143.138 82.7293 144.02C82.7229 144.033 82.7166 144.047 82.7103 144.059C82.5873 143.998 82.4643 143.938 82.3413 143.878C82.0574 143.741 81.6711 143.844 81.5008 144.04C78.7771 147.178 74.4641 147.358 69.9349 147.919C64.9782 148.533 59.9965 149.195 55.2308 150.395C50.6732 151.544 46.3175 153.217 42.867 155.716C42.0859 156.281 41.3554 156.884 40.6659 157.513C41.333 157.575 41.9946 157.67 42.6476 157.82C43.4208 157.998 43.0886 158.889 42.3122 158.71C41.4729 158.517 40.6243 158.422 39.767 158.374C37.4225 160.72 35.5944 163.381 34.0136 165.999C30.9815 171.019 29.0078 176.365 28.0996 181.808C28.5983 181.59 29.1059 181.382 29.6262 181.188C30.3491 180.919 30.9867 181.715 30.263 181.985C29.4593 182.284 28.6787 182.613 27.9224 182.971C27.592 185.353 27.4639 187.751 27.5415 190.145C27.726 195.853 28.7795 201.728 31.1624 207.173C32.3309 209.846 33.8796 212.497 36.1867 214.755C37.2307 215.778 38.4166 216.701 39.8139 217.471C40.4904 217.844 41.2064 218.178 41.9618 218.459C42.9348 218.824 44.2027 218.944 45.0417 219.459C45.3177 219.629 45.5306 219.853 45.6914 220.105C45.5984 220.585 45.5873 221.066 45.7671 221.546C45.8239 221.696 45.9784 221.818 46.1693 221.877C46.1724 221.919 46.1724 221.959 46.1724 221.998C46.1724 222.017 46.2103 222.021 46.215 222.003C46.2229 221.967 46.2308 221.931 46.2387 221.894C46.3002 221.909 46.3648 221.916 46.431 221.916C48.8265 221.923 51.225 221.88 53.6237 221.821C53.4382 221.405 53.2373 220.993 53.0444 220.577C52.7825 220.013 54.0014 219.773 54.2609 220.332C54.4866 220.818 54.7225 221.3 54.9324 221.787C57.5025 221.717 60.0718 221.633 62.6365 221.571C68.0914 221.439 73.5447 221.395 79.001 221.311C87.4745 221.179 96.0096 220.91 104.496 221.173C104.79 220.718 105.118 220.273 105.43 219.823C105.797 219.293 106.885 219.76 106.519 220.289C106.303 220.601 106.078 220.91 105.865 221.221C107.584 221.287 109.301 221.373 111.014 221.491C113.938 221.691 116.834 222.048 119.754 222.269C122.724 222.495 125.629 222.455 128.575 222.096C129.105 222.032 129.417 221.797 129.546 221.507C129.551 221.506 129.554 221.503 129.557 221.5C129.708 221.371 129.851 221.263 129.997 221.17C130.172 221.087 130.361 221.016 130.584 220.954C130.999 220.839 131.431 220.768 131.869 220.721C132.352 220.668 132.841 220.663 133.323 220.62C133.73 220.582 134.127 220.525 134.525 220.456C135.239 220.331 135.917 220.169 136.592 219.953C137.18 219.765 137.712 219.495 138.213 219.201C139.251 218.646 140.15 217.938 140.935 217.202C141.393 216.772 141.823 216.325 142.214 215.86C142.896 215.055 143.476 214.219 144.063 213.376C144.275 213.126 144.47 212.87 144.647 212.609C143.501 212.362 142.343 212.16 141.128 212.146C140.315 212.136 140.316 211.214 141.128 211.223C142.522 211.239 143.84 211.478 145.15 211.761C145.214 211.637 145.275 211.512 145.332 211.386C145.488 211.122 145.618 210.851 145.725 210.576C145.788 210.452 145.851 210.327 145.914 210.202C146.056 209.771 146.198 209.338 146.341 208.906C146.627 208.214 146.852 207.511 147.018 206.8C147.157 206.331 147.264 205.859 147.336 205.382C147.557 204.225 147.737 203.07 147.75 201.901C147.731 201.18 147.668 200.46 147.56 199.744C147.515 199.257 147.437 198.772 147.333 198.291C147.198 197.576 147.064 196.868 146.838 196.162C146.669 195.684 146.501 195.207 146.332 194.729C145.911 193.734 145.414 192.758 144.841 191.804C144.81 191.744 144.651 191.612 144.555 191.611C144.482 191.61 144.381 191.659 144.414 191.723C144.417 191.729 144.42 191.736 144.424 191.742C144.391 191.687 144.359 191.632 144.326 191.578C144.298 191.527 144.187 191.426 144.102 191.427C144.097 191.427 144.092 191.427 144.086 191.428C144.108 191.416 144.129 191.401 144.149 191.384C144.715 190.894 145.083 190.249 145.488 189.682C145.824 189.213 146.141 188.719 146.233 188.19C146.313 187.725 146.204 187.267 145.805 186.891C145.351 186.463 144.496 186.263 144.971 185.644C145.51 184.941 146.304 184.33 145.513 183.531C145.111 183.124 144.474 182.9 144.001 182.546C143.457 182.136 143.198 181.589 143.213 181.029C143.246 181.043 143.29 181.036 143.306 181.001C143.763 179.991 143.432 178.881 142.963 177.897C142.708 177.363 142.167 177.217 141.538 177.19C144.263 173.297 146.813 169.342 149.085 165.295C149.161 165.163 149.235 165.03 149.309 164.897C149.42 164.699 149.186 164.435 148.917 164.391C146.952 164.076 144.905 163.976 142.903 163.837Z" fill="black"/>
<path fill-rule="evenodd" clip-rule="evenodd" d="M101.194 98.933C109.506 98.933 119.916 105.469 122.963 108.25C125.525 110.588 125.163 122.635 125.163 129.781C125.163 131.275 124.183 134.104 123.827 135.533C122.523 140.772 116.843 145.165 105.6 145.165C96.4461 145.165 89.4014 143.166 82.5891 138.055C81.035 136.888 73.4449 141.063 71.8926 139.56C67.8381 139.56 64.4479 113.448 72.4083 105.615C80.3688 97.7832 92.8816 98.933 101.194 98.933Z" fill="#EDB98A"/>
<path fill-rule="evenodd" clip-rule="evenodd" d="M76.2107 100.772C81.0138 97.7603 87.4125 96.3113 93.8683 96.4182C97.2118 96.4737 100.544 96.9127 103.701 97.6644C105.281 98.0418 106.811 98.5342 108.273 99.0912C108.8 99.2915 109.286 99.5262 109.754 99.7754L109.87 99.8379H109.872C111.126 100.149 112.246 100.707 113.262 101.36C115.298 101.248 117.351 101.374 119.32 101.807C122.06 102.41 124.597 103.515 126.378 105.084C128.454 106.911 129.144 109.127 128.897 111.414L128.852 111.803C128.609 113.823 128.173 116.422 125.767 117.75C125.584 117.851 125.382 117.927 125.172 117.974C126.723 119.804 127.995 121.837 128.756 123.889C131.662 131.728 129.428 139.904 125.933 147.46C125.647 148.082 124.281 148.496 123.585 147.887C122.344 146.8 120.54 145.97 118.512 145.815C117.26 145.719 116.014 145.893 114.831 145.501C114.367 145.347 113.919 145.094 113.597 144.788C111.6 145.309 109.45 145.556 107.317 145.495C103.817 145.396 100.075 144.561 97.6671 142.728C97.2806 142.434 97.1827 142.104 97.2717 141.806C97.5737 141.732 97.8837 141.677 98.2031 141.642C101.257 142.882 104.623 143.711 108.241 143.763C110.331 143.794 112.37 143.592 114.065 142.692C114.431 142.498 114.769 142.282 115.08 142.05C118.624 140.479 121.123 137.81 122.31 134.951C123.417 132.285 123.281 129.509 122.9 126.775L122.699 125.332C122.407 123.214 122.135 121.09 122.059 118.963L122.082 118.962V118.962C122.83 118.929 122.836 118.121 122.082 118.155C120.132 118.242 118.197 118.021 116.254 118.117C116.237 117.484 116.171 116.853 115.901 116.242C115.747 115.893 114.865 115.825 114.772 116.242C114.647 116.801 114.601 117.357 114.588 117.919C111.679 117.892 108.772 117.723 105.863 117.793C105.326 117.398 105.156 116.699 104.905 116.212C104.868 116.14 104.831 116.07 104.793 115.998C104.573 116.694 104.26 117.374 103.849 118.04L103.135 118.041C99.0868 118.054 94.956 118.138 91.0028 118.717C90.728 118.572 90.5645 118.318 90.5203 118.088C90.2336 116.589 89.8243 115.13 89.099 113.701L88.9952 113.5C88.9868 113.483 88.9778 113.465 88.9684 113.446C88.434 114.041 87.7963 114.595 87.1008 115.111C86.6909 115.416 86.2611 115.707 85.82 115.989C85.3915 116.317 84.9487 116.64 84.5195 116.969C84.5363 117.029 84.551 117.09 84.5628 117.152C84.6941 117.834 84.7078 118.526 84.6116 119.212C84.4377 120.451 83.9303 121.644 83.1152 122.749L83.0894 122.859C82.9656 123.377 82.7895 123.912 82.3783 124.301C82.8915 124.698 83.2869 125.171 83.5161 125.697C83.7202 126.165 82.7802 126.571 82.2928 126.188C81.9056 125.884 81.4753 125.632 81.0028 125.431C80.9729 125.459 80.919 125.472 80.8586 125.449C79.5425 124.945 77.3072 125.098 75.9926 125.572C74.3574 126.161 73.7192 127.371 73.9007 128.597C74.0749 129.769 74.8185 131.138 76.2605 131.738C76.9222 132.014 77.4375 132.037 78.1401 131.905C78.3648 131.863 78.6433 131.734 78.7629 131.67L78.8806 131.605C79.3412 131.354 79.7702 131.182 80.314 131.175C80.8702 131.056 81.4291 131.222 81.6418 131.624L81.6549 131.65C81.7545 131.854 81.936 132.112 81.8965 132.425C81.8555 132.76 81.633 133.064 81.3007 133.31C81.2436 133.352 81.1821 133.394 81.1192 133.434C86.843 137.705 87.5779 144.361 84.6428 149.697C84.5154 149.931 84.3793 150.162 84.2373 150.391C83.7469 151.176 81.8584 150.933 81.6184 150.155C81.5466 149.922 81.4676 149.69 81.3812 149.46C81.2224 149.034 81.0406 148.613 80.8355 148.198L80.7576 148.043C80.5834 147.7 80.4209 147.354 80.2452 147.011L80.2276 146.971C80.2211 146.956 80.2137 146.938 80.2057 146.918L79.9085 147.365V147.365L79.0053 148.714C78.5826 149.343 77.2397 149.001 77.1898 148.395L77.1886 148.374C77.1842 148.262 77.1783 148.151 77.1681 148.041C77.1037 147.216 76.8973 146.415 76.5694 145.631L76.4511 145.733C74.6894 147.234 72.6219 148.641 69.7857 148.987C69.0742 149.074 68.2691 148.562 68.758 148.066C68.96 147.861 69.1547 147.651 69.3392 147.438C69.1796 147.387 69.0288 147.334 68.8898 147.279C67.8138 146.862 66.9179 146.269 66.1772 145.596C64.6064 144.169 64.0443 142.373 63.9067 140.615C63.7603 138.757 63.9974 136.799 64.7338 135.007C65.0529 134.232 65.4847 133.488 65.9839 132.767C65.9488 132.702 65.9151 132.638 65.8814 132.573C65.3427 131.538 64.9006 130.479 64.5332 129.409C63.7925 127.247 63.3943 125.017 63.346 122.796C63.2581 118.817 64.2536 114.775 66.3514 111.065C68.5179 107.238 71.7766 103.552 76.2107 100.772ZM73.5125 135.559C73.1146 135.127 72.1192 135.516 72.4886 135.951L72.5024 135.966C73.1333 136.652 73.429 137.431 73.7921 138.194C74.0248 138.686 75.1564 138.476 74.9207 137.979L74.8427 137.814C74.4815 137.039 74.1519 136.252 73.5125 135.559ZM76.9781 127.317L77.2424 127.229C78.0761 126.954 78.8067 126.768 79.7917 127.007C81.1107 127.327 82.5234 128.345 81.6318 129.333C81.3039 129.697 80.7213 129.842 80.1211 129.757C79.1093 129.612 78.8481 128.984 78.3347 128.468L78.2463 128.381C77.9333 128.069 77.5374 127.638 77.0162 127.516C76.8976 127.487 76.8478 127.36 76.9781 127.317ZM77.721 106.342L77.8061 106.29C78.3727 105.945 77.5412 105.376 76.9776 105.719C74.3982 107.29 73.5023 109.749 72.1643 111.845C71.8642 112.316 72.8728 112.728 73.1758 112.252C74.4522 110.253 75.2993 107.86 77.721 106.342V106.342ZM108.718 105.655C108.044 105.446 107.454 106.122 108.102 106.345L108.126 106.352C110.404 107.062 111.373 108.668 112.301 110.16C112.597 110.636 113.606 110.225 113.313 109.753L113.145 109.485C112.177 107.948 111.047 106.382 108.718 105.655ZM112.288 104.685C111.574 104.514 111.268 105.293 111.976 105.464C113.907 105.927 115.232 106.926 116.349 108.068C116.768 108.496 117.782 108.092 117.359 107.66C116.062 106.334 114.522 105.221 112.288 104.685Z" fill="#A55728"/>
<path fill-rule="evenodd" clip-rule="evenodd" d="M106.408 136.389C105.524 136.127 104.735 135.689 104.159 135.13C103.958 134.936 103.906 134.731 103.948 134.543C103.996 134.332 104.167 134.141 104.401 134.012C104.636 133.884 104.93 133.82 105.214 133.853C105.461 133.881 105.706 133.979 105.901 134.183L105.941 134.224C106.284 134.561 106.731 134.838 107.24 135.016C107.731 135.188 108.279 135.268 108.847 135.222C109.929 135.133 110.674 134.707 111.466 134.13C111.565 134.057 111.663 133.981 111.762 133.905C111.824 133.836 111.91 133.791 112.007 133.768C112.113 133.742 112.234 133.743 112.344 133.771C112.451 133.798 112.546 133.85 112.61 133.918C112.671 133.983 112.705 134.063 112.694 134.155C112.622 134.754 112.191 135.288 111.58 135.708C110.901 136.174 110.001 136.496 109.154 136.61C108.221 136.734 107.269 136.645 106.408 136.389V136.389ZM109.594 127.152C110.587 127.591 112.101 128.615 111.032 129.703C109.775 130.663 107.964 129.563 107.072 129.065C106.245 128.679 105.315 129.671 106.083 130.122C112.53 133.594 115.146 127.267 110.097 126.636C109.541 126.566 109.334 127.016 109.594 127.152ZM98.0412 123.113C98.151 122.122 100.225 121.897 100.432 122.877C100.616 123.756 100.399 124.562 99.855 125.353C99.3354 126.108 98.0295 125.756 97.9307 125.068C97.7983 124.146 97.973 123.729 98.0412 123.113ZM113.831 122.674C114.12 122.399 114.537 122.21 115.038 122.317C116.601 122.649 116.14 124.263 115.591 125.049C115.293 125.476 114.329 125.584 113.893 125.208C113.183 124.595 112.843 123.372 113.746 122.769C113.77 122.737 113.797 122.706 113.831 122.674ZM99.833 118.777L100.08 118.746C100.844 118.65 101.793 118.558 102.334 119.004C102.62 119.241 102.719 119.681 102.334 119.908C101.656 120.307 100.907 120.153 100.095 120.186C99.426 120.214 98.7829 120.295 98.1384 120.429C96.7244 120.723 95.5722 121.259 94.3646 121.849C94.2061 121.926 94.0444 121.779 94.12 121.671C94.8171 120.678 96.1681 119.862 97.5213 119.364C98.2436 119.099 99.034 118.879 99.833 118.777ZM112.406 118.333L112.595 118.361C114.651 118.673 117.323 119.298 118.297 120.767C118.334 120.975 118.295 121.02 118.263 121.049L118.252 121.058C118.226 121.083 118.205 121.118 118.081 121.146C118.047 121.14 118.012 121.134 117.977 121.127C117.531 121.042 117.178 120.925 116.836 120.803L116.465 120.67C116.035 120.517 115.601 120.369 115.141 120.26C114.16 120.027 113.15 119.863 112.125 119.775C111.903 119.756 111.689 119.702 111.52 119.608C111.36 119.52 111.238 119.397 111.182 119.233C111.11 119.022 111.131 118.862 111.286 118.671C111.404 118.528 111.571 118.429 111.764 118.372C111.96 118.314 112.184 118.3 112.406 118.333Z" fill="black"/>
<path fill-rule="evenodd" clip-rule="evenodd" d="M123.117 130.423C122.894 128.187 119.329 127.24 117.553 126.96C111.64 125.861 106.61 128.68 99.5599 128.738C98.8484 128.747 96.8135 128.652 95.8672 128.454C91.066 127.592 86.2698 126.674 81.5589 125.543C80.8663 125.671 80.6614 126.386 81.1369 126.793C85.6489 128.058 92.5517 129.191 96.197 129.32C96.127 133.043 93.6411 136.787 90.2082 138.846C95.6681 143.62 108.402 145.19 115.896 142.684C119.582 141.81 123.472 133.979 123.117 130.423" fill="white"/>
<path fill-rule="evenodd" clip-rule="evenodd" d="M81.1781 125.656C80.975 125.649 81.0934 125.181 81.5507 125.248C87.451 126.339 94.8021 128.417 100.867 128.402C105.328 128.287 109.326 126.322 113.812 126.31C116.828 126.356 120.673 126.695 122.783 128.608C125.567 135.588 119.299 145.082 109.436 145.137L107.569 145.03C101.206 144.66 94.2352 144.067 90.1338 139.798L90.1018 139.82V139.82C89.4885 139.495 89.5227 138.792 90.0439 138.431L90.0594 138.45V138.45C90.0694 138.437 90.0804 138.425 90.091 138.413L90.0844 138.396V138.396C90.2849 138.23 90.5129 138.074 90.7202 137.935L90.7213 137.938V137.938C93.8009 135.909 95.8118 132.841 95.9275 129.665C94.908 129.886 77.7783 127.078 80.8361 126.393C83.0232 126.978 85.2232 127.506 87.4676 127.926C87.5052 127.909 87.5592 127.914 87.5799 127.947C90.3255 128.481 93.1265 128.786 95.9312 129.033C95.9282 128.927 95.9232 128.821 95.9163 128.715C90.9294 127.948 86.0405 126.808 81.1781 125.656ZM121.559 128.488C111.331 124.403 106.253 130.439 96.3608 128.777C97.3957 132.428 94.8401 136.364 91.369 138.749C96.4125 142.2 98.5954 142.723 105.211 143.283L106.076 143.365C107.375 143.486 108.687 143.6 109.99 143.617C116.752 143.228 121.861 137.666 122.626 132.627L122.63 132.487C122.664 131.208 122.59 129.854 121.873 128.683C121.741 128.646 121.627 128.581 121.559 128.488ZM107.318 131.696C107.672 131.633 108.032 131.938 107.813 132.205C107.105 133.068 105.374 133.403 104.163 133.538C102.76 133.695 101.401 133.572 100.069 133.193C99.9972 133.173 100.002 133.073 100.088 133.081C101.353 133.2 102.657 133.113 103.886 132.848C105.132 132.657 106.138 132.001 107.318 131.696ZM116.929 131.074C116.923 130.91 117.944 131.384 118.105 131.448C119.351 132.04 120.793 132.083 122.168 132.315C122.488 132.412 122.487 132.734 122.167 132.832C120.452 133.192 117.849 132.246 116.929 131.074Z" fill="black"/>
<path d="M186.75 123.57C189.697 123.57 191.17 122.114 191.17 119.202V117.382L188.986 116.836V115.666H195.954V116.836L193.77 117.382V125H192.418L191.768 122.946C191.005 123.778 190.225 124.376 189.428 124.74C188.631 125.087 187.686 125.26 186.594 125.26C184.219 125.26 182.321 124.532 180.9 123.076C180.085 122.244 179.461 121.213 179.028 119.982C178.595 118.751 178.378 117.373 178.378 115.848C178.378 114.305 178.603 112.875 179.054 111.558C179.522 110.241 180.172 109.14 181.004 108.256C182.408 106.765 184.306 106.02 186.698 106.02C187.738 106.02 188.622 106.185 189.35 106.514C190.095 106.826 190.797 107.346 191.456 108.074L192.028 106.28H193.458V112.026H191.872C191.369 108.958 189.61 107.424 186.594 107.424C185.71 107.424 184.973 107.571 184.384 107.866C183.795 108.143 183.283 108.585 182.85 109.192C182.347 109.92 181.957 110.839 181.68 111.948C181.403 113.057 181.264 114.236 181.264 115.484C181.264 116.784 181.411 117.98 181.706 119.072C182.018 120.147 182.451 121.065 183.006 121.828C183.457 122.435 183.968 122.877 184.54 123.154C185.129 123.431 185.866 123.57 186.75 123.57ZM200.424 118.136C200.424 119.401 200.598 120.45 200.944 121.282C201.291 122.097 201.776 122.677 202.4 123.024C203.042 123.353 203.744 123.518 204.506 123.518C205.338 123.518 206.084 123.353 206.742 123.024C207.418 122.677 208.025 122.209 208.562 121.62L209.394 122.244C209.082 122.66 208.744 123.05 208.38 123.414C208.034 123.778 207.635 124.099 207.184 124.376C206.734 124.653 206.231 124.87 205.676 125.026C205.122 125.182 204.506 125.26 203.83 125.26C202.634 125.26 201.577 125.009 200.658 124.506C199.74 123.986 199.038 123.232 198.552 122.244C198.292 121.707 198.102 121.117 197.98 120.476C197.859 119.817 197.798 119.107 197.798 118.344C197.798 115.9 198.353 114.019 199.462 112.702C200.572 111.367 202.097 110.7 204.038 110.7C205.824 110.7 207.193 111.255 208.146 112.364C209.1 113.456 209.576 114.973 209.576 116.914C209.576 117.087 209.568 117.252 209.55 117.408C209.55 117.547 209.533 117.789 209.498 118.136H200.424ZM203.882 112.104C201.802 112.104 200.658 113.69 200.45 116.862H206.95V116.004C206.95 114.756 206.682 113.794 206.144 113.118C205.624 112.442 204.87 112.104 203.882 112.104ZM210.953 111.324L213.475 110.96L213.813 107.684L215.997 107.372V110.96H219.325V112.26H215.997V121.542C215.997 122.131 216.005 122.539 216.023 122.764C216.04 122.972 216.075 123.145 216.127 123.284C216.179 123.423 216.274 123.509 216.413 123.544C216.551 123.579 216.777 123.596 217.089 123.596H218.909V124.35C218.077 124.662 217.34 124.887 216.699 125.026C216.075 125.182 215.572 125.26 215.191 125.26C214.411 125.26 213.908 124.939 213.683 124.298C213.596 124.09 213.535 123.83 213.501 123.518C213.483 123.189 213.475 122.695 213.475 122.036V112.26H210.953V111.324ZM234.493 124.376C234.129 125.381 233.791 126.239 233.479 126.95C233.185 127.661 232.873 128.233 232.543 128.666C232.214 129.117 231.841 129.437 231.425 129.628C231.027 129.836 230.541 129.94 229.969 129.94C229.553 129.94 229.163 129.879 228.799 129.758C228.453 129.654 228.141 129.498 227.863 129.29C227.603 129.082 227.395 128.839 227.239 128.562C227.083 128.285 227.005 127.981 227.005 127.652C227.005 127.167 227.144 126.759 227.421 126.43C227.699 126.118 228.063 125.962 228.513 125.962C228.912 125.962 229.224 126.066 229.449 126.274C229.692 126.499 229.813 126.803 229.813 127.184C229.813 127.427 229.761 127.661 229.657 127.886C229.571 128.111 229.449 128.311 229.293 128.484C229.328 128.675 229.423 128.796 229.579 128.848C229.753 128.9 229.909 128.926 230.047 128.926C230.221 128.926 230.385 128.9 230.541 128.848C230.715 128.796 230.879 128.666 231.035 128.458C231.209 128.267 231.382 127.99 231.555 127.626C231.746 127.262 231.945 126.768 232.153 126.144L232.465 125.182L227.083 112.52L225.523 112.026V110.96H231.347L231.555 112.026L229.709 112.52L233.583 122.712H233.687L236.963 112.52L235.455 112.026V110.96H240.395V112.026L238.809 112.52L234.493 124.376ZM254.159 117.85C254.159 118.994 253.985 120.069 253.639 121.074C253.309 122.079 252.841 122.911 252.235 123.57C251.212 124.697 249.704 125.26 247.711 125.26C245.769 125.26 244.287 124.714 243.265 123.622C242.675 122.981 242.216 122.192 241.887 121.256C241.575 120.303 241.419 119.271 241.419 118.162C241.419 117.018 241.583 115.935 241.913 114.912C242.242 113.889 242.719 113.049 243.343 112.39C243.897 111.801 244.539 111.376 245.267 111.116C245.995 110.839 246.844 110.7 247.815 110.7C248.768 110.7 249.626 110.839 250.389 111.116C251.151 111.376 251.793 111.783 252.313 112.338C252.919 112.979 253.379 113.785 253.691 114.756C254.003 115.709 254.159 116.741 254.159 117.85ZM244.201 117.876C244.201 119.956 244.513 121.507 245.137 122.53C245.431 122.981 245.778 123.327 246.177 123.57C246.593 123.795 247.13 123.908 247.789 123.908C248.985 123.908 249.877 123.501 250.467 122.686C250.779 122.235 251.004 121.611 251.143 120.814C251.299 120.017 251.377 119.098 251.377 118.058C251.377 115.995 251.065 114.453 250.441 113.43C250.146 112.979 249.791 112.641 249.375 112.416C248.959 112.173 248.421 112.052 247.763 112.052C246.549 112.052 245.674 112.451 245.137 113.248C244.513 114.219 244.201 115.761 244.201 117.876ZM260.373 118.318C260.373 118.873 260.382 119.358 260.399 119.774C260.417 120.19 260.434 120.545 260.451 120.84C260.486 121.135 260.529 121.386 260.581 121.594C260.633 121.802 260.703 121.984 260.789 122.14C261.188 122.989 261.916 123.414 262.973 123.414C263.441 123.414 263.892 123.327 264.325 123.154C264.759 122.981 265.14 122.747 265.469 122.452C265.851 122.105 266.128 121.707 266.301 121.256C266.492 120.788 266.605 120.19 266.639 119.462V112.52L264.377 112.026V110.96H269.161V123.44L271.163 123.934V125L267.133 125.26L266.847 122.4H266.743C266.241 123.284 265.556 123.986 264.689 124.506C263.823 125.009 262.895 125.26 261.907 125.26C261.249 125.26 260.642 125.139 260.087 124.896C259.55 124.653 259.125 124.307 258.813 123.856C258.467 123.371 258.215 122.695 258.059 121.828C257.921 120.944 257.851 119.757 257.851 118.266V112.52L256.109 112.026V110.96H260.373V118.318ZM280.571 112.468C280.415 112.364 280.241 112.312 280.051 112.312C279.721 112.312 279.375 112.52 279.011 112.936C278.647 113.335 278.326 113.846 278.049 114.47C277.806 115.059 277.615 115.709 277.477 116.42C277.338 117.113 277.269 117.833 277.269 118.578V123.44L280.077 123.934V125H272.745V123.934L274.747 123.44V112.52L272.745 112.026V110.96H276.489L277.061 114.392H277.165C277.563 113.213 278.092 112.303 278.751 111.662C279.427 111.021 280.181 110.7 281.013 110.7C281.689 110.7 282.252 110.917 282.703 111.35C283.153 111.766 283.379 112.329 283.379 113.04C283.379 113.56 283.24 113.976 282.963 114.288C282.703 114.583 282.347 114.73 281.897 114.73C281.446 114.73 281.091 114.591 280.831 114.314C280.571 114.019 280.441 113.638 280.441 113.17C280.441 113.066 280.449 112.971 280.467 112.884C280.484 112.797 280.519 112.659 280.571 112.468ZM191.43 147.85C191.43 148.994 191.265 150.069 190.936 151.074C190.607 152.062 190.147 152.894 189.558 153.57C188.587 154.697 187.192 155.26 185.372 155.26C184.488 155.26 183.699 155.061 183.006 154.662C182.313 154.246 181.697 153.483 181.16 152.374L180.38 155H179.158V136.28L177.156 135.786V134.72H181.68V142.468C182.2 141.809 182.781 141.35 183.422 141.09C184.063 140.83 184.783 140.7 185.58 140.7C186.464 140.7 187.261 140.83 187.972 141.09C188.7 141.35 189.289 141.766 189.74 142.338C190.277 142.997 190.693 143.803 190.988 144.756C191.283 145.709 191.43 146.741 191.43 147.85ZM181.68 147.876C181.68 150.008 181.983 151.559 182.59 152.53C182.867 152.981 183.205 153.327 183.604 153.57C184.003 153.795 184.531 153.908 185.19 153.908C186.369 153.908 187.244 153.501 187.816 152.686C188.128 152.235 188.353 151.611 188.492 150.814C188.631 150.017 188.7 149.098 188.7 148.058C188.7 145.978 188.397 144.435 187.79 143.43C187.495 142.979 187.149 142.641 186.75 142.416C186.351 142.173 185.823 142.052 185.164 142.052C184.557 142.052 184.037 142.156 183.604 142.364C183.171 142.555 182.833 142.849 182.59 143.248C182.295 143.733 182.07 144.366 181.914 145.146C181.758 145.909 181.68 146.819 181.68 147.876ZM206.551 147.85C206.551 148.994 206.378 150.069 206.031 151.074C205.702 152.079 205.234 152.911 204.627 153.57C203.605 154.697 202.097 155.26 200.103 155.26C198.162 155.26 196.68 154.714 195.657 153.622C195.068 152.981 194.609 152.192 194.279 151.256C193.967 150.303 193.811 149.271 193.811 148.162C193.811 147.018 193.976 145.935 194.305 144.912C194.635 143.889 195.111 143.049 195.735 142.39C196.29 141.801 196.931 141.376 197.659 141.116C198.387 140.839 199.237 140.7 200.207 140.7C201.161 140.7 202.019 140.839 202.781 141.116C203.544 141.376 204.185 141.783 204.705 142.338C205.312 142.979 205.771 143.785 206.083 144.756C206.395 145.709 206.551 146.741 206.551 147.85ZM196.593 147.876C196.593 149.956 196.905 151.507 197.529 152.53C197.824 152.981 198.171 153.327 198.569 153.57C198.985 153.795 199.523 153.908 200.181 153.908C201.377 153.908 202.27 153.501 202.859 152.686C203.171 152.235 203.397 151.611 203.535 150.814C203.691 150.017 203.769 149.098 203.769 148.058C203.769 145.995 203.457 144.453 202.833 143.43C202.539 142.979 202.183 142.641 201.767 142.416C201.351 142.173 200.814 142.052 200.155 142.052C198.942 142.052 198.067 142.451 197.529 143.248C196.905 144.219 196.593 145.761 196.593 147.876ZM215.22 146.654L218.262 142.52L216.702 142.026V140.96H221.59V142.026L220.108 142.52L215.896 147.538L220.498 153.466L221.928 153.934V155H216.234V153.934L217.716 153.44L214.362 149.124L211.138 153.44L212.698 153.934V155H207.81V153.934L209.266 153.44L213.686 148.24L209.266 142.52L207.81 142.026V140.96H213.192V142.026L212.048 142.52L215.22 146.654ZM225.392 151.932C225.947 151.932 226.38 152.131 226.692 152.53C227.021 152.911 227.186 153.431 227.186 154.09C227.186 155.026 226.926 155.875 226.406 156.638C225.886 157.418 225.071 158.163 223.962 158.874L223.39 158.224C224.135 157.617 224.716 157.045 225.132 156.508C225.548 155.971 225.773 155.494 225.808 155.078L225.704 155C225.669 155.069 225.583 155.121 225.444 155.156C225.323 155.208 225.193 155.234 225.054 155.234C224.655 155.234 224.326 155.087 224.066 154.792C223.823 154.48 223.702 154.09 223.702 153.622C223.702 153.119 223.858 152.712 224.17 152.4C224.482 152.088 224.889 151.932 225.392 151.932ZM184.852 170.7C186.36 170.7 187.556 171.073 188.44 171.818C189.341 172.546 189.792 173.525 189.792 174.756C189.792 176.091 189.255 176.758 188.18 176.758C187.677 176.758 187.287 176.619 187.01 176.342C186.733 176.065 186.594 175.692 186.594 175.224C186.594 174.791 186.707 174.418 186.932 174.106C187.175 173.794 187.495 173.577 187.894 173.456C187.391 172.503 186.429 172.026 185.008 172.026C183.587 172.026 182.547 172.485 181.888 173.404C181.247 174.323 180.926 175.77 180.926 177.746C180.926 179.393 181.151 180.649 181.602 181.516C182.295 182.851 183.431 183.518 185.008 183.518C185.805 183.518 186.568 183.345 187.296 182.998C188.024 182.651 188.648 182.157 189.168 181.516L189.948 182.14C189.255 183.215 188.457 184.003 187.556 184.506C186.655 185.009 185.597 185.26 184.384 185.26C183.171 185.26 182.113 185.017 181.212 184.532C180.328 184.029 179.635 183.301 179.132 182.348C178.837 181.793 178.603 181.161 178.43 180.45C178.274 179.722 178.196 178.951 178.196 178.136C178.196 177.009 178.352 175.995 178.664 175.094C178.976 174.175 179.418 173.395 179.99 172.754C180.579 172.095 181.281 171.593 182.096 171.246C182.928 170.882 183.847 170.7 184.852 170.7ZM204.875 177.85C204.875 178.994 204.702 180.069 204.355 181.074C204.026 182.079 203.558 182.911 202.951 183.57C201.929 184.697 200.421 185.26 198.427 185.26C196.486 185.26 195.004 184.714 193.981 183.622C193.392 182.981 192.933 182.192 192.603 181.256C192.291 180.303 192.135 179.271 192.135 178.162C192.135 177.018 192.3 175.935 192.629 174.912C192.959 173.889 193.435 173.049 194.059 172.39C194.614 171.801 195.255 171.376 195.983 171.116C196.711 170.839 197.561 170.7 198.531 170.7C199.485 170.7 200.343 170.839 201.105 171.116C201.868 171.376 202.509 171.783 203.029 172.338C203.636 172.979 204.095 173.785 204.407 174.756C204.719 175.709 204.875 176.741 204.875 177.85ZM194.917 177.876C194.917 179.956 195.229 181.507 195.853 182.53C196.148 182.981 196.495 183.327 196.893 183.57C197.309 183.795 197.847 183.908 198.505 183.908C199.701 183.908 200.594 183.501 201.183 182.686C201.495 182.235 201.721 181.611 201.859 180.814C202.015 180.017 202.093 179.098 202.093 178.058C202.093 175.995 201.781 174.453 201.157 173.43C200.863 172.979 200.507 172.641 200.091 172.416C199.675 172.173 199.138 172.052 198.479 172.052C197.266 172.052 196.391 172.451 195.853 173.248C195.229 174.219 194.917 175.761 194.917 177.876ZM209.01 172.52L207.008 172.026V170.96H210.752L211.324 173.56H211.428C211.948 172.676 212.642 171.983 213.508 171.48C214.392 170.96 215.346 170.7 216.368 170.7C217.062 170.7 217.686 170.821 218.24 171.064C218.795 171.307 219.237 171.653 219.566 172.104C219.913 172.589 220.156 173.274 220.294 174.158C220.45 175.025 220.528 176.203 220.528 177.694V183.44L222.53 183.934V185H216.264V183.934L218.006 183.44V177.642C218.006 176.533 217.972 175.701 217.902 175.146C217.85 174.574 217.746 174.132 217.59 173.82C217.157 172.971 216.394 172.546 215.302 172.546C214.817 172.546 214.349 172.633 213.898 172.806C213.448 172.979 213.049 173.213 212.702 173.508C212.321 173.855 212.035 174.262 211.844 174.73C211.671 175.181 211.567 175.77 211.532 176.498V183.44L213.274 183.934V185H207.008V183.934L209.01 183.44V172.52ZM223.343 171.324L225.865 170.96L226.203 167.684L228.387 167.372V170.96H231.715V172.26H228.387V181.542C228.387 182.131 228.396 182.539 228.413 182.764C228.431 182.972 228.465 183.145 228.517 183.284C228.569 183.423 228.665 183.509 228.803 183.544C228.942 183.579 229.167 183.596 229.479 183.596H231.299V184.35C230.467 184.662 229.731 184.887 229.089 185.026C228.465 185.182 227.963 185.26 227.581 185.26C226.801 185.26 226.299 184.939 226.073 184.298C225.987 184.09 225.926 183.83 225.891 183.518C225.874 183.189 225.865 182.695 225.865 182.036V172.26H223.343V171.324ZM232.959 181.958C232.959 181.282 233.106 180.684 233.401 180.164C233.713 179.644 234.198 179.185 234.857 178.786C235.515 178.37 236.365 178.015 237.405 177.72C238.445 177.425 239.693 177.165 241.149 176.94C241.062 175.917 240.958 175.12 240.837 174.548C240.733 173.976 240.585 173.517 240.395 173.17C240.152 172.719 239.814 172.39 239.381 172.182C238.947 171.957 238.479 171.844 237.977 171.844C237.491 171.844 237.049 171.931 236.651 172.104C236.269 172.277 236.009 172.511 235.871 172.806C236.113 172.997 236.287 173.231 236.391 173.508C236.512 173.768 236.573 174.019 236.573 174.262C236.573 174.695 236.425 175.042 236.131 175.302C235.853 175.545 235.507 175.666 235.091 175.666C234.675 175.666 234.328 175.527 234.051 175.25C233.791 174.973 233.661 174.583 233.661 174.08C233.661 173.543 233.808 173.066 234.103 172.65C234.397 172.217 234.779 171.861 235.247 171.584C235.732 171.289 236.269 171.073 236.859 170.934C237.465 170.778 238.063 170.7 238.653 170.7C240.126 170.7 241.287 171.125 242.137 171.974C243.211 173.049 243.749 174.955 243.749 177.694V181.464C243.749 182.331 243.801 182.929 243.905 183.258C244.026 183.57 244.277 183.726 244.659 183.726H245.829V184.506C244.581 185.009 243.61 185.26 242.917 185.26C242.657 185.26 242.44 185.217 242.267 185.13C242.093 185.043 241.955 184.896 241.851 184.688C241.747 184.463 241.669 184.168 241.617 183.804C241.582 183.44 241.565 182.981 241.565 182.426H241.461C240.923 183.31 240.213 184.003 239.329 184.506C238.445 185.009 237.491 185.26 236.469 185.26C235.377 185.26 234.519 184.974 233.895 184.402C233.271 183.813 232.959 182.998 232.959 181.958ZM237.561 183.752C238.046 183.752 238.549 183.631 239.069 183.388C239.606 183.128 240.057 182.773 240.421 182.322C240.958 181.663 241.227 180.693 241.227 179.41C241.227 179.115 241.218 178.829 241.201 178.552C241.183 178.257 241.157 177.98 241.123 177.72C240.065 177.928 239.181 178.145 238.471 178.37C237.777 178.595 237.214 178.855 236.781 179.15C236.365 179.427 236.07 179.757 235.897 180.138C235.723 180.502 235.637 180.927 235.637 181.412C235.637 182.157 235.801 182.738 236.131 183.154C236.477 183.553 236.954 183.752 237.561 183.752ZM253.788 170.7C255.296 170.7 256.492 171.073 257.376 171.818C258.277 172.546 258.728 173.525 258.728 174.756C258.728 176.091 258.19 176.758 257.116 176.758C256.613 176.758 256.223 176.619 255.946 176.342C255.668 176.065 255.53 175.692 255.53 175.224C255.53 174.791 255.642 174.418 255.868 174.106C256.11 173.794 256.431 173.577 256.83 173.456C256.327 172.503 255.365 172.026 253.944 172.026C252.522 172.026 251.482 172.485 250.824 173.404C250.182 174.323 249.862 175.77 249.862 177.746C249.862 179.393 250.087 180.649 250.538 181.516C251.231 182.851 252.366 183.518 253.944 183.518C254.741 183.518 255.504 183.345 256.232 182.998C256.96 182.651 257.584 182.157 258.104 181.516L258.884 182.14C258.19 183.215 257.393 184.003 256.492 184.506C255.59 185.009 254.533 185.26 253.32 185.26C252.106 185.26 251.049 185.017 250.148 184.532C249.264 184.029 248.57 183.301 248.068 182.348C247.773 181.793 247.539 181.161 247.366 180.45C247.21 179.722 247.132 178.951 247.132 178.136C247.132 177.009 247.288 175.995 247.6 175.094C247.912 174.175 248.354 173.395 248.926 172.754C249.515 172.095 250.217 171.593 251.032 171.246C251.864 170.882 252.782 170.7 253.788 170.7ZM260.109 171.324L262.631 170.96L262.969 167.684L265.153 167.372V170.96H268.481V172.26H265.153V181.542C265.153 182.131 265.162 182.539 265.179 182.764C265.196 182.972 265.231 183.145 265.283 183.284C265.335 183.423 265.43 183.509 265.569 183.544C265.708 183.579 265.933 183.596 266.245 183.596H268.065V184.35C267.233 184.662 266.496 184.887 265.855 185.026C265.231 185.182 264.728 185.26 264.347 185.26C263.567 185.26 263.064 184.939 262.839 184.298C262.752 184.09 262.692 183.83 262.657 183.518C262.64 183.189 262.631 182.695 262.631 182.036V172.26H260.109V171.324ZM177.468 201.324L179.99 200.96V200.7C179.99 198.707 180.423 197.173 181.29 196.098C182.157 195.006 183.327 194.46 184.8 194.46C185.84 194.46 186.663 194.711 187.27 195.214C187.877 195.699 188.18 196.323 188.18 197.086C188.18 197.571 188.059 197.944 187.816 198.204C187.573 198.447 187.244 198.568 186.828 198.568C186.429 198.568 186.109 198.455 185.866 198.23C185.623 198.005 185.502 197.684 185.502 197.268C185.502 196.817 185.641 196.367 185.918 195.916C185.623 195.604 185.225 195.448 184.722 195.448C184.323 195.448 183.977 195.535 183.682 195.708C183.387 195.881 183.162 196.107 183.006 196.384C182.85 196.661 182.729 196.982 182.642 197.346C182.573 197.693 182.529 198.065 182.512 198.464C182.512 198.845 182.512 199.244 182.512 199.66V200.96H185.84V202.26H182.512V213.44L185.32 213.934V215H177.988V213.934L179.99 213.44V202.26H177.468V201.324ZM195.207 202.468C195.051 202.364 194.878 202.312 194.687 202.312C194.358 202.312 194.011 202.52 193.647 202.936C193.283 203.335 192.963 203.846 192.685 204.47C192.443 205.059 192.252 205.709 192.113 206.42C191.975 207.113 191.905 207.833 191.905 208.578V213.44L194.713 213.934V215H187.381V213.934L189.383 213.44V202.52L187.381 202.026V200.96H191.125L191.697 204.392H191.801C192.2 203.213 192.729 202.303 193.387 201.662C194.063 201.021 194.817 200.7 195.649 200.7C196.325 200.7 196.889 200.917 197.339 201.35C197.79 201.766 198.015 202.329 198.015 203.04C198.015 203.56 197.877 203.976 197.599 204.288C197.339 204.583 196.984 204.73 196.533 204.73C196.083 204.73 195.727 204.591 195.467 204.314C195.207 204.019 195.077 203.638 195.077 203.17C195.077 203.066 195.086 202.971 195.103 202.884C195.121 202.797 195.155 202.659 195.207 202.468ZM202.075 208.136C202.075 209.401 202.248 210.45 202.595 211.282C202.941 212.097 203.427 212.677 204.051 213.024C204.692 213.353 205.394 213.518 206.157 213.518C206.989 213.518 207.734 213.353 208.393 213.024C209.069 212.677 209.675 212.209 210.213 211.62L211.045 212.244C210.733 212.66 210.395 213.05 210.031 213.414C209.684 213.778 209.285 214.099 208.835 214.376C208.384 214.653 207.881 214.87 207.327 215.026C206.772 215.182 206.157 215.26 205.481 215.26C204.285 215.26 203.227 215.009 202.309 214.506C201.39 213.986 200.688 213.232 200.203 212.244C199.943 211.707 199.752 211.117 199.631 210.476C199.509 209.817 199.449 209.107 199.449 208.344C199.449 205.9 200.003 204.019 201.113 202.702C202.222 201.367 203.747 200.7 205.689 200.7C207.474 200.7 208.843 201.255 209.797 202.364C210.75 203.456 211.227 204.973 211.227 206.914C211.227 207.087 211.218 207.252 211.201 207.408C211.201 207.547 211.183 207.789 211.149 208.136H202.075ZM205.533 202.104C203.453 202.104 202.309 203.69 202.101 206.862H208.601V206.004C208.601 204.756 208.332 203.794 207.795 203.118C207.275 202.442 206.521 202.104 205.533 202.104ZM216.217 208.136C216.217 209.401 216.39 210.45 216.737 211.282C217.084 212.097 217.569 212.677 218.193 213.024C218.834 213.353 219.536 213.518 220.299 213.518C221.131 213.518 221.876 213.353 222.535 213.024C223.211 212.677 223.818 212.209 224.355 211.62L225.187 212.244C224.875 212.66 224.537 213.05 224.173 213.414C223.826 213.778 223.428 214.099 222.977 214.376C222.526 214.653 222.024 214.87 221.469 215.026C220.914 215.182 220.299 215.26 219.623 215.26C218.427 215.26 217.37 215.009 216.451 214.506C215.532 213.986 214.83 213.232 214.345 212.244C214.085 211.707 213.894 211.117 213.773 210.476C213.652 209.817 213.591 209.107 213.591 208.344C213.591 205.9 214.146 204.019 215.255 202.702C216.364 201.367 217.89 200.7 219.831 200.7C221.616 200.7 222.986 201.255 223.939 202.364C224.892 203.456 225.369 204.973 225.369 206.914C225.369 207.087 225.36 207.252 225.343 207.408C225.343 207.547 225.326 207.789 225.291 208.136H216.217ZM219.675 202.104C217.595 202.104 216.451 203.69 216.243 206.862H222.743V206.004C222.743 204.756 222.474 203.794 221.937 203.118C221.417 202.442 220.663 202.104 219.675 202.104ZM229.476 209.67C229.476 208.994 229.458 208.275 229.424 207.512C229.389 206.749 229.346 206.013 229.294 205.302C229.259 204.591 229.216 203.941 229.164 203.352C229.112 202.763 229.077 202.312 229.06 202C229.008 201.359 228.938 200.735 228.852 200.128C228.765 199.504 228.722 198.828 228.722 198.1C228.722 197.493 228.843 196.999 229.086 196.618C229.346 196.219 229.736 196.02 230.256 196.02C230.793 196.02 231.166 196.228 231.374 196.644C231.582 197.043 231.686 197.519 231.686 198.074C231.686 198.802 231.642 199.478 231.556 200.102C231.469 200.726 231.4 201.359 231.348 202C231.313 202.312 231.27 202.763 231.218 203.352C231.183 203.941 231.14 204.591 231.088 205.302C231.053 206.013 231.018 206.749 230.984 207.512C230.949 208.275 230.932 208.994 230.932 209.67H229.476ZM231.816 213.648C231.816 214.168 231.677 214.567 231.4 214.844C231.122 215.121 230.732 215.26 230.23 215.26C229.727 215.26 229.328 215.121 229.034 214.844C228.739 214.549 228.592 214.151 228.592 213.648C228.592 213.145 228.73 212.747 229.008 212.452C229.302 212.157 229.701 212.01 230.204 212.01C230.706 212.01 231.096 212.157 231.374 212.452C231.668 212.747 231.816 213.145 231.816 213.648Z" fill="#AAF9CE"/>
</svg>
